<svg width="494.97" height="688.53" version="1.1" viewBox="0 0 494.96752 688.52635" xmlns="http://www.w3.org/2000/svg">
	<path d="m23.856 674.92h453.54v-674.78h-453.54z" style="fill:#fff;stroke-width:1.3333"/>
	<path d="m23.853 639.64c4.8892-54.057 12.666-77.718 12.666-77.718 4.6666-17.749 13.112-16.728 13.112-16.728 4.8879 0.20266 18.666 12.85 18.666 12.85 5.1105 4.0786 17.333 10.402 17.333 10.402 23.333 12.444 54.22 19.788 54.22 19.788 22.666 5.9158 50.223 5.5079 50.223 5.5079 67.109-3.2639 103.77-18.562 103.77-18.562 30.445-10.81 76.219-39.98 76.219-39.98 25.11-15.912 53.111-27.131 53.111-27.131 23.555-9.5878 54.208-13.666 54.208-13.666l1e-3 -258.66c-48.676 5.0999-77.765 33.658-77.765 33.658-27.777 22.03-65.332 72.21-65.332 72.21-32.889 39.983-65.998 72.422-65.998 72.422-49.999 44.06-83.331 50.384-83.331 50.384-37.554 10.81-72.22-8.5678-72.22-8.5678-28.445-12.036-56-45.898-56-45.898s-7.5558-10.404-14.444 0.81598c0 0-12.222 22.235-18.445 120.15v108.72" style="fill:#fff;stroke-width:1.3333"/>
	<path d="m23.843 243.19h453.54m-453.54 53.968h453.54m-453.54 53.967h453.54m-453.54 53.975h453.54m-453.54 53.967h453.54m-453.54 53.968h453.54m-453.54 53.967h453.54m-453.54 53.968h453.54m-453.54-404.76h453.54m-453.54 53.968h453.54m-453.54 53.967h453.54m-453.54 53.967h453.54m-453.54 53.975h453.54m-453.54 53.967h453.54m-453.54 53.968h453.54m-453.54 53.967h453.54m-453.54 53.968h453.54m-403.14 26.982v-674.18m50.392 674.18v-674.18m50.393 674.18v-674.18m50.393 674.18v-674.18m50.392 674.18v-674.18m50.393 674.18v-674.18m50.393 674.18v-674.18m50.393 674.18v-674.18m-377.95 674.18v-674.18m50.393 674.18v-674.18m50.392 674.18v-674.18m50.393 674.18v-674.18m50.393 674.18v-674.18m50.393 674.18v-674.18m50.392 674.18v-674.18m50.392 674.18v-674.18m50.393 674.18v-674.18m25.199 188.62h-453.54m453.54-54.028h-453.54m453.86-26.99h-453.52m453.2-27.011h-453.54m453.54-27.046h-453.54m453.54-53.967h-453.54m453.86 26.978h-453.52m453.2 134.89h-453.54" style="fill:none;stroke-width:.66665;stroke:#a9c0a6"/>
	<path d="m49.051 674.41v-674.18m-18.897 674.18v-674.18m6.2985 674.18v-674.18m6.2998 674.18v-674.18m31.495 674.18v-674.18m-18.897 674.18v-674.18m6.2985 674.18v-674.18m6.2985 674.18v-674.18m31.495 674.18v-674.18m-18.897 674.18v-674.18m6.2998 674.18v-674.18m6.2985 674.18v-674.18m31.495 674.18v-674.18m-18.897 674.18v-674.18m6.2985 674.18v-674.18m6.2985 674.18v-674.18m31.497 674.18v-674.18m-18.897 674.18v-674.18m6.2985 674.18v-674.18m6.2998 674.18v-674.18m31.494 674.18v-674.18m-18.897 674.18v-674.18m6.2998 674.18v-674.18m6.2972 674.18v-674.18m31.497 674.18v-674.18m-18.898 674.18v-674.18m6.2998 674.18v-674.18m6.2998 674.18v-674.18m31.495 674.18v-674.18m-18.897 674.18v-674.18m6.2985 674.18v-674.18m6.2985 674.18v-674.18m31.497 674.18v-674.18m-18.9 674.18v-674.18m6.2998 674.18v-674.18m6.2998 674.18v-674.18m31.497 674.18v-674.18m-18.898 674.18v-674.18m6.2998 674.18v-674.18m6.2985 674.18v-674.18m31.495 674.18v-674.18m-18.898 674.18v-674.18m6.2985 674.18v-674.18m6.2998 674.18v-674.18m31.497 674.18v-674.18m-18.898 674.18v-674.18m6.2998 674.18v-674.18m6.2985 674.18v-674.18m31.495 674.18v-674.18m-18.896 674.18v-674.18m6.2985 674.18v-674.18m6.2972 674.18v-674.18m31.497 674.18v-674.18m-18.898 674.18v-674.18m6.2998 674.18v-674.18m6.2985 674.18v-674.18m31.497 674.18v-674.18m-18.897 674.18v-674.18m6.2985 674.18v-674.18m6.2998 674.18v-674.18m31.494 674.18v-674.18m-18.898 674.18v-674.18m6.2998 674.18v-674.18m6.2985 674.18v-674.18m31.497 674.18v-674.18m-18.898 674.18v-674.18m6.2998 674.18v-674.18m6.2998 674.18v-674.18m12.598 674.18v-674.18m6.2972 674.18v-674.18m6.2985 674.18v-674.18" style="fill:none;stroke-width:.33332;stroke:#a9c0a6"/>
	<path d="m477.39 647.98h-453.54m453.54 21.589h-453.54m453.54-5.3972h-453.54m453.54-10.794h-453.54m453.54-32.382h-453.54m453.54 21.589h-453.54m453.54-10.794h-453.54m453.54-5.3972h-453.54m453.54-32.382h-453.54m453.54 21.587h-453.54m453.54-10.793h-453.54m453.54-5.3972h-453.54m453.54-32.382h-453.54m453.54 21.587h-453.54m453.54-5.3972h-453.54m453.54-10.793h-453.54m453.54-32.385h-453.54m453.54 16.192h-453.54m453.54-5.3972h-453.54m453.54-5.3972h-453.54m453.54-32.382h-453.54m453.54 21.589h-453.54m453.54-10.794h-453.54m453.54-5.3972h-453.54m453.54-32.382h-453.54m453.54 21.587h-453.54m453.54-10.793h-453.54m453.54-5.3972h-453.54m453.54-32.382h-453.54m453.54 21.587h-453.54m453.54-10.794h-453.54m453.54-5.3959h-453.54m453.54-32.383h-453.54m453.54 21.589h-453.54m453.54-10.794h-453.54m453.54-5.3972h-453.54m453.54-32.382h-453.54m453.54 16.192h-453.54m453.54-5.3972h-453.54m453.54-5.3972h-453.54m453.54-32.382h-453.54m453.54 21.587h-453.54m453.54-10.793h-453.54m453.54-5.3972h-453.54m453.54-32.382h-453.54m453.54 21.587h-453.54m453.54-10.794h-453.54m453.54-5.3972h-453.54m453.54-32.382h-453.54m453.54 21.589h-453.54m453.54-10.794h-453.54m453.54-5.3972h-453.54m453.54-32.382h-453.54m453.54 21.587h-453.54m453.54-10.794h-453.54m453.54-5.3972h-453.54m453.54-32.382h-453.54m453.54 21.589h-453.54m453.54-10.794h-453.54m453.54-5.3972h-453.54m453.54-32.382h-453.54m453.54 21.587h-453.54m453.54-5.3972h-453.54m453.54-10.794h-453.54m453.54-32.382h-453.54m453.54 21.589h-453.54m453.54-5.3972h-453.54m453.54-10.794h-453.54m453.54-32.382h-453.54m453.54 21.589h-453.54m453.54-10.794h-453.54m453.54-5.3972h-453.54m453.54-32.382h-453.54m453.54 21.587h-453.54m453.54-10.793h-453.54m453.54-5.3972h-453.54m453.54-16.192h-453.54m453.54-5.3972h-453.54m453.54-5.3972h-453.54m453.54-5.3972h-453.54m453.54-26.985h-453.54m453.54 16.19h-453.54m453.54-5.3959h-453.54m453.54-5.3972h-453.54m453.54-32.382h-453.54m453.54 21.587h-453.54m453.54-5.3972h-453.54m453.54-10.794h-453.54m453.54-32.382h-453.54m453.54-26.985h-453.54m453.54 21.587h-453.54m453.54-10.794h-453.54m453.54-5.3972h-453.54m453.54-10.793h-453.54m453.54-5.3972h-453.54m453.54-10.794h-453.54m453.54 70.162h-453.54m453.54-5.3972h-453.54m453.54-10.794h-453.54" style="fill:none;stroke-width:.33466;stroke:#a9c0a6"/>
	<path d="m477.39 674.97h-453.54v-674.62h453.54z" style="fill:none;stroke-width:.66665;stroke:#a9c0a6"/>
	<path d="m477.39 11.134h-453.54m453.54 32.382h-453.54m453.54 21.589h-453.54m453.54 26.985h-453.54m453.54 37.779h-453.54m453.54 26.986h-453.54m453.54 21.587h-453.54m453.54 26.986h-453.54m453.54 21.587h-453.54m453.54 26.985h-453.54m453.54 32.383h-453.54m453.54 26.985h-453.54m453.54 26.986h-453.54m453.54 26.985h-453.54m453.54 26.985h-453.54m453.54 32.383h-453.54m453.54 21.587h-453.54m453.54 26.985h-453.54m453.54 26.985h-453.54m453.54 26.986h-453.54m453.54 32.382h-453.54m453.54 16.192h-453.54m453.54 32.382h-453.54m453.54 26.986h-453.54m453.54 21.587h-453.54" style="fill:none;stroke-width:.33466;stroke:#a9c0a6"/>
	<path d="m477.39 493.89s-30.653 4.0826-54.208 13.678c0 0-28.001 11.23-53.111 27.155 0 0-45.775 29.197-76.219 40.019 0 0-36.666 15.309-103.78 18.577 0 0-27.555 0.40799-50.221-5.5132 0 0-28.998-7.3518-54.22-19.805 0 0-10.11-3.5559-17.333-10.412 0 0-13.778-12.581-18.666-12.784 0 0-5.7772-4.5306-13.112 16.664 0 0-9.9224 28.929-12.666 86.666" style="fill:none;stroke-width:.99998;stroke:#ec008c"/>
	<path d="m23.856 615.71s4.0092-71.157 14.888-98.952c0 0 5.1119-19.682 15.777-9.8331 0 0 7.7785 6.5518 12.666 11.265 0 0 22.666 21.51 72.221 35.238 0 0 41.332 15.572 119.33-10.242 0 0 34.888-11.269 70.888-35.854 0 0 46.222-33.596 68.221-47.119 0 0 31.31-20.076 79.542-26.222" style="fill:none;stroke-dasharray:3.62884261, 3.62884261;stroke-width:.99998;stroke:#ec008c"/>
	<path d="m477.39 344.77s-37.543 4.7132-65.542 21.311c0 0-27.999 16.6-48.221 36.684 0 0-48.888 45.286-66.888 58.401 0 0-30.445 25.207-81.554 44.466 0 0-29.11 10.654-61.998 7.1718 0 0-26.889-3.4839-58.665-21.515 0 0-20-12.704-30.666-24.999 0 0-12.998-18.969-19.554-8.8104 0 0-14.661 11.364-20.445 118.23" style="fill:none;stroke-dasharray:3.6292426, 3.6292426;stroke-width:.99998;stroke:#ec008c"/>
	<path d="m23.855 536.95c5.0225-100.26 18.445-126.1 18.445-126.1 5.5692-13.412 14.444-0.81998 14.444-0.81998s27.555 34.034 55.999 46.131c0 0 34.666 19.478 72.221 8.6118 0 0 33.332-6.3545 83.331-50.643 0 0 33.11-32.603 65.998-72.793 0 0 38.111-50.045 65.888-72.189 0 0 30.666-28.333 77.209-34.222" style="fill:none;stroke-width:.99998;stroke:#ec008c"/>
	<path d="m24.897 687.58-1.6106-4.1386c-0.128-0.32-0.53332-1.7293-0.53332-1.7293s0.18133 1.5266 0.18133 1.888v3.9799h-0.89598v-7.3598h0.83198l1.6106 4.1386c0.18133 0.45732 0.53332 1.728 0.53332 1.728s-0.18133-1.344-0.18133-1.888v-3.9786h0.89598v7.3598h-0.83198" style="fill:#58b14b;stroke-width:1.3333"/>
	<path d="m72.314 686.92v-0.71598c0-0.76798 0.33066-1.3533 1.1533-2.1653 0.90531-0.89598 1.1613-1.236 1.1613-1.8346 0-0.54399-0.30932-0.77865-0.81065-0.77865-0.48932 0-0.97064 0.19333-1.504 0.43866v-1.056c0.37466-0.13867 1.1093-0.352 1.5893-0.352 1.056 0 1.696 0.46799 1.696 1.6853 0 1.0346-0.47999 1.6-1.6106 2.6866-0.46932 0.47065-0.67198 0.74798-0.71465 1.152h2.4213v0.93997h-3.3812" style="fill:#58b14b;stroke-width:1.3333"/>
	<path d="m124.14 682.05-1.152 2.1866h1.5146v-2.1c0-0.40666 0.0533-0.98264 0.0533-0.98264s-0.22399 0.53332-0.41599 0.89597zm1.344 3.0079v1.9413h-0.98131v-1.9413h-2.4639v-0.59732l2.5173-4.8639h0.92798v4.6399h0.59732v0.82131h-0.59732" style="fill:#58b14b;stroke-width:1.3333"/>
	<path d="m173.88 683.17-0.18266 0.12933c0 2.1959 0.11733 2.8799 0.77865 2.8799 0.55465 0 0.72532-0.39599 0.72532-1.6333 0-1.236-0.16-1.62-0.70265-1.62-0.236 0-0.42666 0.10667-0.61866 0.244zm0.59599 3.8626c-1.396 0-1.7706-0.91865-1.7706-3.5519 0-2.2933 0.0533-4.0212 1.8346-4.0212 0.42799 0 1.036 0.18133 1.3546 0.34133v1.0226c-0.43732-0.26666-0.86398-0.42532-1.268-0.42532-0.60798 0-0.90664 0.43599-0.92931 2.0266 0.20266-0.16133 0.55599-0.36399 0.87598-0.36399 1.12 0 1.6306 0.72665 1.6306 2.4853 0 1.804-0.52132 2.4866-1.728 2.4866" style="fill:#58b14b;stroke-width:1.3333"/>
	<path d="m225.1 680.3c-0.53332 0-0.68265 0.30799-0.68265 1.1626 0 0.86264 0.14933 1.184 0.68265 1.184s0.68265-0.32133 0.68265-1.184c0-0.85465-0.14933-1.1626-0.68265-1.1626zm0 3.1679c-0.63998 0-0.78931 0.35066-0.78931 1.3533s0.14933 1.356 0.78931 1.356 0.78931-0.35333 0.78931-1.356-0.14932-1.3533-0.78931-1.3533zm0 3.5626c-1.28 0-1.7813-0.64132-1.7813-2.1866 0-0.91865 0.24533-1.5573 0.68265-1.8346-0.31999-0.27732-0.51199-0.84397-0.51199-1.5573 0-1.376 0.44799-1.9946 1.6106-1.9946s1.6106 0.61865 1.6106 1.9946c0 0.71332-0.20266 1.28-0.52266 1.5573 0.43733 0.27733 0.69332 0.91598 0.69332 1.8346 0 1.5453-0.50132 2.1866-1.7813 2.1866" style="fill:#58b14b;stroke-width:1.3333"/>
	<path d="m271.58 686.92v-0.93997h0.86264v-4.2132l-0.86264 0.39466v-0.99065l1.1626-0.60798h0.71465v5.4172h0.85197v0.93997h-2.7293" style="fill:#58b14b;stroke-width:1.3333"/>
	<path d="m277.29 681.34c-0.67198 0-0.81064 0.46798-0.81064 2.3999 0 1.9306 0.13866 2.3999 0.81064 2.3999 0.68399 0 0.81065-0.46933 0.81065-2.3999 0-1.932-0.12666-2.3999-0.81065-2.3999zm0 5.6852c-1.3013 0-1.8133-0.79998-1.8133-3.2852 0-2.4866 0.51199-3.2853 1.8133-3.2853s1.824 0.79865 1.824 3.2853c0 2.4853-0.52266 3.2852-1.824 3.2852" style="fill:#58b14b;stroke-width:1.3333"/>
	<path d="m322.71 686.92v-0.93997h0.86398v-4.2132l-0.86398 0.39466v-0.99065l1.1626-0.60798h0.71465v5.4172h0.85331v0.93997h-2.7306" style="fill:#58b14b;stroke-width:1.3333"/>
	<path d="m326.59 686.92v-0.71598c0-0.76798 0.33066-1.3533 1.152-2.1653 0.90664-0.89598 1.1626-1.236 1.1626-1.8346 0-0.54399-0.30933-0.77865-0.81065-0.77865-0.49066 0-0.96931 0.19333-1.504 0.43866v-1.056c0.37332-0.13867 1.1093-0.352 1.5906-0.352 1.056 0 1.6946 0.46799 1.6946 1.6853 0 1.0346-0.47866 1.6-1.6106 2.6866-0.46932 0.47065-0.67198 0.74798-0.71465 1.152h2.4213v0.93997h-3.3812" style="fill:#58b14b;stroke-width:1.3333"/>
	<path d="m373.26 686.92v-0.93997h0.86531v-4.2132l-0.86531 0.39466v-0.99065l1.1626-0.60798h0.71465v5.4172h0.85332v0.93997h-2.7306" style="fill:#58b14b;stroke-width:1.3333"/>
	<path d="m378.75 682.98-1.152 2.1853h1.5146v-2.0999c0-0.40666 0.0533-0.98131 0.0533-0.98131s-0.22399 0.53198-0.41599 0.89598zm1.344 3.0066v1.9413h-0.98131v-1.9413h-2.4639v-0.59732l2.5173-4.8626h0.92798v4.6386h0.59732v0.82132h-0.59732" style="fill:#58b14b;stroke-width:1.3333"/>
	<path d="m423.46 686.92v-0.93997h0.86398v-4.2132l-0.86398 0.39466v-0.99065l1.1626-0.60798h0.71465v5.4172h0.85464v0.93997h-2.7319" style="fill:#58b14b;stroke-width:1.3333"/>
	<path d="m428.6 683.17-0.18133 0.12933c0 2.1959 0.11733 2.8799 0.77865 2.8799 0.55465 0 0.72531-0.39599 0.72531-1.6333 0-1.236-0.15999-1.62-0.70398-1.62-0.23466 0-0.42665 0.10667-0.61865 0.244zm0.59732 3.8626c-1.3973 0-1.7706-0.91865-1.7706-3.5519 0-2.2933 0.0533-4.0212 1.8346-4.0212 0.42665 0 1.0346 0.18133 1.3546 0.34133v1.0226c-0.43732-0.26666-0.86398-0.42532-1.2693-0.42532-0.60799 0-0.90665 0.43599-0.92798 2.0266 0.20266-0.16133 0.55465-0.36399 0.87465-0.36399 1.12 0 1.632 0.72665 1.632 2.4853 0 1.804-0.52266 2.4866-1.728 2.4866" style="fill:#58b14b;stroke-width:1.3333"/>
	<path d="m472.77 686.92v-0.93997h0.86398v-4.2132l-0.86398 0.39466v-0.99065l1.1626-0.60798h0.71465v5.4172h0.85331v0.93997h-2.7306" style="fill:#58b14b;stroke-width:1.3333"/>
	<path d="m478.43 680.3c-0.53332 0-0.68398 0.30799-0.68398 1.1626 0 0.86264 0.15066 1.184 0.68398 1.184 0.53199 0 0.68265-0.32133 0.68265-1.184 0-0.85465-0.15066-1.1626-0.68265-1.1626zm0 3.1679c-0.63998 0-0.79065 0.35066-0.79065 1.3533s0.15067 1.356 0.79065 1.356 0.78931-0.35333 0.78931-1.356-0.14933-1.3533-0.78931-1.3533zm0 3.5626c-1.28 0-1.7813-0.64132-1.7813-2.1866 0-0.91865 0.24533-1.5573 0.68265-1.8346-0.31999-0.27732-0.51199-0.84397-0.51199-1.5573 0-1.376 0.44799-1.9946 1.6106-1.9946s1.6106 0.61865 1.6106 1.9946c0 0.71332-0.20266 1.28-0.52399 1.5573 0.43866 0.27733 0.69465 0.91598 0.69465 1.8346 0 1.5453-0.50132 2.1866-1.7813 2.1866" style="fill:#58b14b;stroke-width:1.3333"/>
	<path d="m485.31 684.5h-0.49066c-0.64931 0-0.85331 0.42665-0.85331 0.99197 0 0.52399 0.18133 0.73732 0.47066 0.73732 0.20133 0 0.42532-0.11867 0.65998-0.37333l0.21333-0.21332zm0.39466 2.4226c-0.0947-0.12799-0.19067-0.32132-0.26533-0.56532l-0.16 0.17067c-0.36399 0.41465-0.76798 0.49065-1.0453 0.49065-0.75865 0-1.196-0.53465-1.196-1.5266 0-1.0973 0.60798-1.7813 1.7066-1.7813h0.56532v-0.63865c0-0.53465-0.26533-0.72531-0.67198-0.72531-0.49066 0-0.92665 0.18133-1.376 0.46799v-0.99198c0.34266-0.13733 0.91864-0.34132 1.4626-0.34132 1.0453 0 1.5773 0.45865 1.5773 1.708v2.2386c0 0.53466 0.0333 1.1733 0.10667 1.4946h-0.70398" style="fill:#58b14b;stroke-width:1.3333"/>
	<path d="m489.95 686.92v-3.9572c0-0.42799-0.11733-0.58799-0.34132-0.58799-0.17066 0-0.34133 0.10667-0.64132 0.44799l-0.38399 0.42799v3.6692h-0.99197v-3.8399c0-0.53465-0.0307-1.1533-0.10667-1.4933h0.70398c0.0973 0.116 0.224 0.43733 0.31066 0.78798l0.34133-0.35065c0.33066-0.34133 0.69198-0.54532 1.0653-0.54532 0.83198 0 1.036 0.61865 1.036 1.5906v3.8506h-0.99198" style="fill:#58b14b;stroke-width:1.3333"/>
	<path d="m493.33 687.03c-0.57731 0-1.0026-0.128-1.3133-0.24666v-0.95998c0.44799 0.224 0.87598 0.35333 1.324 0.35333 0.39466 0 0.73465-0.16 0.73465-0.80132 0-0.61732-0.26666-0.74531-0.74532-0.74531-0.80131 0-1.484-0.23466-1.484-1.6333 0-1.1506 0.61865-1.5146 1.5573-1.5146 0.38532 0 0.95997 0.13999 1.28 0.26799v0.94931c-0.45732-0.25733-0.87464-0.37466-1.3-0.37466-0.36399 0-0.64132 0.12933-0.64132 0.67198 0 0.56666 0.21466 0.69465 0.61865 0.69465 0.77865 0 1.6106 0.23333 1.6106 1.684 0 1.2493-0.71465 1.6546-1.6413 1.6546" style="fill:#58b14b;stroke-width:1.3333"/>
	<path d="m47.518 686.92v-0.93997h0.86398v-4.2132l-0.86398 0.39466v-0.99065l1.1626-0.60798h0.71332v5.4172h0.85465v0.93997h-2.7306" style="fill:#58b14b;stroke-width:1.3333"/>
	<path d="m99.534 686.74c-0.57598 0-1.1413-0.16-1.4506-0.288v-1.0346c0.38399 0.21333 0.94931 0.38399 1.3653 0.38399 0.58665 0 0.97064-0.23466 0.97064-1.28 0-1.0773-0.43732-1.3226-1.056-1.3226h-0.73598v-0.89597h0.72532c0.57599 0 0.92798-0.204 0.92798-1.12 0-0.90664-0.35199-1.0666-0.84265-1.0666-0.41599 0-0.92798 0.148-1.3013 0.33066v-1.0253c0.26666-0.0947 0.88531-0.25466 1.3866-0.25466 1.0453 0 1.7386 0.35199 1.7386 2.016 0 0.81065-0.20266 1.312-0.58666 1.5573 0.46933 0.24399 0.74665 0.79864 0.74665 1.7706 0 1.812-0.72531 2.2293-1.888 2.2293" style="fill:#58b14b;stroke-width:1.3333"/>
	<path d="m149.01 686.74c-0.54399 0-1.0773-0.18133-1.344-0.31066v-1.0333c0.37333 0.224 0.84265 0.40532 1.2586 0.40532 0.58665 0 0.91731-0.22399 0.91731-1.3013 0-1.056-0.31999-1.312-0.87465-1.312h-1.28v-3.9146h2.9866v0.94931h-2.048v2.0693h0.53332c0.98131 0 1.6746 0.39466 1.6746 2.1959 0 1.804-0.70398 2.252-1.824 2.252" style="fill:#58b14b;stroke-width:1.3333"/>
	<path d="m200.53 683.26c-0.44799 0.74532-0.62932 1.172-0.62932 2.4733v1.088h-0.9813v-1.088c0-1.7053 0.40532-2.4106 0.81064-3.0386 0.42666-0.66131 0.67199-1.0893 0.68265-2.0693v-0.21333h-2.3466v-0.94931h3.3279v0.72532c0 1.7706-0.43732 2.3999-0.86398 3.0719" style="fill:#58b14b;stroke-width:1.3333"/>
	<path d="m250.69 683.21 0.18133-0.12666c0-2.1986-0.11733-2.8813-0.77865-2.8813-0.55465 0-0.72532 0.39465-0.72532 1.632 0 1.2386 0.16 1.6226 0.70399 1.6226 0.23466 0 0.42665-0.10666 0.61865-0.24666zm-0.59732-3.8599c1.3973 0 1.7706 0.91598 1.7706 3.5519 0 2.2933-0.0533 4.0199-1.8346 4.0199-0.42665 0-1.0346-0.18-1.3546-0.33999v-1.0253c0.43732 0.26666 0.86398 0.42666 1.2693 0.42666 0.60798 0 0.90664-0.43733 0.92798-2.0253-0.20266 0.15867-0.55466 0.36133-0.87465 0.36133-1.12 0-1.632-0.72532-1.632-2.4853 0-1.8026 0.52266-2.4839 1.728-2.4839" style="fill:#58b14b;stroke-width:1.3333"/>
	<path d="m297.9 686.92v-0.93997h0.86265v-4.2132l-0.86265 0.39466v-0.99065l1.1626-0.60798h0.71465v5.4172h0.85198v0.93997h-2.7293" style="fill:#58b14b;stroke-width:1.3333"/>
	<path d="m301.79 686.92v-0.93997h0.86264v-4.2132l-0.86264 0.39466v-0.99065l1.1626-0.60798h0.71465v5.4172h0.85198v0.93997h-2.7293" style="fill:#58b14b;stroke-width:1.3333"/>
	<path d="m348.4 686.92v-0.93997h0.86265v-4.2132l-0.86265 0.39466v-0.99065l1.1626-0.60798h0.71465v5.4172h0.85198v0.93997h-2.7293" style="fill:#58b14b;stroke-width:1.3333"/>
	<path d="m353.48 688.03c-0.57465 0-1.14-0.16133-1.4506-0.28799v-1.036c0.38399 0.21466 0.94931 0.38399 1.3666 0.38399 0.58532 0 0.96931-0.23333 0.96931-1.28 0-1.076-0.43732-1.3226-1.056-1.3226h-0.73465v-0.89598h0.72398c0.57598 0 0.92931-0.20266 0.92931-1.1186 0-0.90664-0.35333-1.0666-0.84398-1.0666-0.41599 0-0.92664 0.148-1.3013 0.33066v-1.0253c0.26799-0.0947 0.88531-0.25467 1.3866-0.25467 1.0466 0 1.7386 0.352 1.7386 2.016 0 0.81065-0.20132 1.312-0.58531 1.5573 0.46798 0.24399 0.74531 0.79865 0.74531 1.7706 0 1.812-0.72531 2.2293-1.888 2.2293" style="fill:#58b14b;stroke-width:1.3333"/>
	<path d="m398.16 687.42v-0.93998h0.86265v-4.2132l-0.86265 0.39465v-0.99064l1.1626-0.60798h0.71465v5.4172h0.85331v0.93998h-2.7306" style="fill:#58b14b;stroke-width:1.3333"/>
	<path d="m403.44 688.53c-0.54399 0-1.0786-0.18133-1.344-0.31066v-1.0333c0.37199 0.22399 0.84265 0.40399 1.2573 0.40399 0.58799 0 0.91865-0.22399 0.91865-1.3 0-1.056-0.31999-1.3133-0.87465-1.3133h-1.28v-3.9132h2.9866v0.94931h-2.048v2.0693h0.53199c0.9813 0 1.676 0.39465 1.676 2.1959 0 1.804-0.70398 2.252-1.824 2.252" style="fill:#58b14b;stroke-width:1.3333"/>
	<path d="m448.86 686.92v-0.93997h0.86531v-4.2132l-0.86531 0.39466v-0.99065l1.164-0.60798h0.71465v5.4172h0.85198v0.93997h-2.7306" style="fill:#58b14b;stroke-width:1.3333"/>
	<path d="m454.8 684.36c-0.44798 0.74531-0.62798 1.172-0.62798 2.4733v1.088h-0.98264v-1.088c0-1.7053 0.40532-2.4106 0.81198-3.0386 0.42532-0.66132 0.67198-1.0893 0.68131-2.0693v-0.21333h-2.3453v-0.94931h3.3279v0.72531c0 1.7706-0.43733 2.3999-0.86532 3.0719" style="fill:#58b14b;stroke-width:1.3333"/>
	<path d="m11.654 623.28v-0.87997h0.81065v-3.9492l-0.81065 0.36933v-0.93065l1.0906-0.56932h0.66932v5.0799h0.79998v0.87997h-2.5599" style="fill:#8b5ba5;stroke-width:1.3333"/>
	<path d="m15.294 623.28v-0.67065c0-0.71998 0.30932-1.2693 1.08-2.0293 0.84931-0.83998 1.0893-1.16 1.0893-1.72 0-0.50932-0.28933-0.72931-0.75998-0.72931-0.45866 0-0.90931 0.18-1.4093 0.40932v-0.99064c0.34932-0.12933 1.04-0.32932 1.4893-0.32932 0.99064 0 1.5906 0.43998 1.5906 1.58 0 0.96931-0.45066 1.5-1.5106 2.5199-0.43999 0.43999-0.62932 0.69999-0.66932 1.08h2.2693v0.87997h-3.1693" style="fill:#8b5ba5;stroke-width:1.3333"/>
	<path d="m11.594 569.5v-0.87998h0.80931v-3.9492l-0.80931 0.36932v-0.93064l1.0893-0.56932h0.67065v5.0799h0.79998v0.87998h-2.5599" style="fill:#8b5ba5;stroke-width:1.3333"/>
	<path d="m16.743 565.8-1.08 2.0506h1.42v-1.9706c0-0.37999 0.05067-0.91998 0.05067-0.91998s-0.21066 0.49999-0.39066 0.83998zm1.26 2.8199v1.82h-0.91998v-1.82h-2.3093v-0.55999l2.3599-4.5599h0.86931v4.3506h0.55999v0.76932h-0.55999" style="fill:#8b5ba5;stroke-width:1.3333"/>
	<path d="m11.508 515.71v-0.87998h0.80931v-3.9492l-0.80931 0.37066v-0.93197l1.0893-0.56799h0.67065v5.0785h0.79998v0.87998h-2.5599" style="fill:#8b5ba5;stroke-width:1.3333"/>
	<path d="m16.338 512.19-0.17066 0.12c0 2.0586 0.11066 2.6986 0.73065 2.6986 0.51999 0 0.67998-0.36932 0.67998-1.5306 0-1.16-0.14933-1.5186-0.65998-1.5186-0.21999 0-0.39999 0.1-0.57999 0.23066zm0.55999 3.6199c-1.3093 0-1.66-0.86131-1.66-3.3319 0-2.1493 0.05067-3.7692 1.72-3.7692 0.39999 0 0.97064 0.17066 1.2706 0.32132v0.95865c-0.41066-0.24933-0.81065-0.39999-1.1906-0.39999-0.56932 0-0.84931 0.41065-0.87064 1.9 0.19066-0.14933 0.52132-0.33999 0.82131-0.33999 1.0493 0 1.5293 0.67998 1.5293 2.3293 0 1.6906-0.48932 2.3319-1.62 2.3319" style="fill:#8b5ba5;stroke-width:1.3333"/>
	<path d="m11.503 461.93v-0.87997h0.81065v-3.9492l-0.81065 0.37066v-0.93198l1.0906-0.56798h0.66932v5.0785h0.79998v0.87997h-2.5599" style="fill:#8b5ba5;stroke-width:1.3333"/>
	<path d="m16.803 455.73c-0.49999 0-0.63998 0.28933-0.63998 1.0906 0 0.80931 0.14 1.1093 0.63998 1.1093 0.49999 0 0.63998-0.29999 0.63998-1.1093 0-0.80131-0.14-1.0906-0.63998-1.0906zm0 2.9706c-0.59998 0-0.73998 0.32933-0.73998 1.2693 0 0.93998 0.14 1.2693 0.73998 1.2693s0.73998-0.32933 0.73998-1.2693-0.14-1.2693-0.73998-1.2693zm0 3.3399c-1.2 0-1.6693-0.60132-1.6693-2.0506 0-0.85998 0.22933-1.46 0.63998-1.72-0.30133-0.26-0.47999-0.78932-0.47999-1.46 0-1.2906 0.41999-1.8706 1.5093-1.8706 1.0906 0 1.5106 0.57999 1.5106 1.8706 0 0.67065-0.19066 1.2-0.49065 1.46 0.41066 0.25999 0.64932 0.85997 0.64932 1.72 0 1.4493-0.46932 2.0506-1.6693 2.0506" style="fill:#8b5ba5;stroke-width:1.3333"/>
	<path d="m11.218 406.82v-0.67065c0-0.71999 0.31066-1.2706 1.08-2.0306 0.85065-0.83998 1.0906-1.16 1.0906-1.72 0-0.50932-0.29066-0.72931-0.75998-0.72931-0.45999 0-0.91064 0.17999-1.4106 0.41065v-0.99064c0.35066-0.13066 1.04-0.32932 1.4906-0.32932 0.98931 0 1.5893 0.43999 1.5893 1.5786 0 0.97065-0.44932 1.5-1.5093 2.5213-0.43999 0.43999-0.63065 0.69865-0.67065 1.0786h2.2706v0.88132h-3.1706" style="fill:#8b5ba5;stroke-width:1.3333"/>
	<path d="m17.068 401.58c-0.63065 0-0.76131 0.43999-0.76131 2.2493 0 1.8106 0.13066 2.2506 0.76131 2.2506 0.63998 0 0.75998-0.43998 0.75998-2.2506 0-1.8093-0.12-2.2493-0.75998-2.2493zm0 5.3305c-1.22 0-1.7-0.75065-1.7-3.0813 0-2.3293 0.47999-3.0786 1.7-3.0786 1.22 0 1.7093 0.74932 1.7093 3.0786 0 2.3306-0.48932 3.0813-1.7093 3.0813" style="fill:#8b5ba5;stroke-width:1.3333"/>
	<path d="m11.399 353.04v-0.67065c0-0.71998 0.30933-1.2693 1.0786-2.0306 0.85064-0.83998 1.0906-1.16 1.0906-1.72 0-0.50932-0.29066-0.72931-0.75998-0.72931-0.45999 0-0.90931 0.17999-1.4093 0.41065v-0.99064c0.34932-0.13066 1.04-0.32932 1.4893-0.32932 0.99064 0 1.5893 0.43998 1.5893 1.5786 0 0.97065-0.44932 1.5-1.5093 2.5213-0.43999 0.43999-0.63065 0.69865-0.66932 1.08h2.2693v0.87997h-3.1693" style="fill:#8b5ba5;stroke-width:1.3333"/>
	<path d="m15.538 353.04v-0.67065c0-0.71998 0.31066-1.2693 1.08-2.0306 0.85065-0.83998 1.0906-1.16 1.0906-1.72 0-0.50932-0.29066-0.72931-0.75998-0.72931-0.45999 0-0.91064 0.17999-1.4106 0.41065v-0.99064c0.35066-0.13066 1.0413-0.32932 1.4906-0.32932 0.99064 0 1.5893 0.43998 1.5893 1.5786 0 0.97065-0.44932 1.5-1.5093 2.5213-0.43999 0.43999-0.63065 0.69865-0.66932 1.08h2.2693v0.87997h-3.1706" style="fill:#8b5ba5;stroke-width:1.3333"/>
	<path d="m11.338 299.25v-0.66931c0-0.71999 0.31066-1.2706 1.08-2.0306 0.85065-0.83865 1.0906-1.16 1.0906-1.72 0-0.50932-0.28933-0.72931-0.75998-0.72931-0.45999 0-0.91064 0.17999-1.4106 0.40932v-0.98931c0.35066-0.13066 1.0413-0.33066 1.4906-0.33066 0.98931 0 1.5893 0.44133 1.5893 1.5813 0 0.96931-0.44932 1.5-1.5093 2.5186-0.43999 0.43999-0.63065 0.70132-0.67065 1.08h2.2706v0.87998h-3.1706" style="fill:#8b5ba5;stroke-width:1.3333"/>
	<path d="m16.988 295.54-1.08 2.0506h1.42v-1.9693c0-0.38132 0.04933-0.91998 0.04933-0.91998s-0.20933 0.49999-0.38932 0.83865zm1.26 2.8199v1.82h-0.91998v-1.82h-2.3106v-0.55999l2.3599-4.5599h0.87064v4.3506h0.55999v0.76932h-0.55999" style="fill:#8b5ba5;stroke-width:1.3333"/>
	<path d="m11.252 245.47v-0.66932c0-0.71998 0.31066-1.2706 1.08-2.0293 0.85065-0.83998 1.0906-1.1613 1.0906-1.72 0-0.51065-0.28933-0.73064-0.75998-0.73064-0.45999 0-0.91064 0.17999-1.4106 0.40932v-0.98931c0.35066-0.13066 1.04-0.32933 1.4906-0.32933 0.98931 0 1.5906 0.43999 1.5906 1.58 0 0.9693-0.45066 1.5-1.5106 2.5186-0.43999 0.43999-0.62932 0.70131-0.67065 1.08h2.2706v0.87998h-3.1706" style="fill:#8b5ba5;stroke-width:1.3333"/>
	<path d="m16.583 241.95-0.17066 0.12133c0 2.06 0.11066 2.6999 0.73065 2.6999 0.51999 0 0.67998-0.37066 0.67998-1.5306s-0.15066-1.52-0.65998-1.52c-0.21999 0-0.39999 0.1-0.57998 0.22933zm0.55999 3.6212c-1.3093 0-1.66-0.85998-1.66-3.3306 0-2.1506 0.04933-3.7706 1.72-3.7706 0.39999 0 0.96931 0.17066 1.2693 0.31999v0.95997c-0.40932-0.24932-0.80931-0.39865-1.1893-0.39865-0.57065 0-0.85064 0.40932-0.87064 1.8986 0.19066-0.14933 0.51999-0.33866 0.81998-0.33866 1.0506 0 1.5306 0.67865 1.5306 2.3293 0 1.6906-0.49065 2.3306-1.62 2.3306" style="fill:#8b5ba5;stroke-width:1.3333"/>
	<path d="m11.248 191.68v-0.67065c0-0.71998 0.30933-1.2706 1.08-2.0293 0.84931-0.83998 1.0893-1.16 1.0893-1.72 0-0.51066-0.28933-0.73065-0.75865-0.73065-0.46132 0-0.91064 0.18-1.4106 0.40932v-0.98931c0.34932-0.12933 1.04-0.32932 1.4893-0.32932 0.99064 0 1.5906 0.43999 1.5906 1.58 0 0.96931-0.45066 1.5-1.5106 2.5186-0.43999 0.43999-0.62932 0.70132-0.66932 1.08h2.2693v0.88131h-3.1693" style="fill:#8b5ba5;stroke-width:1.3333"/>
	<path d="m17.048 185.47c-0.49999 0-0.63998 0.29066-0.63998 1.0906 0 0.80931 0.14 1.1093 0.63998 1.1093 0.49999 0 0.63998-0.29999 0.63998-1.1093 0-0.79998-0.14-1.0906-0.63998-1.0906zm0 2.9693c-0.59998 0-0.73998 0.33066-0.73998 1.2706 0 0.93998 0.14 1.2706 0.73998 1.2706s0.73998-0.33066 0.73998-1.2706c0-0.93997-0.14-1.2706-0.73998-1.2706zm0 3.3412c-1.2 0-1.6706-0.59999-1.6706-2.0506 0-0.85998 0.23066-1.46 0.63998-1.72-0.29999-0.26-0.47999-0.79065-0.47999-1.46 0-1.2893 0.41999-1.8693 1.5106-1.8693 1.0906 0 1.5093 0.57998 1.5093 1.8693 0 0.66932-0.18933 1.2-0.48932 1.46 0.40932 0.25999 0.64932 0.85997 0.64932 1.72 0 1.4506-0.46932 2.0506-1.6693 2.0506" style="fill:#8b5ba5;stroke-width:1.3333"/>
	<path d="m12.248 650.17v-0.87998h0.80931v-3.9492l-0.80931 0.36933v-0.93065l1.0893-0.56932h0.67065v5.0799h0.79998v0.87998h-2.5599" style="fill:#8b5ba5;stroke-width:1.3333"/>
	<path d="m15.898 650.17v-0.87998h0.81065v-3.9492l-0.81065 0.36933v-0.93065l1.0906-0.56932h0.67065v5.0799h0.79865v0.87998h-2.5599" style="fill:#8b5ba5;stroke-width:1.3333"/>
	<path d="m11.744 596.39v-0.87998h0.80931v-3.9492l-0.80931 0.36932v-0.93064l1.0893-0.56932h0.66932v5.0799h0.80131v0.87998h-2.5599" style="fill:#8b5ba5;stroke-width:1.3333"/>
	<path d="m16.503 597.43c-0.53865 0-1.0693-0.14933-1.36-0.27066v-0.96931c0.35999 0.2 0.89064 0.36 1.28 0.36 0.55065 0 0.91064-0.22 0.91064-1.2 0-1.0093-0.41066-1.24-0.99064-1.24h-0.68932v-0.83998h0.67998c0.53999 0 0.86931-0.18933 0.86931-1.0506 0-0.84931-0.32932-0.99998-0.78931-0.99998-0.38932 0-0.87064 0.14133-1.22 0.31066v-0.95997c0.25066-0.0893 0.83065-0.24 1.3-0.24 0.97998 0 1.6293 0.32933 1.6293 1.8893 0 0.76131-0.18933 1.2306-0.54932 1.4613 0.43999 0.22933 0.69998 0.74932 0.69998 1.66 0 1.6986-0.67998 2.0893-1.7706 2.0893" style="fill:#8b5ba5;stroke-width:1.3333"/>
	<path d="m11.684 542.6v-0.87998h0.80931v-3.9492l-0.80931 0.37065v-0.93197l1.0893-0.56799h0.67065v5.0785h0.79998v0.87998h-2.5599" style="fill:#8b5ba5;stroke-width:1.3333"/>
	<path d="m16.634 543.64c-0.51065 0-1.0106-0.17066-1.26-0.29066v-0.97064c0.34932 0.20933 0.79065 0.37999 1.18 0.37999 0.55065 0 0.85998-0.20933 0.85998-1.22 0-0.98931-0.29999-1.2306-0.81998-1.2306h-1.2v-3.6679h2.7999v0.88931h-1.92v1.94h0.49999c0.91998 0 1.5693 0.36932 1.5693 2.06 0 1.6893-0.65998 2.1106-1.7093 2.1106" style="fill:#8b5ba5;stroke-width:1.3333"/>
	<path d="m11.854 488.82v-0.87998h0.80931v-3.9492l-0.80931 0.37066v-0.93198l1.0893-0.56798h0.66932v5.0785h0.80131v0.87998h-2.5599" style="fill:#8b5ba5;stroke-width:1.3333"/>
	<path d="m17.432 486.42c-0.41999 0.69865-0.58932 1.1-0.58932 2.3199v1.0186h-0.91998v-1.0186c0-1.6 0.37999-2.2613 0.75998-2.8506 0.39999-0.61998 0.62932-1.0213 0.63998-1.94v-0.19999h-2.1999v-0.88932h3.1199v0.67865c0 1.6613-0.40932 2.2506-0.81065 2.8813" style="fill:#8b5ba5;stroke-width:1.3333"/>
	<path d="m11.508 435.03v-0.87997h0.80931v-3.9492l-0.80931 0.37066v-0.93064l1.0893-0.56932h0.67065v5.0785h0.79998v0.87997h-2.5599" style="fill:#8b5ba5;stroke-width:1.3333"/>
	<path d="m17.268 432.61 0.16933-0.11867c0-2.0599-0.10933-2.7013-0.72932-2.7013-0.51999 0-0.67998 0.37066-0.67998 1.5306s0.14933 1.52 0.65998 1.52c0.22 0 0.39999-0.1 0.57999-0.23066zm-0.55999-3.6186c1.3093 0 1.66 0.85865 1.66 3.3292 0 2.1506-0.05066 3.7706-1.72 3.7706-0.39999 0-0.97064-0.17066-1.2706-0.31999v-0.95997c0.41066 0.24932 0.81065 0.39999 1.1906 0.39999 0.56932 0 0.84931-0.41066 0.86931-1.9-0.18933 0.14933-0.51999 0.34-0.81998 0.34-1.0493 0-1.5293-0.67999-1.5293-2.3306 0-1.6906 0.48932-2.3293 1.62-2.3293" style="fill:#8b5ba5;stroke-width:1.3333"/>
	<path d="m11.643 379.92v-0.67065c0-0.71998 0.31066-1.2693 1.08-2.0306 0.85065-0.83998 1.0906-1.16 1.0906-1.72 0-0.50932-0.28933-0.72932-0.75998-0.72932-0.45999 0-0.91064 0.18-1.4106 0.41066v-0.99064c0.35066-0.13066 1.0413-0.32933 1.4906-0.32933 0.98931 0 1.5893 0.43999 1.5893 1.5786 0 0.97064-0.44932 1.5-1.5093 2.5213-0.43999 0.43999-0.63065 0.69865-0.67065 1.08h2.2706v0.87998h-3.1706" style="fill:#8b5ba5;stroke-width:1.3333"/>
	<path d="m15.794 379.92v-0.87998h0.80931v-3.9492l-0.80931 0.36932v-0.93064l1.0893-0.56932h0.67065v5.0799h0.79998v0.87998h-2.5599" style="fill:#8b5ba5;stroke-width:1.3333"/>
	<path d="m11.488 326.13v-0.66932c0-0.71998 0.31066-1.2706 1.08-2.0306 0.84931-0.83865 1.0906-1.16 1.0906-1.72 0-0.50932-0.29066-0.72931-0.75998-0.72931-0.45999 0-0.91064 0.17999-1.4106 0.40932v-0.98931c0.34932-0.13066 1.04-0.33066 1.4893-0.33066 0.99064 0 1.5906 0.43999 1.5906 1.58 0 0.97064-0.44932 1.5-1.5106 2.5199-0.43866 0.43999-0.62932 0.69998-0.66932 1.08h2.2706v0.87998h-3.1706" style="fill:#8b5ba5;stroke-width:1.3333"/>
	<path d="m16.748 327.17c-0.53999 0-1.0706-0.14933-1.36-0.26932v-0.97065c0.35999 0.2 0.88931 0.36 1.28 0.36 0.55065 0 0.91064-0.22 0.91064-1.1986 0-1.0106-0.41066-1.2413-0.99064-1.2413h-0.69065v-0.83998h0.68132c0.53865 0 0.86931-0.18933 0.86931-1.0493 0-0.85064-0.33066-0.99997-0.78931-0.99997-0.39066 0-0.87064 0.13999-1.22 0.30932v-0.95997c0.24933-0.0893 0.82931-0.24 1.3-0.24 0.97998 0 1.6293 0.33066 1.6293 1.8906 0 0.75998-0.19066 1.2293-0.55065 1.46 0.43999 0.22933 0.70132 0.74932 0.70132 1.66 0 1.7-0.68132 2.0893-1.7706 2.0893" style="fill:#8b5ba5;stroke-width:1.3333"/>
	<path d="m11.428 272.36v-0.66932c0-0.71998 0.31066-1.2706 1.08-2.0293 0.85064-0.83998 1.0906-1.1613 1.0906-1.7213 0-0.50932-0.29066-0.72931-0.76131-0.72931-0.45866 0-0.90931 0.17999-1.4093 0.40932v-0.98931c0.34932-0.13066 1.04-0.32932 1.4893-0.32932 0.99064 0 1.5906 0.43998 1.5906 1.58 0 0.96931-0.45066 1.5-1.5106 2.5186-0.43999 0.43999-0.62932 0.70132-0.66932 1.08h2.2706v0.87998h-3.1706" style="fill:#8b5ba5;stroke-width:1.3333"/>
	<path d="m16.879 273.4c-0.51065 0-1.0106-0.16932-1.2613-0.28932v-0.97064c0.35066 0.21066 0.79065 0.38132 1.1813 0.38132 0.54932 0 0.85998-0.21066 0.85998-1.22 0-0.99064-0.29999-1.2306-0.82131-1.2306h-1.1986v-3.6706h2.7999v0.89064h-1.92v1.94h0.49999c0.91998 0 1.5693 0.37065 1.5693 2.0599 0 1.6893-0.65998 2.1093-1.7093 2.1093" style="fill:#8b5ba5;stroke-width:1.3333"/>
	<path d="m11.598 218.8v-0.67065c0-0.71998 0.31066-1.2706 1.08-2.0293 0.85064-0.83998 1.0906-1.16 1.0906-1.72 0-0.51065-0.29066-0.73065-0.75998-0.73065-0.45999 0-0.91064 0.18-1.4106 0.40933v-0.98931c0.34932-0.12933 1.04-0.32933 1.4893-0.32933 0.99064 0 1.5906 0.43999 1.5906 1.58 0 0.96931-0.45066 1.5-1.5106 2.5186-0.43999 0.43998-0.62932 0.70131-0.66932 1.08h2.2706v0.88131h-3.1706" style="fill:#8b5ba5;stroke-width:1.3333"/>
	<path d="m17.678 216.4c-0.41999 0.69998-0.59065 1.0986-0.59065 2.3186v1.0213h-0.91998v-1.0213c0-1.6 0.38132-2.2586 0.75998-2.8493 0.40132-0.61999 0.63065-1.02 0.64132-1.94v-0.2h-2.2013v-0.89064h3.1213v0.68131c0 1.66-0.41066 2.2493-0.81065 2.8799" style="fill:#8b5ba5;stroke-width:1.3333"/>
	<path d="m11.252 164.17v-0.67065c0-0.71998 0.31066-1.2693 1.08-2.0293 0.85065-0.83998 1.0906-1.16 1.0906-1.72 0-0.51065-0.28933-0.73065-0.75998-0.73065-0.45999 0-0.91064 0.18-1.4106 0.41066v-0.99064c0.35066-0.12933 1.04-0.32933 1.4906-0.32933 0.98931 0 1.5906 0.43999 1.5906 1.58 0 0.96931-0.45066 1.5-1.5106 2.5199-0.43999 0.43999-0.62932 0.69998-0.67065 1.08h2.2706v0.87998h-3.1706" style="fill:#8b5ba5;stroke-width:1.3333"/>
	<path d="m17.512 161.73 0.17066-0.12c0-2.06-0.11066-2.6999-0.73065-2.6999-0.51999 0-0.67998 0.36932-0.67998 1.5293 0 1.16 0.15066 1.52 0.65998 1.52 0.22 0 0.40132-0.1 0.57999-0.22933zm-0.55999-3.6199c1.3106 0 1.66 0.85998 1.66 3.3292 0 2.1506-0.04933 3.7706-1.72 3.7706-0.39999 0-0.96931-0.17066-1.2693-0.31999v-0.95998c0.40932 0.24933 0.80931 0.39999 1.1893 0.39999 0.57065 0 0.85065-0.41065 0.87064-1.9-0.19066 0.14933-0.51999 0.33999-0.81998 0.33999-1.0506 0-1.5293-0.67998-1.5293-2.3306 0-1.6893 0.48932-2.3293 1.6186-2.3293" style="fill:#8b5ba5;stroke-width:1.3333"/>
	<path d="m12.428 138.88c-0.53999 0-1.0693-0.15066-1.36-0.27066v-0.96931c0.35999 0.19999 0.88931 0.35999 1.28 0.35999 0.54932 0 0.90931-0.21999 0.90931-1.2 0-1.0106-0.40932-1.24-0.98931-1.24h-0.69065v-0.83998h0.67998c0.53999 0 0.87064-0.19066 0.87064-1.0506 0-0.84931-0.33066-0.99997-0.79065-0.99997-0.38932 0-0.86931 0.13999-1.22 0.31066v-0.95998c0.25066-0.0907 0.83065-0.23999 1.3-0.23999 0.97998 0 1.6306 0.32932 1.6306 1.8893 0 0.75998-0.18933 1.2306-0.54932 1.46 0.43866 0.23066 0.69865 0.75064 0.69865 1.66 0 1.7-0.67998 2.0906-1.7693 2.0906" style="fill:#8b5ba5;stroke-width:1.3333"/>
	<path d="m16.978 132.61c-0.62932 0-0.75998 0.43999-0.75998 2.2506 0 1.8093 0.13066 2.2493 0.75998 2.2493 0.63998 0 0.75998-0.43999 0.75998-2.2493 0-1.8106-0.12-2.2506-0.75998-2.2506zm0 5.3305c-1.22 0-1.7-0.75065-1.7-3.0799 0-2.3306 0.47999-3.0799 1.7-3.0799 1.22 0 1.7106 0.74931 1.7106 3.0799 0 2.3293-0.49065 3.0799-1.7106 3.0799" style="fill:#8b5ba5;stroke-width:1.3333"/>
	<path d="m12.854 112.22c-0.54132 0-1.0706-0.14933-1.36-0.26933v-0.97064c0.35999 0.19999 0.88931 0.35999 1.28 0.35999 0.54932 0 0.90931-0.21999 0.90931-1.2 0-1.0093-0.40932-1.24-0.98931-1.24h-0.69065v-0.83998h0.67998c0.53999 0 0.87064-0.18933 0.87064-1.0493 0-0.85064-0.33066-0.99997-0.79065-0.99997-0.39066 0-0.87064 0.14-1.22 0.30933v-0.95998c0.25066-0.0893 0.82931-0.23999 1.3-0.23999 0.97998 0 1.6293 0.33065 1.6293 1.8906 0 0.75999-0.18933 1.2293-0.54932 1.4586 0.43999 0.23066 0.69998 0.75064 0.69998 1.6613 0 1.6986-0.67998 2.0893-1.7693 2.0893" style="fill:#8b5ba5;stroke-width:1.3333"/>
	<path d="m15.703 111.18v-0.87997h0.80931v-3.9492l-0.80931 0.36933v-0.92931l1.0893-0.57066h0.67065v5.0799h0.79998v0.87997h-2.5599" style="fill:#8b5ba5;stroke-width:1.3333"/>
	<path d="m12.608 85.879c-0.53999 0-1.0693-0.14933-1.36-0.26933v-0.97064c0.35999 0.2 0.88931 0.35999 1.28 0.35999 0.55065 0 0.91064-0.22 0.91064-1.2 0-1.0093-0.41066-1.24-0.99064-1.24h-0.68932v-0.83998h0.67998c0.53865 0 0.86931-0.18933 0.86931-1.0493 0-0.85064-0.33066-0.99998-0.78931-0.99998-0.39066 0-0.87064 0.14-1.22 0.30933v-0.95998c0.24933-0.08933 0.82931-0.24 1.3-0.24 0.97998 0 1.6293 0.33066 1.6293 1.8906 0 0.75998-0.18933 1.2293-0.54932 1.4586 0.43999 0.23066 0.69998 0.75065 0.69998 1.6613 0 1.6986-0.68132 2.0893-1.7706 2.0893" style="fill:#8b5ba5;stroke-width:1.3333"/>
	<path d="m15.448 84.839v-0.66932c0-0.71998 0.30933-1.2706 1.08-2.0306 0.85065-0.83998 1.0893-1.16 1.0893-1.72 0-0.51065-0.28933-0.72932-0.75865-0.72932-0.45999 0-0.91064 0.18-1.4106 0.40932v-0.98931c0.35066-0.13066 1.04-0.33066 1.4906-0.33066 0.98931 0 1.5893 0.43999 1.5893 1.58 0 0.97064-0.44932 1.5-1.5093 2.5199-0.43999 0.43999-0.63065 0.69998-0.67065 1.08h2.2693v0.87998h-3.1693" style="fill:#8b5ba5;stroke-width:1.3333"/>
	<path d="m12.698 58.039c-0.53865 0-1.0693-0.14933-1.3586-0.26933v-0.96931c0.35866 0.19866 0.88931 0.35999 1.28 0.35999 0.54932 0 0.90931-0.21999 0.90931-1.2 0-1.0106-0.40932-1.2413-0.98931-1.2413h-0.69065v-0.83865h0.67998c0.53999 0 0.87064-0.19066 0.87064-1.0506 0-0.85064-0.33066-0.99998-0.79065-0.99998-0.38932 0-0.86931 0.14-1.22 0.30933v-0.95998c0.24933-0.08933 0.83065-0.23866 1.3-0.23866 0.97998 0 1.6306 0.32932 1.6306 1.8893 0 0.75998-0.19066 1.2293-0.55065 1.46 0.43999 0.23066 0.69998 0.74932 0.69998 1.66 0 1.7-0.67998 2.0893-1.7706 2.0893" style="fill:#8b5ba5;stroke-width:1.3333"/>
	<path d="m16.659 58.039c-0.53999 0-1.0706-0.14933-1.36-0.26933v-0.96931c0.35999 0.19866 0.88931 0.35999 1.28 0.35999 0.54932 0 0.90931-0.21999 0.90931-1.2 0-1.0106-0.40932-1.2413-0.98931-1.2413h-0.69065v-0.83865h0.67998c0.53999 0 0.87064-0.19066 0.87064-1.0506 0-0.85064-0.33066-0.99998-0.79065-0.99998-0.38932 0-0.87064 0.14-1.22 0.30933v-0.95998c0.25066-0.08933 0.83065-0.23866 1.3-0.23866 0.97998 0 1.6293 0.32932 1.6293 1.8893 0 0.75998-0.18933 1.2293-0.54932 1.46 0.43999 0.23066 0.69998 0.74932 0.69998 1.66 0 1.7-0.67998 2.0893-1.7693 2.0893" style="fill:#8b5ba5;stroke-width:1.3333"/>
	<path d="m12.548 30.907c-0.53999 0-1.0706-0.14933-1.36-0.26933v-0.97064c0.35999 0.2 0.89064 0.35999 1.28 0.35999 0.55065 0 0.91064-0.21999 0.91064-1.2 0-1.0093-0.41066-1.24-0.99064-1.24h-0.69065v-0.83998h0.68132c0.53865 0 0.86931-0.18933 0.86931-1.0493 0-0.85064-0.33066-0.99998-0.79065-0.99998-0.38932 0-0.86931 0.14-1.2186 0.30933v-0.95998c0.24933-0.08933 0.82931-0.23999 1.2986-0.23999 0.98131 0 1.6306 0.33066 1.6306 1.8906 0 0.75998-0.19066 1.2293-0.55065 1.4586 0.43999 0.23066 0.69998 0.75065 0.69998 1.6613 0 1.6986-0.67865 2.0893-1.7693 2.0893" style="fill:#8b5ba5;stroke-width:1.3333"/>
	<path d="m16.898 26.173-1.08 2.0506h1.4213v-1.9706c0-0.37999 0.04933-0.91998 0.04933-0.91998s-0.20933 0.49999-0.39066 0.83998zm1.2613 2.8199v1.82h-0.91998v-1.82h-2.3106v-0.55998l2.3599-4.5599h0.87064v4.3506h0.55999v0.76932h-0.55999" style="fill:#8b5ba5;stroke-width:1.3333"/>
	<path d="m461.39 241.2h12.57v-8.0385h-12.57z" style="fill:#fff;stroke-width:1.3333"/>
	<path d="m465.02 237.63 0.11333-0.0787c0-1.3586-0.0733-1.7813-0.48265-1.7813-0.34399 0-0.44932 0.244-0.44932 1.0093s0.1 1.0026 0.43599 1.0026c0.14533 0 0.26399-0.0653 0.38265-0.15199zm-0.36932-2.3866c0.86398 0 1.096 0.56665 1.096 2.1959 0 1.4173-0.0347 2.4866-1.136 2.4866-0.26266 0-0.63998-0.11333-0.83731-0.212v-0.63331c0.27066 0.16533 0.53332 0.26399 0.78531 0.26399 0.37599 0 0.55999-0.26933 0.57465-1.2533-0.12666 0.1-0.34399 0.22533-0.54265 0.22533-0.69198 0-1.008-0.44933-1.008-1.5373 0-1.1146 0.32265-1.536 1.068-1.536" style="fill:#8b5ba5;stroke-width:1.3333"/>
	<path d="m467.39 237.65c-0.276 0.46132-0.38933 0.72532-0.38933 1.5306v0.67198h-0.60665v-0.67198c0-1.056 0.25066-1.492 0.50132-1.88 0.264-0.40933 0.41599-0.67332 0.42266-1.28v-0.132h-1.452v-0.58665h2.0586v0.44799c0 1.096-0.27066 1.484-0.53465 1.9" style="fill:#8b5ba5;stroke-width:1.3333"/>
	<path d="m471.55 237.8c-0.19733 0-0.29732 0.13733-0.29732 0.52666 0 0.38932 0.1 0.52799 0.29732 0.52799 0.192 0 0.29066-0.13867 0.29066-0.52799 0-0.38933-0.0987-0.52666-0.29066-0.52666zm0 1.496c-0.47465 0-0.74665-0.30933-0.74665-0.96931 0-0.65865 0.272-0.96931 0.74665-0.96931 0.47332 0 0.73865 0.31066 0.73865 0.96931 0 0.65998-0.26533 0.96931-0.73865 0.96931zm-1.7546-0.0653h-0.39466l1.852-4.5506h0.39599zm-0.29599-4.1746c-0.19866 0-0.29733 0.13867-0.29733 0.52799s0.0987 0.52665 0.29733 0.52665c0.18933 0 0.28932-0.13733 0.28932-0.52665s-0.1-0.52799-0.28932-0.52799zm0 1.4973c-0.47599 0-0.74665-0.31066-0.74665-0.96931 0-0.65998 0.27066-0.96931 0.74665-0.96931 0.47332 0 0.73865 0.30933 0.73865 0.96931 0 0.65865-0.26533 0.96931-0.73865 0.96931" style="fill:#8b5ba5;stroke-width:1.3333"/>
	<path d="m461.64 350.08h12.57v-8.0385h-12.57z" style="fill:#fff;stroke-width:1.3333"/>
	<path d="m465 346.29c-0.27599 0.46265-0.38932 0.72664-0.38932 1.5306v0.67199h-0.60666v-0.67199c0-1.056 0.25067-1.492 0.50133-1.88 0.26399-0.40799 0.41465-0.67332 0.42265-1.28v-0.13066h-1.452v-0.58799h2.0586v0.44933c0 1.0946-0.27066 1.484-0.53465 1.8986" style="fill:#8b5ba5;stroke-width:1.3333"/>
	<path d="m466.63 348.56c-0.33466 0-0.66532-0.11333-0.83065-0.19067v-0.64131c0.23066 0.13999 0.52132 0.25199 0.77865 0.25199 0.36265 0 0.56665-0.14 0.56665-0.80531 0-0.65199-0.19733-0.81065-0.53999-0.81065h-0.79198v-2.4213h1.8466v0.58798h-1.2653v1.2786h0.32933c0.60665 0 1.0346 0.24399 1.0346 1.3586s-0.43466 1.392-1.128 1.392" style="fill:#8b5ba5;stroke-width:1.3333"/>
	<path d="m471.43 346.45c-0.19733 0-0.29733 0.13867-0.29733 0.52799s0.1 0.52799 0.29733 0.52799c0.19199 0 0.29066-0.13867 0.29066-0.52799s-0.0987-0.52799-0.29066-0.52799zm0 1.496c-0.47466 0-0.74665-0.30932-0.74665-0.96797s0.27199-0.96931 0.74665-0.96931c0.47465 0 0.73864 0.31066 0.73864 0.96931s-0.26399 0.96797-0.73864 0.96797zm-1.7546-0.064h-0.39465l1.852-4.5519h0.39599zm-0.29599-4.1746c-0.19733 0-0.29733 0.13733-0.29733 0.52666 0 0.38932 0.1 0.52798 0.29733 0.52798 0.19066 0 0.28933-0.13866 0.28933-0.52798 0-0.38933-0.0987-0.52666-0.28933-0.52666zm0 1.4973c-0.47465 0-0.74665-0.31066-0.74665-0.97064 0-0.65999 0.272-0.96931 0.74665-0.96931 0.47332 0 0.73865 0.30932 0.73865 0.96931 0 0.65998-0.26533 0.97064-0.73865 0.97064" style="fill:#8b5ba5;stroke-width:1.3333"/>
	<path d="m461.48 439.21h12.573v-8.0398h-12.573z" style="fill:#fff;stroke-width:1.3333"/>
	<path d="m463.59 437.11v-0.44132c0-0.47466 0.204-0.83731 0.71198-1.3386 0.55999-0.55332 0.71865-0.76398 0.71865-1.1333 0-0.33599-0.19066-0.48265-0.50132-0.48265-0.30266 0-0.59998 0.11866-0.92931 0.27066v-0.65332c0.23066-0.0853 0.68532-0.21733 0.98131-0.21733 0.65465 0 1.0506 0.29066 1.0506 1.0426 0 0.63865-0.29732 0.98798-0.99731 1.6613-0.28932 0.28933-0.41465 0.46133-0.44132 0.71332h1.496v0.57865h-2.0893" style="fill:#8b5ba5;stroke-width:1.3333"/>
	<path d="m466.76 437.81c-0.336 0-0.66532-0.11333-0.83065-0.19333v-0.63865c0.23066 0.13866 0.52132 0.25066 0.77865 0.25066 0.36265 0 0.56665-0.13866 0.56665-0.80398 0-0.65465-0.19866-0.81331-0.53999-0.81331h-0.79198v-2.4186h1.8466v0.58532h-1.2666v1.28h0.32932c0.60799 0 1.036 0.24399 1.036 1.3586s-0.43466 1.3933-1.128 1.3933" style="fill:#8b5ba5;stroke-width:1.3333"/>
	<path d="m471.56 435.69c-0.19867 0-0.29733 0.13733-0.29733 0.52532 0 0.39066 0.0987 0.52932 0.29733 0.52932 0.19066 0 0.28932-0.13866 0.28932-0.52932 0-0.38799-0.0987-0.52532-0.28932-0.52532zm0 1.496c-0.47599 0-0.74665-0.31066-0.74665-0.97064 0-0.65865 0.27066-0.96797 0.74665-0.96797 0.47332 0 0.73731 0.30932 0.73731 0.96797 0 0.65998-0.26399 0.97064-0.73731 0.97064zm-1.756-0.0667h-0.39466l1.8533-4.5492h0.39599zm-0.29466-4.1746c-0.19866 0-0.29733 0.13866-0.29733 0.52932 0 0.38799 0.0987 0.52532 0.29733 0.52532 0.18933 0 0.28799-0.13733 0.28799-0.52532 0-0.39066-0.0987-0.52932-0.28799-0.52932zm0 1.4973c-0.47599 0-0.74665-0.30932-0.74665-0.96797 0-0.65999 0.27066-0.97065 0.74665-0.97065 0.47332 0 0.73732 0.31066 0.73732 0.97065 0 0.65865-0.264 0.96797-0.73732 0.96797" style="fill:#8b5ba5;stroke-width:1.3333"/>
	<path d="m462.74 500.67h10.716v-8.0385h-10.716z" style="fill:#fff;stroke-width:1.3333"/>
	<path d="m465.52 499.3c-0.35599 0-0.70532-0.0987-0.89731-0.17866v-0.63865c0.23732 0.13066 0.58798 0.236 0.84397 0.236 0.364 0 0.60132-0.14533 0.60132-0.79065 0-0.66665-0.27066-0.81865-0.65331-0.81865h-0.45599v-0.55465h0.44932c0.35599 0 0.57465-0.12533 0.57465-0.69065 0-0.56132-0.21866-0.65998-0.52265-0.65998-0.256 0-0.57199 0.092-0.80398 0.20532v-0.63465c0.16533-0.0587 0.54798-0.15733 0.85731-0.15733 0.64665 0 1.076 0.216 1.076 1.2466 0 0.50132-0.12666 0.81065-0.36265 0.96131 0.28932 0.15333 0.45998 0.49465 0.45998 1.096 0 1.12-0.44798 1.3786-1.1666 1.3786" style="fill:#8b5ba5;stroke-width:1.3333"/>
	<path d="m470.37 497.18c-0.19733 0-0.29733 0.13733-0.29733 0.52665s0.1 0.52799 0.29733 0.52799c0.19199 0 0.29066-0.13867 0.29066-0.52799s-0.0987-0.52665-0.29066-0.52665zm0 1.4973c-0.47466 0-0.74665-0.30932-0.74665-0.97064 0-0.65998 0.27199-0.96931 0.74665-0.96931 0.47465 0 0.73865 0.30933 0.73865 0.96931 0 0.66132-0.264 0.97064-0.73865 0.97064zm-1.7546-0.0667h-0.39466l1.852-4.5506h0.39599zm-0.296-4.1759c-0.19732 0-0.29732 0.14-0.29732 0.52932 0 0.38933 0.1 0.52666 0.29732 0.52666 0.19067 0 0.28933-0.13733 0.28933-0.52666 0-0.38932-0.0987-0.52932-0.28933-0.52932zm0 1.4973c-0.47465 0-0.74664-0.30933-0.74664-0.96798s0.27199-0.96931 0.74664-0.96931c0.47333 0 0.73865 0.31066 0.73865 0.96931s-0.26532 0.96798-0.73865 0.96798" style="fill:#8b5ba5;stroke-width:1.3333"/>
	<g transform="translate(-.0019194 -679.44)">
		<path d="m5.2705 687.59c0.18 0 0.35066-0.08 0.61998-0.38932l0.2-0.23066v-2.3586l-0.2-0.23066c-0.26933-0.31066-0.43999-0.38932-0.61998-0.38932-0.27999 0-0.52932 0.10933-0.52932 1.7986 0 1.6906 0.24933 1.8 0.52932 1.8zm0.25999 2.6999c-0.57999 0-1.08-0.18932-1.4093-0.30932v-0.91064c0.40932 0.26132 0.83998 0.43065 1.3093 0.43065 0.41999 0 0.65998-0.17999 0.65998-0.77065v-0.89864l-0.16 0.14933c-0.24933 0.23999-0.59998 0.41066-0.87998 0.41066-0.79065 0-1.2306-0.59066-1.2306-2.6013 0-2.0093 0.43999-2.5999 1.2306-2.5999 0.31999 0 0.67998 0.20133 0.95064 0.47066l0.19866 0.19999c0.070665-0.24932 0.17066-0.46132 0.26133-0.57065h0.65998c-0.070665 0.32133-0.099997 0.89998-0.099997 1.4v3.9999c0 1.1706-0.54132 1.6-1.4906 1.6" style="fill:#8b5ba5;stroke-width:1.3333"/>
		<path d="m0.91065 684.92c0 0.35999-0.039999 0.67998-0.039999 0.67998s0.15066-0.31066 0.31999-0.57065l1.18-1.74h0.91998l-1.4106 1.94 1.3506 3.0599h-0.94931l-0.95064-2.2799-0.41999 0.57999v1.7h-0.91064v-6.8985h0.91064v3.5292" style="fill:#8b5ba5;stroke-width:1.3333"/>
		<path d="m8.4198 688.34h-0.59998l2.8106-6.9998h0.59998l-2.8106 6.9998" style="fill:#8b5ba5;stroke-width:1.3333"/>
		<path d="m15.12 683.7c0.30933-0.32 0.64932-0.51066 0.99998-0.51066 0.77998 0 0.96931 0.58132 0.96931 1.4906v3.6092h-0.92931v-3.7092c0-0.40132-0.10933-0.55065-0.31999-0.55065-0.16 0-0.31999 0.1-0.59998 0.41999 0 0-0.21999 0.23999-0.21999 0.25066v3.5892h-0.93064v-3.7092c0-0.40132-0.10933-0.55065-0.31999-0.55065-0.15866 0-0.30932 0.1-0.59865 0.41999l-0.21999 0.23999v3.5999h-0.93064v-3.5999c0-0.49998-0.03067-1.0786-0.1-1.4h0.66132c0.07867 0.10133 0.17866 0.33999 0.25866 0.63065l0.21066-0.21999c0.31066-0.32 0.64932-0.51066 0.99998-0.51066 0.51999 0 0.77998 0.26 0.88931 0.70132l0.18-0.19066" style="fill:#8b5ba5;stroke-width:1.3333"/>
		<path d="m17.948 684.29v-0.35599c0-0.38399 0.16533-0.67865 0.57732-1.084 0.45199-0.44799 0.57999-0.61865 0.57999-0.91598 0-0.27199-0.15466-0.38932-0.40532-0.38932-0.24533 0-0.48532 0.0947-0.75198 0.21866v-0.52932c0.188-0.068 0.55465-0.17466 0.79598-0.17466 0.52665 0 0.84665 0.23333 0.84665 0.84131 0 0.51732-0.23866 0.79998-0.80531 1.344-0.23466 0.23466-0.33599 0.37332-0.35732 0.57732h1.212v0.46798h-1.692" style="fill:#8b5ba5;stroke-width:1.3333"/>
	</g>
	<text x="35.233932" y="37.200478" style="fill:#231f20;font-family:Bliss;font-size:11.557px;font-weight:300;stroke-width:1.651">
		<tspan x="35.233932 40.151516 43.358639 48.494656 53.179943 58.327522 62.458061 65.455986 70.603577 74.375839 79.511864 85.029282 87.460876 89.938759 94.069305 97.067261 102.20326 105.20119 110.73016 115.86619 119.47665 123.24892 125.72678 129.16389 132.16183 137.74858 142.89615 147.02669 150.02464 155.61137 161.32527 166.98137 172.63745 177.78503 182.93263 187.06317 190.06107 195.64786 200.79541 203.79332 206.22498 208.7953 213.94286 217.71513 223.3597 228.94643 234.09399 237.09195 241.22249 246.37007 252.02614 257.67068 262.81824 268.4744 272.24661 274.72452 279.87207 282.30371 284.73535 289.8829 292.88086 296.17929 299.38528 304.52127 310.17734 314.86264 319.99869 322.47653 326.60706 331.75461 334.75256 340.33932 345.48691 348.4848 350.91647 356.05252 359.05045 363.73572 367.05841 372.77228 375.25012 379.38071 383.51126 388.64725 394.30331 398.98862 404.1362 407.13409 413.66861 416.29669 421.50204 425.517 428.14517 436.21671 441.56073 446.76608 452.68802 461.66101" y="37.200478" style="stroke-width:1.651">
			<tspan style="font-family:Arial;font-weight:normal;stroke-width:1.651">Tracés établis à partir des données de l’étude séquentielle française de la croissance CIE-INSERM</tspan>
.		</tspan>
		<tspan x="35.233932 38.636364 47.609379 49.717407 54.136879 58.839508 64.388123 70.101982 72.533638 74.965263 80.10128 85.75737 91.344139 95.359108 101.89353 107.02954 111.8281 117.48418 122.63177 125.83775 130.97377 133.97168 139.56999 142.56795 151.54094 156.2424 161.58646 166.73402 175.79948 181.32846 186.47603 189.87851 196.59552 202.39723 207.53326 210.85596 213.3338 218.46983 222.2421 224.71996 230.43384 236.08994 240.22049 243.2184 248.36598 254.02208 257.02005 261.70532 266.85291 272.509 276.28128 278.75912 281.19077 286.33832 290.46887" y="50.40921" style="font-family:Arial;font-weight:normal;stroke-width:1.651">(M.F.Rolland-Cachera – M.Sempé).Variations en centiles.</tspan>
	</text>
</svg>
