<svg width="497.78" height="688.7" version="1.1" viewBox="0 0 497.78252 688.69883" xmlns="http://www.w3.org/2000/svg">
	<path d="m25.338 675.09h453.54v-674.78h-453.54z" style="fill:#fff;stroke-width:1.3333"/>
	<path d="m25.371 643.24c1.5-58.332 12.333-90.831 12.333-90.831 3.1666-11.666 7.6665-13.833 7.6665-13.833 5.1665-4.4999 12.166 0.66665 12.166 0.66665 6.6105 4.7239 14.498 11.721 14.498 11.721 12.334 9.4451 23.333 12.445 23.333 12.445 20.445 8.4451 53.111 14.666 53.111 14.666 31.111 6.6665 62.665 4.6666 62.665 4.6666 42.222-3.3332 79.775-13.776 79.775-13.776 39.332-10.221 65.777-25.557 65.777-25.557 87.998-51.775 122.17-61.585 122.17-61.585l0.036-238.86s-41.099 19.777-81.098 57.776l-53.332 51.555c-28.221 28.666-77.11 60.446-77.11 60.446-18.445 12.221-39.555 25.778-39.555 25.778-39.554 25.333-73.553 22.887-73.553 22.887-22.443 0.224-48.444-9.5544-48.444-9.5544-24.221-11.333-43.776-42.89-43.776-42.89-11.11-18.444-16.222-14.221-16.222-14.221-8.4438 1.112-14 41.999-14 41.999-7.3332 57.332-6.4438 84.219-6.4438 84.219v122.28" style="fill:#fff;stroke-width:1.3333"/>
	<path d="m25.325 243.35h453.54m-453.54 53.968h453.54m-453.54 53.967h453.54m-453.54 53.975h453.54m-453.54 53.967h453.54m-453.54 53.968h453.54m-453.54 53.967h453.54m-453.54 53.968h453.54m-453.54-404.76h453.54m-453.54 53.968h453.54m-453.54 53.967h453.54m-453.54 53.967h453.54m-453.54 53.975h453.54m-453.54 53.967h453.54m-453.54 53.968h453.54m-453.54 53.967h453.54m-453.54 53.968h453.54m-403.14 26.982v-674.18m50.392 674.18v-674.18m50.393 674.18v-674.18m50.393 674.18v-674.18m50.393 674.18v-674.18m50.392 674.18v-674.18m50.393 674.18v-674.18m50.393 674.18v-674.18m-377.95 674.18v-674.18m50.393 674.18v-674.18m50.392 674.18v-674.18m50.393 674.18v-674.18m50.393 674.18v-674.18m50.393 674.18v-674.18m50.392 674.18v-674.18m50.393 674.18v-674.18m50.393 674.18v-674.18m25.198 188.68h-453.54m453.54-54.02h-453.54m453.54-54.028h-453.54m453.86 26.977h-453.52m453.2-54.004h-453.54m453.54-54.02h-453.54m453.86 26.978h-453.52m453.2 134.85h-453.54m453.54 512.8h-453.54v-674.7h453.54z" style="fill:none;stroke-width:.66665;stroke:#a9c0a6"/>
	<path d="m25.338 675.13v-675.13m25.195 675.13v-674.73m-18.896 674.73v-674.73m6.2985 674.73v-674.73m6.2985 674.73v-674.73m31.495 674.73v-674.73m-18.897 674.73v-674.73m6.2998 674.73v-674.73m6.2985 674.73v-674.73m31.495 674.73v-674.73m-18.898 674.73v-674.73m6.2998 674.73v-674.73m6.2985 674.73v-674.73m31.495 674.73v-674.73m-18.897 674.73v-674.73m6.2985 674.73v-674.73m6.2998 674.73v-674.73m31.497 674.73v-674.73m-18.898 674.73v-674.73m6.2985 674.73v-674.73m6.2998 674.73v-674.73m31.494 674.73v-674.73m-18.897 674.73v-674.73m6.2998 674.73v-674.73m6.2985 674.73v-674.73m31.497 674.73v-674.73m-18.898 674.73v-674.73m6.2985 674.73v-674.73m6.2998 674.73v-674.73m31.495 674.73v-674.73m-18.897 674.73v-674.73m6.2998 674.73v-674.73m6.2972 674.73v-674.73m31.497 674.73v-674.73m-18.898 674.73v-674.73m6.2985 674.73v-674.73m6.2998 674.73v-674.73m31.497 674.73v-674.73m-18.897 674.73v-674.73m6.2985 674.73v-674.73m6.2998 674.73v-674.73m31.494 674.73v-674.73m-18.898 674.73v-674.73m6.2998 674.73v-674.73m6.2985 674.73v-674.73m31.497 674.73v-674.73m-18.897 674.73v-674.73m6.2985 674.73v-674.73m6.2998 674.73v-674.73m31.494 674.73v-674.73m-18.896 674.73v-674.73m6.2998 674.73v-674.73m6.2958 674.73v-674.73m31.497 674.73v-674.73m-18.898 674.73v-674.73m6.2998 674.73v-674.73m6.2998 674.73v-674.73m31.497 674.73v-674.73m-18.898 674.73v-674.73m6.2998 674.73v-674.73m6.2985 674.73v-674.73m31.494 674.73v-674.73m-18.898 674.73v-674.73m6.2998 674.73v-674.73m6.2998 674.73v-674.73m31.497 674.73v-674.73m-18.898 674.73v-674.73m6.2985 674.73v-674.73m6.2998 674.73v-674.73m31.494 674.73v-675.13m-18.896 675.13v-674.73m6.2972 674.73v-674.73m6.2998 674.73v-674.73m6.2972 647.7h-453.54m453.54 21.587h-453.54m453.54-5.3972h-453.54m453.54-5.3959h-453.54m453.54-37.778h-453.54m453.54 21.586h-453.54m453.54-10.792h-453.54m453.54-5.3972h-453.54m453.54-32.379h-453.54m453.54 21.586h-453.54m453.54-10.794h-453.54m453.54-5.3972h-453.54m453.54-32.379h-453.54m453.54 21.587h-453.54m453.54-10.794h-453.54m453.54-5.3959h-453.54m453.54-32.381h-453.54m453.54 21.586h-453.54m453.54-10.792h-453.54m453.54-5.3972h-453.54m453.54-32.381h-453.54m453.54 21.586h-453.54m453.54-10.793h-453.54m453.54-5.3959h-453.54m453.54-32.382h-453.54m453.54 21.587h-453.54m453.54-5.3959h-453.54m453.54-10.794h-453.54m453.54-32.379h-453.54m453.54 21.587h-453.54m453.54-5.3972h-453.54m453.54-10.794h-453.54m453.54-32.379h-453.54m453.54 21.586h-453.54m453.54-10.793h-453.54m453.54-5.3959h-453.54m453.54-32.381h-453.54m453.54 21.586h-453.54m453.54-10.793h-453.54m453.54-5.3972h-453.54m453.54-32.381h-453.54m453.54 21.587h-453.54m453.54-10.793h-453.54m453.54-5.3972h-453.54m453.54-32.381h-453.54m453.54 21.586h-453.54m453.54-10.792h-453.54m453.54-5.3972h-453.54m453.54-32.381h-453.54m453.54 21.587h-453.54m453.54-10.794h-453.54m453.54-5.3959h-453.54m453.54-32.381h-453.54m453.54 21.587h-453.54m453.54-10.793h-453.54m453.54-5.3972h-453.54m453.54-32.381h-453.54m453.54 21.587h-453.54m453.54-10.794h-453.54m453.54-5.3959h-453.54m453.54-32.381h-453.54m453.54 21.586h-453.54m453.54-5.3959h-453.54m453.54-10.793h-453.54m453.54-32.381h-453.54m453.54 21.587h-453.54m453.54-10.794h-453.54m453.54-5.3972h-453.54m453.54-10.793h-453.54m453.54-10.793h-453.54m453.54-5.3959h-453.54m453.54-5.3972h-453.54m453.54-26.983h-453.54m453.54 21.586h-453.54m453.54-10.793h-453.54m453.54-5.3972h-453.54m453.54-10.793h-453.54m453.54-10.793h-453.54m453.54-5.3959h-453.54m453.54-5.3972h-453.54m453.54-5.3972h-453.54m453.54-10.793h-453.54m453.54-5.3972h-453.54m453.54-10.793h-453.54m453.54-5.3972h-453.54m453.54-10.793h-453.54m453.54-5.3959h-453.54m453.54-26.985h-453.54m453.54-26.982h-453.54m453.54 21.586h-453.54m453.54-5.3972h-453.54m453.54-5.3959h-453.54m453.54-16.19h-453.54m453.54-10.793h-453.54m453.54-5.3972h-453.54m453.54 70.157h-453.54m453.54-5.3959h-453.54m453.54-10.794h-453.54m453.54 48.571h-453.54m453.54-91.744h-453.54m453.54 16.19h-453.54m453.54 32.381h-453.54m453.54 26.983h-453.54m453.54 32.381h-453.54m453.54 26.983h-453.54m453.54 26.983h-453.54m453.54 26.983h-453.54m453.54 26.983h-453.54m453.54 21.587h-453.54m453.54 32.379h-453.54m453.54 26.983h-453.54m453.54 26.983h-453.54m453.54 26.985h-453.54m453.54 26.983h-453.54m453.54 26.982h-453.54m453.54 26.983h-453.54m453.54 21.587h-453.54m453.54 26.983h-453.54m453.54 32.379h-453.54m453.54 26.985h-453.54m453.54 26.983h-453.54m453.54 26.983h-453.54m453.54 26.983h-453.54m453.54 16.19h-453.54" style="fill:none;stroke-width:.33332;stroke:#a9c0a6"/>
	<path d="m478.91 482.23c-8.2438 2.6786-45.439 16.054-122.21 61.222 0 0-26.445 15.334-65.777 25.555 0 0-37.554 10.444-79.775 13.777 0 0-31.555 2-62.665-4.6666 0 0-32.666-6.2212-53.109-14.666 0 0-11-2.9999-23.333-12.445 0 0-7.8878-6.9985-14.5-11.721 0 0-6.9998-5.1665-12.166-0.66665 0 0-4.4999 2.1666-7.6665 13.833 0 0-10.833 33.834-12.333 92.166" style="fill:none;stroke-width:.99998;stroke:#00adef"/>
	<path d="m478.91 423s-36.875 14.665-73.541 39.11c0 0-41.554 27.555-63.109 41.555 0 0-22.001 14.666-74.887 29.333 0 0-53.332 15.112-82.219 15.333 0 0-26.667 2-76.443-12.222 0 0-25.555-9.1118-38.666-22.222 0 0-15.332-16.888-20.443-15.554 0 0-6.8878-2-12.666 16.444 0 0-11.556 44.444-11.556 94.666m0-45.555s0-53.777 12.666-102.44c0 0 4.4439-17.112 12.889-13.112 0 0 7.9998 4.4452 17.333 17.778 0 0 19.556 27.554 67.109 35.776 0 0 51.869 13.205 105.33-14.11l38.888-16.333c45.11-20.221 75.109-45.555 75.109-45.555s71.293-62.956 124.21-86.89" style="fill:none;stroke-dasharray:3.77937218, 3.77937218;stroke-width:.99998;stroke:#00adef"/>
	<path d="m25.371 522.33s-0.45066-28.21 6.8825-85.542c0 0 5.1105-40.366 13.556-41.478 0 0 5.1172-4.7559 16.228 13.688 0 0 19.556 31.555 43.778 42.888 0 0 25.999 9.7784 48.443 9.5558 0 0 33.999 2.4439 73.554-22.889 0 0 21.109-13.556 39.554-25.778 0 0 48.889-31.779 77.11-60.445l53.332-51.555c39.999-37.999 81.098-57.776 81.098-57.776" style="fill:none;stroke-width:.99998;stroke:#00adef"/>
	<path d="m26.379 687.75-1.6106-4.1386c-0.128-0.31999-0.53332-1.7293-0.53332-1.7293s0.18266 1.5266 0.18266 1.888v3.9799h-0.89731v-7.3598h0.83198l1.6106 4.1386c0.18133 0.45733 0.53465 1.728 0.53465 1.728s-0.18266-1.344-0.18266-1.888v-3.9786h0.89598v7.3598h-0.83198" style="fill:#58b14b;stroke-width:1.3333"/>
	<path d="m73.797 687.09v-0.71598c0-0.76798 0.33066-1.3533 1.152-2.1653 0.90664-0.89598 1.1613-1.236 1.1613-1.8346 0-0.54399-0.30799-0.77865-0.80931-0.77865-0.49066 0-0.97064 0.19333-1.504 0.43866v-1.056c0.37332-0.13866 1.1093-0.35199 1.5893-0.35199 1.056 0 1.6946 0.46799 1.6946 1.6853 0 1.0346-0.47866 1.6-1.6093 2.6866-0.47066 0.47066-0.67198 0.74798-0.71465 1.152h2.4213v0.93998h-3.3812" style="fill:#58b14b;stroke-width:1.3333"/>
	<path d="m125.62 682.22-1.152 2.1866h1.5146v-2.0999c0-0.40666 0.0533-0.98265 0.0533-0.98265s-0.22399 0.53332-0.41599 0.89598zm1.344 3.0079v1.9413h-0.98131v-1.9413h-2.4639v-0.59732l2.5173-4.8639h0.92798v4.6399h0.59732v0.82132h-0.59732" style="fill:#58b14b;stroke-width:1.3333"/>
	<path d="m175.35 683.33-0.18132 0.12933c0 2.196 0.11733 2.8799 0.77864 2.8799 0.55466 0 0.72532-0.39599 0.72532-1.6333 0-1.236-0.16-1.62-0.70398-1.62-0.23467 0-0.42666 0.10666-0.61866 0.24399zm0.59732 3.8626c-1.3973 0-1.7706-0.91864-1.7706-3.5519 0-2.2933 0.0533-4.0212 1.8346-4.0212 0.42666 0 1.0346 0.18133 1.3546 0.34132v1.0226c-0.43732-0.26666-0.86397-0.42533-1.2693-0.42533-0.60798 0-0.90664 0.43599-0.92797 2.0266 0.20266-0.16133 0.55465-0.36399 0.87464-0.36399 1.12 0 1.632 0.72665 1.632 2.4853 0 1.804-0.52265 2.4866-1.728 2.4866" style="fill:#58b14b;stroke-width:1.3333"/>
	<path d="m226.58 680.46c-0.53199 0-0.68132 0.308-0.68132 1.1626 0 0.86265 0.14933 1.184 0.68132 1.184 0.53332 0 0.68398-0.32132 0.68398-1.184 0-0.85464-0.15066-1.1626-0.68398-1.1626zm0 3.1679c-0.63998 0-0.78798 0.35065-0.78798 1.3533 0 1.0026 0.148 1.356 0.78798 1.356s0.78931-0.35332 0.78931-1.356c0-1.0026-0.14933-1.3533-0.78931-1.3533zm0 3.5626c-1.28 0-1.78-0.64131-1.78-2.1866 0-0.91864 0.24533-1.5573 0.68265-1.8346-0.32132-0.27733-0.51332-0.84398-0.51332-1.5573 0-1.376 0.44799-1.9946 1.6106-1.9946 1.164 0 1.6106 0.61865 1.6106 1.9946 0 0.71331-0.20133 1.28-0.52266 1.5573 0.43733 0.27733 0.69332 0.91598 0.69332 1.8346 0 1.5453-0.50132 2.1866-1.7813 2.1866" style="fill:#58b14b;stroke-width:1.3333"/>
	<path d="m273.06 687.09v-0.93998h0.86264v-4.2132l-0.86264 0.39466v-0.99064l1.1626-0.60799h0.71464v5.4172h0.85332v0.93998h-2.7306" style="fill:#58b14b;stroke-width:1.3333"/>
	<path d="m278.76 681.51c-0.67198 0-0.80931 0.46799-0.80931 2.3999 0 1.9306 0.13733 2.3999 0.80931 2.3999 0.68398 0 0.81198-0.46932 0.81198-2.3999 0-1.932-0.128-2.3999-0.81198-2.3999zm0 5.6852c-1.3 0-1.812-0.79998-1.812-3.2852 0-2.4866 0.51198-3.2852 1.812-3.2852 1.3026 0 1.824 0.79865 1.824 3.2852 0 2.4853-0.52132 3.2852-1.824 3.2852" style="fill:#58b14b;stroke-width:1.3333"/>
	<path d="m324.19 687.09v-0.93998h0.86531v-4.2132l-0.86531 0.39466v-0.99064l1.1626-0.60799h0.71598v5.4172h0.85198v0.93998h-2.7306" style="fill:#58b14b;stroke-width:1.3333"/>
	<path d="m328.07 687.09v-0.71598c0-0.76798 0.33199-1.3533 1.1533-2.1653 0.90531-0.89598 1.1626-1.236 1.1626-1.8346 0-0.54399-0.31066-0.77865-0.81198-0.77865-0.49066 0-0.96931 0.19333-1.504 0.43866v-1.056c0.37465-0.13866 1.1106-0.35199 1.5906-0.35199 1.056 0 1.6946 0.46799 1.6946 1.6853 0 1.0346-0.47866 1.6-1.6106 2.6866-0.46799 0.47066-0.67198 0.74798-0.71465 1.152h2.4226v0.93998h-3.3826" style="fill:#58b14b;stroke-width:1.3333"/>
	<path d="m374.75 687.09v-0.93998h0.86531v-4.2132l-0.86531 0.39466v-0.99064l1.164-0.60799h0.71465v5.4172h0.85198v0.93998h-2.7306" style="fill:#58b14b;stroke-width:1.3333"/>
	<path d="m380.24 683.14-1.1533 2.1853h1.5146v-2.1c0-0.40665 0.0533-0.98131 0.0533-0.98131s-0.22399 0.53199-0.41466 0.89598zm1.3426 3.0066v1.9413h-0.98131v-1.9413h-2.4639v-0.59732l2.5173-4.8625h0.92798v4.6386h0.59865v0.82131h-0.59865" style="fill:#58b14b;stroke-width:1.3333"/>
	<path d="m424.93 687.09v-0.93998h0.86398v-4.2132l-0.86398 0.39466v-0.99064l1.1626-0.60799h0.71465v5.4172h0.85464v0.93998h-2.7319" style="fill:#58b14b;stroke-width:1.3333"/>
	<path d="m430.08 683.33-0.18 0.12933c0 2.196 0.116 2.8799 0.77865 2.8799 0.55465 0 0.72398-0.39599 0.72398-1.6333 0-1.236-0.15999-1.62-0.70398-1.62-0.23466 0-0.42532 0.10666-0.61865 0.24399zm0.59865 3.8626c-1.3973 0-1.772-0.91864-1.772-3.5519 0-2.2933 0.0533-4.0212 1.8346-4.0212 0.42799 0 1.036 0.18133 1.3546 0.34132v1.0226c-0.43732-0.26666-0.86265-0.42533-1.268-0.42533-0.60798 0-0.90798 0.43599-0.92798 2.0266 0.20133-0.16133 0.55466-0.36399 0.87465-0.36399 1.12 0 1.6306 0.72665 1.6306 2.4853 0 1.804-0.52132 2.4866-1.7266 2.4866" style="fill:#58b14b;stroke-width:1.3333"/>
	<path d="m475.59 687.09v-0.93998h0.86531v-4.2132l-0.86531 0.39466v-0.99064l1.1626-0.60799h0.71464v5.4172h0.85332v0.93998h-2.7306" style="fill:#58b14b;stroke-width:1.3333"/>
	<path d="m481.24 680.46c-0.53332 0-0.68265 0.308-0.68265 1.1626 0 0.86265 0.14933 1.184 0.68265 1.184s0.68265-0.32132 0.68265-1.184c0-0.85464-0.14933-1.1626-0.68265-1.1626zm0 3.1679c-0.63998 0-0.78931 0.35065-0.78931 1.3533 0 1.0026 0.14933 1.356 0.78931 1.356s0.78931-0.35332 0.78931-1.356c0-1.0026-0.14933-1.3533-0.78931-1.3533zm0 3.5626c-1.28 0-1.7813-0.64131-1.7813-2.1866 0-0.91864 0.24533-1.5573 0.68265-1.8346-0.31999-0.27733-0.51199-0.84398-0.51199-1.5573 0-1.376 0.44799-1.9946 1.6106-1.9946s1.6106 0.61865 1.6106 1.9946c0 0.71331-0.20267 1.28-0.52266 1.5573 0.43733 0.27733 0.69332 0.91598 0.69332 1.8346 0 1.5453-0.50132 2.1866-1.7813 2.1866" style="fill:#58b14b;stroke-width:1.3333"/>
	<path d="m488.12 684.67h-0.49199c-0.64932 0-0.85198 0.42666-0.85198 0.99198 0 0.52399 0.18 0.73731 0.46932 0.73731 0.20266 0 0.42666-0.11866 0.65999-0.37332l0.21466-0.21333zm0.39332 2.4226c-0.0947-0.128-0.19066-0.32133-0.26533-0.56532l-0.15999 0.17066c-0.36266 0.41466-0.76798 0.49066-1.0453 0.49066-0.75731 0-1.196-0.53466-1.196-1.5266 0-1.0973 0.60799-1.7813 1.708-1.7813h0.56532v-0.63865c0-0.53465-0.26666-0.72532-0.67199-0.72532-0.49198 0-0.92797 0.18133-1.3773 0.46799v-0.99197c0.34265-0.13733 0.91864-0.34133 1.4626-0.34133 1.0453 0 1.5786 0.45866 1.5786 1.708v2.2386c0 0.53465 0.032 1.1733 0.10667 1.4946h-0.70532" style="fill:#58b14b;stroke-width:1.3333"/>
	<path d="m492.76 687.09v-3.9572c0-0.42798-0.11733-0.58798-0.34132-0.58798-0.17067 0-0.34133 0.10666-0.63999 0.44799l-0.38399 0.42799v3.6692h-0.99331v-3.8399c0-0.53466-0.0307-1.1533-0.10666-1.4933h0.70532c0.096 0.116 0.22399 0.43732 0.30932 0.78798l0.34133-0.35066c0.33065-0.34132 0.69331-0.54532 1.0666-0.54532 0.83198 0 1.0346 0.61865 1.0346 1.5906v3.8506h-0.99198" style="fill:#58b14b;stroke-width:1.3333"/>
	<path d="m496.14 687.2c-0.57598 0-1.0026-0.12799-1.312-0.24666v-0.95997c0.44799 0.22399 0.87464 0.35332 1.3226 0.35332 0.39466 0 0.73598-0.15999 0.73598-0.80131 0-0.61732-0.26666-0.74532-0.74665-0.74532-0.79998 0-1.4826-0.23466-1.4826-1.6333 0-1.1506 0.61866-1.5146 1.5573-1.5146 0.38399 0 0.95997 0.14 1.28 0.268v0.9493c-0.45866-0.25732-0.87465-0.37465-1.3013-0.37465-0.36266 0-0.63999 0.12933-0.63999 0.67198 0 0.56665 0.21333 0.69465 0.61865 0.69465 0.77865 0 1.6106 0.23333 1.6106 1.684 0 1.2493-0.71598 1.6546-1.6426 1.6546" style="fill:#58b14b;stroke-width:1.3333"/>
	<path d="m49 687.09v-0.93998h0.86398v-4.2132l-0.86398 0.39466v-0.99064l1.1626-0.60799h0.71465v5.4172h0.85331v0.93998h-2.7306" style="fill:#58b14b;stroke-width:1.3333"/>
	<path d="m101.02 686.91c-0.57466 0-1.1413-0.15999-1.4506-0.28799v-1.0346c0.38399 0.21333 0.94932 0.38399 1.3653 0.38399 0.58799 0 0.97065-0.23466 0.97065-1.28 0-1.0773-0.43599-1.3226-1.056-1.3226h-0.73598v-0.89598h0.72532c0.57598 0 0.92797-0.20399 0.92797-1.12 0-0.90664-0.35199-1.0666-0.84264-1.0666-0.41599 0-0.92664 0.148-1.3013 0.33066v-1.0253c0.26799-0.0947 0.88531-0.25466 1.3866-0.25466 1.0466 0 1.74 0.35199 1.74 2.016 0 0.81065-0.204 1.312-0.58666 1.5573 0.46799 0.244 0.74532 0.79865 0.74532 1.7706 0 1.812-0.72532 2.2293-1.888 2.2293" style="fill:#58b14b;stroke-width:1.3333"/>
	<path d="m150.49 686.91c-0.54399 0-1.076-0.18133-1.344-0.31066v-1.0333c0.37466 0.22399 0.84265 0.40532 1.2586 0.40532 0.58798 0 0.91731-0.22399 0.91731-1.3013 0-1.056-0.31999-1.312-0.87465-1.312h-1.28v-3.9146h2.9866v0.94931h-2.0466v2.0693h0.53199c0.98131 0 1.6746 0.39466 1.6746 2.196 0 1.804-0.70265 2.2519-1.824 2.2519" style="fill:#58b14b;stroke-width:1.3333"/>
	<path d="m202.01 683.42c-0.44799 0.74531-0.62798 1.172-0.62798 2.4733v1.088h-0.98265v-1.088c0-1.7053 0.40533-2.4106 0.81065-3.0386 0.42666-0.66132 0.67332-1.0893 0.68265-2.0693v-0.21333h-2.3453v-0.94931h3.3266v0.72531c0 1.7706-0.43599 2.3999-0.86398 3.0719" style="fill:#58b14b;stroke-width:1.3333"/>
	<path d="m252.16 683.38 0.18133-0.12666c0-2.1986-0.11733-2.8813-0.77865-2.8813-0.55465 0-0.72532 0.39466-0.72532 1.632 0 1.2386 0.16 1.6226 0.70532 1.6226 0.23333 0 0.42532-0.10666 0.61732-0.24666zm-0.59732-3.8599c1.3986 0 1.772 0.91597 1.772 3.5519 0 2.2933-0.0547 4.0199-1.836 4.0199-0.42532 0-1.0346-0.18-1.3546-0.34v-1.0253c0.43732 0.26666 0.86398 0.42665 1.2693 0.42665 0.60798 0 0.90798-0.43732 0.92798-2.0253-0.20267 0.15866-0.55466 0.36132-0.87465 0.36132-1.1186 0-1.632-0.72531-1.632-2.4853 0-1.8026 0.52266-2.4839 1.728-2.4839" style="fill:#58b14b;stroke-width:1.3333"/>
	<path d="m299.38 687.09v-0.93998h0.86265v-4.2132l-0.86265 0.39466v-0.99064l1.1626-0.60799h0.71465v5.4172h0.85331v0.93998h-2.7306" style="fill:#58b14b;stroke-width:1.3333"/>
	<path d="m303.27 687.09v-0.93998h0.86264v-4.2132l-0.86264 0.39466v-0.99064l1.1626-0.60799h0.71465v5.4172h0.85331v0.93998h-2.7306" style="fill:#58b14b;stroke-width:1.3333"/>
	<path d="m349.88 687.09v-0.93998h0.86265v-4.2132l-0.86265 0.39466v-0.99064l1.1626-0.60799h0.71465v5.4172h0.85331v0.93998h-2.7306" style="fill:#58b14b;stroke-width:1.3333"/>
	<path d="m354.96 688.2c-0.57599 0-1.1413-0.16132-1.4506-0.28799v-1.036c0.38399 0.21466 0.94931 0.38399 1.3653 0.38399 0.58665 0 0.97064-0.23333 0.97064-1.28 0-1.076-0.43732-1.3226-1.056-1.3226h-0.73598v-0.89598h0.72532c0.57465 0 0.92797-0.20266 0.92797-1.1186 0-0.90664-0.35332-1.0666-0.84397-1.0666-0.41466 0-0.92665 0.148-1.3 0.33066v-1.0253c0.26666-0.0947 0.88531-0.25466 1.3866-0.25466 1.0453 0 1.7373 0.35199 1.7373 2.016 0 0.81065-0.20133 1.312-0.58532 1.5573 0.46932 0.244 0.74665 0.79865 0.74665 1.7706 0 1.812-0.72532 2.2293-1.888 2.2293" style="fill:#58b14b;stroke-width:1.3333"/>
	<path d="m399.64 687.59v-0.93998h0.86398v-4.2132l-0.86398 0.39466v-0.99064l1.1626-0.60799h0.71465v5.4172h0.85331v0.93998h-2.7306" style="fill:#58b14b;stroke-width:1.3333"/>
	<path d="m404.92 688.7c-0.54399 0-1.0773-0.18133-1.344-0.31066v-1.0333c0.37333 0.22399 0.84265 0.40399 1.2586 0.40399 0.58665 0 0.91731-0.224 0.91731-1.3 0-1.056-0.31999-1.3133-0.87465-1.3133h-1.28v-3.9132h2.9866v0.94931h-2.048v2.0693h0.53198c0.98265 0 1.676 0.39466 1.676 2.196 0 1.804-0.70398 2.2519-1.824 2.2519" style="fill:#58b14b;stroke-width:1.3333"/>
	<path d="m450.33 687.09v-0.93998h0.86397v-4.2132l-0.86397 0.39466v-0.99064l1.1626-0.60799h0.71465v5.4172h0.85331v0.93998h-2.7306" style="fill:#58b14b;stroke-width:1.3333"/>
	<path d="m456.28 684.53c-0.44798 0.74532-0.62931 1.172-0.62931 2.4733v1.088h-0.98131v-1.088c0-1.7053 0.40399-2.4106 0.81064-3.0386 0.42533-0.66131 0.67199-1.0893 0.68265-2.0693v-0.21333h-2.3466v-0.94931h3.3279v0.72532c0 1.7706-0.43732 2.3999-0.86398 3.0719" style="fill:#58b14b;stroke-width:1.3333"/>
	<path d="m11.802 623.45v-0.87998h0.81065v-3.9492l-0.81065 0.36932v-0.93064l1.0906-0.56932h0.66932v5.0799h0.80131v0.87998h-2.5613" style="fill:#8b5ba5;stroke-width:1.3333"/>
	<path d="m15.442 623.45v-0.67065c0-0.71998 0.30933-1.2693 1.08-2.0293 0.85065-0.83998 1.0893-1.16 1.0893-1.72 0-0.50932-0.28933-0.72931-0.75865-0.72931-0.45999 0-0.91064 0.17999-1.4106 0.40932v-0.99064c0.35066-0.12933 1.04-0.32933 1.4906-0.32933 0.98931 0 1.5893 0.43999 1.5893 1.58 0 0.96931-0.44932 1.5-1.5093 2.5199-0.43999 0.43999-0.63065 0.69998-0.67065 1.08h2.2693v0.87998h-3.1693" style="fill:#8b5ba5;stroke-width:1.3333"/>
	<path d="m11.742 569.66v-0.87998h0.81065v-3.9492l-0.81065 0.36933v-0.93065l1.0906-0.56932h0.66932v5.0799h0.79998v0.87998h-2.5599" style="fill:#8b5ba5;stroke-width:1.3333"/>
	<path d="m16.892 565.97-1.08 2.0506h1.42v-1.9706c0-0.37999 0.05066-0.91997 0.05066-0.91997s-0.20933 0.49998-0.39066 0.83997zm1.2613 2.8199v1.82h-0.92131v-1.82h-2.3093v-0.55998l2.3599-4.5599h0.87064v4.3506h0.55999v0.76931h-0.55999" style="fill:#8b5ba5;stroke-width:1.3333"/>
	<path d="m11.657 515.88v-0.87997h0.81065v-3.9492l-0.81065 0.37066v-0.93198l1.0906-0.56798h0.66932v5.0785h0.79998v0.87997h-2.5599" style="fill:#8b5ba5;stroke-width:1.3333"/>
	<path d="m16.488 512.36-0.17066 0.12c0 2.0586 0.10933 2.6986 0.73065 2.6986 0.51999 0 0.67865-0.36933 0.67865-1.5306 0-1.16-0.14933-1.5186-0.65998-1.5186-0.21866 0-0.39999 0.1-0.57865 0.23066zm0.55999 3.6199c-1.3106 0-1.66-0.86131-1.66-3.3319 0-2.1493 0.04933-3.7692 1.72-3.7692 0.39866 0 0.96931 0.17067 1.2693 0.32133v0.95864c-0.40932-0.24932-0.80931-0.39999-1.1893-0.39999-0.57065 0-0.85065 0.41066-0.87064 1.9 0.18933-0.14933 0.51999-0.34 0.81998-0.34 1.0506 0 1.5293 0.67999 1.5293 2.3293 0 1.6906-0.48932 2.3319-1.6186 2.3319" style="fill:#8b5ba5;stroke-width:1.3333"/>
	<path d="m11.653 462.09v-0.87998h0.80931v-3.9492l-0.80931 0.37066v-0.93198l1.0893-0.56799h0.67065v5.0785h0.79998v0.87998h-2.5599" style="fill:#8b5ba5;stroke-width:1.3333"/>
	<path d="m16.952 455.89c-0.49999 0-0.63998 0.28932-0.63998 1.0906 0 0.80931 0.14 1.1093 0.63998 1.1093 0.49999 0 0.63998-0.29999 0.63998-1.1093 0-0.80132-0.14-1.0906-0.63998-1.0906zm0 2.9706c-0.59865 0-0.73865 0.32932-0.73865 1.2693s0.14 1.2693 0.73865 1.2693c0.60132 0 0.73998-0.32932 0.73998-1.2693s-0.13866-1.2693-0.73998-1.2693zm0 3.3399c-1.2 0-1.6693-0.60131-1.6693-2.0506 0-0.85998 0.22933-1.46 0.63998-1.72-0.29999-0.25999-0.47999-0.78931-0.47999-1.46 0-1.2906 0.41999-1.8706 1.5093-1.8706 1.0906 0 1.5106 0.57998 1.5106 1.8706 0 0.67065-0.18933 1.2-0.48932 1.46 0.40932 0.26 0.64932 0.85998 0.64932 1.72 0 1.4493-0.46932 2.0506-1.6706 2.0506" style="fill:#8b5ba5;stroke-width:1.3333"/>
	<path d="m11.366 406.99v-0.67065c0-0.71998 0.31066-1.2706 1.08-2.0306 0.85064-0.83998 1.0906-1.16 1.0906-1.72 0-0.50932-0.28933-0.72932-0.75998-0.72932-0.45999 0-0.91064 0.18-1.4106 0.41066v-0.99064c0.35066-0.13066 1.0413-0.32933 1.4906-0.32933 0.99064 0 1.5893 0.43999 1.5893 1.5786 0 0.97064-0.44932 1.5-1.5093 2.5213-0.43999 0.43999-0.63065 0.69865-0.66932 1.0786h2.2693v0.88131h-3.1706" style="fill:#8b5ba5;stroke-width:1.3333"/>
	<path d="m17.217 401.75c-0.63065 0-0.75998 0.43999-0.75998 2.2493 0 1.8106 0.12933 2.2506 0.75998 2.2506 0.63998 0 0.75998-0.43999 0.75998-2.2506 0-1.8093-0.12-2.2493-0.75998-2.2493zm0 5.3305c-1.22 0-1.7-0.75065-1.7-3.0813 0-2.3293 0.47999-3.0786 1.7-3.0786 1.22 0 1.7093 0.74932 1.7093 3.0786 0 2.3306-0.48932 3.0813-1.7093 3.0813" style="fill:#8b5ba5;stroke-width:1.3333"/>
	<path d="m11.548 353.2v-0.67065c0-0.71998 0.31066-1.2693 1.08-2.0306 0.84931-0.83997 1.0906-1.16 1.0906-1.72 0-0.50932-0.29066-0.72932-0.76131-0.72932-0.45866 0-0.90931 0.18-1.4093 0.41066v-0.99064c0.34932-0.13067 1.04-0.32933 1.4893-0.32933 0.99064 0 1.5906 0.43999 1.5906 1.5786 0 0.97064-0.45066 1.5-1.5106 2.5213-0.43999 0.43999-0.62932 0.69865-0.66932 1.08h2.2706v0.87998h-3.1706" style="fill:#8b5ba5;stroke-width:1.3333"/>
	<path d="m15.688 353.2v-0.67065c0-0.71998 0.30933-1.2693 1.08-2.0306 0.84931-0.83997 1.0893-1.16 1.0893-1.72 0-0.50932-0.28933-0.72932-0.75998-0.72932-0.45866 0-0.90931 0.18-1.4093 0.41066v-0.99064c0.34932-0.13067 1.04-0.32933 1.4893-0.32933 0.99064 0 1.5906 0.43999 1.5906 1.5786 0 0.97064-0.45066 1.5-1.5106 2.5213-0.43999 0.43999-0.62932 0.69865-0.66932 1.08h2.2693v0.87998h-3.1693" style="fill:#8b5ba5;stroke-width:1.3333"/>
	<path d="m11.488 299.42v-0.66932c0-0.71998 0.30933-1.2706 1.08-2.0306 0.85065-0.83865 1.0893-1.16 1.0893-1.72 0-0.50932-0.28933-0.72932-0.75998-0.72932-0.45999 0-0.90931 0.18-1.4093 0.40933v-0.98931c0.34932-0.13067 1.04-0.33066 1.4893-0.33066 0.99064 0 1.5906 0.44132 1.5906 1.5813 0 0.96931-0.45066 1.5-1.5106 2.5186-0.43999 0.43999-0.62932 0.70131-0.66932 1.08h2.2693v0.87998h-3.1693" style="fill:#8b5ba5;stroke-width:1.3333"/>
	<path d="m17.137 295.71-1.08 2.0506h1.42v-1.9693c0-0.38133 0.05067-0.91998 0.05067-0.91998s-0.21066 0.49999-0.39066 0.83864zm1.26 2.8199v1.82h-0.91998v-1.82h-2.3093v-0.55998l2.3599-4.5599h0.86931v4.3506h0.55999v0.76931h-0.55999" style="fill:#8b5ba5;stroke-width:1.3333"/>
	<path d="m11.402 245.63v-0.66932c0-0.71998 0.30933-1.2706 1.08-2.0293 0.84931-0.83998 1.0893-1.1613 1.0893-1.72 0-0.51065-0.28933-0.73065-0.75998-0.73065-0.45999 0-0.90931 0.18-1.4093 0.40932v-0.9893c0.34932-0.13067 1.04-0.32933 1.4893-0.32933 0.99064 0 1.5906 0.43999 1.5906 1.58 0 0.96931-0.45066 1.5-1.5106 2.5186-0.43999 0.43999-0.62932 0.70132-0.66932 1.08h2.2693v0.87998h-3.1693" style="fill:#8b5ba5;stroke-width:1.3333"/>
	<path d="m16.732 242.11-0.17066 0.12133c0 2.06 0.11066 2.6999 0.73065 2.6999 0.51999 0 0.67998-0.37066 0.67998-1.5306s-0.14933-1.52-0.65998-1.52c-0.22 0-0.39999 0.1-0.57999 0.22932zm0.55999 3.6212c-1.3093 0-1.66-0.85998-1.66-3.3306 0-2.1506 0.05067-3.7706 1.72-3.7706 0.39999 0 0.97064 0.17066 1.2706 0.31999v0.95998c-0.41066-0.24933-0.81065-0.39866-1.1906-0.39866-0.56932 0-0.84931 0.40933-0.87064 1.8986 0.19066-0.14933 0.52132-0.33866 0.82131-0.33866 1.0493 0 1.5293 0.67865 1.5293 2.3293 0 1.6906-0.49066 2.3306-1.62 2.3306" style="fill:#8b5ba5;stroke-width:1.3333"/>
	<path d="m11.397 191.85v-0.67065c0-0.71998 0.31066-1.2706 1.08-2.0293 0.85064-0.83998 1.0906-1.16 1.0906-1.72 0-0.51065-0.29066-0.73064-0.75998-0.73064-0.45999 0-0.91064 0.17999-1.4106 0.40932v-0.98931c0.35066-0.12933 1.04-0.32932 1.4906-0.32932 0.98931 0 1.5893 0.43998 1.5893 1.58 0 0.96931-0.44932 1.5-1.5093 2.5186-0.43999 0.43999-0.63065 0.70132-0.67065 1.08h2.2706v0.88131h-3.1706" style="fill:#8b5ba5;stroke-width:1.3333"/>
	<path d="m17.197 185.63c-0.49999 0-0.63998 0.29066-0.63998 1.0906 0 0.80931 0.14 1.1093 0.63998 1.1093 0.49999 0 0.63998-0.29999 0.63998-1.1093 0-0.79998-0.14-1.0906-0.63998-1.0906zm0 2.9693c-0.59998 0-0.73998 0.33065-0.73998 1.2706s0.14 1.2706 0.73998 1.2706 0.73998-0.33065 0.73998-1.2706-0.14-1.2706-0.73998-1.2706zm0 3.3412c-1.2 0-1.6693-0.59998-1.6693-2.0506 0-0.85998 0.22933-1.46 0.63865-1.72-0.29999-0.25999-0.47866-0.79064-0.47866-1.46 0-1.2893 0.41999-1.8693 1.5093-1.8693 1.0906 0 1.5106 0.57999 1.5106 1.8693 0 0.66932-0.19066 1.2-0.49065 1.46 0.41066 0.26 0.64932 0.85998 0.64932 1.72 0 1.4506-0.46932 2.0506-1.6693 2.0506" style="fill:#8b5ba5;stroke-width:1.3333"/>
	<path d="m11.893 596.56v-0.87998h0.80931v-3.9492l-0.80931 0.36933v-0.93065l1.0893-0.56931h0.67065v5.0799h0.79998v0.87998h-2.5599" style="fill:#8b5ba5;stroke-width:1.3333"/>
	<path d="m16.653 597.6c-0.53999 0-1.0706-0.14933-1.36-0.27066v-0.96931c0.35999 0.2 0.88931 0.35999 1.28 0.35999 0.54932 0 0.90931-0.21999 0.90931-1.2 0-1.0093-0.40932-1.24-0.98931-1.24h-0.69065v-0.83998h0.67998c0.53999 0 0.87064-0.18932 0.87064-1.0506 0-0.84931-0.33066-0.99997-0.79065-0.99997-0.38932 0-0.87064 0.14133-1.22 0.31066v-0.95998c0.25066-0.0893 0.83065-0.23999 1.3-0.23999 0.97998 0 1.6306 0.32932 1.6306 1.8893 0 0.76132-0.19066 1.2306-0.55065 1.4613 0.43999 0.22933 0.69998 0.74931 0.69998 1.66 0 1.6986-0.67998 2.0893-1.7693 2.0893" style="fill:#8b5ba5;stroke-width:1.3333"/>
	<path d="m11.833 542.77v-0.87997h0.80931v-3.9492l-0.80931 0.37066v-0.93198l1.0893-0.56798h0.67065v5.0785h0.79998v0.87997h-2.5599" style="fill:#8b5ba5;stroke-width:1.3333"/>
	<path d="m16.782 543.81c-0.50932 0-1.0093-0.17066-1.26-0.29066v-0.97064c0.35066 0.20932 0.79065 0.37999 1.18 0.37999 0.55065 0 0.85998-0.20933 0.85998-1.22 0-0.98931-0.29999-1.2306-0.81998-1.2306h-1.2v-3.6679h2.7999v0.88931h-1.92v1.94h0.49999c0.91998 0 1.5706 0.36932 1.5706 2.0599 0 1.6893-0.65998 2.1106-1.7106 2.1106" style="fill:#8b5ba5;stroke-width:1.3333"/>
	<path d="m12.002 488.99v-0.87998h0.80931v-3.9492l-0.80931 0.37066v-0.93198l1.0893-0.56799h0.67065v5.0785h0.79998v0.87998h-2.5599" style="fill:#8b5ba5;stroke-width:1.3333"/>
	<path d="m17.582 486.59c-0.41999 0.69865-0.59065 1.1-0.59065 2.3199v1.0186h-0.91998v-1.0186c0-1.6 0.37999-2.2613 0.75998-2.8506 0.39999-0.61999 0.63065-1.0213 0.64132-1.94v-0.2h-2.2013v-0.88931h3.1199v0.67865c0 1.6613-0.40932 2.2506-0.80931 2.8813" style="fill:#8b5ba5;stroke-width:1.3333"/>
	<path d="m11.657 435.2v-0.87998h0.81065v-3.9492l-0.81065 0.37065v-0.93064l1.0906-0.56932h0.66932v5.0785h0.79998v0.87998h-2.5599" style="fill:#8b5ba5;stroke-width:1.3333"/>
	<path d="m17.417 432.77 0.16933-0.11866c0-2.06-0.10933-2.7013-0.72932-2.7013-0.51999 0-0.67998 0.37066-0.67998 1.5306s0.15066 1.52 0.65998 1.52c0.21999 0 0.39999-0.1 0.57998-0.23066zm-0.55999-3.6186c1.3106 0 1.66 0.85864 1.66 3.3292 0 2.1506-0.04933 3.7706-1.72 3.7706-0.39999 0-0.96931-0.17066-1.2693-0.31999v-0.95998c0.40932 0.24933 0.80931 0.39999 1.1893 0.39999 0.56932 0 0.85064-0.41065 0.86931-1.9-0.18933 0.14933-0.51999 0.33999-0.81865 0.33999-1.0506 0-1.5306-0.67998-1.5306-2.3306 0-1.6906 0.48932-2.3293 1.62-2.3293" style="fill:#8b5ba5;stroke-width:1.3333"/>
	<path d="m11.793 380.08v-0.67065c0-0.71998 0.30933-1.2693 1.08-2.0306 0.85064-0.83998 1.0893-1.16 1.0893-1.72 0-0.50933-0.28933-0.72932-0.75998-0.72932-0.45999 0-0.90931 0.18-1.4093 0.41066v-0.99065c0.34932-0.13066 1.04-0.32932 1.4893-0.32932 0.99064 0 1.5906 0.43999 1.5906 1.5786 0 0.97064-0.45066 1.5-1.5093 2.5213-0.44132 0.43999-0.63065 0.69865-0.67065 1.08h2.2693v0.87998h-3.1693" style="fill:#8b5ba5;stroke-width:1.3333"/>
	<path d="m15.942 380.08v-0.87998h0.80931v-3.9492l-0.80931 0.36932v-0.93064l1.0893-0.56932h0.67065v5.0799h0.79998v0.87998h-2.5599" style="fill:#8b5ba5;stroke-width:1.3333"/>
	<path d="m11.638 326.3v-0.66932c0-0.71998 0.30933-1.2706 1.08-2.0306 0.84931-0.83864 1.0893-1.16 1.0893-1.72 0-0.50932-0.28933-0.72932-0.75998-0.72932-0.45999 0-0.90931 0.18-1.4093 0.40932v-0.9893c0.34932-0.13067 1.0386-0.33066 1.4893-0.33066 0.98931 0 1.5906 0.43999 1.5906 1.58 0 0.97064-0.45066 1.5-1.5106 2.5199-0.43999 0.43999-0.62932 0.69999-0.67065 1.08h2.2706v0.87998h-3.1693" style="fill:#8b5ba5;stroke-width:1.3333"/>
	<path d="m16.897 327.34c-0.53865 0-1.0693-0.14933-1.36-0.26933v-0.97064c0.35999 0.2 0.89064 0.35999 1.28 0.35999 0.55065 0 0.91064-0.21999 0.91064-1.1986 0-1.0106-0.41066-1.2413-0.99064-1.2413h-0.68932v-0.83998h0.67998c0.53999 0 0.86931-0.18932 0.86931-1.0493 0-0.85065-0.32932-0.99998-0.78931-0.99998-0.38932 0-0.87064 0.14-1.22 0.30933v-0.95998c0.24933-0.0893 0.83065-0.23999 1.3-0.23999 0.97998 0 1.6293 0.33066 1.6293 1.8906 0 0.75998-0.18933 1.2293-0.54932 1.46 0.43999 0.22933 0.69998 0.74932 0.69998 1.66 0 1.7-0.67998 2.0893-1.7706 2.0893" style="fill:#8b5ba5;stroke-width:1.3333"/>
	<path d="m11.578 272.52v-0.66932c0-0.71998 0.30932-1.2706 1.0786-2.0293 0.85065-0.83998 1.0906-1.1613 1.0906-1.7213 0-0.50932-0.29066-0.72932-0.75998-0.72932-0.45999 0-0.90931 0.18-1.4093 0.40933v-0.98931c0.34932-0.13067 1.0386-0.32933 1.4893-0.32933 0.99064 0 1.5906 0.43999 1.5906 1.58 0 0.96931-0.45066 1.5-1.5106 2.5186-0.43999 0.43998-0.63065 0.70131-0.67065 1.08h2.2706v0.87998h-3.1693" style="fill:#8b5ba5;stroke-width:1.3333"/>
	<path d="m17.028 273.56c-0.51065 0-1.0106-0.16933-1.26-0.28933v-0.97064c0.34932 0.21066 0.79065 0.38133 1.18 0.38133 0.55065 0 0.85998-0.21067 0.85998-1.22 0-0.99065-0.29999-1.2306-0.81998-1.2306h-1.2v-3.6706h2.7999v0.89064h-1.92v1.94h0.49999c0.91998 0 1.5693 0.37066 1.5693 2.06s-0.65998 2.1093-1.7093 2.1093" style="fill:#8b5ba5;stroke-width:1.3333"/>
	<path d="m11.748 218.97v-0.67065c0-0.71999 0.30932-1.2706 1.08-2.0293 0.84931-0.83998 1.0893-1.16 1.0893-1.72 0-0.51066-0.29066-0.73065-0.75998-0.73065-0.45999 0-0.90931 0.17999-1.4093 0.40932v-0.98931c0.34932-0.12933 1.0386-0.32932 1.4893-0.32932 0.98931 0 1.5906 0.43999 1.5906 1.58 0 0.96931-0.45066 1.5-1.5106 2.5186-0.43999 0.43999-0.62932 0.70132-0.67065 1.08h2.2706v0.88132h-3.1693" style="fill:#8b5ba5;stroke-width:1.3333"/>
	<path d="m17.826 216.57c-0.41999 0.69998-0.58932 1.0986-0.58932 2.3186v1.0213h-0.91998v-1.0213c0-1.6 0.37999-2.2586 0.75998-2.8493 0.39999-0.61998 0.62932-1.02 0.63998-1.94v-0.19999h-2.1999v-0.89065h3.1199v0.68132c0 1.66-0.41066 2.2493-0.81065 2.8799" style="fill:#8b5ba5;stroke-width:1.3333"/>
	<path d="m11.402 164.34v-0.67065c0-0.71999 0.30933-1.2693 1.08-2.0293 0.84931-0.83998 1.0893-1.16 1.0893-1.72 0-0.51066-0.28933-0.73065-0.75998-0.73065-0.45999 0-0.90931 0.17999-1.4093 0.41065v-0.99064c0.34932-0.12933 1.04-0.32932 1.4893-0.32932 0.99064 0 1.5906 0.43999 1.5906 1.58 0 0.96931-0.45066 1.5-1.5106 2.5199-0.43999 0.43999-0.62932 0.69999-0.66932 1.08h2.2693v0.87998h-3.1693" style="fill:#8b5ba5;stroke-width:1.3333"/>
	<path d="m17.662 161.9 0.16933-0.12c0-2.06-0.10933-2.6999-0.72932-2.6999-0.51999 0-0.68132 0.36932-0.68132 1.5293s0.15066 1.52 0.66132 1.52c0.22 0 0.39999-0.1 0.57999-0.22932zm-0.55999-3.6199c1.3093 0 1.66 0.85997 1.66 3.3292 0 2.1506-0.05066 3.7706-1.72 3.7706-0.40132 0-0.97064-0.17066-1.2706-0.31999v-0.95998c0.41066 0.24933 0.81065 0.39999 1.1906 0.39999 0.56932 0 0.84931-0.41066 0.86931-1.9-0.19066 0.14933-0.51999 0.33999-0.81998 0.33999-1.0493 0-1.5293-0.67998-1.5293-2.3306 0-1.6893 0.48932-2.3293 1.62-2.3293" style="fill:#8b5ba5;stroke-width:1.3333"/>
	<path d="m12.577 139.05c-0.53999 0-1.0693-0.15066-1.36-0.27066v-0.9693c0.35999 0.19999 0.89064 0.35999 1.28 0.35999 0.55065 0 0.91064-0.22 0.91064-1.2 0-1.0106-0.41066-1.24-0.99064-1.24h-0.69065v-0.83998h0.68132c0.53865 0 0.86931-0.19066 0.86931-1.0506 0-0.84931-0.33066-0.99998-0.78931-0.99998-0.39066 0-0.87064 0.14-1.22 0.31066v-0.95997c0.24933-0.0907 0.82931-0.24 1.3-0.24 0.97998 0 1.6293 0.32933 1.6293 1.8893 0 0.75998-0.18933 1.2306-0.54932 1.46 0.43866 0.23066 0.69998 0.75065 0.69998 1.66 0 1.7-0.67998 2.0906-1.7706 2.0906" style="fill:#8b5ba5;stroke-width:1.3333"/>
	<path d="m17.128 132.78c-0.63065 0-0.76131 0.43999-0.76131 2.2506 0 1.8093 0.13066 2.2493 0.76131 2.2493 0.63998 0 0.75998-0.43999 0.75998-2.2493 0-1.8106-0.12-2.2506-0.75998-2.2506zm0 5.3305c-1.22 0-1.7-0.75065-1.7-3.0799 0-2.3306 0.47999-3.0799 1.7-3.0799 1.22 0 1.7093 0.74932 1.7093 3.0799 0 2.3293-0.48932 3.0799-1.7093 3.0799" style="fill:#8b5ba5;stroke-width:1.3333"/>
	<path d="m13.002 112.38c-0.53999 0-1.0706-0.14933-1.36-0.26932v-0.97064c0.35999 0.19999 0.88931 0.35999 1.28 0.35999 0.55065 0 0.91064-0.22 0.91064-1.2 0-1.0093-0.41066-1.24-0.99064-1.24h-0.69065v-0.83998h0.68132c0.53865 0 0.86931-0.18933 0.86931-1.0493 0-0.85064-0.33066-0.99997-0.79065-0.99997-0.38932 0-0.86931 0.13999-1.2186 0.30932v-0.95997c0.24933-0.0893 0.82931-0.24 1.2986-0.24 0.98131 0 1.6306 0.33066 1.6306 1.8906 0 0.75998-0.19066 1.2293-0.55065 1.4586 0.43999 0.23066 0.69998 0.75065 0.69998 1.6613 0 1.6986-0.67998 2.0893-1.7693 2.0893" style="fill:#8b5ba5;stroke-width:1.3333"/>
	<path d="m15.852 111.34v-0.87998h0.81065v-3.9492l-0.81065 0.36932v-0.92931l1.0906-0.57065h0.66932v5.0799h0.79998v0.87998h-2.5599" style="fill:#8b5ba5;stroke-width:1.3333"/>
	<path d="m12.757 86.048c-0.53865 0-1.0693-0.14933-1.36-0.26933v-0.97064c0.35999 0.2 0.89064 0.35999 1.28 0.35999 0.55065 0 0.91064-0.22 0.91064-1.2 0-1.0093-0.41066-1.24-0.99064-1.24h-0.68932v-0.83998h0.67998c0.53999 0 0.86931-0.18933 0.86931-1.0493 0-0.85064-0.32933-0.99998-0.78931-0.99998-0.38932 0-0.86931 0.14-1.22 0.30933v-0.95998c0.24933-0.08933 0.83065-0.23999 1.3-0.23999 0.97998 0 1.6293 0.33066 1.6293 1.8906 0 0.75998-0.18933 1.2293-0.54932 1.4586 0.43999 0.23066 0.69998 0.75065 0.69998 1.6613 0 1.6986-0.67998 2.0893-1.7706 2.0893" style="fill:#8b5ba5;stroke-width:1.3333"/>
	<path d="m15.597 85.008v-0.66932c0-0.71998 0.31066-1.2706 1.08-2.0306 0.85064-0.83998 1.0906-1.16 1.0906-1.72 0-0.51065-0.29066-0.72932-0.75998-0.72932-0.45999 0-0.91064 0.18-1.4106 0.40932v-0.98931c0.35066-0.13066 1.0413-0.33066 1.4906-0.33066 0.99064 0 1.5893 0.43999 1.5893 1.58 0 0.97064-0.44932 1.5-1.5093 2.5199-0.43999 0.43999-0.63065 0.69998-0.66932 1.08h2.2693v0.87998h-3.1706" style="fill:#8b5ba5;stroke-width:1.3333"/>
	<path d="m12.848 58.209c-0.53999 0-1.0693-0.14933-1.36-0.26933v-0.96931c0.35999 0.19866 0.89064 0.35999 1.28 0.35999 0.54932 0 0.90931-0.21999 0.90931-1.2 0-1.0106-0.40932-1.2413-0.98931-1.2413h-0.68932v-0.83865h0.67865c0.54132 0 0.87064-0.19066 0.87064-1.0506 0-0.85064-0.32932-0.99998-0.79065-0.99998-0.38932 0-0.86931 0.14-1.22 0.30933v-0.95998c0.25066-0.08933 0.83065-0.23866 1.3-0.23866 0.97998 0 1.6306 0.32932 1.6306 1.8893 0 0.75998-0.18933 1.2293-0.54932 1.46 0.43999 0.23066 0.69865 0.74932 0.69865 1.66 0 1.7-0.67865 2.0893-1.7693 2.0893" style="fill:#8b5ba5;stroke-width:1.3333"/>
	<path d="m16.808 58.209c-0.53999 0-1.0706-0.14933-1.36-0.26933v-0.96931c0.35999 0.19866 0.88931 0.35999 1.28 0.35999 0.55065 0 0.91064-0.21999 0.91064-1.2 0-1.0106-0.41066-1.2413-0.99064-1.2413h-0.69065v-0.83865h0.68132c0.53865 0 0.86931-0.19066 0.86931-1.0506 0-0.85064-0.33066-0.99998-0.78931-0.99998-0.39066 0-0.87064 0.14-1.22 0.30933v-0.95998c0.24933-0.08933 0.82931-0.23866 1.3-0.23866 0.97998 0 1.6293 0.32932 1.6293 1.8893 0 0.75998-0.19066 1.2293-0.54932 1.46 0.43866 0.23066 0.69998 0.74932 0.69998 1.66 0 1.7-0.68132 2.0893-1.7706 2.0893" style="fill:#8b5ba5;stroke-width:1.3333"/>
	<path d="m12.697 31.076c-0.53999 0-1.0693-0.14933-1.36-0.26933v-0.97064c0.35999 0.2 0.89064 0.35999 1.28 0.35999 0.55065 0 0.91064-0.21999 0.91064-1.2 0-1.0093-0.41066-1.24-0.99064-1.24h-0.68932v-0.83998h0.67998c0.53999 0 0.86931-0.18933 0.86931-1.0493 0-0.85064-0.32932-0.99998-0.78931-0.99998-0.39066 0-0.87064 0.14-1.22 0.30933v-0.95998c0.25066-0.08933 0.82931-0.23999 1.3-0.23999 0.97998 0 1.6293 0.33066 1.6293 1.8906 0 0.75998-0.18933 1.2293-0.54932 1.4586 0.43999 0.23066 0.69998 0.75065 0.69998 1.6613 0 1.6986-0.67998 2.0893-1.7706 2.0893" style="fill:#8b5ba5;stroke-width:1.3333"/>
	<path d="m17.048 26.343-1.08 2.0506h1.42v-1.9706c0-0.37999 0.04933-0.91998 0.04933-0.91998s-0.20933 0.49999-0.38932 0.83998zm1.26 2.8199v1.82h-0.91998v-1.82h-2.3106v-0.55999l2.3599-4.5599h0.87064v4.3506h0.55999v0.76932h-0.55999" style="fill:#8b5ba5;stroke-width:1.3333"/>
	<path d="m462.92 252.28h12.57v-8.0398h-12.57z" style="fill:#fff;stroke-width:1.3333"/>
	<path d="m466.55 248.71 0.11333-0.0787c0-1.3586-0.0733-1.7813-0.48132-1.7813-0.34399 0-0.44932 0.24532-0.44932 1.0093 0 0.76532 0.0987 1.0026 0.43599 1.0026 0.144 0 0.26266-0.0653 0.38132-0.152zm-0.36799-2.3866c0.86265 0 1.0946 0.56665 1.0946 2.196 0 1.4173-0.0347 2.4866-1.136 2.4866-0.26266 0-0.63865-0.112-0.83731-0.21199v-0.63199c0.27199 0.164 0.53465 0.264 0.78531 0.264 0.37599 0 0.55999-0.27066 0.57465-1.2533-0.12666 0.0987-0.34399 0.224-0.54132 0.224-0.69331 0-1.0093-0.44799-1.0093-1.5373 0-1.1146 0.32266-1.536 1.0693-1.536" style="fill:#8b5ba5;stroke-width:1.3333"/>
	<path d="m468.92 248.74c-0.276 0.46265-0.38933 0.72531-0.38933 1.5306v0.67199h-0.60665v-0.67199c0-1.056 0.252-1.4906 0.50132-1.88 0.264-0.40799 0.41733-0.67332 0.42266-1.28v-0.13066h-1.4506v-0.58799h2.0586v0.44933c0 1.0946-0.27199 1.4826-0.53598 1.8986" style="fill:#8b5ba5;stroke-width:1.3333"/>
	<path d="m473.08 248.89c-0.19732 0-0.29599 0.13866-0.29599 0.52798 0 0.38933 0.0987 0.52799 0.29599 0.52799 0.192 0 0.29066-0.13866 0.29066-0.52799 0-0.38932-0.0987-0.52798-0.29066-0.52798zm0 1.4973c-0.47465 0-0.74531-0.31065-0.74531-0.96931 0-0.65998 0.27066-0.9693 0.74531-0.9693 0.47466 0 0.73865 0.30932 0.73865 0.9693 0 0.65866-0.26399 0.96931-0.73865 0.96931zm-1.7546-0.0667h-0.39466l1.8533-4.5506h0.39599zm-0.29599-4.1746c-0.19733 0-0.29599 0.13866-0.29599 0.52798 0 0.38933 0.0987 0.52799 0.29599 0.52799 0.19066 0 0.28932-0.13866 0.28932-0.52799 0-0.38932-0.0987-0.52798-0.28932-0.52798zm0 1.4973c-0.47466 0-0.74532-0.30932-0.74532-0.96931 0-0.65865 0.27066-0.96931 0.74532-0.96931 0.47465 0 0.73865 0.31066 0.73865 0.96931 0 0.65999-0.264 0.96931-0.73865 0.96931" style="fill:#8b5ba5;stroke-width:1.3333"/>
	<path d="m463 347.52h12.57v-8.0398h-12.57z" style="fill:#fff;stroke-width:1.3333"/>
	<path d="m466.36 343.75c-0.27599 0.46132-0.38932 0.72665-0.38932 1.5306v0.67198h-0.60665v-0.67198c0-1.056 0.25199-1.492 0.50132-1.88 0.26399-0.40932 0.41599-0.67332 0.42399-1.28v-0.132h-1.452v-0.58665h2.0586v0.44932c0 1.0933-0.27199 1.4826-0.53599 1.8986" style="fill:#8b5ba5;stroke-width:1.3333"/>
	<path d="m467.99 346.02c-0.33599 0-0.66532-0.11333-0.83065-0.19199v-0.63999c0.23066 0.13867 0.52132 0.25066 0.77865 0.25066 0.36132 0 0.56665-0.13866 0.56665-0.80398 0-0.65198-0.19866-0.81198-0.54132-0.81198h-0.79064v-2.4199h1.8466v0.58665h-1.2666v1.2786h0.32933c0.60665 0 1.036 0.24533 1.036 1.36s-0.43466 1.392-1.128 1.392" style="fill:#8b5ba5;stroke-width:1.3333"/>
	<path d="m472.79 343.9c-0.19866 0-0.29733 0.13866-0.29733 0.52798 0 0.38933 0.0987 0.52799 0.29733 0.52799 0.19066 0 0.28932-0.13866 0.28932-0.52799 0-0.38932-0.0987-0.52798-0.28932-0.52798zm0 1.496c-0.47599 0-0.74665-0.30933-0.74665-0.96798 0-0.65998 0.27066-0.96931 0.74665-0.96931 0.47332 0 0.73731 0.30933 0.73731 0.96931 0 0.65865-0.26399 0.96798-0.73731 0.96798zm-1.756-0.0653h-0.39465l1.8533-4.5506h0.39599zm-0.29466-4.1746c-0.19866 0-0.29732 0.13867-0.29732 0.52799 0 0.38933 0.0987 0.52665 0.29732 0.52665 0.18933 0 0.288-0.13732 0.288-0.52665 0-0.38932-0.0987-0.52799-0.288-0.52799zm0 1.4973c-0.47599 0-0.74665-0.30933-0.74665-0.96931s0.27066-0.97064 0.74665-0.97064c0.47332 0 0.73732 0.31066 0.73732 0.97064s-0.264 0.96931-0.73732 0.96931" style="fill:#8b5ba5;stroke-width:1.3333"/>
	<path d="m463.12 430.35h12.572v-8.0385h-12.572z" style="fill:#fff;stroke-width:1.3333"/>
	<path d="m465.23 428.27v-0.44266c0-0.47332 0.20399-0.83731 0.71198-1.3386 0.55999-0.55465 0.71865-0.76531 0.71865-1.1346 0-0.33599-0.192-0.47999-0.50132-0.47999-0.30266 0-0.59999 0.11734-0.92931 0.26933v-0.65332c0.23066-0.084 0.68398-0.21732 0.98131-0.21732 0.65331 0 1.0493 0.29066 1.0493 1.0426 0 0.63998-0.29599 0.98931-0.99597 1.6613-0.29066 0.29066-0.41466 0.46265-0.44132 0.71331h1.496v0.57999h-2.0893" style="fill:#8b5ba5;stroke-width:1.3333"/>
	<path d="m468.39 428.96c-0.33599 0-0.66532-0.112-0.83065-0.19067v-0.63998c0.23066 0.13866 0.51999 0.24933 0.77865 0.24933 0.36132 0 0.56665-0.13733 0.56665-0.80398 0-0.65199-0.19866-0.80932-0.54132-0.80932h-0.79064v-2.4226h1.8453v0.58932h-1.2653v1.2786h0.32933c0.60665 0 1.036 0.244 1.036 1.3586s-0.43599 1.3906-1.128 1.3906" style="fill:#8b5ba5;stroke-width:1.3333"/>
	<path d="m473.19 426.84c-0.19733 0-0.29599 0.13866-0.29599 0.52932 0 0.38799 0.0987 0.52665 0.29599 0.52665 0.19199 0 0.29066-0.13866 0.29066-0.52665 0-0.39066-0.0987-0.52932-0.29066-0.52932zm0 1.4973c-0.47466 0-0.74532-0.30932-0.74532-0.96797 0-0.65998 0.27066-0.97064 0.74532-0.97064 0.47465 0 0.73865 0.31066 0.73865 0.97064 0 0.65865-0.264 0.96797-0.73865 0.96797zm-1.7546-0.0653h-0.39466l1.8533-4.5519h0.39599zm-0.296-4.1746c-0.19733 0-0.29599 0.13866-0.29599 0.52665 0 0.39066 0.0987 0.52932 0.29599 0.52932 0.19066 0 0.28933-0.13866 0.28933-0.52932 0-0.38799-0.0987-0.52665-0.28933-0.52665zm0 1.4973c-0.47465 0-0.74531-0.31066-0.74531-0.97065 0-0.65865 0.27066-0.9693 0.74531-0.9693 0.47466 0 0.73865 0.31065 0.73865 0.9693 0 0.65999-0.26399 0.97065-0.73865 0.97065" style="fill:#8b5ba5;stroke-width:1.3333"/>
	<path d="m464.07 489.95h10.716v-8.0385h-10.716z" style="fill:#fff;stroke-width:1.3333"/>
	<path d="m466.87 488.59c-0.356 0-0.70532-0.1-0.89731-0.17866v-0.64132c0.23732 0.13333 0.58798 0.23866 0.84397 0.23866 0.36399 0 0.59999-0.14399 0.59999-0.79198 0-0.66531-0.26933-0.81731-0.65198-0.81731h-0.45599v-0.55332h0.44932c0.35599 0 0.57465-0.12533 0.57465-0.69198 0-0.55999-0.21866-0.65999-0.52265-0.65999-0.256 0-0.57199 0.092-0.80398 0.204v-0.63332c0.16533-0.06 0.54798-0.15866 0.85731-0.15866 0.64665 0 1.076 0.21866 1.076 1.248 0 0.50132-0.12666 0.81064-0.36399 0.96264 0.29066 0.152 0.46132 0.49332 0.46132 1.0946 0 1.12-0.44799 1.3786-1.1666 1.3786" style="fill:#8b5ba5;stroke-width:1.3333"/>
	<path d="m471.72 486.47c-0.19866 0-0.29733 0.13733-0.29733 0.52666 0 0.38932 0.0987 0.52932 0.29733 0.52932 0.19066 0 0.29066-0.14 0.29066-0.52932 0-0.38933-0.1-0.52666-0.29066-0.52666zm0 1.496c-0.47599 0-0.74665-0.31066-0.74665-0.96931s0.27066-0.96798 0.74665-0.96798c0.47332 0 0.73865 0.30933 0.73865 0.96798s-0.26533 0.96931-0.73865 0.96931zm-1.756-0.0653h-0.39332l1.852-4.5506h0.39599zm-0.29466-4.1746c-0.19866 0-0.29732 0.13867-0.29732 0.52799s0.0987 0.52665 0.29732 0.52665c0.18933 0 0.28933-0.13733 0.28933-0.52665s-0.1-0.52799-0.28933-0.52799zm0 1.4973c-0.47599 0-0.74665-0.30933-0.74665-0.96931s0.27066-0.97064 0.74665-0.97064c0.47332 0 0.73865 0.31066 0.73865 0.97064s-0.26533 0.96931-0.73865 0.96931" style="fill:#8b5ba5;stroke-width:1.3333"/>
	<path d="m12.397 649.67v-0.87998h0.81065v-3.9492l-0.81065 0.36932v-0.93064l1.0906-0.56932h0.66932v5.0799h0.79998v0.87998h-2.5599" style="fill:#8b5ba5;stroke-width:1.3333"/>
	<path d="m16.048 649.67v-0.87998h0.80931v-3.9492l-0.80931 0.36932v-0.93064l1.0906-0.56932h0.66932v5.0799h0.79998v0.87998h-2.5599" style="fill:#8b5ba5;stroke-width:1.3333"/>
	<g transform="translate(-6.4e-5 -679.83)">
		<path d="m0.91018 684.58c0 0.35866-0.039066 0.67999-0.039066 0.67999s0.14973-0.31066 0.31906-0.57066l1.1809-1.74h0.91958l-1.4104 1.94 1.3504 3.0599h-0.94944l-0.95038-2.2799-0.42066 0.57999v1.7h-0.91011v-6.8998h0.91011v3.5306" style="fill:#8b5ba5;stroke-width:1.3333"/>
		<path d="m5.2706 687.25c0.18 0 0.35066-0.08 0.61998-0.38932l0.2-0.23066v-2.3586l-0.2-0.23066c-0.26933-0.31066-0.43999-0.38933-0.61998-0.38933-0.27999 0-0.52932 0.10933-0.52932 1.7986 0 1.6906 0.24933 1.8 0.52932 1.8zm0.25999 2.6999c-0.57999 0-1.08-0.18933-1.4093-0.30932v-0.91065c0.40932 0.26133 0.83998 0.43066 1.3093 0.43066 0.41999 0 0.65998-0.18 0.65998-0.77065v-0.89864l-0.16 0.14933c-0.24933 0.23999-0.59998 0.40932-0.87998 0.40932-0.79065 0-1.2306-0.58932-1.2306-2.5999 0-2.0106 0.43999-2.5999 1.2306-2.5999 0.31999 0 0.67998 0.2 0.95064 0.47065l0.19866 0.2c0.070665-0.24933 0.17066-0.46132 0.26133-0.57065h0.65998c-0.070665 0.32132-0.099997 0.89998-0.099997 1.4v3.9999c0 1.1706-0.54132 1.6-1.4906 1.6" style="fill:#8b5ba5;stroke-width:1.3333"/>
		<path d="m8.4199 688h-0.59998l2.8106-6.9998h0.59998l-2.8106 6.9998" style="fill:#8b5ba5;stroke-width:1.3333"/>
		<path d="m15.12 683.36c0.30932-0.31999 0.65065-0.51065 0.99998-0.51065 0.77998 0 0.96931 0.58132 0.96931 1.4893v3.6106h-0.92931v-3.7092c0-0.40132-0.10933-0.55065-0.31999-0.55065-0.16 0-0.31866 0.1-0.59998 0.41999 0 0-0.22 0.23999-0.22 0.25066v3.5892h-0.93064v-3.7092c0-0.40132-0.10933-0.55065-0.31999-0.55065-0.15866 0-0.30933 0.1-0.59865 0.41999l-0.21999 0.23999v3.5999h-0.93064v-3.5999c0-0.49998-0.03067-1.0786-0.1-1.4h0.66132c0.07867 0.1 0.17866 0.33999 0.25866 0.63065l0.21066-0.22c0.31066-0.31999 0.64932-0.51065 0.99998-0.51065 0.51999 0 0.77998 0.25999 0.88931 0.69998l0.18-0.18933" style="fill:#8b5ba5;stroke-width:1.3333"/>
		<path d="m17.948 683.95v-0.35599c0-0.38399 0.16533-0.67865 0.57732-1.084 0.45199-0.44799 0.57998-0.61865 0.57998-0.91598 0-0.27199-0.15466-0.38932-0.40532-0.38932-0.24533 0-0.48532 0.0947-0.75198 0.21866v-0.52932c0.188-0.068 0.55465-0.176 0.79598-0.176 0.52665 0 0.84665 0.23466 0.84665 0.84265 0 0.51732-0.23866 0.79998-0.80531 1.344-0.23466 0.23466-0.33599 0.37332-0.35732 0.57731h1.212v0.46799h-1.692" style="fill:#8b5ba5;stroke-width:1.3333"/>
	</g>
	<text x="38.015274" y="36.509819" style="fill:#231f20;font-family:Bliss;font-size:11.557px;font-weight:300;stroke-width:1.651">
		<tspan x="38.015274 42.932907 46.140064 51.276131 55.961468 61.1091 65.239685 68.23764 73.385284 77.157585 82.293655 87.811134 90.242752 92.720657 96.85125 99.849236 104.98528 107.98324 113.51228 118.64835 122.25886 126.03117 128.50905 131.9462 134.94417 140.53099 145.67859 149.80917 152.80716 158.39395 164.10791 169.76407 175.42021 180.56784 185.7155 189.84607 192.84398 198.43085 203.57846 206.5764 209.00809 211.57845 216.72603 220.49835 226.14296 231.72975 236.87738 239.87537 244.00595 249.15358 254.80971 260.45432 265.6019 271.25812 275.0304 277.5083 282.65591 285.08759 287.51926 292.66684 295.66486 298.96329 302.16934 307.30539 312.96152 317.64682 322.78293 325.26083 329.39136 334.53897 337.53699 343.12381 348.27142 351.26935 353.70102 358.83713 361.83511 366.52042 369.84314 375.55707 378.03494 382.16556 386.29617 391.43222 397.08835 401.77368 406.92133 409.91925 416.45383 419.08194 424.28732 428.30234 430.93054 439.00217 444.34622 449.55164 455.47363 464.44672" y="36.509819" style="stroke-width:1.651">
			<tspan style="font-family:Arial;font-weight:normal;stroke-width:1.651">Tracés établis à partir des données de l’étude séquentielle française de la croissance CIE-INSERM</tspan>
.		</tspan>
		<tspan x="38.015274 41.41774 50.390846 52.498898 56.918411 61.62109 67.169762 72.883682 75.315361 77.747009 82.88308 88.53923 94.126053 98.14106 104.67555 109.81161 114.61023 120.26636 125.41401 128.62003 133.75609 136.75403 142.3524 145.35039 154.32347 159.02498 164.36909 169.51672 178.58228 184.1113 189.25893 192.66144 199.37851 205.18028 210.31638 213.6391 216.11696 221.25307 225.02536 227.50325 233.21719 238.87335 243.00394 246.00188 251.14952 256.80566 259.80368 264.48898 269.63663 275.29279 279.06509 281.54297 283.97464 289.12222 293.25284" y="49.718689" style="font-family:Arial;font-weight:normal;stroke-width:1.651">(M.F.Rolland-Cachera – M.Sempé).Variations en centiles.</tspan>
	</text>
</svg>
