<svg id="Capa_1" xmlns:rdf="http://www.w3.org/1999/02/22-rdf-syntax-ns#" xmlns="http://www.w3.org/2000/svg" xml:space="preserve" viewBox="0 0 385.34484 385.34484" height="612" width="612" version="1.1" y="0px" x="0px" xmlns:cc="http://creativecommons.org/ns#" xmlns:dc="http://purl.org/dc/elements/1.1/"><g><flowRoot id="flowRoot3033" style="word-spacing:0px;letter-spacing:0px" line-height="125%" xml:space="preserve" font-size="40px" transform="translate(0 62.965)" font-family="Sans" fill="#ffffff"><flowRegion id="flowRegion3035"><rect id="rect3037" height="184.41" width="143.19" y="229.97" x="162.71" fill="#fff"/></flowRegion><flowPara id="flowPara3039"/></flowRoot><path id="path3050" d="m124.97 205.15s-11.284-37.253 10.49-59.026c28.553-25.332 47.126 25.029 59.648 13.768 18.471-9.6488 32.343-31.696 53.192-13.768 34.416 41.678-0.80691 92.11-0.80691 92.11s-7.7238 18.106-40.116 0.26897c-13.505-7.4365 19.388-40.477 4.945-45.87-7.3838-2.7571-12.18 11.011-20.062 11.011-7.8817 0-12.298-11.486-19.682-8.7291-14.443 5.3929 14.705 32.686 3.8038 43.587-9.6456 9.6456-37.043 11.592-40.654-1.8828" fill="#337ab7"/><g id="g3895" fill="#337ab7" transform="translate(31.526 31.438)"><g id="g3891"><path id="path7" d="m66.945 51.904c6.903 0 12.5-5.597 12.5-12.5s-5.597-12.5-12.5-12.5c-36.914 0-66.945 30.031-66.945 66.945 0 6.903 5.596 12.5 12.5 12.5 6.903 0 12.5-5.597 12.5-12.5 0-23.129 18.816-41.945 41.945-41.945z"/><path id="path9" d="m93.675 77.907c0-6.903-5.597-12.5-12.5-12.5-23.529 0-42.672 19.142-42.672 42.671 0 6.903 5.597 12.5 12.5 12.5s12.5-5.597 12.5-12.5c0-9.744 7.928-17.671 17.672-17.671 6.903 0 12.5-5.597 12.5-12.5z"/></g><g id="g3875"><path id="path11" d="m309.88 216.03c-6.903 0-12.5 5.597-12.5 12.5 0 23.129-18.816 41.945-41.945 41.945-6.903 0-12.5 5.597-12.5 12.5s5.597 12.5 12.5 12.5c36.914 0 66.945-30.031 66.945-66.945 0-6.904-5.597-12.5-12.5-12.5z"/><path id="path13" d="m283.88 214.3c0-6.903-5.597-12.5-12.5-12.5s-12.5 5.597-12.5 12.5c0 9.744-7.927 17.671-17.671 17.671-6.903 0-12.5 5.597-12.5 12.5s5.597 12.5 12.5 12.5c23.529 0 42.671-19.141 42.671-42.671z"/></g><g id="g3879" transform="matrix(-.088334 -.99609 .99609 -.088334 50.573 368.48)"><path id="path3881" d="m309.88 216.03c-6.903 0-12.5 5.597-12.5 12.5 0 23.129-18.816 41.945-41.945 41.945-6.903 0-12.5 5.597-12.5 12.5s5.597 12.5 12.5 12.5c36.914 0 66.945-30.031 66.945-66.945 0-6.904-5.597-12.5-12.5-12.5z"/><path id="path3883" d="m283.88 214.3c0-6.903-5.597-12.5-12.5-12.5s-12.5 5.597-12.5 12.5c0 9.744-7.927 17.671-17.671 17.671-6.903 0-12.5 5.597-12.5 12.5s5.597 12.5 12.5 12.5c23.529 0 42.671-19.141 42.671-42.671z"/></g><g id="g3885" transform="matrix(.22191 .97507 -.97507 .22191 237.57 -71.256)"><path id="path3887" d="m309.88 216.03c-6.903 0-12.5 5.597-12.5 12.5 0 23.129-18.816 41.945-41.945 41.945-6.903 0-12.5 5.597-12.5 12.5s5.597 12.5 12.5 12.5c36.914 0 66.945-30.031 66.945-66.945 0-6.904-5.597-12.5-12.5-12.5z"/><path id="path3889" d="m283.88 214.3c0-6.903-5.597-12.5-12.5-12.5s-12.5 5.597-12.5 12.5c0 9.744-7.927 17.671-17.671 17.671-6.903 0-12.5 5.597-12.5 12.5s5.597 12.5 12.5 12.5c23.529 0 42.671-19.141 42.671-42.671z"/></g></g></g></svg>
