<svg width="485.84" height="491.2" version="1.1" viewBox="0 0 485.83869 491.19416" xmlns="http://www.w3.org/2000/svg">
	<path d="m468.25 189.45-53.013 1.7906-26.758 4.4786-26.507 11.644-26.255 19.105-53.265 59.115-26.509 23.582-26.759 20.005-26.002 17.316-53.771 28.363-79.521 31.046-26.27 10.206-28.083 12.116v16.476l26.759-8.6558 53.848-13.424 53.015-11.94 53.519-14.928 26.759-7.7625 52.256-20.004 27.517-14.928 26.507-17.913 27.011-16.122 26.253-13.132 26.507-8.3638 52.511-1.4893 0.25199-106.58" style="fill:#fff;stroke-width:1.3333"/>
	<path d="m15.782 433.72h453.54" style="fill:none;stroke-width:.66665;stroke:#a9c0a6"/>
	<path d="m15.84 390.38h453.42m-453.42-43.338h453.42" style="fill:none;stroke-width:.66665;stroke:#a9c0a6"/>
	<path d="m15.782 303.71h453.54m-453.54-43.338h453.54m-453.54-43.338h453.54m-453.54-43.338h453.54m-453.42-43.338h453.31" style="fill:none;stroke-width:.66665;stroke:#a9c0a6"/>
	<path d="m15.7 87.023h453.56m-453.56-43.338h453.56m-453.56-43.336h453.56" style="fill:none;stroke-width:.66675;stroke:#a9c0a6"/>
	<path d="m15.53 477.05h453.54" style="fill:none;stroke-width:.66665;stroke:#a9c0a6"/>
	<path d="m15.922 468.39h453.26" style="fill:none;stroke-width:.33332;stroke:#a9c0a6"/>
	<path d="m15.864 459.72h453.38m-453.38-17.334h453.38m-453.38-26.003h453.38m-453.38-8.6664h453.38m-453.38-8.6678h453.38" style="fill:none;stroke-width:.33332;stroke:#a9c0a6"/>
	<path d="m15.922 381.71h453.26m-453.26-17.334h453.26m-453.26-8.6678h453.26m-453.26-17.336h453.26m-453.26-17.334h453.26m-453.26-8.6678h453.26" style="fill:none;stroke-width:.33332;stroke:#a9c0a6"/>
	<path d="m15.865 286.37h453.36m-453.36-8.6664h453.36m-453.36-8.6678h453.36m-453.36-26.003h453.36m-453.36-8.6664h453.36m-453.36-8.6678h453.36m-453.36-17.336h453.36m-453.36-17.334h453.36m-453.36-8.6678h453.36m-453.36-17.336h453.36m-453.36-17.334h453.36m-453.36-8.6678h453.36m-453.36-17.336h453.36" style="fill:none;stroke-width:.33332;stroke:#a9c0a6"/>
	<path d="m15.782 104.36h453.54m-453.54-8.6678h453.54m-453.54-17.336h453.54m-453.54-17.334h453.54m-453.54-8.6678h453.54m-453.54-17.336h453.54m-453.54-17.334h453.54m-453.54-8.6678h453.54" style="fill:none;stroke-width:.33332;stroke:#a9c0a6"/>
	<path d="m15.796 26.349h453.52m-453.52 43.338h453.52" style="fill:none;stroke-width:.33332;stroke:#a9c0a6"/>
	<path d="m15.866 113.02h453.36m-453.36 43.336h453.36m-453.36 43.338h453.36m-453.36 52.005h453.36m-453.36 43.338h453.36" style="fill:none;stroke-width:.33332;stroke:#a9c0a6"/>
	<path d="m15.924 329.71h453.24m-453.24 43.338h453.24" style="fill:none;stroke-width:.33332;stroke:#a9c0a6"/>
	<path d="m15.866 425.05h453.36m-453.36 26.003h453.36" style="fill:none;stroke-width:.33332;stroke:#a9c0a6"/>
	<path d="m15.478 477.16v-477.16" style="fill:none;stroke-width:.57115;stroke:#a9c0a6"/>
	<path d="m42.163 477.06v-476.77m26.683 476.77v-476.77m26.685 476.77v-476.77m26.685 476.77v-476.77m26.681 476.77v-476.77m26.685 476.77v-476.77m26.687 476.77v-476.77m26.681 476.77v-476.77m26.683 476.77v-476.77m26.685 476.77v-476.77m26.683 476.77v-476.77m26.685 476.77v-476.77m26.685 476.77v-476.77m26.683 476.77v-476.77m26.685 476.77v-476.77m26.685 476.77v-476.77" style="fill:none;stroke-width:.57206;stroke:#a9c0a6"/>
	<path d="m469.1 477.44v-477.38" style="fill:none;stroke-width:.57129;stroke:#a9c0a6"/>
	<path d="m22.148 477.06v-476.77m13.344 476.77v-476.77m13.341 476.77v-476.77m13.342 476.77v-476.77m13.341 476.77v-476.77m13.344 476.77v-476.77m13.341 476.77v-476.77m13.344 476.77v-476.77m13.341 476.77v-476.77m13.342 476.77v-476.77m13.341 476.77v-476.77m13.344 476.77v-476.77m13.341 476.77v-476.77m13.344 476.77v-476.77m13.341 476.77v-476.77m13.342 476.77v-476.77m13.341 476.77v-476.77m13.342 476.77v-476.77m13.341 476.77v-476.77m13.344 476.77v-476.77m13.341 476.77v-476.77m13.342 476.77v-476.77m13.341 476.77v-476.77m13.344 476.77v-476.77m13.341 476.77v-476.77m13.344 476.77v-476.77m13.341 476.77v-476.77m13.34 476.77v-476.77m13.344 476.77v-476.77m13.341 476.77v-476.77m13.344 476.77v-476.77m13.341 476.77v-476.77" style="fill:none;stroke-width:.28546;stroke:#a9c0a6"/>
	<path d="m449.09 476.67v-476.29m13.34 476.29v-476.29" style="fill:none;stroke-width:.28548;stroke:#a9c0a6"/>
	<path d="m28.819 477.06v-476.74m26.683 476.74v-476.74m26.685 476.74v-476.74m26.685 476.74v-476.74m26.683 476.74v-476.74m26.685 476.74v-476.74m26.685 476.74v-476.74m26.683 476.74v-476.74m26.685 476.74v-476.74m26.683 476.74v-476.74m26.683 476.74v-476.74m26.685 476.74v-476.74m26.685 476.74v-476.74m26.683 476.74v-476.74m26.685 476.74v-476.74m26.685 476.74v-476.74" style="fill:none;stroke-width:.28545;stroke:#a9c0a6"/>
	<path d="m455.77 476.67v-476.32" style="fill:none;stroke-width:.28549;stroke:#a9c0a6"/>
	<path d="m42.163 416.58-26.685 11.686m53.368-22.071-26.683 10.385m53.368-20.339-26.685 9.9544m53.369-20.341-26.685 10.386m53.365-21.203-26.681 10.817m53.365-24.234-26.685 13.417m53.372-28.561-26.687 15.144m53.368-32.455-26.681 17.312m53.364-37.218-26.683 19.906m53.368-43.71-26.685 23.803m53.368-52.365-26.683 28.562m26.683-28.562 22.703-26.143s4.8666-5.0905 9.1758-8.2918l14.006-9.9931s7.1452-5.3465 17.808-9.8598l11.286-4.9412s3.9199-2.1 10.397-3.0866l15.456-2.5026s6.5438-0.94665 11.2-1.2146l21.39-1.0426m26.683-0.86531-26.683 0.86531" style="fill:none;stroke-width:.99998;stroke:#ec008c"/>
	<path d="m255.63 338.24-26.683 13.852-26.681 13.416-26.687 12.548-26.685 10.386-26.681 8.6571-26.685 8.6531-26.685 8.2225-26.683 9.0891l-26.685 10.817m293.53-136.74-26.683 22.934-26.685 18.174m213.47-107.75-26.683 0.86531-26.685 2.5959-15.993 2.8546c-10.333 1.1106-19.61 7.1132-19.61 7.1132l-17.765 10.373-26.685 19.041-26.685 23.802m160.1-27.266-26.683 1.3-19.012 0.61599c-7.5558 0.53599-14.209 1.7333-14.209 1.7333l-11.984 2.7213c-7.8598 1.8786-15.43 5.8612-15.43 5.8612l-19.418 10.709-26.685 17.742-26.685 19.472-26.683 17.744-26.685 13.416-26.683 9.9518-26.681 12.55-26.687 8.6558-26.685 8.6531-26.681 7.3598-26.685 6.9238-26.685 6.9212-26.683 8.6544-26.685 8.6544" style="fill:none;stroke-dasharray:2.6666, 2.6666;stroke-width:.99998;stroke:#ec008c"/>
	<path d="m42.163 436.05-26.685 8.6544m53.368-15.578-26.683 6.9238m53.368-13.417-26.685 6.4932m53.369-12.12-26.685 5.6265m53.365-11.682-26.681 6.0558m53.365-12.98-26.685 6.9238m53.372-15.148-26.687 8.2238m53.368-15.581-26.681 7.3572m53.364-17.744-26.683 10.386m26.683-10.386 15.389-5.9905s14.837-5.9838 22.337-10.485l15.642-8.6264m26.685-17.74-26.685 17.74m53.369-34.184-26.685 16.445m106.74-38.516-18.568 0.60265s-9.3718 0.14399-17.686 3.2119l-12.601 3.8812s-4.4826 1.3066-9.0144 3.5799l-22.183 10.796m106.74-22.934-26.683 0.86265" style="fill:none;stroke-width:.99998;stroke:#ec008c"/>
	<path d="m0.62935 435.35v-0.87998h0.80931v-3.9492l-0.80931 0.36932v-0.93064l1.0893-0.56932h0.67065v5.0799h0.79998v0.87998h-2.5599" style="fill:#ef5ba1;stroke-width:1.3333"/>
	<path d="m5.9759 430.12c-0.62932 0-0.75998 0.43999-0.75998 2.2506 0 1.8093 0.13066 2.2493 0.75998 2.2493 0.63998 0 0.76131-0.43998 0.76131-2.2493 0-1.8106-0.12133-2.2506-0.76131-2.2506zm0 5.3305c-1.22 0-1.7-0.74931-1.7-3.0799 0-2.3293 0.47999-3.0799 1.7-3.0799 1.22 0 1.7106 0.75065 1.7106 3.0799 0 2.3306-0.49065 3.0799-1.7106 3.0799" style="fill:#ef5ba1;stroke-width:1.3333"/>
	<path d="m0.56268 392.06v-0.67065c0-0.71998 0.30933-1.2693 1.08-2.0306 0.85065-0.83998 1.0906-1.16 1.0906-1.72 0-0.50932-0.29066-0.72932-0.76131-0.72932-0.45866 0-0.90931 0.18-1.4093 0.41066v-0.99064c0.34933-0.13066 1.04-0.32933 1.4906-0.32933 0.98931 0 1.5893 0.43999 1.5893 1.5786 0 0.97064-0.45065 1.5-1.5106 2.5213-0.43999 0.43999-0.62932 0.69865-0.66932 1.0786h2.2706v0.88131h-3.1706" style="fill:#ef5ba1;stroke-width:1.3333"/>
	<path d="m6.4159 386.82c-0.62932 0-0.75998 0.43999-0.75998 2.2493 0 1.8106 0.13066 2.2506 0.75998 2.2506 0.64132 0 0.76131-0.43999 0.76131-2.2506 0-1.8093-0.11999-2.2493-0.76131-2.2493zm0 5.3305c-1.22 0-1.7-0.75065-1.7-3.0813 0-2.3293 0.47999-3.0786 1.7-3.0786 1.22 0 1.7106 0.74931 1.7106 3.0786 0 2.3306-0.49065 3.0813-1.7106 3.0813" style="fill:#ef5ba1;stroke-width:1.3333"/>
	<path d="m1.8826 349.79c-0.53999 0-1.0706-0.14933-1.36-0.27066v-0.96931c0.35999 0.2 0.88931 0.35999 1.2786 0.35999 0.55198 0 0.91064-0.21999 0.91064-1.2 0-1.0093-0.41066-1.24-0.98931-1.24h-0.69065v-0.83997h0.67999c0.53998 0 0.86931-0.18933 0.86931-1.0506 0-0.84932-0.32933-0.99998-0.78798-0.99998-0.39066 0-0.87198 0.14133-1.22 0.31066v-0.95998c0.24932-0.0907 0.82931-0.23999 1.2986-0.23999 0.98131 0 1.6306 0.32932 1.6306 1.8893 0 0.75998-0.19066 1.2306-0.55066 1.4613 0.43999 0.22933 0.69999 0.74932 0.69999 1.66 0 1.6986-0.67999 2.0893-1.7693 2.0893" style="fill:#ef5ba1;stroke-width:1.3333"/>
	<path d="m6.4292 343.51c-0.63065 0-0.75998 0.43999-0.75998 2.2506 0 1.8093 0.12933 2.2493 0.75998 2.2493 0.64132 0 0.75998-0.43999 0.75998-2.2493 0-1.8106-0.11866-2.2506-0.75998-2.2506zm0 5.3305c-1.22 0-1.7-0.74931-1.7-3.0799 0-2.3293 0.47999-3.0799 1.7-3.0799 1.22 0 1.7093 0.75064 1.7093 3.0799 0 2.3306-0.48932 3.0799-1.7093 3.0799" style="fill:#ef5ba1;stroke-width:1.3333"/>
	<path d="m2.616 301.74-1.08 2.0506h1.42v-1.9693c0-0.37999 0.0493-0.92131 0.0493-0.92131s-0.20933 0.49999-0.38933 0.83998zm1.26 2.8199v1.8213h-0.91998v-1.8213h-2.3106v-0.55865l2.3599-4.5599h0.87064v4.3492h0.55999v0.76931h-0.55999" style="fill:#ef5ba1;stroke-width:1.3333"/>
	<path d="m7.0692 300.22c-0.63066 0-0.75999 0.43999-0.75999 2.2493 0 1.8106 0.12933 2.2506 0.75999 2.2506 0.63998 0 0.75998-0.43999 0.75998-2.2506 0-1.8093-0.12-2.2493-0.75998-2.2493zm0 5.3305c-1.22 0-1.7-0.75065-1.7-3.0812 0-2.3293 0.47999-3.0786 1.7-3.0786 1.22 0 1.7093 0.74931 1.7093 3.0786 0 2.3306-0.48933 3.0812-1.7093 3.0812" style="fill:#ef5ba1;stroke-width:1.3333"/>
	<path d="m1.616 263.18c-0.50932 0-1.0093-0.17066-1.2586-0.28932v-0.97064c0.34933 0.20932 0.78932 0.37999 1.1786 0.37999 0.54932 0 0.86131-0.20933 0.86131-1.22 0-0.98931-0.30132-1.2306-0.81998-1.2306h-1.2013v-3.6692h2.8013v0.88931h-1.9213v1.94h0.49998c0.92131 0 1.5706 0.37066 1.5706 2.06 0 1.6906-0.65998 2.1106-1.7106 2.1106" style="fill:#ef5ba1;stroke-width:1.3333"/>
	<path d="m6.0959 256.91c-0.62932 0-0.75999 0.43999-0.75999 2.2506 0 1.8093 0.13067 2.2493 0.75999 2.2493 0.64131 0 0.76131-0.43999 0.76131-2.2493 0-1.8106-0.12-2.2506-0.76131-2.2506zm0 5.3305c-1.22 0-1.7-0.74932-1.7-3.0799 0-2.3293 0.47999-3.0799 1.7-3.0799 1.22 0 1.7093 0.75065 1.7093 3.0799 0 2.3306-0.48932 3.0799-1.7093 3.0799" style="fill:#ef5ba1;stroke-width:1.3333"/>
	<path d="m1.7093 215.31-0.17066 0.12c0 2.06 0.11066 2.6986 0.73064 2.6986 0.51999 0 0.67999-0.36932 0.67999-1.5293 0-1.16-0.15066-1.52-0.65999-1.52-0.21999 0-0.39999 0.1-0.57998 0.23066zm0.55998 3.6199c-1.3093 0-1.66-0.86131-1.66-3.3306 0-2.1506 0.0507-3.7692 1.72-3.7692 0.39999 0 0.96931 0.16933 1.2693 0.31999v0.95998c-0.40933-0.25066-0.80932-0.39999-1.1893-0.39999-0.56932 0-0.84931 0.40932-0.87064 1.9 0.19066-0.15066 0.52132-0.33999 0.81998-0.33999 1.0506 0 1.5306 0.67865 1.5306 2.3293 0 1.6893-0.48932 2.3306-1.62 2.3306" style="fill:#ef5ba1;stroke-width:1.3333"/>
	<path d="m6.6559 213.61c-0.62932 0-0.75865 0.43999-0.75865 2.2493 0 1.8106 0.12933 2.2506 0.75865 2.2506 0.63999 0 0.75998-0.43999 0.75998-2.2506 0-1.8093-0.11999-2.2493-0.75998-2.2493zm0 5.3305c-1.22 0-1.6986-0.75064-1.6986-3.0812 0-2.3293 0.47865-3.0786 1.6986-3.0786 1.22 0 1.7106 0.74931 1.7106 3.0786 0 2.3306-0.49066 3.0812-1.7106 3.0812" style="fill:#ef5ba1;stroke-width:1.3333"/>
	<path d="m2.9093 173.13c-0.42132 0.69998-0.59065 1.1-0.59065 2.3199v1.02h-0.91998v-1.02c0-1.6 0.37999-2.2599 0.75998-2.8493 0.39999-0.61998 0.63065-1.0213 0.63999-1.94v-0.20133h-2.2v-0.88931h3.1199v0.67998c0 1.66-0.41065 2.2506-0.80931 2.8799" style="fill:#ef5ba1;stroke-width:1.3333"/>
	<path d="m6.4159 170.3c-0.62932 0-0.75998 0.43998-0.75998 2.2506 0 1.8093 0.13066 2.2493 0.75998 2.2493 0.63998 0 0.75998-0.43999 0.75998-2.2493 0-1.8106-0.12-2.2506-0.75998-2.2506zm0 5.3305c-1.22 0-1.7-0.74932-1.7-3.0799 0-2.3293 0.47999-3.0799 1.7-3.0799 1.2186 0 1.7106 0.75065 1.7106 3.0799 0 2.3306-0.49199 3.0799-1.7106 3.0799" style="fill:#ef5ba1;stroke-width:1.3333"/>
	<path d="m13.225 490.09v-0.93864h0.86398v-4.2132l-0.86398 0.39466v-0.99198l1.164-0.60798h0.71332v5.4185h0.85331v0.93864h-2.7306" style="fill:#61bb46;stroke-width:1.3333"/>
	<path d="m39.956 490.09v-0.71464c0-0.76799 0.33066-1.3546 1.152-2.1653 0.90664-0.89598 1.1626-1.2373 1.1626-1.8346 0-0.54399-0.30932-0.77865-0.81065-0.77865-0.49065 0-0.97064 0.19199-1.504 0.43732v-1.056c0.37332-0.13867 1.1093-0.35199 1.5893-0.35199 1.056 0 1.696 0.46932 1.696 1.6853 0 1.0346-0.47999 1.6-1.6106 2.6879-0.46932 0.46932-0.67198 0.74665-0.71465 1.152h2.4213v0.93864h-3.3812" style="fill:#61bb46;stroke-width:1.3333"/>
	<path d="m67.892 491.2c-0.57465 0-1.1413-0.16-1.4493-0.28799v-1.0346c0.38399 0.21332 0.94798 0.38399 1.364 0.38399 0.58665 0 0.97064-0.23466 0.97064-1.28 0-1.0773-0.43599-1.3226-1.056-1.3226h-0.73465v-0.89598h0.72532c0.57598 0 0.92664-0.204 0.92664-1.12 0-0.90665-0.35066-1.0666-0.84131-1.0666-0.41599 0-0.92798 0.14933-1.3013 0.33065v-1.024c0.26666-0.096 0.88531-0.25599 1.3866-0.25599 1.0453 0 1.7386 0.35199 1.7386 2.016 0 0.81064-0.204 1.312-0.58665 1.5573 0.46799 0.24533 0.74532 0.79998 0.74532 1.7706 0 1.812-0.72532 2.2293-1.888 2.2293" style="fill:#61bb46;stroke-width:1.3333"/>
	<path d="m95.046 486.14-1.152 2.1866h1.5146v-2.1013c0-0.40533 0.05333-0.98131 0.05333-0.98131s-0.224 0.53332-0.41599 0.89598zm1.344 3.0079v1.9413h-0.9813v-1.9413h-2.4639v-0.59732l2.5173-4.8639h0.92797v4.6399h0.59732v0.82131h-0.59732" style="fill:#61bb46;stroke-width:1.3333"/>
	<path d="m121.58 491.2c-0.54399 0-1.0773-0.18133-1.344-0.30933v-1.0346c0.37332 0.224 0.84265 0.40533 1.2586 0.40533 0.58665 0 0.91731-0.224 0.91731-1.3013 0-1.056-0.32-1.312-0.87465-1.312h-1.28v-3.9146h2.9866v0.94931h-2.048v2.0693h0.53332c0.98131 0 1.6746 0.39466 1.6746 2.196 0 1.804-0.70398 2.2519-1.824 2.2519" style="fill:#61bb46;stroke-width:1.3333"/>
	<path d="m148.19 486.33-0.17999 0.128c0 2.1973 0.11733 2.8799 0.77865 2.8799 0.55465 0 0.72531-0.39599 0.72531-1.632 0-1.2373-0.15999-1.6213-0.70531-1.6213-0.23333 0-0.42533 0.10667-0.61866 0.24533zm0.59866 3.8612c-1.3986 0-1.7706-0.91731-1.7706-3.5519 0-2.2933 0.0533-4.0212 1.8346-4.0212 0.42532 0 1.0333 0.18133 1.3546 0.34133v1.024c-0.43732-0.26666-0.86398-0.42665-1.2693-0.42665-0.60932 0-0.90798 0.43732-0.92798 2.0266 0.20266-0.15999 0.55465-0.36399 0.87331-0.36399 1.12 0 1.6333 0.72665 1.6333 2.4866 0 1.8026-0.52265 2.4853-1.728 2.4853" style="fill:#61bb46;stroke-width:1.3333"/>
	<path d="m175.74 487.53c-0.44799 0.74665-0.62931 1.1733-0.62931 2.4733v1.0893h-0.98131v-1.0893c0-1.7053 0.40532-2.4093 0.81064-3.0386 0.42666-0.66132 0.67199-1.088 0.68265-2.0693v-0.21333h-2.3466v-0.94931h3.3279v0.72532c0 1.7706-0.43732 2.3999-0.86398 3.0719" style="fill:#61bb46;stroke-width:1.3333"/>
	<path d="m202.18 483.46c-0.53332 0-0.68265 0.30933-0.68265 1.1626 0 0.86398 0.14933 1.184 0.68265 1.184s0.68265-0.31999 0.68265-1.184c0-0.85331-0.14933-1.1626-0.68265-1.1626zm0 3.1679c-0.63998 0-0.78931 0.35199-0.78931 1.3546 0 1.0026 0.14933 1.3546 0.78931 1.3546 0.63999 0 0.78932-0.35199 0.78932-1.3546 0-1.0026-0.14933-1.3546-0.78932-1.3546zm0 3.5626c-1.28 0-1.7813-0.63999-1.7813-2.1866 0-0.91731 0.24533-1.5573 0.68265-1.8346-0.31999-0.27733-0.51198-0.84265-0.51198-1.5573 0-1.376 0.44798-1.9946 1.6106-1.9946s1.6106 0.61866 1.6106 1.9946c0 0.71465-0.20266 1.28-0.52266 1.5573 0.43733 0.27732 0.69332 0.91731 0.69332 1.8346 0 1.5466-0.50132 2.1866-1.7813 2.1866" style="fill:#61bb46;stroke-width:1.3333"/>
	<path d="m229.4 487.48 0.17999-0.12799c0-2.1973-0.11733-2.8799-0.77864-2.8799-0.55466 0-0.72532 0.39465-0.72532 1.632 0 1.2373 0.16 1.6213 0.70532 1.6213 0.23332 0 0.42532-0.10666 0.61865-0.24533zm-0.59865-3.8612c1.3986 0 1.7706 0.91731 1.7706 3.5519 0 2.2933-0.0533 4.0212-1.8346 4.0212-0.42532 0-1.0333-0.18133-1.3546-0.34132v-1.024c0.43732 0.26666 0.86397 0.42666 1.2693 0.42666 0.60931 0 0.90797-0.43733 0.92797-2.0266-0.20266 0.15866-0.55465 0.36266-0.87331 0.36266-1.12 0-1.6333-0.72532-1.6333-2.4853 0-1.8026 0.52265-2.4853 1.728-2.4853" style="fill:#61bb46;stroke-width:1.3333"/>
	<path d="m251.95 490.09v-0.93864h0.86398v-4.2132l-0.86398 0.39466v-0.99198l1.1626-0.60798h0.71465v5.4185h0.85331v0.93864h-2.7306" style="fill:#61bb46;stroke-width:1.3333"/>
	<path d="m256.96 484.51c-0.67198 0-0.81065 0.46932-0.81065 2.3999s0.13867 2.3999 0.81065 2.3999c0.68265 0 0.81065-0.46932 0.81065-2.3999s-0.128-2.3999-0.81065-2.3999zm0 5.6852c-1.3013 0-1.8133-0.79998-1.8133-3.2852s0.51199-3.2852 1.8133-3.2852 1.824 0.79998 1.824 3.2852-0.52265 3.2852-1.824 3.2852" style="fill:#61bb46;stroke-width:1.3333"/>
	<path d="m278.69 490.09v-0.93864h0.86264v-4.2132l-0.86264 0.39466v-0.99198l1.1626-0.60798h0.71465v5.4185h0.85331v0.93864h-2.7306" style="fill:#61bb46;stroke-width:1.3333"/>
	<path d="m281.89 490.09v-0.93864h0.86531v-4.2132l-0.86531 0.39466v-0.99198l1.1626-0.60798h0.71598v5.4185h0.85331v0.93864h-2.7319" style="fill:#61bb46;stroke-width:1.3333"/>
	<path d="m305.43 490.09v-0.93864h0.86265v-4.2132l-0.86265 0.39466v-0.99198l1.1626-0.60798h0.71465v5.4185h0.85198v0.93864h-2.7293" style="fill:#61bb46;stroke-width:1.3333"/>
	<path d="m308.63 490.09v-0.71464c0-0.76799 0.33066-1.3546 1.152-2.1653 0.90664-0.89598 1.1626-1.2373 1.1626-1.8346 0-0.54399-0.30932-0.77865-0.81064-0.77865-0.49066 0-0.96931 0.19199-1.504 0.43732v-1.056c0.37333-0.13867 1.1093-0.35199 1.5906-0.35199 1.056 0 1.6946 0.46932 1.6946 1.6853 0 1.0346-0.47866 1.6-1.6106 2.6879-0.46932 0.46932-0.67198 0.74665-0.71332 1.152h2.4199v0.93864h-3.3812" style="fill:#61bb46;stroke-width:1.3333"/>
	<path d="m332.17 490.09v-0.93864h0.86398v-4.2132l-0.86398 0.39466v-0.99198l1.1626-0.60798h0.71465v5.4185h0.85331v0.93864h-2.7306" style="fill:#61bb46;stroke-width:1.3333"/>
	<path d="m336.56 491.2c-0.57599 0-1.1413-0.16-1.4506-0.28799v-1.0346c0.38399 0.21332 0.94931 0.38399 1.3653 0.38399 0.58665 0 0.97064-0.23466 0.97064-1.28 0-1.0773-0.43732-1.3226-1.056-1.3226h-0.73599v-0.89598h0.72532c0.57599 0 0.92798-0.204 0.92798-1.12 0-0.90665-0.35199-1.0666-0.84265-1.0666-0.41599 0-0.92798 0.14933-1.3013 0.33065v-1.024c0.26666-0.096 0.88531-0.25599 1.3866-0.25599 1.0453 0 1.7386 0.35199 1.7386 2.016 0 0.81064-0.20267 1.312-0.58666 1.5573 0.46933 0.24533 0.74665 0.79998 0.74665 1.7706 0 1.812-0.72531 2.2293-1.888 2.2293" style="fill:#61bb46;stroke-width:1.3333"/>
	<path d="m358.92 490.09v-0.93864h0.86265v-4.2132l-0.86265 0.39466v-0.99198l1.1626-0.60798h0.71465v5.4185h0.85331v0.93864h-2.7306" style="fill:#61bb46;stroke-width:1.3333"/>
	<path d="m363.72 486.14-1.1506 2.1866h1.5146v-2.1013c0-0.40533 0.0533-0.98131 0.0533-0.98131s-0.22399 0.53332-0.41732 0.89598zm1.344 3.0079v1.9413h-0.97998v-1.9413h-2.4653v-0.59732l2.5186-4.8639h0.92665v4.6399h0.59731v0.82131h-0.59731" style="fill:#61bb46;stroke-width:1.3333"/>
	<path d="m385.65 490.09v-0.93864h0.86398v-4.2132l-0.86398 0.39466v-0.99198l1.164-0.60798h0.71464v5.4185h0.85198v0.93864h-2.7306" style="fill:#61bb46;stroke-width:1.3333"/>
	<path d="m390.24 491.2c-0.54266 0-1.0773-0.18133-1.344-0.30933v-1.0346c0.37332 0.224 0.84265 0.40533 1.2586 0.40533 0.58665 0 0.91731-0.224 0.91731-1.3013 0-1.056-0.31866-1.312-0.87332-1.312h-1.28v-3.9146h2.9853v0.94931h-2.048v2.0693h0.53332c0.98264 0 1.6746 0.39466 1.6746 2.196 0 1.804-0.70265 2.2519-1.824 2.2519" style="fill:#61bb46;stroke-width:1.3333"/>
	<path d="m412.4 490.09v-0.93864h0.86398v-4.2132l-0.86398 0.39466v-0.99198l1.1626-0.60798h0.71465v5.4185h0.85331v0.93864h-2.7306" style="fill:#61bb46;stroke-width:1.3333"/>
	<path d="m416.86 486.33-0.18133 0.128c0 2.1973 0.11733 2.8799 0.77865 2.8799 0.55465 0 0.72531-0.39599 0.72531-1.632 0-1.2373-0.15999-1.6213-0.70398-1.6213-0.23466 0-0.42666 0.10667-0.61865 0.24533zm0.59732 3.8612c-1.3973 0-1.7706-0.91731-1.7706-3.5519 0-2.2933 0.0533-4.0212 1.8346-4.0212 0.42666 0 1.0346 0.18133 1.3546 0.34133v1.024c-0.43866-0.26666-0.86398-0.42665-1.2693-0.42665-0.60799 0-0.90665 0.43732-0.92798 2.0266 0.20133-0.15999 0.55465-0.36399 0.87464-0.36399 1.12 0 1.632 0.72665 1.632 2.4866 0 1.8026-0.52265 2.4853-1.728 2.4853" style="fill:#61bb46;stroke-width:1.3333"/>
	<path d="m439.14 490.09v-0.93864h0.86265v-4.2132l-0.86265 0.39466v-0.99198l1.1626-0.60798h0.71465v5.4185h0.85331v0.93864h-2.7306" style="fill:#61bb46;stroke-width:1.3333"/>
	<path d="m444.4 487.53c-0.44799 0.74665-0.62931 1.1733-0.62931 2.4733v1.0893h-0.97998v-1.0893c0-1.7053 0.40532-2.4093 0.80931-3.0386 0.42799-0.66132 0.67199-1.088 0.68265-2.0693v-0.21333h-2.3466v-0.94931h3.3292v0.72532c0 1.7706-0.43865 2.3999-0.86531 3.0719" style="fill:#61bb46;stroke-width:1.3333"/>
	<path d="m465.88 490.09v-0.93864h0.86397v-4.2132l-0.86397 0.39466v-0.99198l1.1626-0.60798h0.71599v5.4185h0.85197v0.93864h-2.7306" style="fill:#61bb46;stroke-width:1.3333"/>
	<path d="m470.84 483.46c-0.53198 0-0.68265 0.30933-0.68265 1.1626 0 0.86398 0.15067 1.184 0.68265 1.184 0.53332 0 0.68265-0.31999 0.68265-1.184 0-0.85331-0.14933-1.1626-0.68265-1.1626zm0 3.1679c-0.63865 0-0.78931 0.35199-0.78931 1.3546 0 1.0026 0.15066 1.3546 0.78931 1.3546 0.64132 0 0.78932-0.35199 0.78932-1.3546 0-1.0026-0.148-1.3546-0.78932-1.3546zm0 3.5626c-1.28 0-1.7813-0.63999-1.7813-2.1866 0-0.91731 0.24533-1.5573 0.68265-1.8346-0.31866-0.27733-0.51198-0.84265-0.51198-1.5573 0-1.376 0.44798-1.9946 1.6106-1.9946s1.6106 0.61866 1.6106 1.9946c0 0.71465-0.20266 1.28-0.52132 1.5573 0.43732 0.27732 0.69198 0.91731 0.69198 1.8346 0 1.5466-0.50132 2.1866-1.7813 2.1866" style="fill:#61bb46;stroke-width:1.3333"/>
	<path d="m477.56 487.67h-0.49065c-0.65065 0-0.85331 0.42666-0.85331 0.99198 0 0.52265 0.18133 0.73598 0.46932 0.73598 0.20266 0 0.42666-0.11733 0.66132-0.37333l0.21332-0.21332zm0.39466 2.4213c-0.096-0.12799-0.19199-0.31999-0.26666-0.56531l-0.16 0.17066c-0.36265 0.41599-0.76798 0.49065-1.0453 0.49065-0.75732 0-1.1946-0.53332-1.1946-1.5253 0-1.0986 0.60799-1.7813 1.7066-1.7813h0.56532v-0.63999c0-0.53332-0.26666-0.72531-0.67198-0.72531-0.49065 0-0.92798 0.18133-1.376 0.46932v-0.99197c0.34132-0.13867 0.91731-0.34133 1.4613-0.34133 1.0453 0 1.5786 0.45866 1.5786 1.7066v2.24c0 0.53332 0.032 1.1733 0.10666 1.4933h-0.70398" style="fill:#61bb46;stroke-width:1.3333"/>
	<path d="m481.5 490.09v-3.9572c0-0.42666-0.11733-0.58665-0.34132-0.58665-0.17067 0-0.34133 0.10666-0.63999 0.44799l-0.38399 0.42665v3.6692h-0.99197v-3.8399c0-0.53332-0.032-1.152-0.10667-1.4933h0.70399c0.096 0.11733 0.22399 0.43733 0.30932 0.78932l0.34133-0.35199c0.33065-0.34133 0.69331-0.54399 1.0666-0.54399 0.83198 0 1.0346 0.61865 1.0346 1.5893v3.8506h-0.99198" style="fill:#61bb46;stroke-width:1.3333"/>
	<path d="m484.2 490.19c-0.57599 0-1.0026-0.128-1.312-0.24533v-0.95997c0.44799 0.22399 0.87465 0.35199 1.3226 0.35199 0.39466 0 0.73599-0.16 0.73599-0.79998 0-0.61865-0.26666-0.74665-0.74665-0.74665-0.79998 0-1.4826-0.23466-1.4826-1.632 0-1.152 0.61865-1.5146 1.5573-1.5146 0.38266 0 0.95998 0.13866 1.28 0.26666v0.94931c-0.45865-0.25599-0.87464-0.37332-1.3013-0.37332-0.36266 0-0.63998 0.12799-0.63998 0.67198 0 0.56532 0.21332 0.69332 0.61865 0.69332 0.77864 0 1.6106 0.23466 1.6106 1.6853 0 1.248-0.71465 1.6533-1.6426 1.6533" style="fill:#61bb46;stroke-width:1.3333"/>
	<path d="m2.096 126.76c-0.49999 0-0.63865 0.29066-0.63865 1.0906 0 0.80931 0.13866 1.1093 0.63865 1.1093 0.49998 0 0.64131-0.29999 0.64131-1.1093 0-0.79998-0.14133-1.0906-0.64131-1.0906zm0 2.9706c-0.59999 0-0.73999 0.32933-0.73999 1.2693 0 0.93998 0.14 1.2706 0.73999 1.2706 0.59998 0 0.73998-0.33066 0.73998-1.2706 0-0.93997-0.14-1.2693-0.73998-1.2693zm0 3.3399c-1.2 0-1.6693-0.59999-1.6693-2.0506 0-0.85998 0.22933-1.46 0.63999-1.72-0.29999-0.25999-0.48132-0.78931-0.48132-1.46 0-1.2893 0.42132-1.8693 1.5106-1.8693 1.0893 0 1.5106 0.57999 1.5106 1.8693 0 0.67065-0.19066 1.2-0.49065 1.46 0.40932 0.26 0.65065 0.85998 0.65065 1.72 0 1.4506-0.47065 2.0506-1.6706 2.0506" style="fill:#ef5ba1;stroke-width:1.3333"/>
	<path d="m6.5892 127.73c-0.62932 0-0.75865 0.44132-0.75865 2.2506s0.12933 2.2493 0.75865 2.2493c0.64131 0 0.76131-0.43998 0.76131-2.2493s-0.12-2.2506-0.76131-2.2506zm0 5.3305c-1.22 0-1.6986-0.75065-1.6986-3.0799 0-2.3306 0.47866-3.0799 1.6986-3.0799 1.22 0 1.7106 0.74932 1.7106 3.0799 0 2.3293-0.49065 3.0799-1.7106 3.0799" style="fill:#ef5ba1;stroke-width:1.3333"/>
	<g transform="translate(-3.8064 -654.74)">
		<path d="m4.7157 660.75c0 0.35866-0.0387 0.67865-0.0387 0.67865s0.14933-0.30933 0.31866-0.56932l1.1813-1.74h0.91997l-1.4106 1.94 1.3506 3.0599h-0.94931l-0.95064-2.2799-0.42132 0.57998v1.7h-0.90931v-6.8998h0.90931v3.5306" style="fill:#ef5ba1;stroke-width:1.3333"/>
		<path d="m9.0756 663.42c0.18 0 0.35066-0.08 0.61998-0.38933l0.2-0.23066v-2.3599l-0.2-0.23066c-0.26932-0.30933-0.43998-0.38932-0.61998-0.38932-0.27999 0-0.53065 0.10933-0.53065 1.8 0 1.6893 0.25066 1.8 0.53065 1.8zm0.25999 2.6999c-0.57998 0-1.08-0.19066-1.4093-0.31066v-0.90931c0.40932 0.25999 0.83997 0.42932 1.3093 0.42932 0.41999 0 0.65998-0.17999 0.65998-0.76931v-0.89998l-0.16 0.14933c-0.24932 0.23999-0.59998 0.41066-0.87997 0.41066-0.79065 0-1.2306-0.58932-1.2306-2.5999s0.43999-2.5999 1.2306-2.5999c0.31999 0 0.67998 0.19999 0.95064 0.46932l0.19866 0.20133c0.0707-0.25066 0.17066-0.46133 0.26133-0.57066h0.65998c-0.0707 0.32-0.10133 0.89998-0.10133 1.4v3.9999c0 1.1706-0.53999 1.6-1.4893 1.6" style="fill:#ef5ba1;stroke-width:1.3333"/>
	</g>
	<path d="m452.62 193.42h12.57v-8.0371h-12.57z" style="fill:#fff;stroke-width:1.3333"/>
	<path d="m456.24 189.85 0.11333-0.0787c0-1.3586-0.0733-1.7813-0.48132-1.7813-0.344 0-0.44933 0.24399-0.44933 1.0106 0 0.76398 0.0987 1.0026 0.43599 1.0026 0.144 0 0.26266-0.0667 0.38133-0.15333zm-0.36799-2.3866c0.86264 0 1.0946 0.56665 1.0946 2.1959 0 1.4173-0.0347 2.4866-1.136 2.4866-0.26266 0-0.63865-0.112-0.83731-0.21066v-0.63332c0.27066 0.16399 0.53465 0.26266 0.78532 0.26266 0.37599 0 0.55998-0.27066 0.57465-1.252-0.12667 0.0987-0.34399 0.22399-0.54132 0.22399-0.69332 0-1.0093-0.44799-1.0093-1.536 0-1.1146 0.32266-1.5373 1.0693-1.5373" style="fill:#8b5ba5;stroke-width:1.3333"/>
	<path d="m458.62 189.87c-0.27599 0.46132-0.38932 0.72398-0.38932 1.528v0.67332h-0.60665v-0.67332c0-1.0546 0.25199-1.4893 0.50132-1.8786 0.26399-0.40932 0.41732-0.67331 0.42266-1.28v-0.13066h-1.4506v-0.58798h2.0586v0.44798c0 1.096-0.27199 1.484-0.53599 1.9013" style="fill:#8b5ba5;stroke-width:1.3333"/>
	<path d="m462.78 190.03c-0.19733 0-0.29599 0.13866-0.29599 0.52798 0 0.38933 0.0987 0.52666 0.29599 0.52666 0.192 0 0.29066-0.13733 0.29066-0.52666 0-0.38932-0.0987-0.52798-0.29066-0.52798zm0 1.4973c-0.47465 0-0.74531-0.30932-0.74531-0.96931 0-0.66131 0.27066-0.97064 0.74531-0.97064s0.73865 0.30933 0.73865 0.97064c0 0.65999-0.264 0.96931-0.73865 0.96931zm-1.7546-0.0667h-0.39466l1.8533-4.5506h0.39465zm-0.296-4.1746c-0.19732 0-0.29599 0.13867-0.29599 0.52799s0.0987 0.52665 0.29599 0.52665c0.19067 0 0.28933-0.13733 0.28933-0.52665s-0.0987-0.52799-0.28933-0.52799zm0 1.4973c-0.47465 0-0.74531-0.31066-0.74531-0.96931s0.27066-0.96931 0.74531-0.96931c0.47466 0 0.73865 0.31066 0.73865 0.96931s-0.26399 0.96931-0.73865 0.96931" style="fill:#8b5ba5;stroke-width:1.3333"/>
	<path d="m452.62 235.33h12.57v-8.0398h-12.57z" style="fill:#fff;stroke-width:1.3333"/>
	<path d="m455.98 231.55c-0.27599 0.45999-0.39066 0.72398-0.39066 1.528v0.67332h-0.60665v-0.67332c0-1.0546 0.25333-1.4893 0.50266-1.8786 0.26399-0.40932 0.41465-0.67332 0.42265-1.28v-0.13199h-1.4506v-0.58666h2.0573v0.44799c0 1.096-0.27066 1.484-0.53465 1.9013" style="fill:#8b5ba5;stroke-width:1.3333"/>
	<path d="m457.61 233.82c-0.336 0-0.66665-0.112-0.83065-0.192v-0.63865c0.22933 0.13733 0.52132 0.24933 0.77865 0.24933 0.36265 0 0.56532-0.13733 0.56532-0.80398 0-0.65332-0.19733-0.81198-0.53866-0.81198h-0.79198v-2.4199h1.8466v0.58665h-1.2653v1.28h0.32799c0.60666 0 1.036 0.24399 1.036 1.3586s-0.43466 1.392-1.128 1.392" style="fill:#8b5ba5;stroke-width:1.3333"/>
	<path d="m462.41 231.7c-0.19867 0-0.29733 0.13733-0.29733 0.52665 0 0.38933 0.0987 0.52799 0.29733 0.52799 0.18932 0 0.28932-0.13866 0.28932-0.52799 0-0.38932-0.1-0.52665-0.28932-0.52665zm0 1.4973c-0.47733 0-0.74799-0.30933-0.74799-0.97065 0-0.65998 0.27066-0.9693 0.74799-0.9693 0.47332 0 0.73731 0.30932 0.73731 0.9693 0 0.66132-0.26399 0.97065-0.73731 0.97065zm-1.756-0.0667h-0.39466l1.8533-4.5506h0.39599zm-0.29599-4.1759c-0.19866 0-0.29733 0.13999-0.29733 0.52932 0 0.38932 0.0987 0.52665 0.29733 0.52665 0.18933 0 0.28932-0.13733 0.28932-0.52665 0-0.38933-0.1-0.52932-0.28932-0.52932zm0 1.4973c-0.47466 0-0.74532-0.30932-0.74532-0.96797s0.27066-0.96931 0.74532-0.96931c0.47332 0 0.73865 0.31066 0.73865 0.96931s-0.26533 0.96797-0.73865 0.96797" style="fill:#8b5ba5;stroke-width:1.3333"/>
	<path d="m452.62 273.97h12.572v-8.0385h-12.572z" style="fill:#fff;stroke-width:1.3333"/>
	<path d="m454.73 271.89v-0.44132c0-0.47599 0.20533-0.83731 0.71198-1.3386 0.55999-0.55332 0.71865-0.76532 0.71865-1.1346 0-0.33599-0.19066-0.48132-0.50132-0.48132-0.30266 0-0.59999 0.11866-0.92931 0.27066v-0.65332c0.23066-0.0867 0.68531-0.21733 0.98264-0.21733 0.65332 0 1.0493 0.28933 1.0493 1.0426 0 0.63732-0.29733 0.98798-0.99598 1.6613-0.29066 0.28932-0.41599 0.46132-0.44132 0.71198h1.496v0.57998h-2.0906" style="fill:#8b5ba5;stroke-width:1.3333"/>
	<path d="m457.89 272.57c-0.33599 0-0.66532-0.11333-0.83065-0.192v-0.63998c0.23066 0.13999 0.52132 0.25199 0.77865 0.25199 0.36266 0 0.56665-0.14 0.56665-0.80531 0-0.65332-0.19733-0.81198-0.53998-0.81198h-0.79198v-2.4199h1.8466v0.58665h-1.2666v1.28h0.33066c0.60665 0 1.0346 0.24266 1.0346 1.3573s-0.43466 1.3933-1.128 1.3933" style="fill:#8b5ba5;stroke-width:1.3333"/>
	<path d="m462.69 270.46c-0.19866 0-0.29733 0.13867-0.29733 0.52666 0 0.39065 0.0987 0.52798 0.29733 0.52798 0.19066 0 0.29066-0.13733 0.29066-0.52798 0-0.38799-0.1-0.52666-0.29066-0.52666zm0 1.496c-0.47599 0-0.74665-0.30932-0.74665-0.9693 0-0.65865 0.27066-0.96931 0.74665-0.96931 0.47332 0 0.73865 0.31066 0.73865 0.96931 0 0.65998-0.26533 0.9693-0.73865 0.9693zm-1.756-0.0653h-0.39332l1.852-4.5492h0.39599zm-0.29466-4.1746c-0.19866 0-0.29732 0.13733-0.29732 0.52799 0 0.38799 0.0987 0.52665 0.29732 0.52665 0.18933 0 0.28933-0.13866 0.28933-0.52665 0-0.39066-0.1-0.52799-0.28933-0.52799zm0 1.4973c-0.47598 0-0.74664-0.31066-0.74664-0.96931 0-0.65999 0.27066-0.96931 0.74664-0.96931 0.47333 0 0.73732 0.30932 0.73732 0.96931 0 0.65865-0.26399 0.96931-0.73732 0.96931" style="fill:#8b5ba5;stroke-width:1.3333"/>
	<path d="m453.41 299.63h10.716v-8.0385h-10.716z" style="fill:#fff;stroke-width:1.3333"/>
	<path d="m456.2 298.26c-0.35733 0-0.70665-0.0987-0.89731-0.17867v-0.63998c0.23732 0.132 0.58665 0.23733 0.84398 0.23733 0.36265 0 0.59998-0.144 0.59998-0.79065 0-0.66532-0.26933-0.81864-0.65198-0.81864h-0.45599v-0.55332h0.44932c0.35466 0 0.57332-0.12533 0.57332-0.69199 0-0.55998-0.21866-0.65865-0.52132-0.65865-0.25733 0-0.57332 0.0907-0.80531 0.20266v-0.63331c0.16533-0.06 0.54798-0.15867 0.85864-0.15867 0.64532 0 1.0746 0.21867 1.0746 1.248 0 0.50132-0.12533 0.81065-0.36266 0.96265 0.29066 0.15199 0.46133 0.49332 0.46133 1.0946 0 1.12-0.44799 1.3786-1.1666 1.3786" style="fill:#8b5ba5;stroke-width:1.3333"/>
	<path d="m461.05 296.14c-0.19733 0-0.29599 0.13733-0.29599 0.52665 0 0.38933 0.0987 0.52932 0.29599 0.52932 0.192 0 0.29066-0.13999 0.29066-0.52932 0-0.38932-0.0987-0.52665-0.29066-0.52665zm0 1.496c-0.47465 0-0.74531-0.30932-0.74531-0.96931 0-0.65865 0.27066-0.96797 0.74531-0.96797s0.73865 0.30932 0.73865 0.96797c0 0.65999-0.264 0.96931-0.73865 0.96931zm-1.7546-0.0653h-0.39466l1.8533-4.5506h0.39599zm-0.296-4.1746c-0.19732 0-0.29599 0.13866-0.29599 0.52799 0 0.38932 0.0987 0.52665 0.29599 0.52665 0.19067 0 0.28933-0.13733 0.28933-0.52665 0-0.38933-0.0987-0.52799-0.28933-0.52799zm0 1.4973c-0.47465 0-0.74531-0.30932-0.74531-0.9693 0-0.65999 0.27066-0.97065 0.74531-0.97065 0.47466 0 0.73865 0.31066 0.73865 0.97065 0 0.65998-0.26399 0.9693-0.73865 0.9693" style="fill:#8b5ba5;stroke-width:1.3333"/>
	<text x="28.066927" y="27.604437" style="fill:#231f20;font-family:Bliss;font-size:11.557px;font-weight:300;stroke-width:1.651">
		<tspan x="28.066927 32.98452 36.19165 41.327675 46.012978 51.160572 55.291122 58.289055 63.436661 67.208939 72.344963 77.862396 80.293999 82.771889 86.902443 89.900406 95.036407 98.03434 103.56335 108.69938 112.30985 116.08214 118.56 121.99712 124.99506 130.58185 135.7294 139.85997 142.85793 148.44467 154.15858 159.81471 165.47081 170.61839 175.76601 179.89655 182.89444 188.48126 193.62883 196.62674 199.05843 201.62875 206.77631 210.5486 216.19315 221.77991 226.92749 229.92545 234.05602 239.20358 244.85966 250.50424 255.65178 261.30795 265.0802 267.55811 272.70566 275.13733 277.56897 282.71652 285.71451 289.01291 292.21896 297.35495 303.01105 307.69629 312.83237 315.31027 319.44073 324.58835 327.58633 333.1731 338.32068 341.31857 343.75021 348.88629 351.88425 356.56952 359.89224 365.60611 368.08395 372.21457 376.34512 381.48114 387.13721 391.82251 396.97015 399.96802 406.50256 409.13062 414.336 418.35098 420.97916 429.05072 434.39471 439.6001 445.52203 454.49506" y="27.604437" style="stroke-width:1.651">
			<tspan style="font-family:Arial;font-weight:normal;stroke-width:1.651">Tracés établis à partir des données de l’étude séquentielle française de la croissance CIE-INSERM</tspan>
.		</tspan>
		<tspan x="28.066927 31.469362 40.442398 42.550438 46.969913 51.672554 57.221184 62.935062 65.366722 67.798355 72.934387 78.590492 84.177269 88.192245 94.726692 99.862701 104.66129 110.31737 115.46498 118.67097 123.80699 126.80491 132.40323 135.40121 144.37422 149.07568 154.41977 159.56737 168.63284 174.16182 179.3094 182.7119 189.42892 195.23065 200.3667 203.68939 206.16724 211.30331 215.07555 217.55344 223.26735 228.92346 233.05399 236.05191 241.19951 246.85561 249.85361 254.53886 259.68649 265.34259 269.11487 271.59274 274.02438 279.17194 283.30252" y="40.813206" style="font-family:Arial;font-weight:normal;stroke-width:1.651">(M.F.Rolland-Cachera – M.Sempé).Variations en centiles.</tspan>
	</text>
</svg>
