<svg width="476.96" height="492.11" version="1.1" viewBox="0 0 476.95913 492.10904" xmlns="http://www.w3.org/2000/svg">
	<path d="m466.9 135.66-33.098 6.4452-20 4.4439-12.057 4.5452-14.83 8.5651-22.001 24.443-18.444 22.666-19.777 25.111-19.333 23.999-26.445 27.11-20.887 16-32.667 23.333-27.333 16.889-33.11 18.888-20 11.556-20.443 9.7771-33.111 14-26.666 9.5558-26.666 11.11-26.666 12.222v15.777l26.666-8.8878 39.999-10.445 45.776-10.888 41.778-10.445 36.888-10.889 35.332-10.888 34.888-10.445 29.11-11.554 29.555-12.666 26.887-18 14.222-11.556 13.333-11.777 31.999-21.333 20.443-13.333 26.655-11.112-1e-3 -122.22" style="fill:#fff;stroke-width:1.3333"/>
	<path d="m13.371 468.37h453.54" style="fill:none;stroke-width:.33332;stroke:#a9c0a6"/>
	<path d="m13.371 451.04h453.54m-453.54-8.6678h453.54m-453.54-17.336h453.54" style="fill:none;stroke-width:.33332;stroke:#a9c0a6"/>
	<path d="m13.371 416.37h453.54m-453.54-17.334h453.54m-453.54-17.336h453.54m-453.54-8.6678h453.54m-453.54-17.334h453.54m-453.54-17.336h453.54m-453.54-8.6678h453.54m-453.54-17.334h453.54m-453.54-17.336h453.54m-453.54-8.6678h453.54m-453.54-8.6664h453.54m-453.54-26.003h453.54m-453.54-8.6678h453.54m-453.54-17.334h453.54" style="fill:none;stroke-width:.33332;stroke:#a9c0a6"/>
	<path d="m13.371 208.35h453.54" style="fill:none;stroke-width:.33332;stroke:#a9c0a6"/>
	<path d="m13.371 199.68h453.54m-453.54-17.334h453.54m-453.54-17.336h453.54m-453.54-17.336h453.54m-453.54-8.6664h453.54m-453.54-17.336h453.54" style="fill:none;stroke-width:.33332;stroke:#a9c0a6"/>
	<path d="m13.371 104.34h453.54m-453.54-8.6664h453.54m-453.54-17.336h453.54m-453.54-17.336h453.54m-453.54-8.6664h453.54m-453.54-26.003h453.54m-453.54-8.6678h453.54m-453.54-8.6664h453.54" style="fill:none;stroke-width:.33332;stroke:#a9c0a6"/>
	<path d="m13.371 433.71h453.54m-453.54-43.338h453.54m-453.54-43.338h453.54m-453.54-43.338h453.54m-453.54-43.338h453.54m-453.54-43.338h453.54" style="fill:none;stroke-width:.66665;stroke:#a9c0a6"/>
	<path d="m13.371 173.68h453.54" style="fill:none;stroke-width:.66665;stroke:#a9c0a6"/>
	<path d="m13.371 130.35h453.54" style="fill:none;stroke-width:.66665;stroke:#a9c0a6"/>
	<path d="m13.371 87.003h453.54" style="fill:none;stroke-width:.66665;stroke:#a9c0a6"/>
	<path d="m13.371 43.671h453.54m-453.54-43.338h453.54" style="fill:none;stroke-width:.66665;stroke:#a9c0a6"/>
	<path d="m13.371 477.04h453.54" style="fill:none;stroke-width:.66665;stroke:#a9c0a6"/>
	<path d="m13.371 35.002h453.54m-453.54 34.67h453.54" style="fill:none;stroke-width:.33332;stroke:#a9c0a6"/>
	<path d="m13.371 113h453.54m-453.54 43.338h453.54m-453.54 34.671h453.54m-453.54 43.336h453.54" style="fill:none;stroke-width:.33332;stroke:#a9c0a6"/>
	<path d="m13.371 269.03h453.54m-453.54 52.005h453.54m-453.54 43.338h453.54m-453.54 43.338h453.54m-453.54 52.004h453.54" style="fill:none;stroke-width:.33332;stroke:#a9c0a6"/>
	<path d="m13.358 477.04v-476.73m26.685 476.73v-476.73m26.685 476.73v-476.73m26.683 476.73v-476.73m26.685 476.73v-476.73m26.682 476.73v-476.73m26.683 476.73v-476.73m26.687 476.73v-476.73m26.682 476.73v-476.73m26.682 476.73v-476.73m26.685 476.73v-476.73m26.683 476.73v-476.73m26.685 476.73v-476.73m26.685 476.73v-476.73m26.683 476.73v-476.73m26.685 476.73v-476.73m26.685 476.73v-476.73m26.683 476.73v-476.73" style="fill:none;stroke-width:.57091;stroke:#a9c0a6"/>
	<path d="m13.401 477.04v-476.82m453.59 476.82v-476.82m-446.96 476.82v-476.82m13.344 476.82v-476.82m13.341 476.82v-476.82m13.344 476.82v-476.82m13.341 476.82v-476.82m13.342 476.82v-476.82m13.341 476.82v-476.82m13.344 476.82v-476.82m13.341 476.82v-476.82m13.344 476.82v-476.82m13.341 476.82v-476.82m13.342 476.82v-476.82m13.341 476.82v-476.82m13.344 476.82v-476.82m13.341 476.82v-476.82m13.344 476.82v-476.82m13.341 476.82v-476.82m13.341 476.82v-476.82m13.341 476.82v-476.82m13.344 476.82v-476.82m13.34 476.82v-476.82m13.344 476.82v-476.82m13.341 476.82v-476.82m13.344 476.82v-476.82m13.341 476.82v-476.82m13.344 476.82v-476.82m13.34 476.82v-476.82m13.341 476.82v-476.82m13.344 476.82v-476.82m13.341 476.82v-476.82m13.344 476.82v-476.82m13.341 476.82v-476.82m13.344 476.82v-476.82m13.34 476.82v-476.82m-433.62 476.82v-476.82m26.685 476.82v-476.82m26.685 476.82v-476.82m26.683 476.82v-476.82m26.685 476.82v-476.82m26.683 476.82v-476.82m26.685 476.82v-476.82m26.685 476.82v-476.82m26.685 476.82v-476.82m26.682 476.82v-476.82m26.683 476.82v-476.82m26.685 476.82v-476.82m26.685 476.82v-476.82m26.683 476.82v-476.82m26.685 476.82v-476.82m26.685 476.82v-476.82m26.683 476.82v-476.82" style="fill:none;stroke-width:.28548;stroke:#a9c0a6"/>
	<path d="m40.051 413.68-26.679 12.437m53.357-23.155-26.678 10.718m53.356-20.581-26.678 9.8624m53.357-20.578-26.679 10.716m53.356-23.155-26.677 12.44m53.355-27.877-26.678 15.437m53.359-31.299-26.681 15.862m53.359-32.161-26.678 16.298m53.357-35.164-26.679 18.866m26.679-18.866 20.146-14.893s7.6798-5.2239 13.154-11.748l20.054-20.954m26.679-32.159-26.679 32.159m53.357-66.032-26.678 33.872m26.678-33.872 22.041-25.15s12.1-14.75 38.735-19.948l19.26-4.6426m26.679-4.2879-26.679 4.2879" style="fill:none;stroke-width:.99998;stroke:#00adef"/>
	<path d="m466.9 183-26.679 8.5744-26.678 15.005-16.508 10.613s-11.016 6.4332-16.901 14.114l-19.949 22.441-26.678 27.873-26.679 20.153-26.678 20.157-26.677 14.574-26.679 13.724-26.678 13.293-26.681 12.436-26.678 9.8598-26.677 9.0051-26.679 9.0051-26.678 8.5744-26.678 8.5771-26.679 11.149m453.54-204.53-26.679 11.15-26.678 17.149-26.678 19.297-26.679 23.583-26.678 22.298-26.679 16.296-26.678 11.576-26.677 11.145-26.679 11.578-26.678 9.0038-26.681 9.4358-26.678 8.1465-26.677 7.7171-26.679 6.8652-26.678 7.2892-26.678 8.1438-26.679 9.4331" style="fill:none;stroke-dasharray:2.71499879, 2.71499879;stroke-width:.99998;stroke:#00adef"/>
	<path d="m40.051 433.41-26.679 9.0051m53.357-16.293-26.678 7.2878m53.356-14.146-26.678 6.8585m53.357-12.865-26.679 6.0065m53.356-12.433-26.677 6.4265m53.355-13.29-26.678 6.8638m53.359-15.012-26.681 8.1478m53.359-16.725-26.678 8.5771m53.357-15.865-26.679 7.2878m53.356-15.865-26.677 8.5771m53.355-18.869-26.678 10.292m26.678-10.292 19.428-8.7424s8.3225-3.3106 14.602-8.2225l19.328-13.05m26.679-21.869-26.679 21.869m53.357-40.304-26.678 18.436m53.356-36.016-26.678 17.581m53.357-29.158-26.679 11.577" style="fill:none;stroke-width:.99998;stroke:#00adef"/>
	<g transform="translate(-5.4033 -656.52)">
		<path d="m6.3135 660.51c0 0.35999-0.0387 0.67999-0.0387 0.67999s0.14932-0.30933 0.31865-0.57066l1.1813-1.7386h0.91864l-1.4093 1.94 1.3493 3.0599h-0.95064l-0.94931-2.28-0.41999 0.57865v1.7013h-0.91064v-6.8998h0.91064v3.5292" style="fill:#00b9f1;stroke-width:1.3333"/>
		<path d="m10.673 663.17c0.17866 0 0.34799-0.0787 0.61865-0.38932l0.2-0.23066v-2.3586l-0.2-0.23066c-0.27066-0.30933-0.43999-0.38933-0.61865-0.38933-0.27999 0-0.53065 0.10933-0.53065 1.8 0 1.6893 0.25066 1.7986 0.53065 1.7986zm0.25866 2.7013c-0.57998 0-1.08-0.19067-1.4106-0.31066v-0.90931c0.41066 0.25999 0.84131 0.42932 1.312 0.42932 0.41865 0 0.65865-0.18 0.65865-0.76932v-0.89997l-0.15866 0.14933c-0.25066 0.23999-0.60132 0.41065-0.88132 0.41065-0.78931 0-1.2293-0.58932-1.2293-2.5999 0-2.0106 0.43999-2.6013 1.2293-2.6013 0.32 0 0.67999 0.20133 0.94931 0.47065l0.20133 0.2c0.0707-0.24933 0.17066-0.45999 0.26-0.56932h0.65998c-0.0707 0.31999-0.1 0.89865-0.1 1.3986v3.9999c0 1.1706-0.53998 1.6013-1.4906 1.6013" style="fill:#00b9f1;stroke-width:1.3333"/>
	</g>
	<path d="m2.1769 436.87v-0.87998h0.81064v-3.9492l-0.81064 0.36932v-0.93064l1.0906-0.56932h0.67065v5.0799h0.79864v0.87998h-2.5599" style="fill:#00b9f1;stroke-width:1.3333"/>
	<path d="m7.5234 431.64c-0.63065 0-0.75998 0.43999-0.75998 2.2506 0 1.8093 0.12933 2.2493 0.75998 2.2493 0.63865 0 0.75998-0.43999 0.75998-2.2493 0-1.8106-0.12133-2.2506-0.75998-2.2506zm0 5.3305c-1.22 0-1.7-0.74932-1.7-3.0799 0-2.3293 0.47999-3.0799 1.7-3.0799s1.7093 0.75065 1.7093 3.0799c0 2.3306-0.48932 3.0799-1.7093 3.0799" style="fill:#00b9f1;stroke-width:1.3333"/>
	<path d="m2.1369 394.36v-0.67064c0-0.71999 0.30932-1.2693 1.0813-2.0293 0.84932-0.83998 1.0893-1.16 1.0893-1.72 0-0.50933-0.29066-0.72932-0.75998-0.72932-0.45999 0-0.91065 0.18-1.4106 0.41066v-0.99198c0.35065-0.12933 1.04-0.32932 1.4906-0.32932 0.9893 0 1.5906 0.43999 1.5906 1.58 0 0.96931-0.45065 1.5-1.5106 2.5213-0.43998 0.43999-0.63065 0.69865-0.66931 1.0786h2.2693v0.87997h-3.1706" style="fill:#00b9f1;stroke-width:1.3333"/>
	<path d="m7.9767 389.13c-0.63065 0-0.76131 0.43999-0.76131 2.2506 0 1.8093 0.13066 2.2493 0.76131 2.2493 0.63998 0 0.75998-0.43999 0.75998-2.2493 0-1.8106-0.12-2.2506-0.75998-2.2506zm0 5.3305c-1.22 0-1.7013-0.74931-1.7013-3.0799 0-2.3293 0.48132-3.0799 1.7013-3.0799s1.7093 0.75064 1.7093 3.0799c0 2.3306-0.48932 3.0799-1.7093 3.0799" style="fill:#00b9f1;stroke-width:1.3333"/>
	<path d="m3.4568 350.89c-0.53998 0-1.0693-0.14932-1.36-0.27065v-0.97065c0.35999 0.20133 0.89064 0.36133 1.28 0.36133 0.55065 0 0.90931-0.22 0.90931-1.2013 0-1.0093-0.40933-1.2386-0.98931-1.2386h-0.68932v-0.83998h0.67865c0.54132 0 0.87065-0.19066 0.87065-1.0506 0-0.84931-0.32933-0.99998-0.78932-0.99998-0.39065 0-0.87064 0.14-1.22 0.30933v-0.95998c0.24933-0.0893 0.82932-0.23866 1.2986-0.23866 0.98131 0 1.6306 0.32933 1.6306 1.8893 0 0.75998-0.18933 1.2293-0.55065 1.46 0.43999 0.22933 0.69998 0.75065 0.69998 1.66 0 1.7-0.67865 2.0906-1.7693 2.0906" style="fill:#00b9f1;stroke-width:1.3333"/>
	<path d="m8.0034 344.61c-0.62932 0-0.75998 0.43999-0.75998 2.2493 0 1.8106 0.13066 2.2506 0.75998 2.2506 0.64131 0 0.76131-0.43999 0.76131-2.2506 0-1.8093-0.12-2.2493-0.76131-2.2493zm0 5.3305c-1.22 0-1.7-0.75065-1.7-3.0813 0-2.3293 0.47999-3.0786 1.7-3.0786s1.7106 0.74931 1.7106 3.0786c0 2.3306-0.49065 3.0813-1.7106 3.0813" style="fill:#00b9f1;stroke-width:1.3333"/>
	<path d="m4.3368 304.96-1.0786 2.052h1.4186v-1.9706c0-0.37999 0.0493-0.91998 0.0493-0.91998s-0.20933 0.49999-0.38933 0.83865zm1.2613 2.8213v1.82h-0.92131v-1.82h-2.3093v-0.55998l2.3586-4.5599h0.87197v4.3506h0.55866v0.76931h-0.55866" style="fill:#00b9f1;stroke-width:1.3333"/>
	<path d="m8.8034 303.44c-0.63065 0-0.75865 0.43999-0.75865 2.2493 0 1.8106 0.128 2.2506 0.75865 2.2506 0.63998 0 0.75998-0.43999 0.75998-2.2506 0-1.8093-0.12-2.2493-0.75998-2.2493zm0 5.3305c-1.22 0-1.6986-0.74931-1.6986-3.0812 0-2.3293 0.47866-3.0786 1.6986-3.0786 1.22 0 1.7093 0.74931 1.7093 3.0786 0 2.3319-0.48932 3.0812-1.7093 3.0812" style="fill:#00b9f1;stroke-width:1.3333"/>
	<path d="m3.4702 264.52c-0.50932 0-1.0093-0.17066-1.2586-0.28933v-0.97064c0.34933 0.20933 0.78932 0.37999 1.1786 0.37999 0.54932 0 0.86131-0.20933 0.86131-1.22 0-0.98931-0.30133-1.2306-0.81998-1.2306h-1.2013v-3.6692h2.8013v0.88931h-1.9213v1.94h0.49998c0.92131 0 1.5706 0.37066 1.5706 2.06 0 1.6906-0.65998 2.1106-1.7106 2.1106" style="fill:#00b9f1;stroke-width:1.3333"/>
	<path d="m7.9501 258.25c-0.62931 0-0.75998 0.43999-0.75998 2.2506 0 1.8093 0.13067 2.2493 0.75998 2.2493 0.64132 0 0.76132-0.43999 0.76132-2.2493 0-1.8106-0.12-2.2506-0.76132-2.2506zm0 5.3305c-1.22 0-1.7-0.74931-1.7-3.0799 0-2.3293 0.47999-3.0799 1.7-3.0799 1.22 0 1.7093 0.75065 1.7093 3.0799 0 2.3306-0.48933 3.0799-1.7093 3.0799" style="fill:#00b9f1;stroke-width:1.3333"/>
	<path d="m3.2835 217.44-0.17066 0.11999c0 2.06 0.11067 2.6986 0.73065 2.6986 0.51999 0 0.67998-0.36932 0.67998-1.5293 0-1.1613-0.14933-1.52-0.65998-1.52-0.21999 0-0.39999 0.1-0.57999 0.23066zm0.55999 3.6199c-1.3093 0-1.66-0.86131-1.66-3.3306 0-2.1506 0.0507-3.7706 1.72-3.7706 0.39999 0 0.97064 0.17066 1.2693 0.32133v0.95864c-0.40799-0.24933-0.80931-0.39866-1.188-0.39866-0.57065 0-0.85064 0.40933-0.87198 1.8986 0.19066-0.14933 0.52132-0.33999 0.82132-0.33999 1.0506 0 1.5293 0.67998 1.5293 2.3306 0 1.6893-0.48932 2.3306-1.62 2.3306" style="fill:#00b9f1;stroke-width:1.3333"/>
	<path d="m8.2301 215.73c-0.62932 0-0.75865 0.43999-0.75865 2.2493s0.12933 2.2506 0.75865 2.2506c0.64132 0 0.75998-0.44132 0.75998-2.2506s-0.11866-2.2493-0.75998-2.2493zm0 5.3305c-1.2186 0-1.6986-0.75065-1.6986-3.0813 0-2.3293 0.47999-3.0799 1.6986-3.0799 1.22 0 1.7106 0.75065 1.7106 3.0799 0 2.3306-0.49065 3.0813-1.7106 3.0813" style="fill:#00b9f1;stroke-width:1.3333"/>
	<path d="m4.4835 175.39c-0.42132 0.69865-0.59065 1.1-0.59065 2.3199v1.02h-0.91997v-1.02c0-1.6 0.37999-2.26 0.75998-2.8506 0.39999-0.61865 0.63065-1.02 0.63998-1.94v-0.19999h-2.1999v-0.88931h3.1199v0.67998c0 1.66-0.41066 2.2493-0.80932 2.8799" style="fill:#00b9f1;stroke-width:1.3333"/>
	<path d="m8.0034 172.55c-0.62932 0-0.75998 0.43999-0.75998 2.2493 0 1.8106 0.13066 2.2506 0.75998 2.2506 0.63998 0 0.75998-0.43998 0.75998-2.2506 0-1.8093-0.12-2.2493-0.75998-2.2493zm0 5.3305c-1.22 0-1.7-0.75065-1.7-3.0813 0-2.3293 0.47999-3.0786 1.7-3.0786 1.2186 0 1.7106 0.74932 1.7106 3.0786 0 2.3306-0.49199 3.0813-1.7106 3.0813" style="fill:#00b9f1;stroke-width:1.3333"/>
	<path d="m11.013 491v-0.93865h0.86398v-4.2146l-0.86398 0.39466v-0.99064l1.1626-0.60799h0.71465v5.4185h0.85331v0.93865h-2.7306" style="fill:#61bb46;stroke-width:1.3333"/>
	<path d="m37.743 491v-0.71465c0-0.76932 0.33066-1.3546 1.1533-2.1653 0.90664-0.89598 1.1626-1.2373 1.1626-1.8346 0-0.54532-0.30933-0.77865-0.81065-0.77865-0.49065 0-0.97064 0.19199-1.5053 0.43732v-1.056c0.37466-0.13866 1.1093-0.35199 1.5906-0.35199 1.056 0 1.696 0.46932 1.696 1.6853 0 1.0346-0.48132 1.6-1.6106 2.6866-0.46932 0.47065-0.67198 0.74798-0.71465 1.1533h2.4213v0.93865h-3.3826" style="fill:#61bb46;stroke-width:1.3333"/>
	<path d="m65.679 492.11c-0.57598 0-1.1413-0.15999-1.4506-0.28799v-1.0346c0.38399 0.21333 0.94931 0.38399 1.3653 0.38399 0.58665 0 0.97064-0.23466 0.97064-1.28 0-1.0773-0.43732-1.324-1.056-1.324h-0.73598v-0.89464h0.72532c0.57598 0 0.92798-0.204 0.92798-1.12 0-0.90665-0.35199-1.0666-0.84264-1.0666-0.41599 0-0.92798 0.14799-1.3013 0.33066v-1.0253c0.26666-0.0947 0.88531-0.25466 1.3866-0.25466 1.0453 0 1.7386 0.35199 1.7386 2.016 0 0.81064-0.20266 1.312-0.58665 1.5573 0.46932 0.24399 0.74665 0.79865 0.74665 1.7706 0 1.812-0.72532 2.2293-1.888 2.2293" style="fill:#61bb46;stroke-width:1.3333"/>
	<path d="m92.832 487.05-1.152 2.1853h1.5146v-2.1c0-0.40666 0.05333-0.98131 0.05333-0.98131s-0.224 0.53199-0.41599 0.89598zm1.344 3.0079v1.9413h-0.98131v-1.9413h-2.4639v-0.59865l2.5173-4.8625h0.92798v4.6386h0.59732v0.82264h-0.59732" style="fill:#61bb46;stroke-width:1.3333"/>
	<path d="m119.36 492.11c-0.54532 0-1.0773-0.18133-1.3453-0.31066v-1.0333c0.37466 0.224 0.84398 0.40533 1.26 0.40533 0.58665 0 0.91731-0.224 0.91731-1.3013 0-1.056-0.32133-1.312-0.87598-1.312h-1.28v-3.9146h2.9879v0.94931h-2.0493v2.0693h0.53332c0.98131 0 1.6746 0.39466 1.6746 2.196 0 1.804-0.70398 2.2519-1.8226 2.2519" style="fill:#61bb46;stroke-width:1.3333"/>
	<path d="m145.98 487.24-0.18133 0.12933c0 2.1959 0.11733 2.8799 0.77864 2.8799 0.55466 0 0.72532-0.39599 0.72532-1.6333 0-1.236-0.16-1.62-0.70398-1.62-0.23466 0-0.42666 0.10666-0.61865 0.24399zm0.59731 3.8626c-1.3973 0-1.7706-0.91864-1.7706-3.5519 0-2.2933 0.0533-4.0212 1.8346-4.0212 0.42666 0 1.0346 0.18132 1.3546 0.34132v1.024c-0.43733-0.26799-0.86398-0.42665-1.2693-0.42665-0.60798 0-0.90664 0.43599-0.92797 2.0266 0.20266-0.15999 0.55465-0.36399 0.87464-0.36399 1.12 0 1.632 0.72665 1.632 2.4853 0 1.804-0.52265 2.4866-1.728 2.4866" style="fill:#61bb46;stroke-width:1.3333"/>
	<path d="m173.52 488.44c-0.44798 0.74531-0.62931 1.1733-0.62931 2.4733v1.0893h-0.98131v-1.0893c0-1.7053 0.40532-2.4093 0.81064-3.0386 0.42666-0.66132 0.67199-1.088 0.68265-2.0693v-0.21333h-2.3466v-0.94931h3.3279v0.72532c0 1.7706-0.43732 2.3999-0.86398 3.0719" style="fill:#61bb46;stroke-width:1.3333"/>
	<path d="m199.96 484.38c-0.53332 0-0.68131 0.30799-0.68131 1.1626 0 0.86264 0.14799 1.184 0.68131 1.184s0.68399-0.32133 0.68399-1.184c0-0.85465-0.15067-1.1626-0.68399-1.1626zm0 3.1679c-0.63998 0-0.78798 0.35199-0.78798 1.3546 0 1.0013 0.148 1.3546 0.78798 1.3546 0.63999 0 0.79065-0.35333 0.79065-1.3546 0-1.0026-0.15066-1.3546-0.79065-1.3546zm0 3.5626c-1.28 0-1.7813-0.64132-1.7813-2.1866 0-0.91731 0.24533-1.5573 0.68399-1.8346-0.32133-0.27733-0.51332-0.84398-0.51332-1.5573 0-1.376 0.44799-1.9946 1.6106-1.9946 1.1626 0 1.6106 0.61865 1.6106 1.9946 0 0.71332-0.20266 1.28-0.52265 1.5573 0.43732 0.27732 0.69331 0.91731 0.69331 1.8346 0 1.5453-0.50132 2.1866-1.7813 2.1866" style="fill:#61bb46;stroke-width:1.3333"/>
	<path d="m227.19 488.4 0.17999-0.12799c0-2.1986-0.11733-2.8799-0.77864-2.8799-0.55466 0-0.72532 0.39466-0.72532 1.6306 0 1.2386 0.16133 1.6226 0.70532 1.6226 0.23466 0 0.42665-0.10666 0.61865-0.24533zm-0.59865-3.8612c1.3986 0 1.772 0.91731 1.772 3.5519 0 2.2933-0.0547 4.0212-1.8346 4.0212-0.42665 0-1.0346-0.18133-1.356-0.34132v-1.0253c0.43865 0.26666 0.86397 0.42799 1.2706 0.42799 0.60799 0 0.90664-0.43866 0.92664-2.0266-0.20132 0.15866-0.55465 0.36266-0.87331 0.36266-1.12 0-1.6333-0.72532-1.6333-2.4866 0-1.8013 0.52399-2.4839 1.728-2.4839" style="fill:#61bb46;stroke-width:1.3333"/>
	<path d="m249.73 491v-0.93865h0.86265v-4.2146l-0.86265 0.39466v-0.99064l1.1626-0.60799h0.71465v5.4185h0.85331v0.93865h-2.7306" style="fill:#61bb46;stroke-width:1.3333"/>
	<path d="m254.75 485.42c-0.67198 0-0.81198 0.46932-0.81198 2.3999s0.14 2.3999 0.81198 2.3999c0.68132 0 0.81065-0.46932 0.81065-2.3999s-0.12933-2.3999-0.81065-2.3999zm0 5.6852c-1.3013 0-1.8146-0.79998-1.8146-3.2852s0.51332-3.2852 1.8146-3.2852c1.3 0 1.824 0.79998 1.824 3.2852s-0.52398 3.2852-1.824 3.2852" style="fill:#61bb46;stroke-width:1.3333"/>
	<path d="m276.48 491v-0.93865h0.86398v-4.2146l-0.86398 0.39466v-0.99064l1.164-0.60799h0.71465v5.4185h0.85198v0.93865h-2.7306" style="fill:#61bb46;stroke-width:1.3333"/>
	<path d="m279.68 491v-0.93865h0.86398v-4.2146l-0.86398 0.39466v-0.99064l1.1626-0.60799h0.71465v5.4185h0.85464v0.93865h-2.7319" style="fill:#61bb46;stroke-width:1.3333"/>
	<path d="m303.23 491v-0.93865h0.86398v-4.2146l-0.86398 0.39466v-0.99064l1.1626-0.60799h0.71464v5.4185h0.85332v0.93865h-2.7306" style="fill:#61bb46;stroke-width:1.3333"/>
	<path d="m306.41 491v-0.71465c0-0.76932 0.33066-1.3546 1.152-2.1653 0.90664-0.89598 1.1626-1.2373 1.1626-1.8346 0-0.54532-0.30932-0.77865-0.81064-0.77865-0.49199 0-0.97065 0.19199-1.504 0.43732v-1.056c0.37333-0.13866 1.1093-0.35199 1.5893-0.35199 1.056 0 1.696 0.46932 1.696 1.6853 0 1.0346-0.47999 1.6-1.6106 2.6866-0.46932 0.47065-0.67198 0.74798-0.71465 1.1533h2.4213v0.93865h-3.3812" style="fill:#61bb46;stroke-width:1.3333"/>
	<path d="m329.96 491v-0.93865h0.86265v-4.2146l-0.86265 0.39466v-0.99064l1.1626-0.60799h0.71465v5.4185h0.85331v0.93865h-2.7306" style="fill:#61bb46;stroke-width:1.3333"/>
	<path d="m334.35 492.11c-0.57732 0-1.1426-0.15999-1.4506-0.28799v-1.0346c0.38399 0.21333 0.94931 0.38399 1.364 0.38399 0.58798 0 0.97197-0.23466 0.97197-1.28 0-1.0773-0.43732-1.324-1.056-1.324h-0.73732v-0.89464h0.72532c0.57732 0 0.92797-0.204 0.92797-1.12 0-0.90665-0.35065-1.0666-0.84131-1.0666-0.41599 0-0.92931 0.14799-1.3013 0.33066v-1.0253c0.26533-0.0947 0.88531-0.25466 1.3866-0.25466 1.044 0 1.7386 0.35199 1.7386 2.016 0 0.81064-0.204 1.312-0.58799 1.5573 0.47066 0.24399 0.74798 0.79865 0.74798 1.7706 0 1.812-0.72531 2.2293-1.888 2.2293" style="fill:#61bb46;stroke-width:1.3333"/>
	<path d="m356.71 491v-0.93865h0.86398v-4.2146l-0.86398 0.39466v-0.99064l1.1626-0.60799h0.71598v5.4185h0.85198v0.93865h-2.7306" style="fill:#61bb46;stroke-width:1.3333"/>
	<path d="m361.51 487.05-1.1506 2.1853h1.5133v-2.1c0-0.40666 0.0547-0.98131 0.0547-0.98131s-0.22399 0.53199-0.41732 0.89598zm1.344 3.0079v1.9413h-0.98131v-1.9413h-2.4639v-0.59865l2.5186-4.8625h0.92665v4.6386h0.59732v0.82264h-0.59732" style="fill:#61bb46;stroke-width:1.3333"/>
	<path d="m383.44 491v-0.93865h0.86397v-4.2146l-0.86397 0.39466v-0.99064l1.1626-0.60799h0.71465v5.4185h0.85331v0.93865h-2.7306" style="fill:#61bb46;stroke-width:1.3333"/>
	<path d="m388.02 492.11c-0.54266 0-1.076-0.18133-1.3426-0.31066v-1.0333c0.37333 0.224 0.84265 0.40533 1.2586 0.40533 0.58532 0 0.91731-0.224 0.91731-1.3013 0-1.056-0.31999-1.312-0.87464-1.312h-1.28v-3.9146h2.9866v0.94931h-2.0493v2.0693h0.53465c0.98131 0 1.6746 0.39466 1.6746 2.196 0 1.804-0.70399 2.2519-1.8253 2.2519" style="fill:#61bb46;stroke-width:1.3333"/>
	<path d="m410.18 491v-0.93865h0.86265v-4.2146l-0.86265 0.39466v-0.99064l1.1626-0.60799h0.71465v5.4185h0.85331v0.93865h-2.7306" style="fill:#61bb46;stroke-width:1.3333"/>
	<path d="m414.64 487.24-0.18 0.12933c0 2.1959 0.11733 2.8799 0.77865 2.8799 0.55465 0 0.72531-0.39599 0.72531-1.6333 0-1.236-0.15999-1.62-0.70531-1.62-0.23333 0-0.42533 0.10666-0.61865 0.24399zm0.59865 3.8626c-1.3973 0-1.7706-0.91864-1.7706-3.5519 0-2.2933 0.0533-4.0212 1.8346-4.0212 0.42665 0 1.0346 0.18132 1.3533 0.34132v1.024c-0.43733-0.26799-0.86265-0.42665-1.268-0.42665-0.60799 0-0.90798 0.43599-0.92798 2.0266 0.20133-0.15999 0.55465-0.36399 0.87465-0.36399 1.12 0 1.632 0.72665 1.632 2.4853 0 1.804-0.52265 2.4866-1.728 2.4866" style="fill:#61bb46;stroke-width:1.3333"/>
	<path d="m436.93 491v-0.93865h0.86398v-4.2146l-0.86398 0.39466v-0.99064l1.1626-0.60799h0.71598v5.4185h0.85198v0.93865h-2.7306" style="fill:#61bb46;stroke-width:1.3333"/>
	<path d="m442.18 488.44c-0.44798 0.74531-0.62931 1.1733-0.62931 2.4733v1.0893h-0.97998v-1.0893c0-1.7053 0.40399-2.4093 0.80931-3.0386 0.42666-0.66132 0.67199-1.088 0.68265-2.0693v-0.21333h-2.3466v-0.94931h3.3279v0.72532c0 1.7706-0.43732 2.3999-0.86398 3.0719" style="fill:#61bb46;stroke-width:1.3333"/>
	<path d="m457.01 491v-0.93865h0.86265v-4.2146l-0.86265 0.39466v-0.99064l1.1626-0.60799h0.71465v5.4185h0.85331v0.93865h-2.7306" style="fill:#61bb46;stroke-width:1.3333"/>
	<path d="m461.97 484.38c-0.53332 0-0.68265 0.30799-0.68265 1.1626 0 0.86264 0.14933 1.184 0.68265 1.184s0.68131-0.32133 0.68131-1.184c0-0.85465-0.14799-1.1626-0.68131-1.1626zm0 3.1679c-0.63999 0-0.78932 0.35199-0.78932 1.3546 0 1.0013 0.14933 1.3546 0.78932 1.3546 0.63998 0 0.78798-0.35333 0.78798-1.3546 0-1.0026-0.148-1.3546-0.78798-1.3546zm0 3.5626c-1.28 0-1.7813-0.64132-1.7813-2.1866 0-0.91731 0.24399-1.5573 0.68131-1.8346-0.31866-0.27733-0.51065-0.84398-0.51065-1.5573 0-1.376 0.44799-1.9946 1.6106-1.9946 1.1626 0 1.6106 0.61865 1.6106 1.9946 0 0.71332-0.20399 1.28-0.52265 1.5573 0.43732 0.27732 0.69331 0.91731 0.69331 1.8346 0 1.5453-0.50132 2.1866-1.7813 2.1866" style="fill:#61bb46;stroke-width:1.3333"/>
	<path d="m468.69 488.58h-0.49066c-0.65198 0-0.85331 0.42799-0.85331 0.99197 0 0.52399 0.18133 0.73732 0.46799 0.73732 0.20399 0 0.42799-0.11866 0.66265-0.37332l0.21333-0.21333zm0.39465 2.4226c-0.0973-0.128-0.19332-0.32133-0.26799-0.56532l-0.15999 0.17066c-0.36133 0.41465-0.76799 0.49065-1.0453 0.49065-0.75598 0-1.1933-0.53332-1.1933-1.5266 0-1.0973 0.60799-1.7813 1.7066-1.7813h0.56532v-0.63865c0-0.53332-0.26666-0.72532-0.67199-0.72532-0.49065 0-0.92797 0.18133-1.376 0.46932v-0.99331c0.33999-0.13733 0.91598-0.33999 1.46-0.33999 1.0453 0 1.58 0.45732 1.58 1.7066v2.2399c0 0.53332 0.0307 1.172 0.10667 1.4933h-0.70399" style="fill:#61bb46;stroke-width:1.3333"/>
	<path d="m472.64 491v-3.9572c0-0.42665-0.11733-0.58798-0.34133-0.58798-0.17066 0-0.34132 0.10799-0.64132 0.44798l-0.38399 0.42799v3.6692h-0.99197v-3.8399c0-0.53465-0.0307-1.152-0.10533-1.4933h0.70265c0.0973 0.11733 0.22399 0.43732 0.31066 0.78798l0.34132-0.35066c0.33066-0.34133 0.69198-0.54399 1.0653-0.54399 0.83198 0 1.036 0.61732 1.036 1.5893v3.8506h-0.99197" style="fill:#61bb46;stroke-width:1.3333"/>
	<path d="m475.32 491.11c-0.57465 0-1.0026-0.128-1.3106-0.24666v-0.95998c0.44798 0.224 0.87331 0.35333 1.3213 0.35333 0.39599 0 0.73731-0.16 0.73731-0.79998 0-0.61865-0.26666-0.74665-0.74798-0.74665-0.79865 0-1.4813-0.23466-1.4813-1.6333 0-1.1506 0.61865-1.5133 1.5573-1.5133 0.38265 0 0.95997 0.13866 1.28 0.26666v0.94931c-0.45999-0.25733-0.87465-0.37466-1.3026-0.37466-0.36132 0-0.63865 0.12933-0.63865 0.67199 0 0.56665 0.21333 0.69465 0.61865 0.69465 0.77865 0 1.6106 0.23466 1.6106 1.6853 0 1.248-0.71465 1.6533-1.644 1.6533" style="fill:#61bb46;stroke-width:1.3333"/>
	<path d="m3.9635 128.74c-0.49999 0-0.63999 0.28933-0.63999 1.0906 0 0.80931 0.14 1.1093 0.63999 1.1093s0.63998-0.29999 0.63998-1.1093c0-0.80131-0.13999-1.0906-0.63998-1.0906zm0 2.9693c-0.59999 0-0.73998 0.33066-0.73998 1.2706 0 0.93998 0.13999 1.2706 0.73998 1.2706 0.59998 0 0.73998-0.33066 0.73998-1.2706 0-0.93997-0.14-1.2706-0.73998-1.2706zm0 3.3412c-1.2 0-1.6693-0.60132-1.6693-2.0506 0-0.85998 0.22932-1.46 0.63998-1.72-0.29999-0.26-0.48132-0.79065-0.48132-1.46 0-1.2906 0.42132-1.8706 1.5106-1.8706 1.0893 0 1.5106 0.57999 1.5106 1.8706 0 0.66932-0.19067 1.2-0.49066 1.46 0.40933 0.25999 0.65065 0.85997 0.65065 1.72 0 1.4493-0.47065 2.0506-1.6706 2.0506" style="fill:#00b9f1;stroke-width:1.3333"/>
	<path d="m8.4567 129.71c-0.62932 0-0.75865 0.43999-0.75865 2.2506 0 1.8093 0.12933 2.2493 0.75865 2.2493 0.64132 0 0.75998-0.43999 0.75998-2.2493 0-1.8106-0.11866-2.2506-0.75998-2.2506zm0 5.3305c-1.22 0-1.6986-0.75065-1.6986-3.0799 0-2.3306 0.47866-3.0813 1.6986-3.0813s1.7106 0.75065 1.7106 3.0813c0 2.3293-0.49065 3.0799-1.7106 3.0799" style="fill:#00b9f1;stroke-width:1.3333"/>
	<path d="m450.54 141.67h12.57v-8.0385h-12.57z" style="fill:#fff;stroke-width:1.3333"/>
	<path d="m454.16 138.1 0.112-0.0787c0-1.3586-0.0733-1.7813-0.48133-1.7813-0.34399 0-0.44798 0.244-0.44798 1.0093s0.0987 1.0026 0.43465 1.0026c0.14533 0 0.26266-0.0653 0.38266-0.152zm-0.36933-2.3866c0.86398 0 1.096 0.56665 1.096 2.1959 0 1.4173-0.0333 2.4866-1.136 2.4866-0.26266 0-0.63998-0.11333-0.83731-0.212v-0.63198c0.27066 0.16399 0.53332 0.26266 0.78532 0.26266 0.37599 0 0.55998-0.26933 0.57332-1.2533-0.12534 0.1-0.344 0.22532-0.54132 0.22532-0.69332 0-1.008-0.44932-1.008-1.5373 0-1.1146 0.32266-1.536 1.068-1.536" style="fill:#8b5ba5;stroke-width:1.3333"/>
	<path d="m456.53 138.12c-0.27599 0.46132-0.39065 0.72532-0.39065 1.5306v0.67198h-0.60666v-0.67198c0-1.056 0.25333-1.492 0.50266-1.88 0.26399-0.40933 0.41732-0.67332 0.42265-1.28v-0.132h-1.4506v-0.58665h2.0573v0.44799c0 1.096-0.27066 1.484-0.53466 1.9" style="fill:#8b5ba5;stroke-width:1.3333"/>
	<path d="m460.69 138.27c-0.19733 0-0.29599 0.13733-0.29599 0.52666 0 0.38932 0.0987 0.52798 0.29599 0.52798 0.19066 0 0.28932-0.13866 0.28932-0.52798 0-0.38933-0.0987-0.52666-0.28932-0.52666zm0 1.496c-0.47599 0-0.74665-0.30933-0.74665-0.96931 0-0.65865 0.27066-0.96931 0.74665-0.96931 0.47465 0 0.73731 0.31066 0.73731 0.96931 0 0.65998-0.26266 0.96931-0.73731 0.96931zm-1.7546-0.0653h-0.39599l1.8546-4.5506h0.39599zm-0.29733-4.1746c-0.19733 0-0.29599 0.13867-0.29599 0.52799s0.0987 0.52665 0.29599 0.52665c0.19066 0 0.28933-0.13733 0.28933-0.52665s-0.0987-0.52799-0.28933-0.52799zm0 1.4973c-0.47332 0-0.74398-0.31066-0.74398-0.96931 0-0.65998 0.27066-0.96931 0.74398-0.96931 0.47465 0 0.73998 0.30933 0.73998 0.96931 0 0.65865-0.26533 0.96931-0.73998 0.96931" style="fill:#8b5ba5;stroke-width:1.3333"/>
	<path d="m450.81 189.09h12.57v-8.0385h-12.57z" style="fill:#fff;stroke-width:1.3333"/>
	<path d="m454.18 185.31c-0.27599 0.46132-0.38932 0.72398-0.38932 1.5293v0.67332h-0.60665v-0.67332c0-1.0546 0.25066-1.4906 0.50132-1.88 0.26399-0.40799 0.41466-0.67198 0.42266-1.2786v-0.132h-1.452v-0.58799h2.0586v0.44799c0 1.0973-0.27066 1.4853-0.53466 1.9013" style="fill:#8b5ba5;stroke-width:1.3333"/>
	<path d="m455.81 187.57c-0.33599 0-0.66532-0.112-0.83065-0.19066v-0.63999c0.22933 0.13867 0.51999 0.25066 0.77732 0.25066 0.36266 0 0.56665-0.13866 0.56665-0.80531 0-0.65332-0.19733-0.81065-0.53999-0.81065h-0.79198v-2.4213h1.8466v0.58799h-1.2653v1.28h0.32933c0.60665 0 1.0346 0.24266 1.0346 1.3573s-0.43466 1.392-1.1266 1.392" style="fill:#8b5ba5;stroke-width:1.3333"/>
	<path d="m460.61 185.47c-0.19733 0-0.29733 0.13867-0.29733 0.52799s0.1 0.52665 0.29733 0.52665c0.192 0 0.29066-0.13733 0.29066-0.52665s-0.0987-0.52799-0.29066-0.52799zm0 1.4973c-0.47465 0-0.74531-0.30933-0.74531-0.96931s0.27066-0.97064 0.74531-0.97064 0.73865 0.31066 0.73865 0.97064-0.264 0.96931-0.73865 0.96931zm-1.7546-0.0653h-0.39466l1.852-4.5506h0.39599zm-0.296-4.1759c-0.19732 0-0.29732 0.13867-0.29732 0.52799s0.1 0.52799 0.29732 0.52799c0.19067 0 0.28933-0.13867 0.28933-0.52799s-0.0987-0.52799-0.28933-0.52799zm0 1.4973c-0.47465 0-0.74664-0.31066-0.74664-0.96931s0.27199-0.96798 0.74664-0.96798c0.47333 0 0.73865 0.30933 0.73865 0.96798s-0.26532 0.96931-0.73865 0.96931" style="fill:#8b5ba5;stroke-width:1.3333"/>
	<path d="m451.78 235.24h12.573v-8.0385h-12.573z" style="fill:#fff;stroke-width:1.3333"/>
	<path d="m453.89 233.16v-0.44265c0-0.47466 0.20266-0.83731 0.71065-1.3386 0.55998-0.55466 0.71865-0.76532 0.71865-1.136 0-0.33599-0.18933-0.47998-0.49999-0.47998-0.30399 0-0.60132 0.11866-0.92931 0.26932v-0.65198c0.22933-0.0853 0.68531-0.21733 0.98131-0.21733 0.65331 0 1.0493 0.29066 1.0493 1.0413 0 0.64132-0.29599 0.98931-0.9973 1.6613-0.288 0.29199-0.41333 0.46399-0.43999 0.71332h1.4946v0.58131h-2.088" style="fill:#8b5ba5;stroke-width:1.3333"/>
	<path d="m457.06 233.84c-0.33599 0-0.66398-0.112-0.83064-0.19066v-0.63999c0.23199 0.13733 0.52132 0.24933 0.77864 0.24933 0.36133 0 0.56799-0.13733 0.56799-0.80398 0-0.65332-0.19866-0.81065-0.54265-0.81065h-0.79065v-2.4213h1.8453v0.58799h-1.2653v1.2786h0.33066c0.60665 0 1.0346 0.24533 1.0346 1.36 0 1.1146-0.43599 1.3906-1.128 1.3906" style="fill:#8b5ba5;stroke-width:1.3333"/>
	<path d="m461.86 231.73c-0.19866 0-0.29732 0.13733-0.29732 0.52799 0 0.38799 0.0987 0.52799 0.29732 0.52799 0.18933 0 0.28799-0.14 0.28799-0.52799 0-0.39066-0.0987-0.52799-0.28799-0.52799zm0 1.4973c-0.47732 0-0.74798-0.31066-0.74798-0.96931 0-0.65998 0.27066-0.96931 0.74798-0.96931 0.47332 0 0.73598 0.30933 0.73598 0.96931 0 0.65865-0.26266 0.96931-0.73598 0.96931zm-1.756-0.0653h-0.39599l1.8546-4.5519h0.39599zm-0.29733-4.1759c-0.19733 0-0.29599 0.14-0.29599 0.52799 0 0.39066 0.0987 0.52799 0.29599 0.52799 0.19066 0 0.28933-0.13733 0.28933-0.52799 0-0.38799-0.0987-0.52799-0.28933-0.52799zm0 1.4973c-0.47332 0-0.74398-0.30933-0.74398-0.96931s0.27066-0.96931 0.74398-0.96931c0.47465 0 0.73998 0.30933 0.73998 0.96931s-0.26533 0.96931-0.73998 0.96931" style="fill:#8b5ba5;stroke-width:1.3333"/>
	<path d="m451.96 264.99h10.713v-8.0385h-10.713z" style="fill:#fff;stroke-width:1.3333"/>
	<path d="m454.76 263.63c-0.35599 0-0.70531-0.1-0.89731-0.17866v-0.64132c0.236 0.13333 0.58799 0.23866 0.84265 0.23866 0.36532 0 0.60265-0.144 0.60265-0.79198 0-0.66532-0.27199-0.81731-0.65465-0.81731h-0.45466v-0.55332h0.44933c0.35465 0 0.57331-0.12533 0.57331-0.69332 0-0.55998-0.21866-0.65865-0.51998-0.65865-0.25866 0-0.57332 0.092-0.80532 0.204v-0.63332c0.164-0.06 0.54666-0.15866 0.85732-0.15866 0.64531 0 1.0746 0.21866 1.0746 1.2466 0 0.50132-0.12533 0.81198-0.36133 0.96398 0.28933 0.15066 0.45999 0.49332 0.45999 1.0933 0 1.1213-0.44666 1.38-1.1666 1.38" style="fill:#8b5ba5;stroke-width:1.3333"/>
	<path d="m459.6 261.51c-0.19733 0-0.29599 0.13733-0.29599 0.52666 0 0.38932 0.0987 0.52932 0.29599 0.52932 0.19333 0 0.29199-0.14 0.29199-0.52932 0-0.38933-0.0987-0.52666-0.29199-0.52666zm0 1.496c-0.47332 0-0.74398-0.31066-0.74398-0.96931s0.27066-0.96798 0.74398-0.96798c0.47466 0 0.73998 0.30933 0.73998 0.96798s-0.26532 0.96931-0.73998 0.96931zm-1.7546-0.0653h-0.39332l1.852-4.5506h0.39466zm-0.29466-4.1746c-0.19733 0-0.29733 0.13866-0.29733 0.52799 0 0.38932 0.1 0.52665 0.29733 0.52665 0.19066 0 0.28933-0.13733 0.28933-0.52665 0-0.38933-0.0987-0.52799-0.28933-0.52799zm0 1.4973c-0.47599 0-0.74665-0.30933-0.74665-0.96931 0-0.66132 0.27066-0.97064 0.74665-0.97064 0.47465 0 0.73731 0.30932 0.73731 0.97064 0 0.65998-0.26266 0.96931-0.73731 0.96931" style="fill:#8b5ba5;stroke-width:1.3333"/>
	<text x="27.473537" y="27.664564" style="fill:#231f20;font-family:Bliss;font-size:11.557px;font-weight:300;stroke-width:1.651">
		<tspan x="27.473537 32.391136 35.598274 40.734299 45.419613 50.567211 54.697765 57.695694 62.843304 66.615578 71.751617 77.269051 79.700653 82.178543 86.309105 89.307068 94.443085 97.441017 102.97003 108.10606 111.71654 115.48883 117.96669 121.40381 124.40176 129.98854 135.13611 139.26666 142.26463 147.85138 153.56529 159.22142 164.87752 170.02512 175.17273 179.30327 182.30116 187.88799 193.03557 196.03348 198.46516 201.03551 206.18304 209.95535 215.59991 221.18666 226.33427 229.33221 233.46278 238.61037 244.26646 249.91104 255.05858 260.71478 264.48703 266.9649 272.11249 274.54413 276.9758 282.12335 285.12134 288.41974 291.62579 296.76181 302.41788 307.10315 312.23923 314.7171 318.8476 323.99521 326.99319 332.57996 337.72754 340.72546 343.1571 348.29315 351.29114 355.97641 359.29913 365.013 367.49084 371.62146 375.75204 380.88803 386.54413 391.22943 396.37704 399.37494 405.90948 408.53757 413.74292 417.7579 420.38611 428.45767 433.80167 439.00705 444.92902 453.90204" y="27.664564" style="stroke-width:1.651">
			<tspan style="font-family:Arial;font-weight:normal;stroke-width:1.651">Tracés établis à partir des données de l’étude séquentielle française de la croissance CIE-INSERM</tspan>
.		</tspan>
		<tspan x="27.473537 30.875978 39.849022 41.957062 46.376545 51.079189 56.627827 62.341702 64.773369 67.205002 72.341034 77.997139 83.583931 87.598907 94.133362 99.269379 104.06796 109.72405 114.87167 118.07767 123.21369 126.21161 131.80994 134.80791 143.78093 148.48241 153.82648 158.97408 168.03957 173.56854 178.71616 182.11862 188.83565 194.63739 199.77344 203.09615 205.57397 210.71007 214.48232 216.96021 222.6741 228.33023 232.46078 235.45869 240.60631 246.26241 249.26041 253.94566 259.09329 264.74942 268.5217 270.99954 273.43121 278.57874 282.70935" y="40.873344" style="font-family:Arial;font-weight:normal;stroke-width:1.651">(M.F.Rolland-Cachera – M.Sempé).Variations en centiles.</tspan>
	</text>
</svg>
