<svg width="487.6" height="631.62" version="1.1" viewBox="0 0 487.59247 631.62152" xmlns="http://www.w3.org/2000/svg">
	<path d="m14.527 604.87h453.35v-604.53h-453.35z" style="fill:#fff;stroke-width:1.3333"/>
	<path d="m468.06 132.03-75.814 34.471-75.345 34.639-75.046 32.847-35.499 18.941-41.166 27.725-20.999 15.333-15.094 13.932-4.0332 3.9546-34.659 38.926-37.742 60.304-38.082 75.722v49.932l37.694-45.632 37.692-41.335 38.212-27.975 37.95-21.626 74.997-30.419 151.16-50.263 75.774-18.848v-170.62" style="fill:#fff;stroke-width:1.3333"/>
	<path d="m14.527 605.07v-604.73m12.593 604.73v-604.73m12.593 604.73v-604.73m12.592 604.73v-604.73m12.637 604.73v-604.73m12.592 604.73v-604.73m12.593 604.73v-604.73m12.593 604.73v-604.73m12.74 604.73v-604.73m12.593 604.73v-604.73m12.592 604.73v-604.73m12.593 604.73v-604.73m12.446 604.73v-604.73m12.592 604.73v-604.73m12.593 604.73v-604.73m12.593 604.73v-604.73m12.726 604.73v-604.73m12.593 604.73v-604.73m12.592 604.73v-604.73m12.592 604.73v-604.73m12.588 604.73v-604.73m12.593 604.73v-604.73m12.592 604.73v-604.73m12.593 604.73v-604.73m12.588 604.73v-604.73m12.594 604.73v-604.73m12.59 604.73v-604.73m12.593 604.73v-604.73m12.589 604.73v-604.73m12.592 604.73v-604.73m12.593 604.73v-604.73m12.593 604.73v-604.73m12.584 604.73v-604.73m12.592 604.73v-604.73m12.594 604.73v-604.73m12.592 604.73v-604.73m12.637 604.73v-604.73" style="fill:none;stroke-width:.33332;stroke:#a9c0a6"/>
	<path d="m14.607 605.07h453.46m-453.5-27.487h453.54m-453.54-27.489h453.54m-453.54-27.487h453.54m-453.54-27.489h453.54m-453.54-27.487h453.54m-453.54-27.489h453.54m-453.54-27.487h453.54m-453.54-27.487h453.54m-453.54-27.489h453.54m-453.54-27.489h453.54m-453.54-27.487h453.54m-453.54-27.487h453.54m-453.54-27.489h453.54m-453.54-27.489h453.54m-453.54-27.487h453.54m-453.54-27.489h453.54m-453.54-27.487h453.54m-453.54-27.487h453.54m-453.54-27.489h453.54m-453.54-27.487h453.54m-453.54-27.489h453.54m-453.54-27.487h453.54" style="fill:none;stroke-width:.66665;stroke:#a9c0a6"/>
	<path d="m14.607 594.07h453.46m-453.46-5.4972h453.46m-453.46-5.4972h453.46m-453.46-10.996h453.46m-453.46-5.4972h453.46m-453.46-5.4972h453.46m-453.46-16.493h453.46m-453.46-5.4972h453.46m-453.46-10.996h453.46m-453.46-10.994h453.46m-453.46-10.997h453.46m-453.46-5.4972h453.46m-453.46-16.493h453.46m-453.46-5.4972h453.46m-453.46-5.4972h453.46m-453.46-10.996h453.46m-453.46-10.994h453.46m-453.46-5.4972h453.46m-453.46-10.996h453.46m-453.46-5.4972h453.46m-453.46-10.996h453.46m-453.46-10.994h453.46m-453.46-5.4972h453.46m-453.46-10.996h453.46m-453.46-10.994h453.46m-453.46-5.4999h453.46m-453.46-10.994h453.46m-453.46-10.996h453.46m-453.46-10.994h453.46m-453.46-5.4972h453.46m-453.46-10.996h453.46m-453.46-5.4972h453.46m-453.46-10.996h453.46m-453.46-10.994h453.46m-453.46-5.4985h453.46m-453.46-10.994h453.46m-453.46-10.996h453.46m-453.46-5.4972h453.46m-453.46-10.996h453.46m-453.46-10.996h453.46m-453.46-5.4972h453.46m-453.46-10.994h453.46m-453.46-10.996h453.46m-453.46-5.4972h453.46m-453.46-10.996h453.46m-453.46-10.994h453.46m-453.46-10.996h453.46m-453.46-5.4972h453.46m-453.46-10.996h453.46m-453.46-10.994h453.46m-453.46-5.4985h453.46m-453.46-10.994h453.46m-453.46-10.996h453.46m-453.46-5.4972h453.46m-453.46-10.994h453.46m-453.46-10.996h453.46m-453.46-5.4985h453.46m-453.46-10.994h453.46m-453.46-5.4972h453.46m-453.46-10.996h453.46m-453.46-10.994h453.46m-453.46-5.4985h453.46m-453.46-10.996h453.46m-453.46-10.994h453.46m-453.46-10.996h453.46m-453.46-5.4972h453.46m-453.46 593.75h453.46m-453.46-43.98h453.46m-453.46-21.99h453.46m-453.46-21.991h453.46m-453.46-21.99h453.46m-453.46-32.986h453.46m-453.46-32.985h453.46m-453.46-27.489h453.46m-453.46-27.489h453.46m-453.46-21.99h453.46m-453.46-32.985h453.46m-453.46-27.489h453.46m-453.46-27.487h453.46m-453.46-27.489h453.46m-453.46-27.487h453.46m-453.46-21.99h453.46m-453.46-27.489h453.46m-453.46-27.487h453.46m-453.46-27.489h453.46m-453.46-32.986h453.46m-453.46-27.487h453.46m-453.46-21.99h453.46m-453.44 588.33h453.46" style="fill:#231f20;stroke-width:.33332;stroke:#a7bda4"/>
	<path d="m14.637 605.15v-604.73m37.786 604.73v-604.73m37.787 604.73v-604.73m37.787 604.73v-604.73m37.784 604.73v-604.73m37.787 604.73v-604.73m37.786 604.73v-604.73m37.787 604.73v-604.73m37.786 604.73v-604.73m37.786 604.73v-604.73m37.788 604.73v-604.73m37.786 604.73v-604.73m37.784 604.73v-604.73" style="fill:none;stroke-width:.66665;stroke:#a9c0a6"/>
	<path d="m52.422 440.22-37.786 63.22m37.786-63.22 27.934-42.678s10.008-15.642 23.866-29.322l7.4745-7.6118s14.489-15.216 32.658-27.307l21.426-14.028 75.573-41.235 75.573-30.235 75.574-27.489 75.57-27.487m-415.64 277.63-37.786 52.225m453.43-263.89l-75.57 27.487-75.574 27.49-75.573 27.487-75.573 27.489-37.784 21.989-37.787 32.986-37.787 46.731" style="fill:none;stroke-dasharray:3.77937218, 3.77937218;stroke-width:.99998;stroke:#00adef"/>
	<path d="m52.422 492.45-37.786 46.731m37.786-46.731 29.603-32.303s7.7478-8.2038 18.457-16.404l27.514-20.013 28.505-16.588s12.398-6.5772 19.6-9.5318l65.253-26.109 151.14-49.477 75.57-19.242m-453.55 187.32s37.778-78.663 52.888-100.89c0 0 21.333-38.222 43.555-60.444 0 0 24.333-28.11 42.554-40.11 0 0 31.666-24.333 55.665-37.332 0 0 44.11-24.222 65.998-32.333 0 0 59.332-25.334 70.888-31.555l121.99-55.109" style="fill:none;stroke-width:.99998;stroke:#8b5ba5"/>
	<path d="m3.8316 581.49v-0.88131h0.80798v-3.9492l-0.80798 0.37066v-0.93065l1.0866-0.56932h0.66932v5.0785h0.79865v0.88131h-2.5546" style="fill:#8b5ba5;stroke-width:1.3333"/>
	<path d="m0.7423 554.02v-0.67065c0-0.71998 0.30933-1.2693 1.0773-2.0293 0.84798-0.83998 1.088-1.16 1.088-1.72 0-0.50932-0.29066-0.72932-0.75865-0.72932-0.45866 0-0.90798 0.18-1.4066 0.40933v-0.99065c0.34799-0.12933 1.0373-0.32932 1.4853-0.32932 0.98931 0 1.5866 0.43999 1.5866 1.58 0 0.96931-0.44932 1.5-1.5066 2.5199-0.43866 0.43999-0.62798 0.69998-0.66798 1.08h2.2653v0.87998h-3.1626" style="fill:#8b5ba5;stroke-width:1.3333"/>
	<path d="m2.2823 527c-0.53865 0-1.0666-0.14933-1.3573-0.27066v-0.96931c0.35999 0.19999 0.88798 0.35999 1.2773 0.35999 0.54932 0 0.90798-0.22 0.90798-1.2 0-1.0093-0.40932-1.24-0.98798-1.24h-0.68798v-0.83998h0.67865c0.53865 0 0.86798-0.18933 0.86798-1.0506 0-0.84798-0.32933-0.99997-0.78931-0.99997-0.38799 0-0.86664 0.14133-1.216 0.31065v-0.95997c0.24933-0.0893 0.82798-0.24 1.2973-0.24 0.97731 0 1.6253 0.32933 1.6253 1.8893 0 0.76131-0.18933 1.2306-0.54799 1.4613 0.43866 0.22932 0.69865 0.74931 0.69865 1.66 0 1.6986-0.67865 2.0893-1.7666 2.0893" style="fill:#8b5ba5;stroke-width:1.3333"/>
	<path d="m2.0223 495.04-1.0786 2.0506h1.4173v-1.9706c0-0.37999 0.050665-0.91997 0.050665-0.91997s-0.21066 0.49998-0.38932 0.83998zm1.256 2.8199v1.82h-0.91731v-1.82h-2.3053v-0.55999l2.3559-4.5599h0.86664v4.3506h0.55865v0.76932h-0.55865" style="fill:#8b5ba5;stroke-width:1.3333"/>
	<path d="m2.2463 471.89c-0.50932 0-1.008-0.17066-1.2573-0.29066v-0.97064c0.34799 0.20932 0.78665 0.37999 1.176 0.37999 0.54932 0 0.85865-0.20933 0.85865-1.22 0-0.98931-0.29999-1.2293-0.81865-1.2293h-1.1973v-3.6692h2.7946v0.88931h-1.916v1.94h0.49865c0.91864 0 1.5666 0.36932 1.5666 2.0599 0 1.6893-0.65865 2.1106-1.7053 2.1106" style="fill:#8b5ba5;stroke-width:1.3333"/>
	<path d="m1.7009 440.44-0.16933 0.12c0 2.0586 0.10933 2.6986 0.72798 2.6986 0.51865 0 0.67865-0.36933 0.67865-1.5306 0-1.16-0.14933-1.5186-0.65865-1.5186-0.21999 0-0.39866 0.1-0.57865 0.23066zm0.55865 3.6199c-1.3066 0-1.656-0.86131-1.656-3.3319 0-2.1493 0.049332-3.7692 1.716-3.7692 0.39999 0 0.96798 0.17067 1.2666 0.32133v0.95864c-0.40932-0.24932-0.80798-0.39999-1.1866-0.39999-0.56932 0-0.84798 0.41066-0.86798 1.9 0.18933-0.14933 0.51865-0.34 0.81865-0.34 1.0466 0 1.5253 0.67999 1.5253 2.3293 0 1.6906-0.48932 2.3319-1.616 2.3319" style="fill:#8b5ba5;stroke-width:1.3333"/>
	<path d="m3.0436 412.24c-0.41866 0.69998-0.58932 1.1-0.58932 2.3199v1.02h-0.91731v-1.02c0-1.6 0.37866-2.26 0.75865-2.8493 0.39866-0.61999 0.62798-1.0213 0.63865-1.94v-0.20132h-2.1946v-0.88932h3.1119v0.67999c0 1.66-0.40932 2.2493-0.80798 2.8799" style="fill:#8b5ba5;stroke-width:1.3333"/>
	<path d="m2.2476 382.79c-0.49865 0-0.63865 0.28933-0.63865 1.0906 0 0.80931 0.14 1.1093 0.63865 1.1093s0.63865-0.29999 0.63865-1.1093c0-0.80131-0.14-1.0906-0.63865-1.0906zm0 2.9706c-0.59732 0-0.73731 0.32933-0.73731 1.2693 0 0.93998 0.14 1.2693 0.73731 1.2693 0.59998 0 0.73865-0.32932 0.73865-1.2693 0-0.93997-0.13866-1.2693-0.73865-1.2693zm0 3.3399c-1.196 0-1.6653-0.60132-1.6653-2.0506 0-0.85998 0.22933-1.46 0.63865-1.72-0.29999-0.26-0.47865-0.78932-0.47865-1.46 0-1.2906 0.41866-1.8706 1.5053-1.8706 1.088 0 1.5066 0.57999 1.5066 1.8706 0 0.67065-0.18933 1.2-0.48799 1.46 0.40799 0.25999 0.64798 0.85997 0.64798 1.72 0 1.4493-0.46932 2.0506-1.6666 2.0506" style="fill:#8b5ba5;stroke-width:1.3333"/>
	<path d="m2.7956 358.43 0.16933-0.12c0-2.06-0.10933-2.6999-0.72798-2.6999-0.51865 0-0.67865 0.36932-0.67865 1.5293s0.14933 1.5213 0.65865 1.5213c0.21999 0 0.39866-0.1 0.57865-0.23066zm-0.55865-3.6199c1.3066 0 1.656 0.85998 1.656 3.3292 0 2.1506-0.049332 3.7706-1.716 3.7706-0.39866 0-0.96798-0.17066-1.2666-0.31999v-0.95998c0.40932 0.25066 0.80798 0.39999 1.1866 0.39999 0.56799 0 0.84798-0.40932 0.86798-1.9-0.18933 0.15066-0.51865 0.33999-0.81731 0.33999-1.048 0-1.5266-0.67998-1.5266-2.3306 0-1.6893 0.48799-2.3293 1.616-2.3293" style="fill:#8b5ba5;stroke-width:1.3333"/>
	<path d="m0.33431 334.31v-0.87998h0.80798v-3.9492l-0.80798 0.36932v-0.93064l1.088-0.56932h0.66798v5.0799h0.79865v0.87998h-2.5546" style="fill:#8b5ba5;stroke-width:1.3333"/>
	<path d="m5.6715 329.07c-0.62798 0-0.75731 0.43999-0.75731 2.2506 0 1.8093 0.12933 2.2493 0.75731 2.2493 0.63865 0 0.75865-0.43999 0.75865-2.2493 0-1.8106-0.12-2.2506-0.75865-2.2506zm0 5.3305c-1.216 0-1.696-0.74932-1.696-3.0799 0-2.3293 0.47999-3.0799 1.696-3.0799 1.2173 0 1.7066 0.75065 1.7066 3.0799 0 2.3306-0.48932 3.0799-1.7066 3.0799" style="fill:#8b5ba5;stroke-width:1.3333"/>
	<path d="m1.3423 306.75v-0.87998h0.80798v-3.9492l-0.80798 0.36932v-0.92931l1.088-0.57065h0.66798v5.0799h0.79731v0.87998h-2.5533" style="fill:#8b5ba5;stroke-width:1.3333"/>
	<path d="m4.9835 306.75v-0.87998h0.80798v-3.9492l-0.80798 0.36932v-0.92931l1.088-0.57065h0.66798v5.0799h0.79865v0.87998h-2.5546" style="fill:#8b5ba5;stroke-width:1.3333"/>
	<path d="m0.76497 279.27v-0.87998h0.80798v-3.9506l-0.80798 0.36933v-0.92931l1.0866-0.57066h0.66932v5.0812h0.79731v0.87998h-2.5533" style="fill:#8b5ba5;stroke-width:1.3333"/>
	<path d="m4.3955 279.27v-0.67065c0-0.71998 0.30933-1.2693 1.0773-2.0293 0.84798-0.84131 1.088-1.16 1.088-1.72 0-0.51066-0.28933-0.73065-0.75865-0.73065-0.45866 0-0.90798 0.17999-1.4066 0.41066v-0.99065c0.34932-0.12933 1.0373-0.32932 1.4866-0.32932 0.98798 0 1.5866 0.43999 1.5866 1.58 0 0.96931-0.44932 1.5-1.5066 2.5186-0.43866 0.44132-0.62932 0.70132-0.66798 1.0813h2.2639v0.87998h-3.1626" style="fill:#8b5ba5;stroke-width:1.3333"/>
	<path d="m1.105 251.79v-0.87997h0.80798v-3.9492l-0.80798 0.36933v-0.92931l1.0866-0.57066h0.66798v5.0799h0.79865v0.87997h-2.5533" style="fill:#8b5ba5;stroke-width:1.3333"/>
	<path d="m5.8528 252.83c-0.53865 0-1.068-0.14933-1.356-0.26933v-0.97064c0.35866 0.19999 0.88798 0.35999 1.276 0.35999 0.54932 0 0.90798-0.21999 0.90798-1.2 0-1.0093-0.40799-1.24-0.98798-1.24h-0.68798v-0.83998h0.67865c0.53865 0 0.86798-0.18933 0.86798-1.0493 0-0.85064-0.32933-0.99997-0.78798-0.99997-0.38932 0-0.86798 0.14-1.2173 0.30933v-0.95998c0.24933-0.0893 0.82798-0.23999 1.2973-0.23999 0.97731 0 1.6253 0.33065 1.6253 1.8906 0 0.75999-0.18933 1.2293-0.54799 1.46 0.43866 0.22933 0.69732 0.74931 0.69732 1.66 0 1.7-0.67732 2.0893-1.7653 2.0893" style="fill:#8b5ba5;stroke-width:1.3333"/>
	<path d="m0.53831 224.4v-0.87998h0.80798v-3.9506l-0.80798 0.37065v-0.93064l1.0866-0.56932h0.66932v5.0799h0.79731v0.87998h-2.5533" style="fill:#8b5ba5;stroke-width:1.3333"/>
	<path d="m5.6755 220.7-1.0773 2.0506h1.4173v-1.9706c0-0.37999 0.049332-0.91998 0.049332-0.91998s-0.20933 0.49999-0.38932 0.83998zm1.2573 2.8199v1.82h-0.91731v-1.82h-2.3053v-0.55999l2.3546-4.5599h0.86798v4.3506h0.55865v0.76932h-0.55865" style="fill:#8b5ba5;stroke-width:1.3333"/>
	<path d="m0.8783 196.84v-0.87998h0.80798v-3.9506l-0.80798 0.37065v-0.93064l1.0866-0.56932h0.66932v5.0799h0.79731v0.87998h-2.5533" style="fill:#8b5ba5;stroke-width:1.3333"/>
	<path d="m5.8155 197.88c-0.50799 0-1.008-0.17066-1.2573-0.29065v-0.96931c0.35066 0.21066 0.78931 0.37999 1.1786 0.37999 0.54799 0 0.85731-0.21066 0.85731-1.22 0-0.99064-0.29866-1.2293-0.81865-1.2293h-1.196v-3.6706h2.7933v0.88931h-1.916v1.94h0.49865c0.91864 0 1.5666 0.37066 1.5666 2.06 0 1.6906-0.65865 2.1106-1.7066 2.1106" style="fill:#8b5ba5;stroke-width:1.3333"/>
	<path d="m0.61964 169.37v-0.87998h0.80798v-3.9506l-0.80798 0.37066v-0.93064l1.088-0.56932h0.66798v5.0799h0.79865v0.87998h-2.5546" style="fill:#8b5ba5;stroke-width:1.3333"/>
	<path d="m5.4382 165.85-0.16933 0.11999c0 2.06 0.10933 2.6999 0.72798 2.6999 0.51865 0 0.67865-0.37066 0.67865-1.5293 0-1.1613-0.15066-1.5213-0.65865-1.5213-0.21866 0-0.39866 0.10133-0.57865 0.23066zm0.55865 3.6199c-1.3066 0-1.656-0.85998-1.656-3.3292 0-2.1506 0.049332-3.7706 1.716-3.7706 0.39866 0 0.96798 0.16933 1.2666 0.31999v0.95998c-0.40932-0.25066-0.80798-0.39999-1.1866-0.39999-0.56932 0-0.84798 0.40932-0.86798 1.9 0.18933-0.14933 0.51865-0.33999 0.81731-0.33999 1.048 0 1.5266 0.67998 1.5266 2.3306 0 1.6893-0.48799 2.3293-1.616 2.3293" style="fill:#8b5ba5;stroke-width:1.3333"/>
	<path d="m1.2143 141.82v-0.87998h0.80798v-3.9506l-0.80798 0.37066v-0.92931l1.088-0.57065h0.66665v5.0799h0.79865v0.87998h-2.5533" style="fill:#8b5ba5;stroke-width:1.3333"/>
	<path d="m6.7808 139.42c-0.41999 0.69998-0.58932 1.1-0.58932 2.3199v1.02h-0.91731v-1.02c0-1.6 0.37866-2.2599 0.75865-2.8506 0.39866-0.61999 0.62798-1.0186 0.63865-1.9386v-0.20133h-2.1959v-0.88931h3.1133v0.67998c0 1.66-0.40932 2.2506-0.80798 2.8799" style="fill:#8b5ba5;stroke-width:1.3333"/>
	<path d="m0.53164 114.42v-0.88131h0.80798v-3.9492l-0.80798 0.36932v-0.92931l1.0866-0.57065h0.66932v5.0799h0.79731v0.88131h-2.5533" style="fill:#8b5ba5;stroke-width:1.3333"/>
	<path d="m5.8195 108.21c-0.49999 0-0.63865 0.29066-0.63865 1.0906 0 0.80931 0.13866 1.1093 0.63865 1.1093 0.49865 0 0.63865-0.29999 0.63865-1.1093 0-0.79998-0.14-1.0906-0.63865-1.0906zm0 2.9693c-0.59998 0-0.73865 0.33065-0.73865 1.2706s0.13866 1.2706 0.73865 1.2706c0.59732 0 0.73731-0.33066 0.73731-1.2706s-0.14-1.2706-0.73731-1.2706zm0 3.3412c-1.1973 0-1.6666-0.59999-1.6666-2.0506 0-0.85998 0.22933-1.46 0.63865-1.72-0.29866-0.25999-0.47865-0.79064-0.47865-1.46 0-1.2893 0.41866-1.8693 1.5066-1.8693 1.0866 0 1.5066 0.57999 1.5066 1.8693 0 0.66932-0.19066 1.2-0.48932 1.46 0.40932 0.26 0.64798 0.85998 0.64798 1.72 0 1.4506-0.46799 2.0506-1.6653 2.0506" style="fill:#8b5ba5;stroke-width:1.3333"/>
	<path d="m0.7863 86.274v-0.87998h0.80798v-3.9492l-0.80798 0.36932v-0.92931l1.088-0.57065h0.66798v5.0799h0.79865v0.87998h-2.5546" style="fill:#8b5ba5;stroke-width:1.3333"/>
	<path d="m6.5328 83.834 0.16933-0.12c0-2.0599-0.10933-2.6999-0.72798-2.6999-0.51865 0-0.67865 0.37066-0.67865 1.5306 0 1.1586 0.14933 1.5186 0.65865 1.5186 0.21999 0 0.39866-0.09866 0.57865-0.22933zm-0.55865-3.6199c1.3066 0 1.656 0.85998 1.656 3.3306 0 2.1493-0.049332 3.7692-1.716 3.7692-0.39866 0-0.96798-0.16933-1.2666-0.32v-0.95997c0.40799 0.24933 0.80798 0.39999 1.1866 0.39999 0.56932 0 0.84798-0.40933 0.86798-1.9-0.18933 0.15066-0.51865 0.33999-0.81731 0.33999-1.048 0-1.5266-0.67998-1.5266-2.3293 0-1.6906 0.48799-2.3306 1.616-2.3306" style="fill:#8b5ba5;stroke-width:1.3333"/>
	<path d="m-0.0030113 59.475v-0.66932c0-0.71998 0.30933-1.2706 1.0773-2.0306 0.84798-0.83998 1.088-1.16 1.088-1.72 0-0.51065-0.28933-0.72932-0.75865-0.72932-0.45866 0-0.90798 0.18-1.4066 0.40932v-0.98931c0.34932-0.13066 1.0373-0.33066 1.4866-0.33066 0.98798 0 1.5866 0.43999 1.5866 1.58 0 0.97064-0.44932 1.5-1.5066 2.5199-0.43866 0.43999-0.62798 0.69998-0.66932 1.08h2.2653v0.87998h-3.1626" style="fill:#8b5ba5;stroke-width:1.3333"/>
	<path d="m5.8328 54.248c-0.62798 0-0.75731 0.43866-0.75731 2.2493 0 1.8106 0.12933 2.2506 0.75731 2.2506 0.63865 0 0.75865-0.43999 0.75865-2.2506 0-1.8106-0.12-2.2493-0.75865-2.2493zm0 5.3292c-1.2173 0-1.696-0.74931-1.696-3.0799 0-2.3293 0.47865-3.0799 1.696-3.0799s1.7066 0.75065 1.7066 3.0799c0 2.3306-0.48932 3.0799-1.7066 3.0799" style="fill:#8b5ba5;stroke-width:1.3333"/>
	<path d="m0.92097 32.169v-0.67065c0-0.71998 0.30933-1.2693 1.0773-2.0293 0.84798-0.83998 1.088-1.16 1.088-1.72 0-0.51065-0.28933-0.73065-0.75865-0.73065-0.45866 0-0.90798 0.18-1.4066 0.41066v-0.99064c0.34932-0.12933 1.0373-0.32933 1.4866-0.32933 0.98798 0 1.5866 0.43999 1.5866 1.58 0 0.96931-0.44932 1.5-1.5066 2.5199-0.43866 0.43999-0.62932 0.69998-0.66798 1.08h2.2639v0.87998h-3.1626" style="fill:#8b5ba5;stroke-width:1.3333"/>
	<path d="m5.0609 32.169v-0.87998h0.80798v-3.9506l-0.80798 0.37066v-0.93064l1.088-0.56932h0.66798v5.0799h0.79865v0.87998h-2.5546" style="fill:#8b5ba5;stroke-width:1.3333"/>
	<path d="m15.233 619.15-1.6106-4.1386c-0.128-0.32-0.53332-1.7293-0.53332-1.7293s0.18133 1.5266 0.18133 1.888v3.9799h-0.89598v-7.3598h0.83198l1.6106 4.1386c0.18133 0.45732 0.53332 1.728 0.53332 1.728s-0.18133-1.344-0.18133-1.888v-3.9786h0.89598v7.3598h-0.83198" style="fill:#61bb46;stroke-width:1.3333"/>
	<path d="m51.568 620.26c-0.57599 0-1.1413-0.16-1.4506-0.288v-1.0346c0.38399 0.21333 0.94931 0.38399 1.3653 0.38399 0.58665 0 0.97064-0.23466 0.97064-1.28 0-1.0773-0.43732-1.324-1.056-1.324h-0.73598v-0.89465h0.72532c0.57598 0 0.92798-0.20399 0.92798-1.12 0-0.90664-0.35199-1.0666-0.84265-1.0666-0.41599 0-0.92798 0.148-1.3013 0.33066v-1.0253c0.26666-0.0947 0.88531-0.25466 1.3866-0.25466 1.0453 0 1.7386 0.35199 1.7386 2.016 0 0.81065-0.20266 1.312-0.58665 1.5573 0.46932 0.24399 0.74665 0.79864 0.74665 1.7706 0 1.812-0.72532 2.2293-1.888 2.2293" style="fill:#61bb46;stroke-width:1.3333"/>
	<path d="m89.507 615.4-0.18 0.12933c0 2.196 0.116 2.8799 0.77865 2.8799 0.55332 0 0.72532-0.39599 0.72532-1.6333 0-1.236-0.16133-1.62-0.70532-1.62-0.23466 0-0.42666 0.10666-0.61865 0.24399zm0.59865 3.8626c-1.3986 0-1.772-0.91864-1.772-3.5519 0-2.2933 0.05333-4.0212 1.8346-4.0212 0.42666 0 1.0346 0.18133 1.356 0.34132v1.0226c-0.43866-0.26666-0.86531-0.42533-1.2706-0.42533-0.60798 0-0.90664 0.43599-0.92664 2.0266 0.20133-0.16 0.55465-0.36399 0.87331-0.36399 1.12 0 1.632 0.72665 1.632 2.4853 0 1.804-0.52265 2.4866-1.7266 2.4866" style="fill:#61bb46;stroke-width:1.3333"/>
	<path d="m128.36 616.55 0.18133-0.128c0-2.1986-0.11733-2.8799-0.77865-2.8799-0.55465 0-0.72531 0.39466-0.72531 1.6306 0 1.2386 0.15999 1.6226 0.70398 1.6226 0.23466 0 0.42665-0.10667 0.61865-0.24533zm-0.59732-3.8612c1.3973 0 1.7706 0.91731 1.7706 3.5519 0 2.2933-0.0533 4.0212-1.8346 4.0212-0.42665 0-1.0346-0.18133-1.3546-0.34133v-1.0253c0.43732 0.26666 0.86398 0.42799 1.2693 0.42799 0.60799 0 0.90664-0.43865 0.92798-2.0266-0.20266 0.15866-0.55465 0.36265-0.87465 0.36265-1.12 0-1.632-0.72531-1.632-2.4866 0-1.8013 0.52266-2.4839 1.728-2.4839" style="fill:#61bb46;stroke-width:1.3333"/>
	<path d="m162.03 619.15v-0.93864h0.86398v-4.2146l-0.86398 0.39465v-0.99064l1.1626-0.60798h0.71465v5.4185h0.85331v0.93864h-2.7306" style="fill:#61bb46;stroke-width:1.3333"/>
	<path d="m165.23 619.15v-0.71465c0-0.76931 0.33066-1.3546 1.152-2.1653 0.90664-0.89598 1.1626-1.2373 1.1626-1.8346 0-0.54532-0.30932-0.77865-0.81064-0.77865-0.49066 0-0.97065 0.192-1.504 0.43733v-1.056c0.37333-0.13866 1.1093-0.35199 1.5893-0.35199 1.056 0 1.696 0.46932 1.696 1.6853 0 1.0346-0.47999 1.6-1.6106 2.6866-0.46932 0.47066-0.67198 0.74798-0.71465 1.1533h2.4213v0.93864h-3.3812" style="fill:#61bb46;stroke-width:1.3333"/>
	<path d="m199.89 619.15v-0.93864h0.86398v-4.2146l-0.86398 0.39465v-0.99064l1.1626-0.60798h0.71332v5.4185h0.85464v0.93864h-2.7306" style="fill:#61bb46;stroke-width:1.3333"/>
	<path d="m204.48 620.26c-0.54532 0-1.0773-0.18133-1.3453-0.31066v-1.0333c0.37465 0.22399 0.84398 0.40532 1.26 0.40532 0.58666 0 0.91732-0.22399 0.91732-1.3013 0-1.056-0.32133-1.312-0.87598-1.312h-1.28v-3.9146h2.9879v0.9493h-2.0479v2.0693h0.53198c0.98131 0 1.6746 0.39465 1.6746 2.1959 0 1.804-0.70399 2.252-1.8226 2.252" style="fill:#61bb46;stroke-width:1.3333"/>
	<path d="m237.76 619.15v-0.93864h0.86398v-4.2146l-0.86398 0.39465v-0.99064l1.1626-0.60798h0.71465v5.4185h0.85331v0.93864h-2.7306" style="fill:#61bb46;stroke-width:1.3333"/>
	<path d="m242.72 612.53c-0.53332 0-0.68265 0.30799-0.68265 1.1626 0 0.86265 0.14933 1.184 0.68265 1.184s0.68265-0.32132 0.68265-1.184c0-0.85464-0.14933-1.1626-0.68265-1.1626zm0 3.1679c-0.63998 0-0.78931 0.35199-0.78931 1.3533 0 1.0026 0.14933 1.356 0.78931 1.356s0.78931-0.35332 0.78931-1.356c0-1.0013-0.14933-1.3533-0.78931-1.3533zm0 3.5626c-1.28 0-1.7813-0.64131-1.7813-2.1866 0-0.91731 0.24533-1.5573 0.68265-1.8346-0.31999-0.27733-0.51199-0.84398-0.51199-1.5573 0-1.376 0.44799-1.9946 1.6106-1.9946s1.6106 0.61865 1.6106 1.9946c0 0.71331-0.20267 1.28-0.52266 1.5573 0.43733 0.27733 0.69332 0.91731 0.69332 1.8346 0 1.5453-0.50132 2.1866-1.7813 2.1866" style="fill:#61bb46;stroke-width:1.3333"/>
	<path d="m275.61 619.15v-0.71465c0-0.76931 0.33066-1.3546 1.1506-2.1653 0.90798-0.89598 1.1626-1.2373 1.1626-1.8346 0-0.54532-0.308-0.77865-0.80932-0.77865-0.49198 0-0.97197 0.192-1.504 0.43733v-1.056c0.37199-0.13866 1.1093-0.35199 1.588-0.35199 1.056 0 1.6973 0.46932 1.6973 1.6853 0 1.0346-0.48132 1.6-1.6106 2.6866-0.47066 0.47066-0.67199 0.74798-0.71599 1.1533h2.4226v0.93864h-3.3812" style="fill:#61bb46;stroke-width:1.3333"/>
	<path d="m279.35 619.15v-0.93864h0.86265v-4.2146l-0.86265 0.39465v-0.99064l1.1626-0.60798h0.71465v5.4185h0.85198v0.93864h-2.7293" style="fill:#61bb46;stroke-width:1.3333"/>
	<path d="m313.48 619.15v-0.71465c0-0.76931 0.33066-1.3546 1.1506-2.1653 0.90798-0.89598 1.1626-1.2373 1.1626-1.8346 0-0.54532-0.308-0.77865-0.80932-0.77865-0.49065 0-0.97064 0.192-1.504 0.43733v-1.056c0.37199-0.13866 1.1093-0.35199 1.5893-0.35199 1.0546 0 1.696 0.46932 1.696 1.6853 0 1.0346-0.47999 1.6-1.6106 2.6866-0.47066 0.47066-0.67199 0.74798-0.71465 1.1533h2.4213v0.93864h-3.3812" style="fill:#61bb46;stroke-width:1.3333"/>
	<path d="m318.81 615.21-1.152 2.1853h1.5146v-2.1c0-0.40665 0.0533-0.98131 0.0533-0.98131s-0.22399 0.53199-0.41599 0.89598zm1.344 3.0079v1.9413h-0.98131v-1.9413h-2.4639v-0.59866l2.5173-4.8625h0.92798v4.6386h0.59732v0.82265h-0.59732" style="fill:#61bb46;stroke-width:1.3333"/>
	<path d="m351.34 619.15v-0.71465c0-0.76931 0.33066-1.3546 1.1506-2.1653 0.90664-0.89598 1.1626-1.2373 1.1626-1.8346 0-0.54532-0.30933-0.77865-0.81065-0.77865-0.49065 0-0.97064 0.192-1.5026 0.43733v-1.056c0.37199-0.13866 1.1093-0.35199 1.588-0.35199 1.056 0 1.696 0.46932 1.696 1.6853 0 1.0346-0.47999 1.6-1.6106 2.6866-0.46932 0.47066-0.67198 0.74798-0.71465 1.1533h2.4226v0.93864h-3.3812" style="fill:#61bb46;stroke-width:1.3333"/>
	<path d="m357.14 616.59c-0.44799 0.74532-0.62799 1.1733-0.62799 2.4733v1.0893h-0.98264v-1.0893c0-1.7053 0.40532-2.4093 0.81065-3.0386 0.42665-0.66131 0.67331-1.088 0.68265-2.0693v-0.21333h-2.3453v-0.9493h3.3266v0.72531c0 1.7706-0.43598 2.3999-0.86397 3.0719" style="fill:#61bb46;stroke-width:1.3333"/>
	<path d="m390.41 620.26c-0.57465 0-1.14-0.16-1.4493-0.288v-1.0346c0.38399 0.21333 0.94798 0.38399 1.3653 0.38399 0.58532 0 0.96931-0.23466 0.96931-1.28 0-1.0773-0.43732-1.324-1.0546-1.324h-0.73598v-0.89465h0.72532c0.57465 0 0.92797-0.20399 0.92797-1.12 0-0.90664-0.35332-1.0666-0.84264-1.0666-0.41599 0-0.92798 0.148-1.3013 0.33066v-1.0253c0.26666-0.0947 0.88531-0.25466 1.3866-0.25466 1.0453 0 1.7373 0.35199 1.7373 2.016 0 0.81065-0.20133 1.312-0.58532 1.5573 0.46799 0.24399 0.74531 0.79864 0.74531 1.7706 0 1.812-0.72398 2.2293-1.888 2.2293" style="fill:#61bb46;stroke-width:1.3333"/>
	<path d="m394.57 613.57c-0.67199 0-0.81198 0.46932-0.81198 2.3999s0.13999 2.3999 0.81198 2.3999c0.68131 0 0.81064-0.46932 0.81064-2.3999s-0.12933-2.3999-0.81064-2.3999zm0 5.6852c-1.3013 0-1.8146-0.79998-1.8146-3.2852s0.51332-3.2852 1.8146-3.2852c1.3 0 1.824 0.79998 1.824 3.2852s-0.52399 3.2852-1.824 3.2852" style="fill:#61bb46;stroke-width:1.3333"/>
	<path d="m428.28 620.26c-0.57598 0-1.1413-0.16-1.4506-0.288v-1.0346c0.38399 0.21333 0.94931 0.38399 1.3653 0.38399 0.58665 0 0.97064-0.23466 0.97064-1.28 0-1.0773-0.43732-1.324-1.056-1.324h-0.73598v-0.89465h0.72531c0.57599 0 0.92798-0.20399 0.92798-1.12 0-0.90664-0.35199-1.0666-0.84131-1.0666-0.41733 0-0.92931 0.148-1.3026 0.33066v-1.0253c0.26666-0.0947 0.88531-0.25466 1.3866-0.25466 1.0453 0 1.7386 0.35199 1.7386 2.016 0 0.81065-0.20266 1.312-0.58665 1.5573 0.46932 0.24399 0.74664 0.79864 0.74664 1.7706 0 1.812-0.72531 2.2293-1.888 2.2293" style="fill:#61bb46;stroke-width:1.3333"/>
	<path d="m431.81 620.26c-0.57599 0-1.1413-0.16-1.4506-0.288v-1.0346c0.38399 0.21333 0.94931 0.38399 1.3653 0.38399 0.58666 0 0.97065-0.23466 0.97065-1.28 0-1.0773-0.43733-1.324-1.056-1.324h-0.73598v-0.89465h0.72532c0.57598 0 0.92797-0.20399 0.92797-1.12 0-0.90664-0.35199-1.0666-0.84264-1.0666-0.41599 0-0.92798 0.148-1.3013 0.33066v-1.0253c0.26666-0.0947 0.88531-0.25466 1.3866-0.25466 1.0453 0 1.7386 0.35199 1.7386 2.016 0 0.81065-0.20266 1.312-0.58665 1.5573 0.46932 0.24399 0.74665 0.79864 0.74665 1.7706 0 1.812-0.72532 2.2293-1.888 2.2293" style="fill:#61bb46;stroke-width:1.3333"/>
	<path d="m465.53 620.26c-0.57465 0-1.14-0.16-1.4506-0.288v-1.0346c0.38399 0.21333 0.94931 0.38399 1.3666 0.38399 0.58531 0 0.9693-0.23466 0.9693-1.28 0-1.0773-0.43732-1.324-1.056-1.324h-0.73465v-0.89465h0.72532c0.57465 0 0.92797-0.20399 0.92797-1.12 0-0.90664-0.35332-1.0666-0.84264-1.0666-0.41732 0-0.92798 0.148-1.3026 0.33066v-1.0253c0.268-0.0947 0.88532-0.25466 1.3866-0.25466 1.0466 0 1.7386 0.35199 1.7386 2.016 0 0.81065-0.20133 1.312-0.58532 1.5573 0.46799 0.24399 0.74532 0.79864 0.74532 1.7706 0 1.812-0.72532 2.2293-1.888 2.2293" style="fill:#61bb46;stroke-width:1.3333"/>
	<path d="m469.13 615.4-0.17999 0.12933c0 2.196 0.11733 2.8799 0.77864 2.8799 0.55466 0 0.72532-0.39599 0.72532-1.6333 0-1.236-0.16133-1.62-0.70532-1.62-0.23466 0-0.42532 0.10666-0.61865 0.24399zm0.59865 3.8626c-1.3973 0-1.772-0.91864-1.772-3.5519 0-2.2933 0.0547-4.0212 1.8346-4.0212 0.42799 0 1.036 0.18133 1.3546 0.34132v1.0226c-0.43732-0.26666-0.86264-0.42533-1.268-0.42533-0.60798 0-0.90797 0.43599-0.92797 2.0266 0.20133-0.16 0.55465-0.36399 0.87464-0.36399 1.12 0 1.632 0.72665 1.632 2.4853 0 1.804-0.52265 2.4866-1.728 2.4866" style="fill:#61bb46;stroke-width:1.3333"/>
	<path d="m476.47 614.26c0.33065-0.34132 0.69465-0.54398 1.0666-0.54398 0.83198 0 1.0346 0.61731 1.0346 1.5893v3.8506h-0.99198v-3.9572c0-0.42666-0.11733-0.58799-0.34132-0.58799-0.17067 0-0.34133 0.108-0.63865 0.44799 0 0-0.236 0.25733-0.236 0.26799v3.8292h-0.99197v-3.9572c0-0.42666-0.11733-0.58799-0.34133-0.58799-0.17066 0-0.33066 0.108-0.63865 0.44799l-0.23466 0.25733v3.8399h-0.99197v-3.8399c0-0.53466-0.0333-1.152-0.10667-1.4933h0.70265c0.0853 0.10666 0.192 0.36266 0.27733 0.67198l0.22532-0.23466c0.32933-0.34132 0.69199-0.54398 1.0666-0.54398 0.55466 0 0.83198 0.27732 0.94931 0.74664l0.19067-0.20266" style="fill:#61bb46;stroke-width:1.3333"/>
	<path d="m480.74 614.5c-0.59732 0-0.74665 0.36399-0.74665 1.9853 0 1.62 0.14933 1.984 0.74665 1.984 0.58665 0 0.73598-0.36399 0.73598-1.984 0-1.6213-0.14933-1.9853-0.73598-1.9853zm0 4.7585c-1.236 0-1.7266-0.70531-1.7266-2.7733 0-2.0693 0.49066-2.7733 1.7266-2.7733 1.2266 0 1.7186 0.70398 1.7186 2.7733 0 2.068-0.49199 2.7733-1.7186 2.7733" style="fill:#61bb46;stroke-width:1.3333"/>
	<path d="m484.21 612.4c0 0.34132-0.27733 0.60665-0.61866 0.60665-0.34132 0-0.61865-0.26533-0.61865-0.60665 0-0.34266 0.27733-0.61999 0.61865-0.61999 0.34133 0 0.61866 0.27733 0.61866 0.61999zm-1.1093 6.7518v-4.5226h-0.56532v-0.81065h1.5573v5.3332h-0.99198" style="fill:#61bb46;stroke-width:1.3333"/>
	<path d="m485.95 619.26c-0.57732 0-1.0026-0.12799-1.3133-0.24666v-0.95997c0.44799 0.22399 0.87464 0.35332 1.3226 0.35332 0.39466 0 0.73598-0.15999 0.73598-0.79998 0-0.61865-0.26666-0.74665-0.74531-0.74665-0.80131 0-1.484-0.23466-1.484-1.6333 0-1.1506 0.61865-1.5133 1.5573-1.5133 0.38399 0 0.95998 0.13866 1.28 0.26666v0.94931c-0.45866-0.25733-0.87465-0.37466-1.3-0.37466-0.36399 0-0.64132 0.12933-0.64132 0.67198 0 0.56665 0.21333 0.69465 0.61865 0.69465 0.77865 0 1.6106 0.23466 1.6106 1.6853 0 1.248-0.71465 1.6533-1.6413 1.6533" style="fill:#61bb46;stroke-width:1.3333"/>
	<path d="m457.93 6.8225c0.67999-0.74665 1.8333-0.79998 2.5813-0.12266 0.74532 0.68132 0.79998 1.8346 0.12 2.5826-0.67732 0.74798-1.8346 0.80131-2.5813 0.12133s-0.80131-1.836-0.12-2.5813" style="fill:#fff;stroke-width:1.3333"/>
	<path d="m159.68 630.51v-0.93865h0.86397v-4.2132l-0.86397 0.39466v-0.99064l1.1626-0.60799h0.71465v5.4172h0.85331v0.93865h-2.7306" style="fill:#61bb46;stroke-width:1.3333"/>
	<path d="m166.08 628.09h-0.49066c-0.65198 0-0.85464 0.42666-0.85464 0.99198 0 0.52265 0.18266 0.73731 0.47065 0.73731 0.20133 0 0.42532-0.11866 0.66132-0.37465l0.21333-0.21333zm0.39465 2.4213c-0.0973-0.128-0.19199-0.32-0.26799-0.56532l-0.16 0.17066c-0.36265 0.41599-0.76664 0.49065-1.044 0.49065-0.75731 0-1.1946-0.53332-1.1946-1.5253 0-1.0973 0.60799-1.7813 1.7053-1.7813h0.56666v-0.63998c0-0.53332-0.26666-0.72399-0.67332-0.72399-0.48932 0-0.92664 0.18-1.3746 0.46799v-0.99197c0.34132-0.13867 0.91731-0.34133 1.46-0.34133 1.0466 0 1.5786 0.45866 1.5786 1.7066v2.2399c0 0.53332 0.032 1.1733 0.108 1.4933h-0.70399" style="fill:#61bb46;stroke-width:1.3333"/>
	<path d="m170.03 630.51v-3.9572c0-0.42665-0.11866-0.58665-0.34265-0.58665-0.17067 0-0.34 0.10666-0.63999 0.44799l-0.38399 0.42665v3.6692h-0.99064v-3.8399c0-0.53332-0.032-1.152-0.10666-1.4933h0.70264c0.0973 0.11733 0.224 0.43732 0.30933 0.78931l0.34266-0.35199c0.33066-0.34133 0.69331-0.54399 1.0666-0.54399 0.83198 0 1.0333 0.61865 1.0333 1.5893v3.8506h-0.99065" style="fill:#61bb46;stroke-width:1.3333"/>
	<path d="m309.8 630.51v-0.71465c0-0.76798 0.33066-1.3546 1.152-2.1653 0.90665-0.89598 1.1626-1.2373 1.1626-1.8346 0-0.54399-0.30932-0.77865-0.81064-0.77865-0.49066 0-0.97065 0.19333-1.504 0.43732v-1.056c0.37333-0.13733 1.1093-0.35066 1.5893-0.35066 1.056 0 1.696 0.46799 1.696 1.684 0 1.036-0.47998 1.6-1.6106 2.6879-0.46932 0.46932-0.67199 0.74665-0.71465 1.152h2.4213v0.93865h-3.3812" style="fill:#61bb46;stroke-width:1.3333"/>
	<path d="m316.75 628.09h-0.48933c-0.65065 0-0.85331 0.42666-0.85331 0.99198 0 0.52265 0.18133 0.73731 0.46932 0.73731 0.20267 0 0.42533-0.11866 0.66132-0.37465l0.212-0.21333zm0.39599 2.4213c-0.096-0.128-0.192-0.32-0.26666-0.56532l-0.16 0.17066c-0.36266 0.41599-0.76798 0.49065-1.0453 0.49065-0.75864 0-1.1946-0.53332-1.1946-1.5253 0-1.0973 0.60798-1.7813 1.7066-1.7813h0.56399v-0.63998c0-0.53332-0.26533-0.72399-0.67065-0.72399-0.49066 0-0.92798 0.18-1.376 0.46799v-0.99197c0.34133-0.13867 0.91731-0.34133 1.4613-0.34133 1.0453 0 1.5786 0.45866 1.5786 1.7066v2.2399c0 0.53332 0.032 1.1733 0.10667 1.4933h-0.70398" style="fill:#61bb46;stroke-width:1.3333"/>
	<path d="m320.69 630.51v-3.9572c0-0.42665-0.11599-0.58665-0.33999-0.58665-0.17066 0-0.34132 0.10666-0.63998 0.44799l-0.38399 0.42665v3.6692h-0.99198v-3.8399c0-0.53332-0.0333-1.152-0.10666-1.4933h0.70398c0.096 0.11733 0.224 0.43732 0.30933 0.78931l0.33999-0.35199c0.33066-0.34133 0.69465-0.54399 1.068-0.54399 0.83198 0 1.0346 0.61865 1.0346 1.5893v3.8506h-0.99331" style="fill:#61bb46;stroke-width:1.3333"/>
	<path d="m323.38 630.62c-0.57732 0-1.0026-0.12666-1.312-0.24399v-0.96131c0.44799 0.22399 0.87465 0.35332 1.3226 0.35332 0.39465 0 0.73598-0.16133 0.73598-0.80131 0-0.61865-0.268-0.74665-0.74665-0.74665-0.80131 0-1.4826-0.23333-1.4826-1.632 0-1.1506 0.61865-1.5146 1.5573-1.5146 0.384 0 0.95865 0.14 1.28 0.26666v0.94931c-0.45865-0.25599-0.87598-0.37332-1.3013-0.37332-0.36266 0-0.63998 0.12933-0.63998 0.67198 0 0.56665 0.21333 0.69332 0.61732 0.69332 0.77864 0 1.6106 0.23466 1.6106 1.6853 0 1.2493-0.71331 1.6533-1.6413 1.6533" style="fill:#61bb46;stroke-width:1.3333"/>
	<path d="m463.34 631.62c-0.57598 0-1.1413-0.15999-1.4493-0.28799v-1.0346c0.38399 0.21333 0.94931 0.38399 1.364 0.38399 0.58665 0 0.97198-0.23466 0.97198-1.28 0-1.076-0.43866-1.3226-1.056-1.3226h-0.73598v-0.89598h0.72532c0.57465 0 0.92664-0.20266 0.92664-1.12 0-0.90531-0.35199-1.0666-0.84265-1.0666-0.41465 0-0.92797 0.14933-1.3 0.33066v-1.024c0.26532-0.0947 0.88531-0.25466 1.3866-0.25466 1.044 0 1.7373 0.35066 1.7373 2.0146 0 0.81198-0.20266 1.3133-0.58665 1.5573 0.46932 0.24533 0.74798 0.79998 0.74798 1.7706 0 1.8133-0.72532 2.2293-1.8893 2.2293" style="fill:#61bb46;stroke-width:1.3333"/>
	<path d="m468.9 628.09h-0.49065c-0.65065 0-0.85198 0.42666-0.85198 0.99198 0 0.52265 0.17999 0.73731 0.46799 0.73731 0.20399 0 0.42799-0.11866 0.66131-0.37465l0.21333-0.21333zm0.39466 2.4213c-0.096-0.128-0.192-0.32-0.26666-0.56532l-0.16 0.17066c-0.36132 0.41599-0.76798 0.49065-1.0453 0.49065-0.75732 0-1.1946-0.53332-1.1946-1.5253 0-1.0973 0.60798-1.7813 1.708-1.7813h0.56398v-0.63998c0-0.53332-0.26666-0.72399-0.67065-0.72399-0.49199 0-0.92931 0.18-1.3773 0.46799v-0.99197c0.34133-0.13867 0.91731-0.34133 1.4613-0.34133 1.0453 0 1.58 0.45866 1.58 1.7066v2.2399c0 0.53332 0.0307 1.1733 0.10666 1.4933h-0.70531" style="fill:#61bb46;stroke-width:1.3333"/>
	<path d="m472.85 630.51v-3.9572c0-0.42665-0.116-0.58665-0.33999-0.58665-0.17066 0-0.34266 0.10666-0.64132 0.44799l-0.38399 0.42665v3.6692h-0.99197v-3.8399c0-0.53332-0.032-1.152-0.10667-1.4933h0.70398c0.096 0.11733 0.224 0.43732 0.31066 0.78931l0.33999-0.35199c0.33066-0.34133 0.69332-0.54399 1.0666-0.54399 0.83198 0 1.036 0.61865 1.036 1.5893v3.8506h-0.99331" style="fill:#61bb46;stroke-width:1.3333"/>
	<path d="m475.54 630.62c-0.57599 0-1.0026-0.12666-1.3106-0.24399v-0.96131c0.44799 0.22399 0.87331 0.35332 1.3213 0.35332 0.39466 0 0.73732-0.16133 0.73732-0.80131 0-0.61865-0.268-0.74665-0.74798-0.74665-0.79998 0-1.4826-0.23333-1.4826-1.632 0-1.1506 0.61998-1.5146 1.5573-1.5146 0.38399 0 0.95998 0.14 1.2813 0.26666v0.94931c-0.45999-0.25599-0.87598-0.37332-1.3026-0.37332-0.36133 0-0.63865 0.12933-0.63865 0.67198 0 0.56665 0.21199 0.69332 0.61732 0.69332 0.77864 0 1.6106 0.23466 1.6106 1.6853 0 1.2493-0.71465 1.6533-1.6426 1.6533" style="fill:#61bb46;stroke-width:1.3333"/>
	<g transform="translate(-.0021062 -612.1)">
		<path d="m3.819 616.44c0 0.35865-0.039999 0.67865-0.039999 0.67865s0.14933-0.30933 0.31866-0.56932l1.1773-1.74h0.91864l-1.4066 1.94 1.3466 3.0599h-0.94798l-0.94798-2.2799-0.41866 0.57999v1.7h-0.90798v-6.8998h0.90798v3.5306" style="fill:#8b5ba5;stroke-width:1.3333"/>
		<path d="m8.1682 619.11c0.18 0 0.35066-0.08 0.61998-0.38932l0.19866-0.23066v-2.3599l-0.19866-0.23066c-0.26933-0.30933-0.43999-0.38933-0.61998-0.38933-0.27866 0-0.52932 0.10933-0.52932 1.8 0 1.6906 0.25066 1.8 0.52932 1.8zm0.25999 2.6999c-0.57865 0-1.0773-0.19066-1.4066-0.30932v-0.91064c0.40799 0.25999 0.83865 0.42932 1.3066 0.42932 0.41999 0 0.65865-0.18 0.65865-0.76932v-0.89997l-0.16 0.15066c-0.24799 0.23866-0.59865 0.40932-0.87731 0.40932-0.78798 0-1.228-0.58932-1.228-2.5999 0-2.0106 0.43999-2.5999 1.228-2.5999 0.31866 0 0.67865 0.2 0.94798 0.46932l0.19866 0.20133c0.070665-0.25066 0.16933-0.46132 0.25999-0.57065h0.65865c-0.070664 0.31999-0.099997 0.89998-0.099997 1.4v3.9999c0 1.1706-0.53865 1.6-1.4866 1.6" style="fill:#8b5ba5;stroke-width:1.3333"/>
	</g>
	<path d="m449.16 141.47h12.57v-8.0398h-12.57z" style="fill:#fff;stroke-width:1.3333"/>
	<path d="m449.34 202.06h12.569v-8.0385h-12.569z" style="fill:#fff;stroke-width:1.3333"/>
	<path d="m449.06 268.47h12.569v-8.0385h-12.569z" style="fill:#fff;stroke-width:1.3333"/>
	<path d="m449.85 310.96h12.569v-8.0385h-12.569z" style="fill:#fff;stroke-width:1.3333"/>
	<path d="m452.99 138.27 0.112-0.0787c0-1.3586-0.0733-1.7813-0.48265-1.7813-0.34266 0-0.44666 0.24399-0.44666 1.008 0 0.76532 0.0987 1.0026 0.43466 1.0026 0.14533 0 0.26266-0.0653 0.38265-0.15066zm-0.37065-2.3879c0.86531 0 1.0973 0.56665 1.0973 2.196 0 1.4186-0.0347 2.4866-1.136 2.4866-0.26266 0-0.63998-0.112-0.83865-0.21066v-0.63332c0.27066 0.16533 0.53466 0.264 0.78665 0.264 0.37466 0 0.55999-0.27066 0.57332-1.2533-0.12533 0.0987-0.34399 0.224-0.54132 0.224-0.69332 0-1.008-0.44799-1.008-1.5373 0-1.1133 0.32265-1.536 1.0666-1.536" style="fill:#8b5ba5;stroke-width:1.3333"/>
	<path d="m455.37 138.3c-0.276 0.46132-0.39066 0.72531-0.39066 1.5293v0.67332h-0.60665v-0.67332c0-1.0546 0.25199-1.4906 0.50265-1.88 0.26266-0.40799 0.41599-0.67198 0.42133-1.28v-0.13066h-1.4506v-0.58799h2.0573v0.44933c0 1.0946-0.27066 1.484-0.53332 1.9" style="fill:#8b5ba5;stroke-width:1.3333"/>
	<path d="m459.53 138.46c-0.19733 0-0.29599 0.13867-0.29599 0.52799s0.0987 0.52799 0.29599 0.52799c0.19066 0 0.28933-0.13867 0.28933-0.52799s-0.0987-0.52799-0.28933-0.52799zm0 1.4973c-0.47599 0-0.74665-0.30933-0.74665-0.96931s0.27066-0.96931 0.74665-0.96931c0.47466 0 0.73732 0.30933 0.73732 0.96931s-0.26266 0.96931-0.73732 0.96931zm-1.7546-0.0653h-0.39599l1.8546-4.5506h0.39466zm-0.29733-4.1759c-0.19732 0-0.29732 0.13867-0.29732 0.52799s0.1 0.52799 0.29732 0.52799c0.19067 0 0.28933-0.13867 0.28933-0.52799s-0.0987-0.52799-0.28933-0.52799zm0 1.4973c-0.47332 0-0.74398-0.30933-0.74398-0.96931 0-0.65865 0.27066-0.96931 0.74398-0.96931 0.47466 0 0.73999 0.31066 0.73999 0.96931 0 0.65998-0.26533 0.96931-0.73999 0.96931" style="fill:#8b5ba5;stroke-width:1.3333"/>
	<path d="m453.65 198.7c-0.27599 0.46132-0.39066 0.72531-0.39066 1.5293v0.67199h-0.60665v-0.67199c0-1.0546 0.25333-1.4906 0.50266-1.88 0.26266-0.40799 0.41465-0.67198 0.42265-1.28v-0.13066h-1.4506v-0.58799h2.0573v0.44933c0 1.0946-0.27199 1.484-0.53465 1.9" style="fill:#8b5ba5;stroke-width:1.3333"/>
	<path d="m455.26 200.96c-0.33599 0-0.66665-0.112-0.83064-0.19066v-0.63999c0.22932 0.13867 0.52132 0.25066 0.77864 0.25066 0.36133 0 0.56532-0.13866 0.56532-0.80531 0-0.65332-0.19866-0.81065-0.53998-0.81065h-0.79065v-2.4213h1.8453v0.58799h-1.2653v1.2786h0.32799c0.60665 0 1.0373 0.24399 1.0373 1.3586s-0.43465 1.392-1.128 1.392" style="fill:#8b5ba5;stroke-width:1.3333"/>
	<path d="m460.06 198.84c-0.19866 0-0.29732 0.13866-0.29732 0.52799 0 0.38932 0.0987 0.52798 0.29732 0.52798 0.18933 0 0.288-0.13866 0.288-0.52798 0-0.38933-0.0987-0.52799-0.288-0.52799zm0 1.4973c-0.47732 0-0.74798-0.30933-0.74798-0.96931 0-0.65999 0.27066-0.96931 0.74798-0.96931 0.47332 0 0.73598 0.30932 0.73598 0.96931 0 0.65998-0.26266 0.96931-0.73598 0.96931zm-1.756-0.0653h-0.39599l1.8546-4.5506h0.39599zm-0.29733-4.1759c-0.19733 0-0.29599 0.13866-0.29599 0.52799 0 0.38932 0.0987 0.52798 0.29599 0.52798 0.19066 0 0.28933-0.13866 0.28933-0.52798 0-0.38933-0.0987-0.52799-0.28933-0.52799zm0 1.4973c-0.47332 0-0.74398-0.30933-0.74398-0.96931 0-0.65865 0.27066-0.96931 0.74398-0.96931 0.47466 0 0.73998 0.31066 0.73998 0.96931 0 0.65998-0.26532 0.96931-0.73998 0.96931" style="fill:#8b5ba5;stroke-width:1.3333"/>
	<path d="m451.3 266.35v-0.44266c0-0.47465 0.20666-0.83731 0.71332-1.3386 0.55998-0.55332 0.71998-0.76398 0.71998-1.1346 0-0.33599-0.19333-0.47999-0.50265-0.47999-0.30266 0-0.59999 0.11734-0.93065 0.26933v-0.65332c0.232-0.0853 0.68532-0.21732 0.98264-0.21732 0.65332 0 1.0493 0.29066 1.0493 1.0426 0 0.63998-0.29732 0.98931-0.99464 1.6613-0.29199 0.29066-0.41732 0.46265-0.44266 0.71331h1.4973v0.57999h-2.092" style="fill:#8b5ba5;stroke-width:1.3333"/>
	<path d="m454.47 267.03c-0.336 0-0.66665-0.11333-0.83065-0.19199v-0.63999c0.22933 0.13867 0.52132 0.25066 0.77865 0.25066 0.36265 0 0.56532-0.13866 0.56532-0.80531 0-0.65198-0.19733-0.81065-0.53866-0.81065h-0.79198v-2.4199h1.8466v0.58665h-1.2653v1.28h0.32799c0.60666 0 1.036 0.24399 1.036 1.3586s-0.43466 1.392-1.128 1.392" style="fill:#8b5ba5;stroke-width:1.3333"/>
	<path d="m459.27 264.91c-0.19867 0-0.29733 0.13733-0.29733 0.52665s0.0987 0.52799 0.29733 0.52799c0.19199 0 0.29199-0.13867 0.29199-0.52799s-0.1-0.52665-0.29199-0.52665zm0 1.496c-0.47466 0-0.74532-0.30933-0.74532-0.96931 0-0.65865 0.27066-0.96931 0.74532-0.96931 0.47332 0 0.73998 0.31066 0.73998 0.96931 0 0.65998-0.26666 0.96931-0.73998 0.96931zm-1.756-0.0653h-0.39199l1.8506-4.5506h0.39599zm-0.29333-4.1746c-0.19866 0-0.29732 0.13867-0.29732 0.52799 0 0.38933 0.0987 0.52665 0.29732 0.52665 0.18933 0 0.28933-0.13732 0.28933-0.52665 0-0.38932-0.1-0.52799-0.28933-0.52799zm0 1.4973c-0.47732 0-0.74798-0.31066-0.74798-0.96931 0-0.65998 0.27066-0.97064 0.74798-0.97064 0.47333 0 0.73732 0.31066 0.73732 0.97064 0 0.65865-0.26399 0.96931-0.73732 0.96931" style="fill:#8b5ba5;stroke-width:1.3333"/>
	<path d="m453.99 309.4c-0.35733 0-0.70532-0.0987-0.89731-0.17867v-0.63865c0.23732 0.132 0.58665 0.23733 0.84398 0.23733 0.36265 0 0.59998-0.14666 0.59998-0.79198 0-0.66665-0.26933-0.81731-0.65198-0.81731h-0.45599v-0.55465h0.44932c0.35466 0 0.57465-0.12533 0.57465-0.69199 0-0.56132-0.21999-0.65998-0.52265-0.65998-0.25599 0-0.57332 0.092-0.80531 0.20533v-0.63332c0.16533-0.0587 0.54932-0.15733 0.85864-0.15733 0.64532 0 1.076 0.216 1.076 1.2453 0 0.50132-0.12666 0.81198-0.36399 0.96265 0.29066 0.15199 0.46133 0.49465 0.46133 1.0946 0 1.1213-0.44799 1.3786-1.1666 1.3786" style="fill:#8b5ba5;stroke-width:1.3333"/>
	<path d="m458.85 307.28c-0.19866 0-0.29733 0.13866-0.29733 0.52799 0 0.38932 0.0987 0.52665 0.29733 0.52665 0.19066 0 0.28933-0.13733 0.28933-0.52665 0-0.38933-0.0987-0.52799-0.28933-0.52799zm0 1.4973c-0.47599 0-0.74665-0.30933-0.74665-0.96931 0-0.65999 0.27066-0.97065 0.74665-0.97065 0.47332 0 0.73731 0.31066 0.73731 0.97065 0 0.65998-0.26399 0.96931-0.73731 0.96931zm-1.756-0.0653h-0.39465l1.8533-4.5506h0.39599zm-0.29466-4.1759c-0.19866 0-0.29732 0.13866-0.29732 0.52799 0 0.38932 0.0987 0.52798 0.29732 0.52798 0.18933 0 0.288-0.13866 0.288-0.52798 0-0.38933-0.0987-0.52799-0.288-0.52799zm0 1.4973c-0.47598 0-0.74664-0.31065-0.74664-0.9693s0.27066-0.96931 0.74664-0.96931c0.47333 0 0.73732 0.31066 0.73732 0.96931s-0.26399 0.9693-0.73732 0.9693" style="fill:#8b5ba5;stroke-width:1.3333"/>
	<text x="26.700285" y="37.114014" style="fill:#231f20;font-family:Bliss;font-size:11.557px;font-weight:300;stroke-width:1.651">
		<tspan x="26.700285 31.617903 34.82505 39.961105 44.646431 49.794052 53.924622 56.922569 62.070206 65.842499 70.978546 76.49601 78.92762 81.405518 85.536102 88.534081 93.670113 96.66806 102.1971 107.33315 110.94366 114.71596 117.19382 120.63095 123.62892 129.21573 134.36331 138.4939 141.49187 147.07864 152.79259 158.44873 164.10486 169.25247 174.40012 178.53067 181.52858 187.11543 192.26303 195.26096 197.69264 200.263 205.41057 209.18288 214.82747 220.41425 225.56186 228.55983 232.69041 237.83803 243.49416 249.13875 254.28632 259.9425 263.71478 266.19266 271.34027 273.77194 276.20361 281.35117 284.34918 287.64758 290.85364 295.98969 301.64578 306.33105 311.46716 313.94507 318.07556 323.22321 326.22119 331.80798 336.9556 339.95352 342.38516 347.52127 350.51926 355.20453 358.52725 364.24118 366.71902 370.84964 374.98026 380.11627 385.7724 390.4577 395.60535 398.60327 405.13782 407.7659 412.97131 416.9863 419.6145 427.6861 433.03012 438.23553 444.1575 453.13058" y="37.114014" style="stroke-width:1.651">
			<tspan style="font-family:Arial;font-weight:normal;stroke-width:1.651">Tracés établis à partir des données de l’étude séquentielle française de la croissance CIE-INSERM</tspan>
.		</tspan>
		<tspan x="26.700285 30.102743 39.075821 41.183868 45.603371 50.306038 55.854698 61.568604 64.000275 66.431915 71.56797 77.224106 82.810913 86.825912 93.36039 98.496429 103.29504 108.95114 114.09879 117.3048 122.44084 125.43877 131.03714 134.03514 143.00818 147.70967 153.05377 158.20139 167.26692 172.79593 177.94353 181.34604 188.0631 193.86485 199.00093 202.32364 204.8015 209.93759 213.70987 216.18776 221.90169 227.55783 231.6884 234.68633 239.83397 245.4901 248.48811 253.17339 258.32101 263.97717 267.74945 270.22733 272.659 277.80655 281.93716" y="50.322849" style="font-family:Arial;font-weight:normal;stroke-width:1.651">(M.F.Rolland-Cachera – M.Sempé).Variations en centiles.</tspan>
	</text>
</svg>
