<svg width="481.61" height="665.46" version="1.1" viewBox="0 0 481.60973 665.45935" xmlns="http://www.w3.org/2000/svg">
	<defs>
		<clipPath id="fa">
			<path d="m-0.097992 595.14h425.2v-595.28h-425.2z"/>
		</clipPath>
		<clipPath id="fb">
			<path d="m0.030014 595.26h425.22v-595.26h-425.22z"/>
		</clipPath>
	</defs>
	<path d="m17.684 650.36h453.87v-650.02h-453.87z" style="fill:#fff;stroke-width:1.3333"/>
	<path d="m471.55 309.01-33.098 6.4452-20 4.4439-12.057 4.5452-14.83 8.5651-22.001 24.443-18.444 22.666-19.777 25.111-19.333 23.999-26.445 27.11-20.887 16-32.667 23.333-27.333 16.889-33.11 18.888-20 11.556-20.443 9.7771-33.111 14-26.666 9.5558-26.666 11.11-26.666 12.222v15.777l26.666-8.8878 39.999-10.445 45.776-10.888 41.778-10.445 36.888-10.889 35.332-10.888 34.888-10.445 29.11-11.554 29.555-12.666 26.887-18 14.222-11.556 13.333-11.777 31.999-21.333 20.443-13.333 26.655-11.112-1e-3 -122.22" style="fill:#fff;stroke-width:1.3333"/>
	<path d="m18.022 524.11v41.332s15.778-38.22 70.444-94.886c0 0 57.555-53.553 93.332-82.442 0 0 68.22-56.221 87.331-68.221 0 0 42.219-29.777 49.997-36.443 0 0 3.7772-2.6666 16.444-10.222 0 0 2-0.44399 10.889-8.6664 21.807-20.173 40.443-45.11 40.443-45.11 14.666-22.222 34.666-39.111 34.666-39.111 16.444-12.889 49.987-15.333 49.987-15.333v-103.55s-23.047 3.5412-63.764 13.333c-17.556 4.2226-21.11 8.6664-21.11 8.6664-7.3332 4.6666-23.111 24.666-23.111 24.666-21.111 28.222-40.887 60.666-40.887 60.666-8.2211 14-17.556 22.666-17.556 22.666s-21.555 21.554-56.443 51.553c0 0-24.222 18-61.11 55.111 0 0-26.99 28.314-71.998 76.886-22.445 24.221-49.553 61.554-49.553 61.554-35.778 53.777-48 87.552-48 87.552" style="fill:#fff;stroke-width:1.3333"/>
	<path d="m18.022 641.73h453.54" style="fill:none;stroke-width:.33332;stroke:#a9c0a6"/>
	<path d="m18.022 624.39h453.54m-453.54-8.6678h453.54m-453.54-17.336h453.54" style="fill:none;stroke-width:.33332;stroke:#a9c0a6"/>
	<path d="m18.022 589.72h453.54m-453.54-17.334h453.54m-453.54-17.336h453.54m-453.54-8.6678h453.54m-453.54-17.334h453.54m-453.54-17.336h453.54m-453.54-8.6678h453.54m-453.54-17.334h453.54m-453.54-17.336h453.54m-453.54-8.6678h453.54m-453.54-8.6664h453.54m-453.54-26.003h453.54m-453.54-8.6678h453.54m-453.54-17.334h453.54" style="fill:none;stroke-width:.33332;stroke:#a9c0a6"/>
	<path d="m18.022 381.7h453.54" style="fill:none;stroke-width:.33332;stroke:#a9c0a6"/>
	<path d="m18.022 373.03h453.54m-453.54-17.334h453.54m-453.54-17.336h453.54m-453.54-17.336h453.54m-453.54-8.6664h453.54m-453.54-17.336h453.54" style="fill:none;stroke-width:.33332;stroke:#a9c0a6"/>
	<path d="m18.022 277.69h453.54m-453.54-8.6664h453.54m-453.54-17.336h453.54m-453.54-17.336h453.54m-453.54-8.6664h453.54m-453.54-26.003h453.54m-453.54-8.6678h453.54m-453.54-8.6664h453.54" style="fill:none;stroke-width:.33332;stroke:#a9c0a6"/>
	<path d="m18.022 156.34h453.54" style="fill:none;stroke-width:.33332;stroke:#a9c0a6"/>
	<path d="m18.022 147.68h453.54m-453.54-8.6664h453.54m-453.54-17.336h453.54m-453.54-17.334h453.54m-453.54-8.6678h453.54m-453.54-26.002h453.54m-453.54-8.6678h453.54m-453.54-8.6678h453.54m-453.54-17.336h453.54" style="fill:none;stroke-width:.33332;stroke:#a9c0a6"/>
	<path d="m18.022 26.333h453.54m-453.54-8.6678h453.54" style="fill:none;stroke-width:.33332;stroke:#a9c0a6"/>
	<path d="m18.022 87.011h453.54" style="fill:none;stroke-width:.66665;stroke:#a9c0a6"/>
	<path d="m18.022 607.06h453.54m-453.54-43.338h453.54m-453.54-43.338h453.54m-453.54-43.338h453.54m-453.54-43.338h453.54m-453.54-43.338h453.54" style="fill:none;stroke-width:.66665;stroke:#a9c0a6"/>
	<path d="m18.022 347.03h453.54" style="fill:none;stroke-width:.66665;stroke:#a9c0a6"/>
	<path d="m18.022 303.7h453.54" style="fill:none;stroke-width:.66665;stroke:#a9c0a6"/>
	<path d="m18.022 260.35h453.54" style="fill:none;stroke-width:.66665;stroke:#a9c0a6"/>
	<path d="m18.022 217.02h453.54m-453.54-43.338h453.54m-453.54-43.338h453.54" style="fill:none;stroke-width:.66665;stroke:#a9c0a6"/>
	<path d="m18.022 650.39h453.54m-453.54-606.73h453.54" style="fill:none;stroke-width:.66665;stroke:#a9c0a6"/>
	<path d="m18.022 0.33332h453.54" style="fill:none;stroke-width:.66665;stroke:#a9c0a6"/>
	<path d="m18.022 8.9998h453.54m-453.54 69.34h453.54m-453.54 34.671h453.54m-453.54 52.004h453.54m-453.54 43.338h453.54m-453.54 34.67h453.54" style="fill:none;stroke-width:.33332;stroke:#a9c0a6"/>
	<path d="m18.022 286.35h453.54m-453.54 43.338h453.54m-453.54 34.671h453.54m-453.54 43.336h453.54" style="fill:none;stroke-width:.33332;stroke:#a9c0a6"/>
	<path d="m18.022 442.38h453.54m-453.54 52.005h453.54m-453.54 43.338h453.54m-453.54 43.338h453.54m-453.54 52.004h453.54" style="fill:none;stroke-width:.33332;stroke:#a9c0a6"/>
	<path d="m18.008 650.39v-650.04m26.685 650.04v-650.04m26.685 650.04v-650.04m26.683 650.04v-650.04m26.685 650.04v-650.04m26.682 650.04v-650.04m26.683 650.04v-650.04m26.687 650.04v-650.04m26.682 650.04v-650.04m26.682 650.04v-650.04m26.685 650.04v-650.04m26.683 650.04v-650.04m26.685 650.04v-650.04m26.685 650.04v-650.04m26.683 650.04v-650.04m26.685 650.04v-650.04m26.685 650.04v-650.04m26.683 650.04v-650.04" style="fill:none;stroke-width:.66665;stroke:#a9c0a6"/>
	<path d="m18.051 650.39v-650.04m453.59 650.04v-650.04m-446.96 650.04v-650.04m13.344 650.04v-650.04m13.341 650.04v-650.04m13.344 650.04v-650.04m13.341 650.04v-650.04m13.342 650.04v-650.04m13.341 650.04v-650.04m13.344 650.04v-650.04m13.341 650.04v-650.04m13.344 650.04v-650.04m13.341 650.04v-650.04m13.342 650.04v-650.04m13.341 650.04v-650.04m13.344 650.04v-650.04m13.341 650.04v-650.04m13.344 650.04v-650.04m13.341 650.04v-650.04m13.341 650.04v-650.04m13.341 650.04v-650.04m13.344 650.04v-650.04m13.34 650.04v-650.04m13.344 650.04v-650.04m13.341 650.04v-650.04m13.344 650.04v-650.04m13.341 650.04v-650.04m13.344 650.04v-650.04m13.34 650.04v-650.04m13.341 650.04v-650.04m13.344 650.04v-650.04m13.341 650.04v-650.04m13.344 650.04v-650.04m13.341 650.04v-650.04m13.344 650.04v-650.04m13.34 650.04v-650.04m-433.62 650.04v-650.04m26.685 650.04v-650.04m26.685 650.04v-650.04m26.683 650.04v-650.04m26.685 650.04v-650.04m26.683 650.04v-650.04m26.685 650.04v-650.04m26.685 650.04v-650.04m26.685 650.04v-650.04m26.682 650.04v-650.04m26.683 650.04v-650.04m26.685 650.04v-650.04m26.685 650.04v-650.04m26.683 650.04v-650.04m26.685 650.04v-650.04m26.685 650.04v-650.04m26.683 650.04v-650.04" style="fill:none;stroke-width:.33332;stroke:#a9c0a6"/>
	<path d="m6.6287 565.17c-0.41999 0.69865-0.59065 1.1-0.59065 2.32v1.02h-0.91998v-1.02c0-1.6 0.37999-2.26 0.75998-2.8506 0.39999-0.61865 0.62932-1.02 0.63998-1.94v-0.19999h-2.1999v-0.88932h3.1199v0.67999c0 1.66-0.41066 2.2493-0.80931 2.8799" style="fill:#00b9f1;stroke-width:1.3333"/>
	<path d="m10.138 562.35c-0.63065 0-0.75998 0.43999-0.75998 2.2493 0 1.8106 0.12933 2.2506 0.75998 2.2506 0.63998 0 0.75998-0.43999 0.75998-2.2506 0-1.8093-0.12-2.2493-0.75998-2.2493zm0 5.3305c-1.22 0-1.7-0.75065-1.7-3.0812 0-2.3293 0.47999-3.0786 1.7-3.0786 1.22 0 1.7106 0.74931 1.7106 3.0786 0 2.3306-0.49066 3.0812-1.7106 3.0812" style="fill:#00b9f1;stroke-width:1.3333"/>
	<path d="m5.5007 518.17c-0.49999 0-0.63998 0.28933-0.63998 1.0893 0 0.81064 0.14 1.1093 0.63998 1.1093s0.63998-0.29866 0.63998-1.1093c0-0.79998-0.14-1.0893-0.63998-1.0893zm0 2.9693c-0.59998 0-0.73998 0.33066-0.73998 1.2706 0 0.93998 0.14 1.2693 0.73998 1.2693s0.73998-0.32933 0.73998-1.2693-0.14-1.2706-0.73998-1.2706zm0 3.3399c-1.2 0-1.6706-0.59999-1.6706-2.0506 0-0.85865 0.23066-1.4586 0.63998-1.72-0.29999-0.25866-0.47865-0.78931-0.47865-1.4586 0-1.2906 0.41999-1.8706 1.5093-1.8706s1.5106 0.57999 1.5106 1.8706c0 0.66932-0.19066 1.2-0.49065 1.4586 0.41066 0.26133 0.64932 0.86131 0.64932 1.72 0 1.4506-0.46932 2.0506-1.6693 2.0506" style="fill:#00b9f1;stroke-width:1.3333"/>
	<path d="m9.9913 519.15c-0.63065 0-0.76131 0.43999-0.76131 2.2506 0 1.8093 0.13066 2.2493 0.76131 2.2493 0.63998 0 0.75865-0.43999 0.75865-2.2493 0-1.8106-0.11866-2.2506-0.75865-2.2506zm0 5.3305c-1.22 0-1.7013-0.74931-1.7013-3.0799 0-2.3293 0.48132-3.0799 1.7013-3.0799 1.2186 0 1.7093 0.75064 1.7093 3.0799 0 2.3306-0.49066 3.0799-1.7093 3.0799" style="fill:#00b9f1;stroke-width:1.3333"/>
	<path d="m5.9661 478.75 0.16933-0.12c0-2.06-0.10933-2.7013-0.72932-2.7013-0.51999 0-0.67998 0.37065-0.67998 1.5306 0 1.16 0.15066 1.52 0.65998 1.52 0.21999 0 0.39999-0.1 0.57999-0.22933zm-0.55999-3.6199c1.3106 0 1.66 0.85864 1.66 3.3292 0 2.1506-0.049332 3.7706-1.72 3.7706-0.39999 0-0.96931-0.17066-1.2693-0.31999v-0.95998c0.40932 0.24933 0.80931 0.39999 1.1893 0.39999 0.57065 0 0.85065-0.41065 0.86931-1.9-0.18933 0.14933-0.51865 0.33999-0.81865 0.33999-1.0506 0-1.5306-0.67998-1.5306-2.3306 0-1.6906 0.48932-2.3293 1.62-2.3293" style="fill:#00b9f1;stroke-width:1.3333"/>
	<path d="m9.986 475.96c-0.62932 0-0.75998 0.43999-0.75998 2.2493 0 1.8106 0.13066 2.2506 0.75998 2.2506 0.63998 0 0.75998-0.43999 0.75998-2.2506 0-1.8093-0.12-2.2493-0.75998-2.2493zm0 5.3305c-1.22 0-1.7-0.75065-1.7-3.0813 0-2.3293 0.47999-3.0786 1.7-3.0786 1.22 0 1.7106 0.74931 1.7106 3.0786 0 2.3306-0.49066 3.0813-1.7106 3.0813" style="fill:#00b9f1;stroke-width:1.3333"/>
	<path d="m-4.4991e-4 438v-0.87998h0.81065v-3.9492l-0.81065 0.36932v-0.93064l1.0906-0.56932h0.67065v5.0799h0.79998v0.87998h-2.5613" style="fill:#00b9f1;stroke-width:1.3333"/>
	<path d="m5.3501 432.78c-0.63065 0-0.75998 0.43999-0.75998 2.2506 0 1.8093 0.12933 2.2493 0.75998 2.2493 0.63998 0 0.75998-0.43999 0.75998-2.2493 0-1.8106-0.12-2.2506-0.75998-2.2506zm0 5.3305c-1.22 0-1.7-0.74932-1.7-3.0799 0-2.3293 0.47999-3.0799 1.7-3.0799s1.7106 0.75065 1.7106 3.0799c0 2.3306-0.49065 3.0799-1.7106 3.0799" style="fill:#00b9f1;stroke-width:1.3333"/>
	<path d="m9.85 432.78c-0.63065 0-0.75998 0.43999-0.75998 2.2506 0 1.8093 0.12933 2.2493 0.75998 2.2493 0.63998 0 0.75998-0.43999 0.75998-2.2493 0-1.8106-0.12-2.2506-0.75998-2.2506zm0 5.3305c-1.22 0-1.7-0.74932-1.7-3.0799 0-2.3293 0.47999-3.0799 1.7-3.0799 1.22 0 1.7093 0.75065 1.7093 3.0799 0 2.3306-0.48932 3.0799-1.7093 3.0799" style="fill:#00b9f1;stroke-width:1.3333"/>
	<path d="m0.75553 394.82v-0.87997h0.81065v-3.9492l-0.81065 0.37066v-0.93064l1.0906-0.56932h0.67065v5.0785h0.79865v0.87997h-2.5599" style="fill:#00b9f1;stroke-width:1.3333"/>
	<path d="m4.4061 394.82v-0.87997h0.81065v-3.9492l-0.81065 0.37066v-0.93064l1.0906-0.56932h0.66932v5.0785h0.79998v0.87997h-2.5599" style="fill:#00b9f1;stroke-width:1.3333"/>
	<path d="m9.7553 389.58c-0.62932 0-0.75865 0.43999-0.75865 2.2493 0 1.8106 0.12933 2.2506 0.75865 2.2506 0.63998 0 0.75998-0.43999 0.75998-2.2506 0-1.8093-0.12-2.2493-0.75998-2.2493zm0 5.3305c-1.22 0-1.7-0.75065-1.7-3.0813 0-2.3293 0.47999-3.0786 1.7-3.0786 1.22 0 1.7106 0.74932 1.7106 3.0786 0 2.3306-0.49066 3.0813-1.7106 3.0813" style="fill:#00b9f1;stroke-width:1.3333"/>
	<path d="m0.18088 351.62v-0.87997h0.80931v-3.9492l-0.80931 0.36933v-0.93065l1.0893-0.56932h0.67065v5.0799h0.79998v0.87997h-2.5599" style="fill:#00b9f1;stroke-width:1.3333"/>
	<path d="m3.8208 351.62v-0.67065c0-0.71998 0.30933-1.2693 1.08-2.0293 0.84931-0.83998 1.0893-1.1613 1.0893-1.7213 0-0.50799-0.28933-0.72798-0.75998-0.72798-0.45999 0-0.90931 0.17866-1.4093 0.40932v-0.99064c0.34932-0.13066 1.0386-0.32932 1.4893-0.32932 0.99064 0 1.5906 0.43998 1.5906 1.58 0 0.96931-0.45066 1.5-1.5106 2.5199-0.43999 0.43999-0.62932 0.69999-0.67065 1.08h2.2706v0.87997h-3.1693" style="fill:#00b9f1;stroke-width:1.3333"/>
	<path d="m9.67 346.39c-0.62932 0-0.75998 0.43999-0.75998 2.2506 0 1.8093 0.13066 2.2493 0.75998 2.2493 0.63998 0 0.75998-0.43999 0.75998-2.2493 0-1.8106-0.12-2.2506-0.75998-2.2506zm0 5.3305c-1.22 0-1.7-0.74931-1.7-3.0799s0.47999-3.0799 1.7-3.0799c1.22 0 1.7106 0.74931 1.7106 3.0799s-0.49066 3.0799-1.7106 3.0799" style="fill:#00b9f1;stroke-width:1.3333"/>
	<path d="m0.76753 308.43v-0.87998h0.80931v-3.9506l-0.80931 0.37066v-0.93064l1.0893-0.56932h0.67065v5.0799h0.79998v0.87998h-2.5599" style="fill:#00b9f1;stroke-width:1.3333"/>
	<path d="m5.5261 309.47c-0.53865 0-1.0693-0.15066-1.36-0.27066v-0.96931c0.35999 0.2 0.89064 0.35999 1.2813 0.35999 0.54932 0 0.90931-0.21999 0.90931-1.2 0-1.0106-0.40932-1.24-0.98931-1.24h-0.69065v-0.83997h0.67998c0.53999 0 0.87064-0.19067 0.87064-1.0506 0-0.84931-0.33066-0.99997-0.79065-0.99997-0.38932 0-0.86931 0.14-1.22 0.31066v-0.95998c0.25066-0.0907 0.83065-0.23999 1.3-0.23999 0.97998 0 1.6306 0.32932 1.6306 1.8893 0 0.75999-0.19066 1.2306-0.55065 1.46 0.43999 0.23066 0.69998 0.75065 0.69998 1.66 0 1.7-0.67998 2.0906-1.7706 2.0906" style="fill:#00b9f1;stroke-width:1.3333"/>
	<path d="m10.077 303.21c-0.63065 0-0.75998 0.44132-0.75998 2.2506s0.12933 2.2493 0.75998 2.2493c0.63998 0 0.75998-0.43999 0.75998-2.2493s-0.12-2.2506-0.75998-2.2506zm0 5.3305c-1.22 0-1.7-0.74931-1.7-3.0799s0.47999-3.0799 1.7-3.0799c1.22 0 1.7106 0.74931 1.7106 3.0799s-0.49065 3.0799-1.7106 3.0799" style="fill:#00b9f1;stroke-width:1.3333"/>
	<path d="m0.45154 265.25v-0.87998h0.81065v-3.9506l-0.81065 0.37066v-0.93064l1.0906-0.56932h0.66932v5.0799h0.79998v0.87998h-2.5599" style="fill:#00b9f1;stroke-width:1.3333"/>
	<path d="m5.6021 261.54-1.08 2.0493h1.4186v-1.9693c0-0.37999 0.050665-0.92131 0.050665-0.92131s-0.20933 0.49999-0.38932 0.84132zm1.2586 2.8199v1.82h-0.91998v-1.82h-2.3093v-0.55999l2.3599-4.5599h0.86931v4.3492h0.56132v0.77065h-0.56132" style="fill:#00b9f1;stroke-width:1.3333"/>
	<path d="m10.062 260.02c-0.63065 0-0.76131 0.43999-0.76131 2.2506 0 1.8093 0.13066 2.2493 0.76131 2.2493 0.63998 0 0.75998-0.43999 0.75998-2.2493 0-1.8106-0.12-2.2506-0.75998-2.2506zm0 5.3305c-1.22 0-1.7013-0.75065-1.7013-3.0799 0-2.3306 0.48132-3.0799 1.7013-3.0799 1.2186 0 1.7093 0.74932 1.7093 3.0799 0 2.3293-0.49065 3.0799-1.7093 3.0799" style="fill:#00b9f1;stroke-width:1.3333"/>
	<path d="m0.54087 222.05v-0.87998h0.81065v-3.9506l-0.81065 0.36933v-0.92931l1.0906-0.57065h0.66932v5.0812h0.79998v0.87998h-2.5599" style="fill:#00b9f1;stroke-width:1.3333"/>
	<path d="m5.4914 223.09c-0.51065 0-1.0106-0.16933-1.26-0.28932v-0.96931c0.34932 0.20933 0.78931 0.37999 1.18 0.37999 0.54932 0 0.85998-0.21066 0.85998-1.22 0-0.99064-0.30133-1.2306-0.81998-1.2306h-1.2013v-3.6706h2.8013v0.89064h-1.92v1.94h0.49999c0.91998 0 1.5693 0.37066 1.5693 2.06 0 1.6906-0.65998 2.1093-1.7093 2.1093" style="fill:#00b9f1;stroke-width:1.3333"/>
	<path d="m9.97 216.82c-0.62932 0-0.75865 0.43999-0.75865 2.2506 0 1.8093 0.12933 2.2493 0.75865 2.2493 0.63998 0 0.76131-0.43999 0.76131-2.2493 0-1.8106-0.12133-2.2506-0.76131-2.2506zm0 5.3305c-1.22 0-1.6986-0.75065-1.6986-3.0799 0-2.3306 0.47865-3.0799 1.6986-3.0799 1.2213 0 1.7106 0.74932 1.7106 3.0799 0 2.3293-0.48932 3.0799-1.7106 3.0799" style="fill:#00b9f1;stroke-width:1.3333"/>
	<path d="m0.035549 178.86v-0.87998h0.80931v-3.9492l-0.80931 0.36932v-0.92931l1.0893-0.57065h0.67065v5.0799h0.79998v0.87998h-2.5599" style="fill:#00b9f1;stroke-width:1.3333"/>
	<path d="m4.8648 175.34-0.16933 0.12c0 2.06 0.10933 2.6999 0.72932 2.6999 0.51999 0 0.68132-0.37066 0.68132-1.5293 0-1.16-0.15066-1.52-0.66132-1.52-0.21999 0-0.39999 0.1-0.57999 0.22933zm0.55999 3.6199c-1.3093 0-1.66-0.85998-1.66-3.3292 0-2.1506 0.050665-3.7706 1.72-3.7706 0.39999 0 0.97064 0.17066 1.2706 0.31999v0.95998c-0.41066-0.24933-0.81065-0.39999-1.1906-0.39999-0.56932 0-0.84931 0.40932-0.86931 1.9 0.18933-0.14933 0.51999-0.33999 0.81998-0.33999 1.0493 0 1.5293 0.67998 1.5293 2.3306 0 1.6893-0.48932 2.3293-1.62 2.3293" style="fill:#00b9f1;stroke-width:1.3333"/>
	<path d="m9.8153 173.64c-0.63065 0-0.75998 0.43999-0.75998 2.2493 0 1.8106 0.12933 2.2506 0.75998 2.2506 0.63998 0 0.75998-0.43998 0.75998-2.2506 0-1.8093-0.12-2.2493-0.75998-2.2493zm0 5.3292c-1.22 0-1.7-0.74932-1.7-3.0799 0-2.3293 0.47999-3.0799 1.7-3.0799 1.22 0 1.7093 0.75065 1.7093 3.0799 0 2.3306-0.48932 3.0799-1.7093 3.0799" style="fill:#00b9f1;stroke-width:1.3333"/>
	<path d="m0.71153 135.68v-0.87998h0.80931v-3.9506l-0.80931 0.37066v-0.92931l1.0893-0.57066h0.67065v5.0799h0.79998v0.87998h-2.5599" style="fill:#00b9f1;stroke-width:1.3333"/>
	<path d="m6.2914 133.28c-0.41999 0.69998-0.59065 1.1-0.59065 2.3199v1.02h-0.91998v-1.02c0-1.6 0.37999-2.26 0.75998-2.8506 0.39999-0.61998 0.63065-1.0186 0.63998-1.9386v-0.20132h-2.1999v-0.88932h3.1199v0.67999c0 1.66-0.40932 2.2506-0.80931 2.8799" style="fill:#00b9f1;stroke-width:1.3333"/>
	<path d="m9.8006 130.45c-0.63065 0-0.75998 0.43866-0.75998 2.2493s0.12933 2.2506 0.75998 2.2506c0.63998 0 0.75998-0.43999 0.75998-2.2506s-0.12-2.2493-0.75998-2.2493zm0 5.3292c-1.22 0-1.7-0.74931-1.7-3.0799 0-2.3293 0.47999-3.0799 1.7-3.0799 1.22 0 1.7106 0.75065 1.7106 3.0799 0 2.3306-0.49065 3.0799-1.7106 3.0799" style="fill:#00b9f1;stroke-width:1.3333"/>
	<path d="m0.030216 92.491v-0.88131h0.81065v-3.9492l-0.81065 0.36932v-0.92931l1.0906-0.57065h0.66932v5.0799h0.79998v0.88131h-2.5599" style="fill:#00b9f1;stroke-width:1.3333"/>
	<path d="m5.3301 86.278c-0.49999 0-0.63998 0.29066-0.63998 1.0906 0 0.80931 0.14 1.1093 0.63998 1.1093s0.63998-0.3 0.63998-1.1093c0-0.79998-0.14-1.0906-0.63998-1.0906zm0 2.9693c-0.59998 0-0.73998 0.33066-0.73998 1.2706 0 0.93998 0.14 1.2706 0.73998 1.2706s0.73998-0.33066 0.73998-1.2706c0-0.93997-0.14-1.2706-0.73998-1.2706zm0 3.3412c-1.2 0-1.6693-0.59999-1.6693-2.0506 0-0.85997 0.22933-1.46 0.63998-1.72-0.30133-0.26-0.47999-0.79065-0.47999-1.46 0-1.2893 0.41999-1.8693 1.5093-1.8693 1.0906 0 1.5106 0.57999 1.5106 1.8693 0 0.66932-0.19066 1.2-0.49065 1.46 0.41066 0.25999 0.64932 0.85998 0.64932 1.72 0 1.4506-0.46932 2.0506-1.6693 2.0506" style="fill:#00b9f1;stroke-width:1.3333"/>
	<path d="m9.8206 87.251c-0.63065 0-0.76131 0.43999-0.76131 2.2506 0 1.8093 0.13066 2.2493 0.76131 2.2493 0.63998 0 0.75865-0.43999 0.75865-2.2493 0-1.8106-0.11866-2.2506-0.75865-2.2506zm0 5.3305c-1.22 0-1.7013-0.75064-1.7013-3.0799 0-2.3306 0.48132-3.0799 1.7013-3.0799 1.22 0 1.7093 0.74932 1.7093 3.0799 0 2.3293-0.48932 3.0799-1.7093 3.0799" style="fill:#00b9f1;stroke-width:1.3333"/>
	<path d="m15.663 664.35v-0.93865h0.86398v-4.2146l-0.86398 0.39466v-0.99064l1.1626-0.60799h0.71465v5.4185h0.85331v0.93865h-2.7306" style="fill:#61bb46;stroke-width:1.3333"/>
	<path d="m42.393 664.35v-0.71465c0-0.76932 0.33066-1.3546 1.1533-2.1653 0.90664-0.89598 1.1626-1.2373 1.1626-1.8346 0-0.54532-0.30933-0.77865-0.81065-0.77865-0.49065 0-0.97064 0.19199-1.5053 0.43732v-1.056c0.37466-0.13866 1.1093-0.35199 1.5906-0.35199 1.056 0 1.696 0.46932 1.696 1.6853 0 1.0346-0.48132 1.6-1.6106 2.6866-0.46932 0.47065-0.67198 0.74798-0.71465 1.1533h2.4213v0.93865h-3.3826" style="fill:#61bb46;stroke-width:1.3333"/>
	<path d="m70.33 665.46c-0.57598 0-1.1413-0.15999-1.4506-0.28799v-1.0346c0.38399 0.21333 0.94931 0.38399 1.3653 0.38399 0.58665 0 0.97064-0.23466 0.97064-1.28 0-1.0773-0.43732-1.324-1.056-1.324h-0.73598v-0.89464h0.72532c0.57598 0 0.92798-0.204 0.92798-1.12 0-0.90665-0.35199-1.0666-0.84264-1.0666-0.41599 0-0.92798 0.14799-1.3013 0.33066v-1.0253c0.26666-0.0947 0.88531-0.25466 1.3866-0.25466 1.0453 0 1.7386 0.35199 1.7386 2.016 0 0.81064-0.20266 1.312-0.58665 1.5573 0.46932 0.24399 0.74665 0.79865 0.74665 1.7706 0 1.812-0.72532 2.2293-1.888 2.2293" style="fill:#61bb46;stroke-width:1.3333"/>
	<path d="m97.482 660.4-1.152 2.1853h1.5146v-2.1c0-0.40666 0.05333-0.98131 0.05333-0.98131s-0.224 0.53199-0.41599 0.89598zm1.344 3.0079v1.9413h-0.98131v-1.9413h-2.4639v-0.59865l2.5173-4.8625h0.92798v4.6386h0.59732v0.82264h-0.59732" style="fill:#61bb46;stroke-width:1.3333"/>
	<path d="m124.02 665.46c-0.54532 0-1.0773-0.18133-1.3453-0.31066v-1.0333c0.37466 0.224 0.84398 0.40533 1.26 0.40533 0.58665 0 0.91731-0.224 0.91731-1.3013 0-1.056-0.32133-1.312-0.87598-1.312h-1.28v-3.9146h2.9879v0.94931h-2.0493v2.0693h0.53332c0.98131 0 1.6746 0.39466 1.6746 2.196 0 1.804-0.70398 2.2519-1.8226 2.2519" style="fill:#61bb46;stroke-width:1.3333"/>
	<path d="m150.63 660.59-0.18133 0.12933c0 2.1959 0.11733 2.8799 0.77864 2.8799 0.55466 0 0.72532-0.39599 0.72532-1.6333 0-1.236-0.16-1.62-0.70398-1.62-0.23466 0-0.42666 0.10666-0.61865 0.24399zm0.59731 3.8626c-1.3973 0-1.7706-0.91864-1.7706-3.5519 0-2.2933 0.0533-4.0212 1.8346-4.0212 0.42666 0 1.0346 0.18132 1.3546 0.34132v1.024c-0.43733-0.26799-0.86398-0.42665-1.2693-0.42665-0.60798 0-0.90664 0.43599-0.92797 2.0266 0.20266-0.15999 0.55465-0.36399 0.87464-0.36399 1.12 0 1.632 0.72665 1.632 2.4853 0 1.804-0.52265 2.4866-1.728 2.4866" style="fill:#61bb46;stroke-width:1.3333"/>
	<path d="m178.17 661.79c-0.44798 0.74531-0.62931 1.1733-0.62931 2.4733v1.0893h-0.98131v-1.0893c0-1.7053 0.40532-2.4093 0.81064-3.0386 0.42666-0.66132 0.67199-1.088 0.68265-2.0693v-0.21333h-2.3466v-0.94931h3.3279v0.72532c0 1.7706-0.43732 2.3999-0.86398 3.0719" style="fill:#61bb46;stroke-width:1.3333"/>
	<path d="m204.61 657.73c-0.53332 0-0.68131 0.30799-0.68131 1.1626 0 0.86264 0.14799 1.184 0.68131 1.184s0.68399-0.32133 0.68399-1.184c0-0.85465-0.15067-1.1626-0.68399-1.1626zm0 3.1679c-0.63998 0-0.78798 0.35199-0.78798 1.3546 0 1.0013 0.148 1.3546 0.78798 1.3546 0.63999 0 0.79065-0.35333 0.79065-1.3546 0-1.0026-0.15066-1.3546-0.79065-1.3546zm0 3.5626c-1.28 0-1.7813-0.64132-1.7813-2.1866 0-0.91731 0.24533-1.5573 0.68399-1.8346-0.32133-0.27733-0.51332-0.84398-0.51332-1.5573 0-1.376 0.44799-1.9946 1.6106-1.9946 1.1626 0 1.6106 0.61865 1.6106 1.9946 0 0.71332-0.20266 1.28-0.52265 1.5573 0.43732 0.27732 0.69331 0.91731 0.69331 1.8346 0 1.5453-0.50132 2.1866-1.7813 2.1866" style="fill:#61bb46;stroke-width:1.3333"/>
	<path d="m231.84 661.75 0.17999-0.12799c0-2.1986-0.11733-2.8799-0.77864-2.8799-0.55466 0-0.72532 0.39466-0.72532 1.6306 0 1.2386 0.16133 1.6226 0.70532 1.6226 0.23466 0 0.42665-0.10666 0.61865-0.24533zm-0.59865-3.8612c1.3986 0 1.772 0.91731 1.772 3.5519 0 2.2933-0.0547 4.0212-1.8346 4.0212-0.42665 0-1.0346-0.18133-1.356-0.34132v-1.0253c0.43865 0.26666 0.86397 0.42799 1.2706 0.42799 0.60799 0 0.90664-0.43866 0.92664-2.0266-0.20132 0.15866-0.55465 0.36266-0.87331 0.36266-1.12 0-1.6333-0.72532-1.6333-2.4866 0-1.8013 0.52399-2.4839 1.728-2.4839" style="fill:#61bb46;stroke-width:1.3333"/>
	<path d="m254.39 664.35v-0.93865h0.86265v-4.2146l-0.86265 0.39466v-0.99064l1.1626-0.60799h0.71465v5.4185h0.85331v0.93865h-2.7306" style="fill:#61bb46;stroke-width:1.3333"/>
	<path d="m259.4 658.77c-0.67198 0-0.81198 0.46932-0.81198 2.3999s0.14 2.3999 0.81198 2.3999c0.68132 0 0.81065-0.46932 0.81065-2.3999s-0.12933-2.3999-0.81065-2.3999zm0 5.6852c-1.3013 0-1.8146-0.79998-1.8146-3.2852s0.51332-3.2852 1.8146-3.2852c1.3 0 1.824 0.79998 1.824 3.2852s-0.52398 3.2852-1.824 3.2852" style="fill:#61bb46;stroke-width:1.3333"/>
	<path d="m281.13 664.35v-0.93865h0.86398v-4.2146l-0.86398 0.39466v-0.99064l1.164-0.60799h0.71465v5.4185h0.85198v0.93865h-2.7306" style="fill:#61bb46;stroke-width:1.3333"/>
	<path d="m284.33 664.35v-0.93865h0.86398v-4.2146l-0.86398 0.39466v-0.99064l1.1626-0.60799h0.71465v5.4185h0.85464v0.93865h-2.7319" style="fill:#61bb46;stroke-width:1.3333"/>
	<path d="m307.88 664.35v-0.93865h0.86398v-4.2146l-0.86398 0.39466v-0.99064l1.1626-0.60799h0.71464v5.4185h0.85332v0.93865h-2.7306" style="fill:#61bb46;stroke-width:1.3333"/>
	<path d="m311.06 664.35v-0.71465c0-0.76932 0.33066-1.3546 1.152-2.1653 0.90664-0.89598 1.1626-1.2373 1.1626-1.8346 0-0.54532-0.30932-0.77865-0.81064-0.77865-0.49199 0-0.97065 0.19199-1.504 0.43732v-1.056c0.37333-0.13866 1.1093-0.35199 1.5893-0.35199 1.056 0 1.696 0.46932 1.696 1.6853 0 1.0346-0.47999 1.6-1.6106 2.6866-0.46932 0.47065-0.67198 0.74798-0.71465 1.1533h2.4213v0.93865h-3.3812" style="fill:#61bb46;stroke-width:1.3333"/>
	<path d="m334.61 664.35v-0.93865h0.86265v-4.2146l-0.86265 0.39466v-0.99064l1.1626-0.60799h0.71465v5.4185h0.85331v0.93865h-2.7306" style="fill:#61bb46;stroke-width:1.3333"/>
	<path d="m339 665.46c-0.57732 0-1.1426-0.15999-1.4506-0.28799v-1.0346c0.38399 0.21333 0.94931 0.38399 1.364 0.38399 0.58798 0 0.97197-0.23466 0.97197-1.28 0-1.0773-0.43732-1.324-1.056-1.324h-0.73732v-0.89464h0.72532c0.57732 0 0.92797-0.204 0.92797-1.12 0-0.90665-0.35065-1.0666-0.84131-1.0666-0.41599 0-0.92931 0.14799-1.3013 0.33066v-1.0253c0.26533-0.0947 0.88531-0.25466 1.3866-0.25466 1.044 0 1.7386 0.35199 1.7386 2.016 0 0.81064-0.204 1.312-0.58799 1.5573 0.47066 0.24399 0.74798 0.79865 0.74798 1.7706 0 1.812-0.72531 2.2293-1.888 2.2293" style="fill:#61bb46;stroke-width:1.3333"/>
	<path d="m361.36 664.35v-0.93865h0.86398v-4.2146l-0.86398 0.39466v-0.99064l1.1626-0.60799h0.71598v5.4185h0.85198v0.93865h-2.7306" style="fill:#61bb46;stroke-width:1.3333"/>
	<path d="m366.16 660.4-1.1506 2.1853h1.5133v-2.1c0-0.40666 0.0547-0.98131 0.0547-0.98131s-0.22399 0.53199-0.41732 0.89598zm1.344 3.0079v1.9413h-0.98131v-1.9413h-2.4639v-0.59865l2.5186-4.8625h0.92665v4.6386h0.59732v0.82264h-0.59732" style="fill:#61bb46;stroke-width:1.3333"/>
	<path d="m388.09 664.35v-0.93865h0.86397v-4.2146l-0.86397 0.39466v-0.99064l1.1626-0.60799h0.71465v5.4185h0.85331v0.93865h-2.7306" style="fill:#61bb46;stroke-width:1.3333"/>
	<path d="m392.68 665.46c-0.54266 0-1.076-0.18133-1.3426-0.31066v-1.0333c0.37333 0.224 0.84265 0.40533 1.2586 0.40533 0.58532 0 0.91731-0.224 0.91731-1.3013 0-1.056-0.31999-1.312-0.87464-1.312h-1.28v-3.9146h2.9866v0.94931h-2.0493v2.0693h0.53465c0.98131 0 1.6746 0.39466 1.6746 2.196 0 1.804-0.70399 2.2519-1.8253 2.2519" style="fill:#61bb46;stroke-width:1.3333"/>
	<path d="m414.83 664.35v-0.93865h0.86265v-4.2146l-0.86265 0.39466v-0.99064l1.1626-0.60799h0.71465v5.4185h0.85331v0.93865h-2.7306" style="fill:#61bb46;stroke-width:1.3333"/>
	<path d="m419.29 660.59-0.18 0.12933c0 2.1959 0.11733 2.8799 0.77865 2.8799 0.55465 0 0.72531-0.39599 0.72531-1.6333 0-1.236-0.15999-1.62-0.70531-1.62-0.23333 0-0.42533 0.10666-0.61865 0.24399zm0.59865 3.8626c-1.3973 0-1.7706-0.91864-1.7706-3.5519 0-2.2933 0.0533-4.0212 1.8346-4.0212 0.42665 0 1.0346 0.18132 1.3533 0.34132v1.024c-0.43733-0.26799-0.86265-0.42665-1.268-0.42665-0.60799 0-0.90798 0.43599-0.92798 2.0266 0.20133-0.15999 0.55465-0.36399 0.87465-0.36399 1.12 0 1.632 0.72665 1.632 2.4853 0 1.804-0.52265 2.4866-1.728 2.4866" style="fill:#61bb46;stroke-width:1.3333"/>
	<path d="m441.58 664.35v-0.93865h0.86398v-4.2146l-0.86398 0.39466v-0.99064l1.1626-0.60799h0.71598v5.4185h0.85198v0.93865h-2.7306" style="fill:#61bb46;stroke-width:1.3333"/>
	<path d="m446.83 661.79c-0.44798 0.74531-0.62931 1.1733-0.62931 2.4733v1.0893h-0.97998v-1.0893c0-1.7053 0.40399-2.4093 0.80931-3.0386 0.42666-0.66132 0.67199-1.088 0.68265-2.0693v-0.21333h-2.3466v-0.94931h3.3279v0.72532c0 1.7706-0.43732 2.3999-0.86398 3.0719" style="fill:#61bb46;stroke-width:1.3333"/>
	<path d="m461.66 664.35v-0.93865h0.86265v-4.2146l-0.86265 0.39466v-0.99064l1.1626-0.60799h0.71465v5.4185h0.85331v0.93865h-2.7306" style="fill:#61bb46;stroke-width:1.3333"/>
	<path d="m466.62 657.73c-0.53332 0-0.68265 0.30799-0.68265 1.1626 0 0.86264 0.14933 1.184 0.68265 1.184s0.68131-0.32133 0.68131-1.184c0-0.85465-0.14799-1.1626-0.68131-1.1626zm0 3.1679c-0.63999 0-0.78932 0.35199-0.78932 1.3546 0 1.0013 0.14933 1.3546 0.78932 1.3546 0.63998 0 0.78798-0.35333 0.78798-1.3546 0-1.0026-0.148-1.3546-0.78798-1.3546zm0 3.5626c-1.28 0-1.7813-0.64132-1.7813-2.1866 0-0.91731 0.24399-1.5573 0.68131-1.8346-0.31866-0.27733-0.51065-0.84398-0.51065-1.5573 0-1.376 0.44799-1.9946 1.6106-1.9946 1.1626 0 1.6106 0.61865 1.6106 1.9946 0 0.71332-0.20399 1.28-0.52265 1.5573 0.43732 0.27732 0.69331 0.91731 0.69331 1.8346 0 1.5453-0.50132 2.1866-1.7813 2.1866" style="fill:#61bb46;stroke-width:1.3333"/>
	<path d="m473.34 661.93h-0.49066c-0.65198 0-0.85331 0.42799-0.85331 0.99197 0 0.52399 0.18133 0.73732 0.46799 0.73732 0.20399 0 0.42799-0.11866 0.66265-0.37332l0.21333-0.21333zm0.39465 2.4226c-0.0973-0.128-0.19332-0.32133-0.26799-0.56532l-0.15999 0.17066c-0.36133 0.41465-0.76799 0.49065-1.0453 0.49065-0.75598 0-1.1933-0.53332-1.1933-1.5266 0-1.0973 0.60799-1.7813 1.7066-1.7813h0.56532v-0.63865c0-0.53332-0.26666-0.72532-0.67199-0.72532-0.49065 0-0.92797 0.18133-1.376 0.46932v-0.99331c0.33999-0.13733 0.91598-0.33999 1.46-0.33999 1.0453 0 1.58 0.45732 1.58 1.7066v2.2399c0 0.53332 0.0307 1.172 0.10667 1.4933h-0.70399" style="fill:#61bb46;stroke-width:1.3333"/>
	<path d="m477.29 664.35v-3.9572c0-0.42665-0.11733-0.58798-0.34133-0.58798-0.17066 0-0.34132 0.10799-0.64132 0.44798l-0.38399 0.42799v3.6692h-0.99197v-3.8399c0-0.53465-0.0307-1.152-0.10533-1.4933h0.70265c0.0973 0.11733 0.22399 0.43732 0.31066 0.78798l0.34132-0.35066c0.33066-0.34133 0.69198-0.54399 1.0653-0.54399 0.83198 0 1.036 0.61732 1.036 1.5893v3.8506h-0.99197" style="fill:#61bb46;stroke-width:1.3333"/>
	<path d="m479.97 664.46c-0.57465 0-1.0026-0.128-1.3106-0.24666v-0.95998c0.44798 0.224 0.87331 0.35333 1.3213 0.35333 0.39599 0 0.73731-0.16 0.73731-0.79998 0-0.61865-0.26666-0.74665-0.74798-0.74665-0.79865 0-1.4813-0.23466-1.4813-1.6333 0-1.1506 0.61865-1.5133 1.5573-1.5133 0.38265 0 0.95997 0.13866 1.28 0.26666v0.94931c-0.45999-0.25733-0.87465-0.37466-1.3026-0.37466-0.36132 0-0.63865 0.12933-0.63865 0.67199 0 0.56665 0.21333 0.69465 0.61865 0.69465 0.77865 0 1.6106 0.23466 1.6106 1.6853 0 1.248-0.71465 1.6533-1.644 1.6533" style="fill:#61bb46;stroke-width:1.3333"/>
	<path d="m0.035549 49.292v-0.87998h0.80931v-3.9492l-0.80931 0.36932v-0.92931l1.0893-0.57065h0.67065v5.0799h0.79998v0.87998h-2.5599" style="fill:#00b9f1;stroke-width:1.3333"/>
	<path d="m5.7954 46.852 0.17066-0.11866c0-2.0599-0.11066-2.6999-0.73065-2.6999-0.51999 0-0.67998 0.36932-0.67998 1.5293s0.14933 1.52 0.65998 1.52c0.21999 0 0.39999-0.1 0.57999-0.23066zm-0.55999-3.6186c1.3093 0 1.66 0.85864 1.66 3.3292 0 2.1493-0.050665 3.7692-1.72 3.7692-0.39999 0-0.97064-0.16933-1.2706-0.31999v-0.95998c0.41066 0.25066 0.81065 0.40132 1.1906 0.40132 0.56932 0 0.84931-0.41066 0.87064-1.9013-0.19066 0.15066-0.52132 0.34132-0.82131 0.34132-1.0493 0-1.5293-0.68132-1.5293-2.3306 0-1.6893 0.49065-2.3293 1.62-2.3293" style="fill:#00b9f1;stroke-width:1.3333"/>
	<path d="m9.8153 44.066c-0.63065 0-0.75998 0.43999-0.75998 2.2506 0 1.8093 0.12933 2.2493 0.75998 2.2493 0.63998 0 0.75998-0.43999 0.75998-2.2493 0-1.8106-0.12-2.2506-0.75998-2.2506zm0 5.3305c-1.22 0-1.7-0.75065-1.7-3.0799 0-2.3306 0.47999-3.0799 1.7-3.0799 1.22 0 1.7093 0.74932 1.7093 3.0799 0 2.3293-0.48932 3.0799-1.7093 3.0799" style="fill:#00b9f1;stroke-width:1.3333"/>
	<g transform="translate(-.75266 -657.61)">
		<path d="m5.4681 664.96c-0.91998 0-1.4693-0.30933-1.4693-2.5493 0-2.26 0.59865-2.5493 1.4693-2.5493 0.41999 0 0.85998 0.13866 1.18 0.26932v0.95065c-0.35999-0.24933-0.69065-0.37066-1.0106-0.37066-0.44932 0-0.71998 0.17999-0.71998 1.7 0 1.48 0.25066 1.7 0.71998 1.7 0.31999 0 0.66132-0.11066 1.0106-0.37999v0.95998c-0.31066 0.14133-0.69065 0.26933-1.18 0.26933" style="fill:#00b9f1;stroke-width:1.3333"/>
		<path d="m10.637 660.32c0.31066-0.32132 0.65065-0.51065 0.99998-0.51065 0.77998 0 0.97064 0.57999 0.97064 1.4893v3.6106h-0.93064v-3.7092c0-0.40132-0.10933-0.55065-0.31866-0.55065-0.16133 0-0.32132 0.1-0.60132 0.41999 0 0-0.21999 0.23999-0.21999 0.25066v3.5892h-0.92931v-3.7092c0-0.40132-0.10933-0.55065-0.31999-0.55065-0.16 0-0.31066 0.1-0.59998 0.41999l-0.21999 0.23999v3.5999h-0.93064v-3.5999c0-0.49998-0.029333-1.08-0.098664-1.4h0.65865c0.079998 0.1 0.18 0.33999 0.26133 0.63065l0.20933-0.22c0.30933-0.32132 0.65065-0.51065 0.99998-0.51065 0.51999 0 0.77998 0.25999 0.88931 0.69998l0.18-0.18933" style="fill:#00b9f1;stroke-width:1.3333"/>
	</g>
	<path d="m18.022 565.44s15.778-38.22 70.444-94.886c0 0 57.555-53.553 93.331-82.442 0 0 68.221-56.221 87.332-68.221 0 0 42.219-29.777 49.997-36.443 0 0 3.7772-2.6666 16.444-10.222 0 0 2-0.44399 10.889-8.6664 21.807-20.173 40.443-45.11 40.443-45.11 14.666-22.222 34.666-39.111 34.666-39.111 16.444-12.889 49.987-15.333 49.987-15.333m-453.54 359.1s12.222-33.775 48-87.552c0 0 27.109-37.334 49.553-61.554 45.01-48.572 71.998-76.886 71.998-76.886 36.888-37.111 61.11-55.111 61.11-55.111 34.887-29.999 56.443-51.553 56.443-51.553s9.3344-8.6664 17.556-22.666c0 0 19.776-32.445 40.887-60.666 0 0 15.778-20 23.111-24.666 0 0 3.5546-4.4439 21.11-8.6664 40.716-9.7918 63.764-13.333 63.764-13.333" style="fill:none;stroke-width:.99998;stroke:#00adef"/>
	<path d="m18.022 554.56s27.835-54.837 64.222-92.442c59.776-61.777 99.998-95.552 99.998-95.552s56.443-47.555 81.109-65.998c0 0 44.666-33.999 52.221-41.11 0 0 17.11-13.556 37.776-35.555 0 0 19.522-22.846 29.111-33.776 22.221-25.333 32.221-31.778 32.221-31.778 17.778-16.222 56.875-19.333 56.875-19.333m0-51.776s-43.098 4.8879-71.985 21.554c0 0-13.556 6.2225-30.666 27.555 0 0-15.777 18.889-39.555 52.221l-9.3331 12.444c-8.8878 14.222-72.442 65.777-72.442 65.777-20.445 15.333-74.221 66.22-74.221 66.22-51.999 51.776-90.219 96.443-90.219 96.443-41.332 49.332-65.112 104.89-65.112 104.89" style="fill:none;stroke-dasharray:2.71499879, 2.71499879;stroke-width:.99998;stroke:#00adef"/>
	<path d="m18.022 576.09c34.444-59.553 70.888-89.555 70.888-89.555s62.222-56.441 112-92.219c0 0 60.888-50.221 102-72.442 0 0 21.331-13.11 29.11-16.666 0 0 11.778-5.7785 16.889-9.7784 19.65-15.38 39.11-43.332 39.11-43.332 13.777-24.666 31.555-43.11 31.555-43.11 19.333-18.445 51.987-18 51.987-18m-453.54 323.1s19.334-49.999 53.333-99.776c0 0 42.666-59.998 83.998-101.33 0 0 22.359-28.458 67.776-71.109 0 0 44.222-37.554 50.888-44.887l34.222-34.444c8.2225-8.8891 25.999-42.22 25.999-42.22 19.11-36.444 41.332-61.777 41.332-61.777 6.2158-9.5331 33.895-13.728 33.895-13.728 13.001-2.0959 62.089-9.3824 62.089-9.3824" style="fill:none;stroke-width:.33332;stroke:#939598"/>
	<path d="m455.09 66.652h13.249v-8.0375h-13.249z" style="fill:#fff;stroke-width:1.3333"/>
	<path d="m457.91 63.092v0.96931h-0.44133v-0.96931h-0.85064v-0.44132h0.85064v-0.96398h0.44133v0.96398h0.84398v0.44132h-0.84398" style="fill:#8b5ba5;stroke-width:1.3333"/>
	<path d="m459.79 64.692v-0.44266c0-0.47465 0.20533-0.83731 0.71332-1.3386 0.55998-0.55332 0.71864-0.76398 0.71864-1.1346 0-0.33599-0.19199-0.48132-0.50132-0.48132-0.30399 0-0.59998 0.11866-0.93064 0.27066v-0.65332c0.23066-0.08533 0.68532-0.21733 0.98264-0.21733 0.65332 0 1.0493 0.29066 1.0493 1.0426 0 0.63865-0.29733 0.98931-0.99598 1.6613-0.29066 0.29066-0.41599 0.46266-0.44132 0.71198h1.496v0.58132h-2.0906" style="fill:#8b5ba5;stroke-width:1.3333"/>
	<path d="m465.47 63.425c0-0.50132-0.104-0.90131-0.31066-1.1986-0.208-0.29866-0.48399-0.44799-0.82531-0.44799-0.30133 0-0.53466 0.10533-0.70132 0.31599-0.168 0.21066-0.25066 0.50665-0.25066 0.89198 0 0.46799 0.104 0.84931 0.31199 1.1426 0.208 0.29466 0.47999 0.44132 0.81465 0.44132 0.32266 0 0.56132-0.09466 0.72131-0.28399 0.16133-0.19066 0.24-0.47732 0.24-0.86131zm-0.076-1.4213c0.24933 0.12533 0.43599 0.28933 0.55732 0.48932 0.124 0.2 0.18533 0.43866 0.18533 0.71465 0 0.45866-0.16 0.83465-0.48132 1.124-0.32133 0.29199-0.74398 0.43599-1.264 0.43599-0.49199 0-0.89331-0.144-1.2093-0.43599-0.31466-0.28933-0.47199-0.65865-0.47199-1.1066 0-0.48665 0.16266-0.87998 0.48798-1.1773 0.32666-0.29733 0.75865-0.44666 1.3013-0.44666 0.10799 0 0.30932 8e-3 0.60398 0.024 0.29333 0.016 0.53199 0.024 0.71465 0.024 0.17866 0 0.31066-0.01467 0.39999-0.04266 0.088-0.028 0.13466-0.07066 0.14133-0.12933h0.14666c-5e-3 0.21599-0.0507 0.36666-0.12933 0.44932-0.0813 0.08266-0.22666 0.12266-0.43865 0.12266-0.044 0-0.1-0.0027-0.168-8e-3 -0.0693-0.0053-0.19466-0.01733-0.37599-0.03733" style="fill:#8b5ba5;stroke-width:1.3333"/>
	<path d="m454.5 92.851h13.249v-8.0389h-13.249z" style="fill:#fff;stroke-width:1.3333"/>
	<path d="m457.35 89.224v0.97065h-0.44132v-0.97065h-0.85065v-0.44132h0.85065v-0.96264h0.44132v0.96264h0.84398v0.44132h-0.84398" style="fill:#8b5ba5;stroke-width:1.3333"/>
	<path d="m459.23 90.824v-0.57998h0.53466v-2.6053l-0.53466 0.24399v-0.61332l0.71999-0.37599h0.44132v3.3506h0.52665v0.57998h-1.688" style="fill:#8b5ba5;stroke-width:1.3333"/>
	<path d="m464.59 89.558c0-0.50132-0.104-0.90131-0.31066-1.2-0.20799-0.29733-0.48399-0.44666-0.82531-0.44666-0.30133 0-0.53465 0.10533-0.70132 0.316-0.16799 0.20932-0.25066 0.50665-0.25066 0.89064 0 0.46932 0.104 0.84931 0.31199 1.144 0.208 0.29333 0.47999 0.44132 0.81465 0.44132 0.32266 0 0.56132-0.096 0.72132-0.28532 0.15999-0.18933 0.23999-0.47599 0.23999-0.85998zm-0.076-1.4226c0.24933 0.12666 0.43599 0.28932 0.55732 0.49065 0.124 0.2 0.18533 0.43866 0.18533 0.71332 0 0.45999-0.16 0.83464-0.48132 1.1253-0.32133 0.29066-0.74398 0.43599-1.2653 0.43599-0.49066 0-0.89198-0.14533-1.208-0.43599-0.31466-0.29066-0.47199-0.65998-0.47199-1.1066 0-0.48798 0.16266-0.87997 0.48799-1.1773 0.32666-0.29866 0.75864-0.44666 1.3013-0.44666 0.10799 0 0.30932 8e-3 0.60398 0.024 0.29333 0.01467 0.53199 0.02267 0.71465 0.02267 0.17866 0 0.31066-0.01333 0.39999-0.04133 0.088-0.028 0.13466-0.072 0.14133-0.13066h0.14666c-5e-3 0.21733-0.0507 0.36666-0.12933 0.44932-0.0813 0.08266-0.22666 0.124-0.43865 0.124-0.044 0-0.1-0.0027-0.168-8e-3 -0.0693-0.0053-0.19466-0.01867-0.37599-0.03867" style="fill:#8b5ba5;stroke-width:1.3333"/>
	<path d="m455.21 143.54h13.249v-8.0385h-13.249z" style="fill:#fff;stroke-width:1.3333"/>
	<path d="m456.75 140.09h1.7145v-0.52799h-1.7145z" style="fill:#8b5ba5;stroke-width:1.3333"/>
	<path d="m459.65 141.64v-0.57999h0.53465v-2.6053l-0.53465 0.244v-0.61332l0.71865-0.37599h0.44132v3.3506h0.52798v0.57999h-1.688" style="fill:#8b5ba5;stroke-width:1.3333"/>
	<path d="m464.99 140.37c0-0.50132-0.104-0.90131-0.31199-1.2-0.20666-0.29732-0.48266-0.44665-0.82531-0.44665-0.3 0-0.53332 0.10533-0.69999 0.31599-0.16799 0.20933-0.25199 0.50665-0.25199 0.89064 0 0.46932 0.104 0.84932 0.31332 1.144 0.208 0.29333 0.47999 0.44133 0.81465 0.44133 0.32133 0 0.56132-0.096 0.72132-0.28533 0.15999-0.18933 0.23999-0.47599 0.23999-0.85998zm-0.076-1.4226c0.24933 0.12533 0.43466 0.28933 0.55732 0.48932 0.124 0.20133 0.18533 0.43999 0.18533 0.71465 0 0.45999-0.16 0.83465-0.48265 1.1253-0.32133 0.29066-0.74265 0.43599-1.264 0.43599-0.49066 0-0.89331-0.14533-1.208-0.43599s-0.47332-0.65999-0.47332-1.1066c0-0.48799 0.16399-0.88131 0.48932-1.1786 0.32666-0.29733 0.75864-0.44532 1.3-0.44532 0.108 0 0.31066 8e-3 0.60399 0.024 0.29466 0.0147 0.53332 0.0227 0.71598 0.0227 0.17733 0 0.31066-0.0133 0.39866-0.0427 0.0893-0.028 0.13599-0.0707 0.14266-0.12933h0.14666c-7e-3 0.21733-0.0507 0.36665-0.13066 0.44932-0.08 0.0827-0.22533 0.124-0.43866 0.124-0.0427 0-0.0987-3e-3 -0.16799-8e-3 -0.068-5e-3 -0.19333-0.0187-0.37466-0.0387" style="fill:#8b5ba5;stroke-width:1.3333"/>
	<path d="m455.25 170.13h13.249v-8.0385h-13.249z" style="fill:#fff;stroke-width:1.3333"/>
	<path d="m456.85 166.69h1.7133v-0.52668h-1.7133z" style="fill:#8b5ba5;stroke-width:1.3333"/>
	<path d="m459.73 168.24v-0.44265c0-0.47466 0.20533-0.83732 0.71332-1.3386 0.55999-0.55332 0.71865-0.76398 0.71865-1.1346 0-0.33599-0.19333-0.48132-0.50265-0.48132-0.30266 0-0.59866 0.11867-0.92932 0.27066v-0.65331c0.232-0.0853 0.68399-0.21733 0.98131-0.21733 0.65332 0 1.0493 0.29066 1.0493 1.0426 0 0.63998-0.29733 0.98931-0.99464 1.6613-0.29199 0.29066-0.41599 0.46266-0.44266 0.71198h1.4973v0.58132h-2.0906" style="fill:#8b5ba5;stroke-width:1.3333"/>
	<path d="m465.41 166.97c0-0.50132-0.10399-0.90131-0.31199-1.1986-0.20533-0.29866-0.48132-0.44799-0.82531-0.44799-0.29999 0-0.53466 0.10533-0.70132 0.31599-0.16666 0.21067-0.24932 0.50799-0.24932 0.89198 0 0.46799 0.10399 0.84931 0.31199 1.144 0.20933 0.29333 0.47999 0.43999 0.81598 0.43999 0.31999 0 0.55998-0.0947 0.72131-0.28399 0.15866-0.19066 0.23866-0.47732 0.23866-0.86131zm-0.0747-1.4213c0.24666 0.12533 0.43465 0.28933 0.55732 0.48932 0.12133 0.2 0.18399 0.43866 0.18399 0.71465 0 0.45865-0.16133 0.83464-0.48132 1.124-0.32266 0.29199-0.74531 0.43732-1.2653 0.43732-0.48932 0-0.89331-0.14533-1.208-0.43732-0.31599-0.28933-0.47199-0.65865-0.47199-1.1066 0-0.48665 0.16133-0.87998 0.48666-1.1773 0.32799-0.29733 0.76131-0.44532 1.3026-0.44532 0.10666 0 0.30933 7e-3 0.60399 0.0227 0.29465 0.016 0.53065 0.024 0.71331 0.024 0.18 0 0.31199-0.0147 0.40132-0.0427 0.088-0.028 0.13467-0.0707 0.14-0.12933h0.14933c-8e-3 0.21599-0.052 0.36665-0.13066 0.44932-0.0813 0.0827-0.22933 0.12266-0.43999 0.12266-0.0413 0-0.0987-1e-3 -0.16666-8e-3 -0.0707-5e-3 -0.196-0.0173-0.37466-0.0373" style="fill:#8b5ba5;stroke-width:1.3333"/>
	<path d="m455.31 195.1h13.249v-8.0385h-13.249z" style="fill:#fff;stroke-width:1.3333"/>
	<path d="m457.07 191.33h1.716v-0.52799h-1.716z" style="fill:#8b5ba5;stroke-width:1.3333"/>
	<path d="m460.7 193.57c-0.35599 0-0.70531-0.0987-0.89597-0.17866v-0.63998c0.23732 0.13199 0.58665 0.23732 0.84398 0.23732 0.36265 0 0.59865-0.14399 0.59865-0.79064 0-0.66665-0.268-0.81865-0.65065-0.81865h-0.45599v-0.55332h0.44799c0.35732 0 0.57598-0.12533 0.57598-0.69198 0-0.56132-0.21866-0.65999-0.52398-0.65999-0.25466 0-0.57199 0.092-0.80398 0.20533v-0.63465c0.16666-0.0587 0.54932-0.15733 0.85864-0.15733 0.64665 0 1.076 0.21733 1.076 1.2466 0 0.50132-0.12799 0.81064-0.36532 0.96264 0.29199 0.152 0.46132 0.49465 0.46132 1.0946 0 1.1213-0.44799 1.3786-1.1666 1.3786" style="fill:#8b5ba5;stroke-width:1.3333"/>
	<path d="m465.53 191.61c0-0.50132-0.104-0.90131-0.30933-1.2-0.20799-0.29732-0.48398-0.44665-0.82531-0.44665-0.30266 0-0.53465 0.10533-0.70131 0.31599-0.16933 0.20933-0.252 0.50665-0.252 0.89064 0 0.46932 0.104 0.84931 0.31199 1.144 0.20933 0.29333 0.48266 0.44133 0.81598 0.44133 0.32266 0 0.56132-0.096 0.72132-0.28533 0.16133-0.18933 0.23866-0.47599 0.23866-0.85998zm-0.0747-1.4226c0.24932 0.12666 0.43465 0.28933 0.55731 0.49065 0.124 0.2 0.184 0.43866 0.184 0.71332 0 0.45999-0.15866 0.83465-0.48132 1.1253-0.31999 0.29065-0.74265 0.43598-1.2626 0.43598-0.49198 0-0.89331-0.14533-1.2093-0.43598-0.31466-0.29066-0.47332-0.65999-0.47332-1.1066 0-0.48799 0.16399-0.87998 0.48932-1.1773 0.32533-0.29866 0.75865-0.44665 1.3-0.44665 0.10933 0 0.30932 8e-3 0.60398 0.024 0.29466 0.0147 0.53332 0.0227 0.71598 0.0227 0.17733 0 0.30933-0.0147 0.39866-0.0427 0.088-0.028 0.13466-0.0707 0.14266-0.12933h0.14667c-5e-3 0.21732-0.0493 0.36665-0.13067 0.44932-0.0813 0.0827-0.22666 0.124-0.43732 0.124-0.044 0-0.0987-3e-3 -0.16933-8e-3 -0.068-5e-3 -0.19333-0.0187-0.37465-0.0387" style="fill:#8b5ba5;stroke-width:1.3333"/>
	<path d="m455.03 40.332h13.249v-8.0389h-13.249z" style="fill:#fff;stroke-width:1.3333"/>
	<path d="m457.78 36.839v0.97064h-0.43999v-0.97064h-0.85198v-0.44132h0.85198v-0.96264h0.43999v0.96264h0.84398v0.44132h-0.84398" style="fill:#8b5ba5;stroke-width:1.3333"/>
	<path d="m460.41 39.119c-0.35733 0-0.70665-0.09866-0.89865-0.17866v-0.63998c0.236 0.132 0.58799 0.23733 0.84398 0.23733 0.36399 0 0.60132-0.144 0.60132-0.79065 0-0.66665-0.27066-0.81865-0.65465-0.81865h-0.45465v-0.55332h0.45065c0.35333 0 0.57199-0.12533 0.57199-0.69198 0-0.56132-0.21866-0.65998-0.51999-0.65998-0.25866 0-0.57332 0.092-0.80531 0.20533v-0.63465c0.16399-0.05867 0.54665-0.15733 0.85731-0.15733 0.64532 0 1.0746 0.21733 1.0746 1.2466 0 0.50132-0.124 0.81065-0.36133 0.96264 0.28933 0.152 0.46133 0.49466 0.46133 1.0946 0 1.1213-0.44799 1.3786-1.1666 1.3786" style="fill:#8b5ba5;stroke-width:1.3333"/>
	<path d="m465.23 37.172c0-0.50132-0.10399-0.90131-0.31332-1.2-0.20533-0.29733-0.48132-0.44666-0.82531-0.44666-0.29866 0-0.53332 0.10533-0.69999 0.31599-0.16666 0.20933-0.25066 0.50665-0.25066 0.89064 0 0.46932 0.104 0.84931 0.31333 1.144 0.20799 0.29333 0.47865 0.44132 0.81464 0.44132 0.32 0 0.55999-0.096 0.72132-0.28533 0.15866-0.18933 0.23999-0.47599 0.23999-0.85998zm-0.076-1.4226c0.24799 0.12666 0.43465 0.28933 0.55732 0.49065 0.12266 0.2 0.18532 0.43866 0.18532 0.71332 0 0.45999-0.16133 0.83465-0.48265 1.1253-0.32266 0.29066-0.74398 0.43599-1.2653 0.43599-0.48932 0-0.89331-0.14533-1.208-0.43599s-0.47199-0.65998-0.47199-1.1066c0-0.48799 0.16133-0.87998 0.48799-1.1786 0.32799-0.29733 0.75998-0.44532 1.3013-0.44532 0.10666 0 0.31066 8e-3 0.60398 0.024 0.29466 0.01467 0.53199 0.02267 0.71332 0.02267 0.17999 0 0.31332-0.01467 0.40132-0.04267 0.0893-0.028 0.136-0.07066 0.14133-0.12933h0.148c-8e-3 0.21733-0.052 0.36666-0.13067 0.44932-0.08 0.08266-0.22666 0.124-0.43998 0.124-0.0413 0-0.0987-0.0027-0.16667-8e-3 -0.0693-0.0053-0.19466-0.01867-0.37465-0.03867" style="fill:#8b5ba5;stroke-width:1.3333"/>
	<g transform="matrix(1.4617 0 0 -1.4617 -47.749 36.908)" clip-path="url(#fa)">
		<g clip-path="url(#fb)">
			<text transform="matrix(1,0,0,-1,54.333,13.848)" style="fill:#231f20;font-family:Bliss;font-size:7px;font-weight:300">
				<tspan x="0 2.9784999 4.921 8.0318003 10.8696 13.9874 16.489201 18.305 21.4228 23.7076 26.818399 30.1602 31.632999 33.133801 35.635601 37.451401 40.562199 42.377998 45.726799 48.837601 51.024399 53.3092 54.810001 56.8918 58.7076 62.0914 65.209198 67.710999 69.526802 72.910599 76.371399 79.797203 83.223 86.340797 89.458603 91.960403 93.776199 97.160004 100.2778 102.0936 103.5664 105.1232 108.241 110.5258 113.9446 117.3284 120.4462 122.262 124.7638 127.8816 131.3074 134.7262 137.84399 141.26981 143.5546 145.0554 148.1732 149.646 151.1188 154.2366 156.0524 158.0502 159.992 163.1028 166.52859 169.36639 172.4772 173.978 176.4798 179.5976 181.41341 184.7972 187.91499 189.7308 191.2036 194.31441 196.1302 198.968 200.9805 204.4413 205.94209 208.44389 210.94569 214.0565 217.4823 220.3201 223.4379 225.25369 229.2115 230.8033 233.9561 236.38789 237.97971 242.8685 246.1053 249.2581 252.84489 258.27969 261.12799 263.18881 268.6236 271.4726 274.70941 277.82721 283.31799 286.66681 289.78461 0 3.5139999 6.6248002 8.6372995 10.1381 13.2489 15.5337 17.0345 20.4953 23.921101 26.422899 28.238701 31.356501 34.782299 36.598099 39.7159 42.553699 45.664501 47.850601 50.135399 52.637199 55.069 57.353802 60.583599 63.9324 67.050201 69.552002 71.367798 73.428596" y="0 0 0 0 0 0 0 0 0 0 0 0 0 0 0 0 0 0 0 0 0 0 0 0 0 0 0 0 0 0 0 0 0 0 0 0 0 0 0 0 0 0 0 0 0 0 0 0 0 0 0 0 0 0 0 0 0 0 0 0 0 0 0 0 0 0 0 0 0 0 0 0 0 0 0 0 0 0 0 0 0 0 0 0 0 0 0 0 0 0 0 0 0 0 0 0 0 0 0 0 0 0 0 0 0 0 0 8.0003004" style="font-family:Arial;font-weight:normal">Tracés établis à partir des données de l’étude séquentielle française de la croissance CIE-INSERM.(M.Sempé)Variations en écarts-types (</tspan>
			</text>
			<text transform="matrix(1,0,0,-1,129.59,5.8482)" style="fill:#231f20;font-family:Symbol;font-size:8px">
				<tspan x="0" y="0">σ</tspan>
			</text>
			<text transform="matrix(1,0,0,-1,136.23,5.8482)" style="fill:#231f20;font-family:Bliss;font-size:7px;font-weight:300">
				<tspan x="0 2.0608001 3.8766 5.7063999 9.2021999" y="0" style="font-family:Arial;font-weight:normal">) [1</tspan>
			</text>
			<text transform="matrix(1,0,0,-1,147.25,5.8482)" style="fill:#231f20;font-family:Symbol;font-size:8px">
				<tspan x="0" y="0">σ</tspan>
			</text>
			<text transform="matrix(1,0,0,-1,153.89,5.8482)" style="fill:#231f20;font-family:Bliss;font-size:7px;font-weight:300">
				<tspan x="0 4.2735 6.0893002 9.5858002 11.4016 15.7171 18.954599 20.785101 108.1052 109.921 113.2705 116.732 118.2335 121.618" y="0" style="font-family:Arial;font-weight:normal">= 1 DS]</tspan>
			</text>
		</g>
	</g>
</svg>
