<svg width="490.84" height="426.49" version="1.1" viewBox="0 0 490.83774 426.49466" xmlns="http://www.w3.org/2000/svg">
	<defs>
		<clipPath id="fa">
			<path d="m-0.097992 595.14h425.2v-595.28h-425.2z"/>
		</clipPath>
		<clipPath id="fb">
			<path d="m0.030014 595.26h425.22v-595.26h-425.22z"/>
		</clipPath>
	</defs>
	<path d="m17.723 399.9h453.42v-399.51h-453.42z" style="fill:#fff;stroke-width:1.3333"/>
	<path d="m30.344 271.71 12.596-17.39 12.597-15.976 12.596-12.218 12.597-10.338 12.597-8.9291 12.596-7.5211 12.597-7.0492 12.596-6.1092 12.596-5.6399 12.597-6.5785 25.193-10.338 25.193-12.218 12.598-4.6999 12.594-5.6385 12.597-4.2319 12.593-5.1692 12.6-4.2292 12.598-5.1679 25.189-7.5185 12.6-4.7012 25.191-7.5172 12.597-4.7012 12.598-3.7586 12.593-4.2306 25.195-6.5772 12.596-4.2292 12.596-3.2906 12.597-4.2306 12.597-2.8186 12.596-3.7586v70.958l-25.193 5.6412-12.597 1.88-62.98 16.448-12.598 2.348-50.388 15.04-12.596 3.2892-25.191 8.4598-12.6 3.2892-12.593 4.2292-25.191 7.5211-12.598 5.1692-25.193 8.4571-12.596 5.1692-12.597 4.2319-12.597 4.6986-12.596 5.6399-12.596 6.1092-12.597 5.6385-12.596 7.5198-25.194 16.917-10.597 8.6971-3.7386 3.5892-23.453 26.249-12.701 13.593v-38.646l12.701-15.361" style="fill:#fff;stroke-width:1.3333"/>
	<path d="m30.295 399.92v-399.36m12.597 399.36v-399.36m-25.194 399.36v-399.36m37.79 399.36v-399.36m25.194 399.36v-399.36m12.596 399.36v-399.36m-25.193 399.36v-399.36m37.79 399.36v-399.36m25.194 399.36v-399.36m12.596 399.36v-399.36m-25.193 399.36v-399.36m37.79 399.36v-399.36m37.79 399.36v-399.36m12.596 399.36v-399.36m-25.193 399.36v-399.36m37.79 399.36v-399.36m25.193 399.36v-399.36m12.597 399.36v-399.36m-25.193 399.36v-399.36m37.79 399.36v-399.36m37.79 399.36v-399.36m12.597 399.36v-399.36m-25.194 399.36v-399.36m37.79 399.36v-399.36m25.193 399.36v-399.36m12.598 399.36v-399.36m-25.194 399.36v-399.36m37.79 399.36v-399.36m37.79 399.36v-399.36m12.597 399.36v-399.36m-25.194 399.36v-399.36m37.79 399.36v-399.36m25.194 399.36v-399.36m-12.597 399.36v-399.36m-289.73 399.36v-399.36m113.37 399.36v-399.36m113.37 399.36v-399.36" style="fill:none;stroke-width:.33332;stroke:#a9c0a6"/>
	<path d="m17.643 4.9399h453.72m-453.72 4.7025h453.72m-453.72 4.7025h453.72m-453.72 4.7012h453.72m-453.72 4.7025h453.72m-453.72-23.511h453.72m-453.72 32.915h453.72m-453.72 4.7012h453.72m-453.72 4.7025h453.72m-453.72 4.7025h453.72m-453.72 4.7012h453.72m-453.72-23.51h453.72m-453.72 32.915h453.72m-453.72 4.7012h453.72m-453.72 4.7025h453.72m-453.72 4.7025h453.72m-453.72 4.7012h453.72m-453.72-23.51h453.72m-453.72 32.914h453.72m-453.72 4.7025h453.72m-453.72 4.7025h453.72m-453.72 4.7012h453.72m-453.72 4.7025h453.72m-453.72-23.51h453.72m-453.72 32.914h453.72m-453.72 4.7012h453.72m-453.72 4.7039h453.72m-453.72 4.7012h453.72m-453.72 4.7012h453.72m-453.72-23.509h453.72m-453.72 32.914h453.72m-453.72 4.7012h453.72m-453.72 4.7026h453.72m-453.72 4.7026h453.72m-453.72 4.7026h453.72m-453.72-23.511h453.72m-453.72 32.914h453.72m-453.72 4.7039h453.72m-453.72 4.7012h453.72m-453.72 4.7012h453.72m-453.72 4.7026h453.72m-453.72-23.51h453.72m-453.72 32.914h453.72m-453.72 4.7026h453.72m-453.72 4.7012h453.72m-453.72 4.7039h453.72m-453.72 4.7012h453.72m-453.72-23.51h453.72m-453.72 32.914h453.72m-453.72 4.7026h453.72m-453.72 4.7012h453.72m-453.72 4.7026h453.72m-453.72 4.7026h453.72m-453.72-23.511h453.72m-453.72 32.915h453.72m-453.72 4.7012h453.72m-453.72 4.7039h453.72m-453.72 4.7012h453.72m-453.72 4.7012h453.72m-453.72-23.51h453.72m-453.72 32.915h453.72m-453.72 4.7012h453.72m-453.72 4.7026h453.72m-453.72 4.7012h453.72m-453.72 4.7025h453.72m-453.72-23.51h453.72m-453.72 32.914h453.72m-453.72 4.7026h453.72m-453.72 4.7026h453.72m-453.72 4.7012h453.72m-453.72 4.7026h453.72m-453.72-23.51h453.72m-453.72 32.914h453.72m-453.72 4.7026h453.72m-453.72 4.7012h453.72m-453.72 4.7026h453.72m-453.72 4.7026h453.72m-453.72-23.51h453.72m-453.72 32.913h453.72m-453.72 4.7039h453.72m-453.72 4.7012h453.72m-453.72 4.7026h453.72m-453.72 4.7012h453.72m-453.72-23.51h453.72m-453.72 28.213h453.72m-453.72 4.7026h453.72" style="fill:none;stroke-width:.33332;stroke:#a9c0a6"/>
	<path d="m471.12 399.8v-399.46" style="fill:none;stroke-width:.66665;stroke:#231f20"/>
	<path d="m471.12 399.8v-399.46m-453.72 399.46h453.72m-415.92 0v-399.46m37.814 399.46v-399.46m37.811 399.46v-399.46m37.812 399.46v-399.46m37.812 399.46v-399.46m37.811 399.46v-399.46m37.812 399.46v-399.46m37.811 399.46v-399.46m37.811 399.46v-399.46m37.815 399.46v-399.46m37.811 399.46v-399.46m-415.92 375.95h453.72m-453.72-23.497h453.72m-453.72-23.499h453.72m-453.72-23.497h453.72m-453.72-23.497h453.72m-453.72-23.497h453.72m-453.72-23.497h453.72m-453.72-23.498h453.72m-453.72-23.499h453.72m-453.72-23.494h453.72m-453.72-23.499h453.72m-453.72-23.497h453.72m-453.72-23.497h453.72m-453.72-23.497h453.72m-453.72-23.497h453.72m-453.72-23.498h453.72m-453.72-23.497h453.72" style="fill:none;stroke-width:.66665;stroke:#a9c0a6"/>
	<path d="m42.921 254.36-12.596 17.39-12.682 15.314m37.875-48.681-12.597 15.977m25.193-28.195-12.596 12.218m25.193-22.557-12.597 10.338m25.193-19.268-12.596 8.9291m25.193-16.45-12.597 7.5212m25.194-14.57-12.597 7.0492m25.193-13.158-12.596 6.1092m25.191-11.749-12.596 5.6399m25.193-12.218-12.597 6.5785m25.193-11.748-12.596 5.1692m25.193-10.338-12.597 5.1692m25.194-11.278-12.597 6.1092m25.193-12.218-12.596 6.1092m25.193-10.809-12.597 4.6999m25.193-10.338-12.596 5.6385m25.193-9.8704-12.597 4.2319m25.191-9.3998-12.594 5.1679m25.193-9.3971-12.598 4.2292m25.195-9.3984-12.597 5.1692m25.193-8.9304-12.596 3.7612m25.191-7.5185-12.596 3.7572m25.193-8.4571-12.597 4.6999m25.193-8.4611-12.596 3.7612m25.193-7.5185-12.597 3.7572m25.193-8.4571-12.596 4.6999m25.194-8.4598-12.598 3.7599m25.193-7.9905-12.594 4.2306m25.193-7.5185-12.598 3.2879m25.195-6.5785-12.597 3.2906m25.191-7.5198-12.594 4.2292m25.19-7.5185-12.596 3.2893m25.194-7.5185-12.598 4.2292m25.194-7.0492-12.596 2.8199m25.193-6.5798-12.597 3.7599" style="fill:none;stroke-width:.99998;stroke:#8b5ba5"/>
	<path d="m471.2 81.418-12.597 3.2879-12.596 2.8213-12.598 3.7599-12.596 3.2893-12.594 3.7599-12.597 3.2893-12.598 3.2892-12.594 3.7599-12.598 3.7599-12.596 4.2266-12.597 3.7612-12.596 3.7599-12.597 4.2292-12.596 3.7599-12.596 3.7572-12.597 4.7012-12.598 4.2292-12.594 4.6999-12.597 4.2292-12.596 5.1692-12.597 4.6999-12.596 5.6385-12.597 5.6399-12.597 5.1692-12.596 5.1692-12.597 6.1092-12.596 5.6412-12.596 6.1092-12.597 7.0492-12.597 7.5172-12.596 8.4611-12.597 10.338-12.596 12.218-12.597 15.508-12.596 16.918-12.682 15.321m453.56-176.05-12.597 2.8199-12.596 2.8199-12.598 2.3493-12.596 3.2893-12.594 3.2906-12.597 3.2892-12.598 3.2892-12.594 3.2892-12.598 2.8199-12.596 3.7599-12.597 3.7612-12.596 3.7572-12.597 3.7599-12.596 3.7612-12.596 4.2279-12.597 4.2292-12.598 3.7612-12.594 4.2279-12.597 4.2292-12.596 4.2292-12.597 5.1692-12.596 4.7012-12.597 4.6972-12.597 5.1719-12.596 4.6999-12.597 5.1665-12.596 5.6412-12.596 6.1092-12.597 6.1092-12.597 7.5172-12.596 8.4611-12.597 8.9291-12.596 10.808-12.597 14.098-12.596 14.568-12.682 13.91" style="fill:none;stroke-dasharray:3.77937218, 3.77937218;stroke-width:.99998;stroke:#00adef"/>
	<path d="m42.921 298.07-12.596 14.098-12.682 13.876m25.278-27.974 10.857-12.149 3.7386-3.5906 10.597-8.6971m12.597-8.4584-12.597 8.4584m25.193-16.917-12.596 8.4585m25.193-15.978-12.597 7.5198m25.194-13.158-12.597 5.6385m25.193-11.748-12.596 6.1092m25.191-11.749-12.596 5.6398m25.193-10.338-12.597 4.6986m25.193-8.9304-12.596 4.2319m25.193-9.4011-12.597 5.1692m25.194-9.3971-12.597 4.2279m25.193-8.4571-12.596 4.2292m25.193-9.3984-12.597 5.1692m25.193-8.9304-12.596 3.7612m25.193-7.5211-12.597 3.7599m25.191-7.9891-12.594 4.2292m25.193-7.5185-12.598 3.2892m25.195-7.5172-12.597 4.2279m25.193-8.4598-12.596 4.2319m25.191-7.5211-12.596 3.2892m25.193-7.0465-12.597 3.7572m25.193-7.5185-12.596 3.7612m25.193-7.5212-12.597 3.7599m25.193-7.5198-12.596 3.7599m25.194-6.1092-12.598 2.3493m25.193-5.6385-12.594 3.2892m25.193-6.5785-12.598 3.2892m25.195-6.5798-12.597 3.2906m25.191-6.5798-12.594 3.2892m25.19-6.5785-12.596 3.2893m25.194-5.1692-12.598 1.88m25.194-4.6972-12.596 2.8173m25.193-5.6412-12.597 2.8239" style="fill:none;stroke-width:.99998;stroke:#8b5ba5"/>
	<path d="m5.8209 380.91c-0.53865 0-1.068-0.15066-1.356-0.27066v-0.97064c0.35866 0.20133 0.88798 0.36132 1.2773 0.36132 0.54799 0 0.90664-0.21999 0.90664-1.2013 0-1.0093-0.40799-1.2386-0.98664-1.2386h-0.68932v-0.83997h0.67865c0.53865 0 0.86798-0.19067 0.86798-1.0506 0-0.84932-0.32933-0.99998-0.78798-0.99998-0.38932 0-0.86798 0.14-1.2173 0.30933v-0.95998c0.24933-0.0893 0.82798-0.23866 1.2973-0.23866 0.97731 0 1.6266 0.32932 1.6266 1.8893 0 0.75998-0.18933 1.2293-0.54932 1.46 0.43866 0.22933 0.69865 0.75065 0.69865 1.66 0 1.7-0.67865 2.0906-1.7666 2.0906" style="fill:#8b5ba5;stroke-width:1.3333"/>
	<path d="m9.9621 380.91c-0.50932 0-1.008-0.17066-1.2573-0.29066v-0.97064c0.34932 0.21066 0.78798 0.38132 1.1773 0.38132 0.54799 0 0.85731-0.21066 0.85731-1.22 0-0.99064-0.29866-1.2306-0.81865-1.2306h-1.196v-3.6692h2.7933v0.88931h-1.916v1.94h0.49865c0.91864 0 1.5666 0.36932 1.5666 2.06 0 1.6893-0.65865 2.1106-1.7053 2.1106" style="fill:#8b5ba5;stroke-width:1.3333"/>
	<path d="m5.8515 352.48-1.0773 2.0506h1.4173v-1.9706c0-0.37999 0.049332-0.91998 0.049332-0.91998s-0.20933 0.49999-0.38932 0.83998zm1.2573 2.8199v1.82h-0.91731v-1.82h-2.3053v-0.55998l2.3546-4.5599h0.86798v4.3506h0.55865v0.76931h-0.55865" style="fill:#8b5ba5;stroke-width:1.3333"/>
	<path d="m10.302 350.95c-0.62932 0-0.75865 0.43999-0.75865 2.2506 0 1.8093 0.12933 2.2493 0.75865 2.2493 0.63865 0 0.75731-0.43999 0.75731-2.2493 0-1.8106-0.11866-2.2506-0.75731-2.2506zm0 5.3305c-1.2186 0-1.696-0.74932-1.696-3.0799 0-2.3306 0.47732-3.0799 1.696-3.0799 1.216 0 1.7053 0.74932 1.7053 3.0799 0 2.3306-0.48932 3.0799-1.7053 3.0799" style="fill:#8b5ba5;stroke-width:1.3333"/>
	<path d="m6.1995 328.79-1.0773 2.0506h1.4173v-1.9706c0-0.37999 0.049332-0.91998 0.049332-0.91998s-0.20933 0.49999-0.38932 0.83998zm1.2573 2.8199v1.82h-0.91731v-1.82h-2.3053v-0.55999l2.3546-4.5599h0.86798v4.3506h0.55865v0.76932h-0.55865" style="fill:#8b5ba5;stroke-width:1.3333"/>
	<path d="m10.25 333.53c-0.50799 0-1.0066-0.17066-1.256-0.29066v-0.97064c0.34799 0.21066 0.78665 0.37999 1.176 0.37999 0.54932 0 0.85865-0.20933 0.85865-1.22 0-0.98931-0.29999-1.2293-0.81865-1.2293h-1.1973v-3.6692h2.7933v0.88931h-1.9146v1.94h0.49865c0.91731 0 1.5666 0.36932 1.5666 2.06 0 1.6893-0.65865 2.1106-1.7066 2.1106" style="fill:#8b5ba5;stroke-width:1.3333"/>
	<path d="m5.8809 309.84c-0.50932 0-1.008-0.17066-1.2573-0.29066v-0.96931c0.34932 0.20933 0.78798 0.37999 1.1773 0.37999 0.54932 0 0.85865-0.20933 0.85865-1.22 0-0.98931-0.29999-1.2306-0.81865-1.2306h-1.1973v-3.6692h2.7933v0.88931h-1.9146v1.94h0.49865c0.91731 0 1.5653 0.36932 1.5653 2.0599 0 1.6906-0.65732 2.1106-1.7053 2.1106" style="fill:#8b5ba5;stroke-width:1.3333"/>
	<path d="m10.35 303.57c-0.62932 0-0.75865 0.43999-0.75865 2.2493 0 1.8106 0.12933 2.2506 0.75865 2.2506 0.63865 0 0.75865-0.43999 0.75865-2.2506 0-1.8093-0.12-2.2493-0.75865-2.2493zm0 5.3305c-1.2173 0-1.696-0.75065-1.696-3.0813 0-2.3293 0.47865-3.0786 1.696-3.0786 1.2173 0 1.7053 0.74932 1.7053 3.0786 0 2.3306-0.48799 3.0813-1.7053 3.0813" style="fill:#8b5ba5;stroke-width:1.3333"/>
	<path d="m6.2008 286.15c-0.50799 0-1.0066-0.16933-1.256-0.28932v-0.97064c0.34932 0.20932 0.78798 0.37999 1.1773 0.37999 0.54799 0 0.85731-0.20933 0.85731-1.22 0-0.98931-0.29866-1.2306-0.81731-1.2306h-1.1973v-3.6692h2.7933v0.88931h-1.916v1.9413h0.49865c0.91864 0 1.5666 0.36933 1.5666 2.0586 0 1.6906-0.65865 2.1106-1.7066 2.1106" style="fill:#8b5ba5;stroke-width:1.3333"/>
	<path d="m10.273 286.15c-0.50932 0-1.008-0.16933-1.2573-0.28932v-0.97064c0.34799 0.20932 0.78798 0.37999 1.1773 0.37999 0.54799 0 0.85731-0.20933 0.85731-1.22 0-0.98931-0.29999-1.2306-0.81865-1.2306h-1.1973v-3.6692h2.7946v0.88931h-1.916v1.9413h0.49865c0.91864 0 1.5666 0.36933 1.5666 2.0586 0 1.6906-0.65865 2.1106-1.7053 2.1106" style="fill:#8b5ba5;stroke-width:1.3333"/>
	<path d="m5.3635 257.91-0.16933 0.12c0 2.06 0.10933 2.6986 0.72798 2.6986 0.51999 0 0.67865-0.36933 0.67865-1.5293s-0.14933-1.52-0.65865-1.52c-0.21999 0-0.39866 0.1-0.57865 0.23066zm0.55865 3.6199c-1.3066 0-1.656-0.86131-1.656-3.3306 0-2.1506 0.049332-3.7692 1.716-3.7692 0.39999 0 0.96798 0.17066 1.2666 0.31999v0.95998c-0.40932-0.25067-0.80665-0.39999-1.1866-0.39999-0.56799 0-0.84798 0.40932-0.86798 1.9 0.18933-0.15067 0.51865-0.33999 0.81865-0.33999 1.0466 0 1.5253 0.67865 1.5253 2.3293 0 1.6893-0.48799 2.3306-1.616 2.3306" style="fill:#8b5ba5;stroke-width:1.3333"/>
	<path d="m10.302 256.19c-0.62798 0-0.75865 0.43999-0.75865 2.2493 0 1.8106 0.13066 2.2506 0.75865 2.2506 0.63865 0 0.75865-0.43999 0.75865-2.2506 0-1.8093-0.12-2.2493-0.75865-2.2493zm0 5.3305c-1.2173 0-1.696-0.75065-1.696-3.0813 0-2.3293 0.47865-3.0786 1.696-3.0786 1.2173 0 1.7053 0.74932 1.7053 3.0786 0 2.3306-0.48799 3.0813-1.7053 3.0813" style="fill:#8b5ba5;stroke-width:1.3333"/>
	<path d="m5.6849 234.09-0.16933 0.12c0 2.06 0.10933 2.6999 0.72798 2.6999 0.51865 0 0.67865-0.37066 0.67865-1.5306s-0.14933-1.52-0.65865-1.52c-0.21999 0-0.39999 0.10133-0.57865 0.23066zm0.55865 3.6199c-1.3066 0-1.656-0.85998-1.656-3.3306 0-2.1493 0.049332-3.7692 1.716-3.7692 0.39866 0 0.96798 0.17066 1.2666 0.31999v0.95998c-0.40932-0.25066-0.80798-0.39999-1.1866-0.39999-0.56932 0-0.84931 0.41065-0.86798 1.9 0.18933-0.14933 0.51865-0.33999 0.81731-0.33999 1.048 0 1.5266 0.67998 1.5266 2.3293 0 1.6906-0.48932 2.3306-1.616 2.3306" style="fill:#8b5ba5;stroke-width:1.3333"/>
	<path d="m10.223 238.65c-0.50799 0-1.0066-0.17066-1.256-0.29066v-0.96931c0.34799 0.20933 0.78798 0.37999 1.176 0.37999 0.54932 0 0.85864-0.20933 0.85864-1.22 0-0.98931-0.29999-1.2306-0.81731-1.2306h-1.1973v-3.6692h2.7919v0.88931h-1.9146v1.94h0.49865c0.91731 0 1.5666 0.37065 1.5666 2.0599 0 1.6906-0.65865 2.1106-1.7066 2.1106" style="fill:#8b5ba5;stroke-width:1.3333"/>
	<path d="m6.7888 211.64c-0.41866 0.69865-0.58799 1.1-0.58799 2.3199v1.0186h-0.91864v-1.0186c0-1.6 0.37999-2.2613 0.75865-2.8506 0.39999-0.61999 0.62932-1.0213 0.63865-1.94v-0.2h-2.1946v-0.88931h3.1133v0.67865c0 1.6613-0.40932 2.2506-0.80931 2.8813" style="fill:#8b5ba5;stroke-width:1.3333"/>
	<path d="m10.291 208.81c-0.62798 0-0.75865 0.43999-0.75865 2.2493s0.13066 2.2506 0.75865 2.2506c0.63865 0 0.75865-0.44132 0.75865-2.2506s-0.12-2.2493-0.75865-2.2493zm0 5.3305c-1.2173 0-1.696-0.75065-1.696-3.0813 0-2.3293 0.47865-3.0799 1.696-3.0799 1.2173 0 1.7066 0.75065 1.7066 3.0799 0 2.3306-0.48932 3.0813-1.7066 3.0813" style="fill:#8b5ba5;stroke-width:1.3333"/>
	<path d="m7.2208 187.96c-0.41732 0.69865-0.58799 1.1-0.58799 2.3199v1.02h-0.91731v-1.02c0-1.6 0.37866-2.2599 0.75731-2.8493 0.39999-0.61998 0.62932-1.0213 0.63865-1.9413v-0.2h-2.1946v-0.88931h3.1133v0.67998c0 1.66-0.40932 2.2493-0.80931 2.8799" style="fill:#8b5ba5;stroke-width:1.3333"/>
	<path d="m10.325 191.4c-0.50932 0-1.008-0.17067-1.2573-0.29066v-0.96931c0.34932 0.20933 0.78798 0.37999 1.1773 0.37999 0.54799 0 0.85731-0.20933 0.85731-1.22 0-0.98931-0.29866-1.2306-0.81731-1.2306h-1.1973v-3.6692h2.7933v0.88931h-1.916v1.94h0.49999c0.91731 0 1.5653 0.36933 1.5653 2.06 0 1.6906-0.65865 2.1106-1.7053 2.1106" style="fill:#8b5ba5;stroke-width:1.3333"/>
	<path d="m5.7169 161.79c-0.49865 0-0.63865 0.28933-0.63865 1.0893 0 0.81065 0.14 1.1093 0.63865 1.1093s0.63865-0.29865 0.63865-1.1093c0-0.79998-0.14-1.0893-0.63865-1.0893zm0 2.9706c-0.59865 0-0.73865 0.32932-0.73865 1.2693 0 0.93997 0.14 1.2693 0.73865 1.2693s0.73865-0.32933 0.73865-1.2693c0-0.93998-0.14-1.2693-0.73865-1.2693zm0 3.3386c-1.1973 0-1.6653-0.59999-1.6653-2.0506 0-0.85864 0.22799-1.4586 0.63865-1.72-0.29999-0.25866-0.47999-0.78932-0.47999-1.4586 0-1.2906 0.41999-1.8706 1.5066-1.8706s1.5066 0.57998 1.5066 1.8706c0 0.66931-0.18933 1.2-0.48932 1.4586 0.40932 0.26132 0.64932 0.86131 0.64932 1.72 0 1.4506-0.46932 2.0506-1.6666 2.0506" style="fill:#8b5ba5;stroke-width:1.3333"/>
	<path d="m10.197 162.76c-0.62932 0-0.75865 0.43999-0.75865 2.2506 0 1.8093 0.12933 2.2493 0.75865 2.2493 0.63732 0 0.75732-0.43999 0.75732-2.2493 0-1.8106-0.12-2.2506-0.75732-2.2506zm0 5.3305c-1.2173 0-1.6973-0.74932-1.6973-3.0799 0-2.3293 0.47999-3.0799 1.6973-3.0799 1.2173 0 1.7053 0.75065 1.7053 3.0799 0 2.3306-0.48799 3.0799-1.7053 3.0799" style="fill:#8b5ba5;stroke-width:1.3333"/>
	<path d="m6.1489 138.1c-0.49865 0-0.63865 0.28933-0.63865 1.0906 0 0.80931 0.14 1.1093 0.63865 1.1093s0.63865-0.3 0.63865-1.1093c0-0.80131-0.14-1.0906-0.63865-1.0906zm0 2.9706c-0.59732 0-0.73731 0.32933-0.73731 1.2693s0.14 1.2693 0.73731 1.2693c0.59865 0 0.73865-0.32933 0.73865-1.2693 0-0.93998-0.14-1.2693-0.73865-1.2693zm0 3.3399c-1.1973 0-1.6653-0.59998-1.6653-2.0506 0-0.85998 0.22933-1.46 0.63865-1.72-0.29999-0.26-0.47999-0.78932-0.47999-1.46 0-1.2906 0.41999-1.8693 1.5066-1.8693 1.088 0 1.5066 0.57865 1.5066 1.8693 0 0.67065-0.18933 1.2-0.48932 1.46 0.40932 0.25999 0.64932 0.85998 0.64932 1.72 0 1.4506-0.46932 2.0506-1.6666 2.0506" style="fill:#8b5ba5;stroke-width:1.3333"/>
	<path d="m10.229 145.35c-0.50799 0-1.0066-0.17066-1.256-0.29066v-0.9693c0.34932 0.20932 0.78798 0.37999 1.1773 0.37999 0.54799 0 0.85731-0.20933 0.85731-1.22 0-0.98931-0.29866-1.2306-0.81731-1.2306h-1.1973v-3.6692h2.7933v0.88931h-1.916v1.94h0.49865c0.91864 0 1.5666 0.36933 1.5666 2.06 0 1.6893-0.65865 2.1106-1.7066 2.1106" style="fill:#8b5ba5;stroke-width:1.3333"/>
	<path d="m6.2915 118.18 0.16933-0.12c0-2.06-0.10933-2.6999-0.72798-2.6999-0.51865 0-0.67865 0.36932-0.67865 1.5293 0 1.16 0.14933 1.5213 0.65865 1.5213 0.21999 0 0.39866-0.1 0.57865-0.23066zm-0.55865-3.6199c1.3066 0 1.656 0.85998 1.656 3.3292 0 2.1506-0.049332 3.7706-1.716 3.7706-0.39866 0-0.96798-0.17066-1.2666-0.31999v-0.95998c0.40932 0.25067 0.80798 0.4 1.1866 0.4 0.56932 0 0.84931-0.40933 0.86798-1.9-0.18933 0.15067-0.51865 0.33999-0.81731 0.33999-1.048 0-1.5266-0.67998-1.5266-2.3306 0-1.6893 0.48932-2.3293 1.616-2.3293" style="fill:#8b5ba5;stroke-width:1.3333"/>
	<path d="m10.302 115.39c-0.62798 0-0.75865 0.43999-0.75865 2.2506 0 1.8093 0.13066 2.2493 0.75865 2.2493 0.63865 0 0.75865-0.43999 0.75865-2.2493 0-1.8106-0.12-2.2506-0.75865-2.2506zm0 5.3305c-1.2173 0-1.696-0.74932-1.696-3.0799 0-2.3293 0.47865-3.0799 1.696-3.0799 1.2173 0 1.7053 0.75065 1.7053 3.0799 0 2.3306-0.48799 3.0799-1.7053 3.0799" style="fill:#8b5ba5;stroke-width:1.3333"/>
	<path d="m6.7235 94.498 0.16933-0.11866c0-2.0599-0.10933-2.6999-0.72798-2.6999-0.51865 0-0.67865 0.36932-0.67865 1.5293s0.15066 1.52 0.65865 1.52c0.21999 0 0.39999-0.1 0.57865-0.23066zm-0.55865-3.6186c1.3066 0 1.656 0.85998 1.656 3.3292 0 2.1493-0.049332 3.7692-1.716 3.7692-0.39866 0-0.96798-0.16933-1.2666-0.31866v-0.96131c0.40932 0.25066 0.80798 0.40132 1.188 0.40132 0.56799 0 0.84665-0.41066 0.86664-1.9013-0.18933 0.15066-0.51865 0.34132-0.81731 0.34132-1.048 0-1.5266-0.68132-1.5266-2.3306 0-1.6893 0.48932-2.3293 1.616-2.3293" style="fill:#8b5ba5;stroke-width:1.3333"/>
	<path d="m10.335 97.964c-0.50932 0-1.008-0.16933-1.2573-0.28932v-0.97065c0.34932 0.21066 0.78798 0.38132 1.1773 0.38132 0.54799 0 0.85731-0.21066 0.85731-1.22 0-0.99064-0.29866-1.2306-0.81731-1.2306h-1.1973v-3.6706h2.7933v0.89064h-1.916v1.94h0.49865c0.91864 0 1.5666 0.37066 1.5666 2.0599 0 1.6893-0.65732 2.1093-1.7053 2.1093" style="fill:#8b5ba5;stroke-width:1.3333"/>
	<path d="m-0.0016616 73.245v-0.87998h0.80798v-3.9492l-0.80798 0.36932v-0.92931l1.0866-0.57065h0.66932v5.0799h0.79865v0.87998h-2.5546" style="fill:#8b5ba5;stroke-width:1.3333"/>
	<path d="m5.3355 68.018c-0.62798 0-0.75731 0.43999-0.75731 2.2493 0 1.8106 0.12933 2.2506 0.75731 2.2506 0.63865 0 0.75865-0.43999 0.75865-2.2506 0-1.8093-0.12-2.2493-0.75865-2.2493zm0 5.3305c-1.2173 0-1.696-0.75065-1.696-3.0813 0-2.3293 0.47865-3.0799 1.696-3.0799s1.7066 0.75065 1.7066 3.0799c0 2.3306-0.48932 3.0813-1.7066 3.0813" style="fill:#8b5ba5;stroke-width:1.3333"/>
	<path d="m9.8248 68.018c-0.62798 0-0.75731 0.43999-0.75731 2.2493 0 1.8106 0.12933 2.2506 0.75731 2.2506 0.63865 0 0.75865-0.43999 0.75865-2.2506 0-1.8093-0.12-2.2493-0.75865-2.2493zm0 5.3305c-1.216 0-1.696-0.75065-1.696-3.0813 0-2.3293 0.47999-3.0799 1.696-3.0799 1.2173 0 1.7066 0.75065 1.7066 3.0799 0 2.3306-0.48932 3.0813-1.7066 3.0813" style="fill:#8b5ba5;stroke-width:1.3333"/>
	<path d="m0.43033 49.552v-0.87998h0.80798v-3.9492l-0.80798 0.36932v-0.92931l1.0866-0.57065h0.66932v5.0799h0.79731v0.87998h-2.5533" style="fill:#8b5ba5;stroke-width:1.3333"/>
	<path d="m5.7675 44.326c-0.62932 0-0.75865 0.43866-0.75865 2.2493s0.12933 2.2506 0.75865 2.2506c0.63865 0 0.75865-0.43999 0.75865-2.2506s-0.12-2.2493-0.75865-2.2493zm0 5.3292c-1.2173 0-1.696-0.74931-1.696-3.0799 0-2.3293 0.47865-3.0799 1.696-3.0799s1.7053 0.75065 1.7053 3.0799c0 2.3306-0.48799 3.0799-1.7053 3.0799" style="fill:#8b5ba5;stroke-width:1.3333"/>
	<path d="m9.8581 50.592c-0.50932 0-1.008-0.16933-1.2573-0.28933v-0.97064c0.34932 0.21066 0.78798 0.37999 1.1773 0.37999 0.54799 0 0.85731-0.20933 0.85731-1.22 0-0.98931-0.29866-1.2293-0.81731-1.2293h-1.1973v-3.6706h2.7933v0.89064h-1.916v1.94h0.49999c0.91731 0 1.5653 0.36932 1.5653 2.0599 0 1.6893-0.65865 2.1093-1.7053 2.1093" style="fill:#8b5ba5;stroke-width:1.3333"/>
	<path d="m1.0876 25.859v-0.87998h0.80798v-3.9506l-0.80798 0.36932v-0.92931l1.088-0.57065h0.66798v5.0812h0.79865v0.87998h-2.5546" style="fill:#8b5ba5;stroke-width:1.3333"/>
	<path d="m4.7289 25.859v-0.87998h0.80931v-3.9506l-0.80931 0.36932v-0.92931l1.088-0.57065h0.66932v5.0812h0.79731v0.87998h-2.5546" style="fill:#8b5ba5;stroke-width:1.3333"/>
	<path d="m10.067 20.633c-0.62932 0-0.75865 0.43999-0.75865 2.2506 0 1.8093 0.12933 2.2493 0.75865 2.2493 0.63865 0 0.75865-0.43999 0.75865-2.2493 0-1.8106-0.12-2.2506-0.75865-2.2506zm0 5.3305c-1.2173 0-1.696-0.75065-1.696-3.0799 0-2.3306 0.47865-3.0799 1.696-3.0799 1.2173 0 1.7053 0.74932 1.7053 3.0799 0 2.3293-0.48799 3.0799-1.7053 3.0799" style="fill:#8b5ba5;stroke-width:1.3333"/>
	<path d="m18.475 413.38-1.6106-4.1372c-0.128-0.32132-0.53332-1.7293-0.53332-1.7293s0.18133 1.5253 0.18133 1.888v3.9786h-0.89598v-7.3585h0.83198l1.6106 4.1372c0.18133 0.45866 0.53332 1.728 0.53332 1.728s-0.18133-1.344-0.18133-1.888v-3.9772h0.89598v7.3585h-0.83198" style="fill:#61bb46;stroke-width:1.3333"/>
	<path d="m54.758 414.83c-0.57465 0-1.1413-0.16-1.4506-0.28799v-1.0346c0.38532 0.21332 0.94931 0.38399 1.3653 0.38399 0.58665 0 0.97064-0.23466 0.97064-1.28 0-1.0773-0.43599-1.3226-1.056-1.3226h-0.73465v-0.89598h0.72532c0.57599 0 0.92664-0.20266 0.92664-1.12 0-0.90531-0.35066-1.0666-0.84131-1.0666-0.41599 0-0.92798 0.14933-1.3026 0.33065v-1.024c0.26799-0.0947 0.88664-0.25599 1.388-0.25599 1.0453 0 1.7386 0.35199 1.7386 2.016 0 0.81198-0.204 1.3133-0.58665 1.5573 0.46799 0.24533 0.74532 0.79998 0.74532 1.7706 0 1.8133-0.72532 2.2293-1.888 2.2293" style="fill:#61bb46;stroke-width:1.3333"/>
	<path d="m92.647 409.96-0.18133 0.128c0 2.1973 0.11733 2.8813 0.77865 2.8813 0.55465 0 0.72532-0.39599 0.72532-1.6333 0-1.2373-0.16-1.6213-0.70398-1.6213-0.23466 0-0.42666 0.10667-0.61865 0.24533zm0.59732 3.8612c-1.3973 0-1.7706-0.91731-1.7706-3.5519 0-2.2933 0.05333-4.0199 1.8346-4.0199 0.42666 0 1.0346 0.17999 1.3546 0.33999v1.024c-0.43732-0.26666-0.86398-0.42532-1.2693-0.42532-0.60798 0-0.90664 0.43599-0.92798 2.0253 0.20266-0.15999 0.55465-0.36265 0.87464-0.36265 1.12 0 1.632 0.72664 1.632 2.4853 0 1.804-0.52265 2.4853-1.728 2.4853" style="fill:#61bb46;stroke-width:1.3333"/>
	<path d="m131.46 411.12 0.18133-0.12799c0-2.1973-0.11733-2.8799-0.77865-2.8799-0.55465 0-0.72531 0.39465-0.72531 1.632 0 1.2373 0.15999 1.6226 0.70398 1.6226 0.23466 0 0.42666-0.10799 0.61865-0.24666zm-0.59732-3.8612c1.3973 0 1.7706 0.91731 1.7706 3.5532 0 2.2919-0.0533 4.0199-1.8346 4.0199-0.42665 0-1.0346-0.18133-1.3546-0.34132v-1.024c0.43732 0.26666 0.86398 0.42666 1.2693 0.42666 0.60799 0 0.90665-0.43733 0.92798-2.0253-0.20266 0.15867-0.55465 0.36133-0.87465 0.36133-1.12 0-1.632-0.72532-1.632-2.4853 0-1.8026 0.52265-2.4853 1.728-2.4853" style="fill:#61bb46;stroke-width:1.3333"/>
	<path d="m165.07 413.72v-0.93864h0.86398v-4.2132l-0.86398 0.39466v-0.99064l1.1626-0.60799h0.71332v5.4172h0.85331v0.93864h-2.7293" style="fill:#61bb46;stroke-width:1.3333"/>
	<path d="m168.26 413.72v-0.71464c0-0.76799 0.32933-1.3546 1.1506-2.1653 0.90798-0.89598 1.164-1.2373 1.164-1.8346 0-0.54399-0.30933-0.77865-0.81065-0.77865-0.49198 0-0.97064 0.19333-1.504 0.43732v-1.056c0.37199-0.13733 1.108-0.35199 1.5893-0.35199 1.056 0 1.696 0.46932 1.696 1.6853 0 1.036-0.48132 1.6-1.6106 2.6879-0.46933 0.46932-0.67199 0.74665-0.71599 1.152h2.4213v0.93864h-3.3799" style="fill:#61bb46;stroke-width:1.3333"/>
	<path d="m202.88 413.72v-0.93864h0.86398v-4.2132l-0.86398 0.39466v-0.99064l1.1626-0.60799h0.71465v5.4172h0.85331v0.93864h-2.7306" style="fill:#61bb46;stroke-width:1.3333"/>
	<path d="m207.47 414.83c-0.54398 0-1.0773-0.18133-1.344-0.30933v-1.0346c0.37332 0.224 0.84264 0.40533 1.2586 0.40533 0.58665 0 0.91731-0.224 0.91731-1.3013 0-1.056-0.31999-1.312-0.87464-1.312h-1.28v-3.9132h2.9866v0.94798h-2.048v2.0693h0.53332c0.98131 0 1.6746 0.39466 1.6746 2.1973s-0.70398 2.2506-1.824 2.2506" style="fill:#61bb46;stroke-width:1.3333"/>
	<path d="m240.7 413.72v-0.93864h0.86398v-4.2132l-0.86398 0.39466v-0.99064l1.1626-0.60799h0.71465v5.4172h0.85331v0.93864h-2.7306" style="fill:#61bb46;stroke-width:1.3333"/>
	<path d="m245.66 407.1c-0.53332 0-0.68265 0.30933-0.68265 1.1626 0 0.86398 0.14933 1.184 0.68265 1.184s0.68265-0.31999 0.68265-1.184c0-0.85331-0.14933-1.1626-0.68265-1.1626zm0 3.1679c-0.63999 0-0.78932 0.35199-0.78932 1.3546 0 1.0026 0.14933 1.356 0.78932 1.356 0.63998 0 0.78931-0.35332 0.78931-1.356 0-1.0026-0.14933-1.3546-0.78931-1.3546zm0 3.5626c-1.28 0-1.7813-0.63999-1.7813-2.1853 0-0.91864 0.24532-1.5573 0.68265-1.8346-0.32-0.27733-0.51199-0.84398-0.51199-1.5573 0-1.3773 0.44799-1.9946 1.6106-1.9946 1.1626 0 1.6106 0.61732 1.6106 1.9946 0 0.71332-0.20266 1.28-0.52265 1.5573 0.43865 0.27733 0.69331 0.91598 0.69331 1.8346 0 1.5453-0.50132 2.1853-1.7813 2.1853" style="fill:#61bb46;stroke-width:1.3333"/>
	<path d="m278.51 413.72v-0.71464c0-0.76799 0.33066-1.3546 1.1506-2.1653 0.90797-0.89598 1.1626-1.2373 1.1626-1.8346 0-0.54399-0.30799-0.77865-0.80931-0.77865-0.49065 0-0.97198 0.19333-1.504 0.43732v-1.056c0.37199-0.13733 1.1093-0.35199 1.588-0.35199 1.056 0 1.6973 0.46932 1.6973 1.6853 0 1.036-0.48132 1.6-1.6106 2.6879-0.47065 0.46932-0.67198 0.74665-0.71465 1.152h2.4213v0.93864h-3.3812" style="fill:#61bb46;stroke-width:1.3333"/>
	<path d="m282.24 413.72v-0.93864h0.86264v-4.2132l-0.86264 0.39466v-0.99064l1.1626-0.60799h0.71464v5.4172h0.85198v0.93864h-2.7293" style="fill:#61bb46;stroke-width:1.3333"/>
	<path d="m316.32 413.72v-0.71464c0-0.76799 0.33065-1.3546 1.1506-2.1653 0.90798-0.89598 1.1626-1.2373 1.1626-1.8346 0-0.54399-0.30799-0.77865-0.80931-0.77865-0.49066 0-0.97064 0.19333-1.504 0.43732v-1.056c0.37199-0.13733 1.1093-0.35199 1.5893-0.35199 1.0546 0 1.696 0.46932 1.696 1.6853 0 1.036-0.47999 1.6-1.6106 2.6879-0.47065 0.46932-0.67198 0.74665-0.71465 1.152h2.4213v0.93864h-3.3812" style="fill:#61bb46;stroke-width:1.3333"/>
	<path d="m321.65 409.77-1.152 2.1866h1.5146v-2.1c0-0.40666 0.0533-0.98264 0.0533-0.98264s-0.224 0.53332-0.41599 0.89598zm1.344 3.0079v1.9413h-0.98131v-1.9413h-2.4639v-0.59732l2.5173-4.8639h0.92797v4.6399h0.59732v0.82131h-0.59732" style="fill:#61bb46;stroke-width:1.3333"/>
	<path d="m354.13 413.72v-0.71464c0-0.76799 0.33066-1.3546 1.152-2.1653 0.90664-0.89598 1.1626-1.2373 1.1626-1.8346 0-0.54399-0.30932-0.77865-0.81064-0.77865-0.49066 0-0.97065 0.19333-1.504 0.43732v-1.056c0.37333-0.13733 1.1093-0.35199 1.5893-0.35199 1.056 0 1.696 0.46932 1.696 1.6853 0 1.036-0.47999 1.6-1.6106 2.6879-0.46932 0.46932-0.67198 0.74665-0.71465 1.152h2.4226v0.93864h-3.3826" style="fill:#61bb46;stroke-width:1.3333"/>
	<path d="m359.92 411.16c-0.44799 0.74665-0.62932 1.1733-0.62932 2.4746v1.088h-0.98131v-1.088c0-1.7066 0.40532-2.4106 0.81065-3.0399 0.42665-0.66132 0.67198-1.088 0.68265-2.068v-0.21466h-2.3453v-0.94798h3.3266v0.72532c0 1.7706-0.43732 2.3986-0.86397 3.0706" style="fill:#61bb46;stroke-width:1.3333"/>
	<path d="m393.15 414.83c-0.57465 0-1.14-0.16-1.4506-0.28799v-1.0346c0.38399 0.21332 0.94931 0.38399 1.3666 0.38399 0.58532 0 0.96931-0.23466 0.96931-1.28 0-1.0773-0.43732-1.3226-1.056-1.3226h-0.73465v-0.89598h0.72532c0.57465 0 0.92797-0.20266 0.92797-1.12 0-0.90531-0.35332-1.0666-0.84264-1.0666-0.41733 0-0.92798 0.14933-1.3026 0.33065v-1.024c0.268-0.0947 0.88531-0.25599 1.3866-0.25599 1.0466 0 1.7386 0.35199 1.7386 2.016 0 0.81198-0.20133 1.3133-0.58532 1.5573 0.46799 0.24533 0.74531 0.79998 0.74531 1.7706 0 1.8133-0.72531 2.2293-1.888 2.2293" style="fill:#61bb46;stroke-width:1.3333"/>
	<path d="m397.31 408.14c-0.67199 0-0.81065 0.46799-0.81065 2.3986 0 1.932 0.13866 2.3999 0.81065 2.3999 0.68265 0 0.81198-0.46799 0.81198-2.3999 0-1.9306-0.12933-2.3986-0.81198-2.3986zm0 5.6839c-1.3 0-1.8133-0.79865-1.8133-3.2852 0-2.4853 0.51332-3.2852 1.8133-3.2852 1.3013 0 1.8253 0.79998 1.8253 3.2852 0 2.4866-0.52399 3.2852-1.8253 3.2852" style="fill:#61bb46;stroke-width:1.3333"/>
	<path d="m430.96 414.83c-0.57599 0-1.1413-0.16-1.4506-0.28799v-1.0346c0.38399 0.21332 0.94931 0.38399 1.3653 0.38399 0.58665 0 0.97064-0.23466 0.97064-1.28 0-1.0773-0.43732-1.3226-1.056-1.3226h-0.73598v-0.89598h0.72531c0.57465 0 0.92798-0.20266 0.92798-1.12 0-0.90531-0.35333-1.0666-0.84265-1.0666-0.41599 0-0.92797 0.14933-1.3013 0.33065v-1.024c0.26666-0.0947 0.88531-0.25599 1.3866-0.25599 1.0453 0 1.7373 0.35199 1.7373 2.016 0 0.81198-0.20132 1.3133-0.58532 1.5573 0.46933 0.24533 0.74665 0.79998 0.74665 1.7706 0 1.8133-0.72531 2.2293-1.888 2.2293" style="fill:#61bb46;stroke-width:1.3333"/>
	<path d="m434.49 414.83c-0.57731 0-1.1413-0.16-1.4506-0.28799v-1.0346c0.38399 0.21332 0.94931 0.38399 1.3653 0.38399 0.58666 0 0.97065-0.23466 0.97065-1.28 0-1.0773-0.43733-1.3226-1.056-1.3226h-0.73731v-0.89598h0.72531c0.57732 0 0.92931-0.20266 0.92931-1.12 0-0.90531-0.35199-1.0666-0.84264-1.0666-0.41599 0-0.92931 0.14933-1.3013 0.33065v-1.024c0.26532-0.0947 0.88531-0.25599 1.3866-0.25599 1.044 0 1.7386 0.35199 1.7386 2.016 0 0.81198-0.20266 1.3133-0.58798 1.5573 0.47065 0.24533 0.74798 0.79998 0.74798 1.7706 0 1.8133-0.72532 2.2293-1.888 2.2293" style="fill:#61bb46;stroke-width:1.3333"/>
	<path d="m468.77 414.83c-0.57599 0-1.1413-0.16-1.4506-0.28799v-1.0346c0.38399 0.21332 0.94931 0.38399 1.3653 0.38399 0.58665 0 0.97064-0.23466 0.97064-1.28 0-1.0773-0.43732-1.3226-1.056-1.3226h-0.73599v-0.89598h0.72532c0.57598 0 0.92798-0.20266 0.92798-1.12 0-0.90531-0.352-1.0666-0.84132-1.0666-0.41732 0-0.92931 0.14933-1.3026 0.33065v-1.024c0.26666-0.0947 0.88531-0.25599 1.3866-0.25599 1.0453 0 1.7386 0.35199 1.7386 2.016 0 0.81198-0.20266 1.3133-0.58665 1.5573 0.46932 0.24533 0.74665 0.79998 0.74665 1.7706 0 1.8133-0.72531 2.2293-1.888 2.2293" style="fill:#61bb46;stroke-width:1.3333"/>
	<path d="m472.37 409.96-0.18133 0.128c0 2.1973 0.11733 2.8813 0.77865 2.8813 0.55465 0 0.72531-0.39599 0.72531-1.6333 0-1.2373-0.15999-1.6213-0.70398-1.6213-0.23466 0-0.42532 0.10667-0.61865 0.24533zm0.59732 3.8612c-1.3973 0-1.7706-0.91731-1.7706-3.5519 0-2.2933 0.0533-4.0199 1.8346-4.0199 0.42666 0 1.0346 0.17999 1.3546 0.33999v1.024c-0.43732-0.26666-0.86398-0.42532-1.268-0.42532-0.60799 0-0.90798 0.43599-0.92931 2.0253 0.20266-0.15999 0.55465-0.36265 0.87598-0.36265 1.1186 0 1.6306 0.72664 1.6306 2.4853 0 1.804-0.52132 2.4853-1.728 2.4853" style="fill:#61bb46;stroke-width:1.3333"/>
	<path d="m479.73 408.82c0.33066-0.34133 0.69332-0.54399 1.0666-0.54399 0.83198 0 1.0346 0.61865 1.0346 1.5893v3.8506h-0.99197v-3.9572c0-0.42666-0.11733-0.58665-0.34133-0.58665-0.17066 0-0.34132 0.10666-0.63998 0.44799 0 0-0.23466 0.25599-0.23466 0.26666v3.8292h-0.99198v-3.9572c0-0.42666-0.11733-0.58665-0.34132-0.58665-0.17066 0-0.33066 0.10666-0.63998 0.44799l-0.23466 0.25599v3.8399h-0.99198v-3.8399c0-0.53332-0.032-1.152-0.10666-1.4933h0.70398c0.0853 0.10667 0.19199 0.364 0.27732 0.67199l0.224-0.23466c0.33066-0.34133 0.69332-0.54399 1.0666-0.54399 0.55465 0 0.83198 0.27733 0.94931 0.74798l0.19199-0.20399" style="fill:#61bb46;stroke-width:1.3333"/>
	<path d="m483.98 409.07c-0.59732 0-0.74665 0.36266-0.74665 1.984 0 1.6213 0.14933 1.984 0.74665 1.984 0.58665 0 0.73598-0.36266 0.73598-1.984 0-1.6213-0.14933-1.984-0.73598-1.984zm0 4.7572c-1.2373 0-1.728-0.70398-1.728-2.7733 0-2.0693 0.49066-2.7733 1.728-2.7733 1.2266 0 1.7173 0.70398 1.7173 2.7733 0 2.0693-0.49065 2.7733-1.7173 2.7733" style="fill:#61bb46;stroke-width:1.3333"/>
	<path d="m487.45 406.97c0 0.34132-0.27733 0.60665-0.61865 0.60665s-0.61865-0.26533-0.61865-0.60665c0-0.34266 0.27733-0.61999 0.61865-0.61999s0.61865 0.27733 0.61865 0.61999zm-1.1093 6.7505v-4.5212h-0.56532v-0.81198h1.5573v5.3332h-0.99197" style="fill:#61bb46;stroke-width:1.3333"/>
	<path d="m489.2 413.83c-0.57598 0-1.0026-0.12666-1.312-0.244v-0.9613c0.44799 0.22399 0.87464 0.35332 1.3226 0.35332 0.39466 0 0.73598-0.16133 0.73598-0.80131 0-0.61865-0.26666-0.74665-0.74665-0.74665-0.79998 0-1.4826-0.23333-1.4826-1.632 0-1.1506 0.61866-1.5146 1.5573-1.5146 0.38399 0 0.95997 0.14 1.28 0.26666v0.94931c-0.45866-0.25599-0.87465-0.37332-1.3013-0.37332-0.36266 0-0.63999 0.12933-0.63999 0.67198 0 0.56665 0.21333 0.69332 0.61865 0.69332 0.77865 0 1.6106 0.23466 1.6106 1.6853 0 1.2493-0.71465 1.6533-1.6426 1.6533" style="fill:#61bb46;stroke-width:1.3333"/>
	<path d="m162.12 425.39v-0.93864h0.86398v-4.2132l-0.86398 0.39466v-0.99065l1.1626-0.60798h0.71465v5.4172h0.85198v0.93864h-2.7293" style="fill:#61bb46;stroke-width:1.3333"/>
	<path d="m168.54 422.96h-0.49065c-0.65198 0-0.85465 0.42665-0.85465 0.99197 0 0.52266 0.18267 0.73732 0.46933 0.73732 0.20266 0 0.42665-0.11867 0.66265-0.37466l0.21332-0.21333zm0.39466 2.4213c-0.0973-0.128-0.19199-0.31999-0.26799-0.56532l-0.16 0.17066c-0.36266 0.41599-0.76665 0.49066-1.044 0.49066-0.75865 0-1.1946-0.53332-1.1946-1.5253 0-1.0973 0.60799-1.7813 1.7053-1.7813h0.56665v-0.63998c0-0.53332-0.26666-0.72398-0.67331-0.72398-0.48932 0-0.92665 0.17999-1.3746 0.46799v-0.99198c0.33999-0.13866 0.91731-0.34132 1.46-0.34132 1.0453 0 1.5786 0.45865 1.5786 1.7066v2.2399c0 0.53332 0.032 1.1733 0.10666 1.4933h-0.70265" style="fill:#61bb46;stroke-width:1.3333"/>
	<path d="m172.48 425.39v-3.9572c0-0.42666-0.11866-0.58666-0.34266-0.58666-0.17066 0-0.34132 0.10667-0.63998 0.44799l-0.38399 0.42666v3.6692h-0.99064v-3.8399c0-0.53332-0.032-1.152-0.10667-1.4933h0.70265c0.0973 0.11733 0.224 0.43732 0.30933 0.78931l0.34266-0.35199c0.33065-0.34132 0.69331-0.54398 1.0653-0.54398 0.83198 0 1.0346 0.61865 1.0346 1.5893v3.8506h-0.99064" style="fill:#61bb46;stroke-width:1.3333"/>
	<path d="m312.25 425.39v-0.71465c0-0.76798 0.33066-1.3546 1.152-2.1653 0.90665-0.89598 1.1626-1.2373 1.1626-1.8346 0-0.54399-0.30933-0.77865-0.81065-0.77865-0.49065 0-0.97064 0.19333-1.504 0.43733v-1.056c0.37332-0.13733 1.1093-0.35199 1.5893-0.35199 1.056 0 1.696 0.46932 1.696 1.6853 0 1.036-0.47999 1.6-1.6106 2.6879-0.46933 0.46932-0.67199 0.74664-0.71465 1.152h2.4199v0.93864h-3.3799" style="fill:#61bb46;stroke-width:1.3333"/>
	<path d="m319.19 422.96h-0.48932c-0.65065 0-0.85331 0.42665-0.85331 0.99197 0 0.52266 0.18133 0.73732 0.46932 0.73732 0.20133 0 0.42532-0.11867 0.66132-0.37466l0.21199-0.21333zm0.39599 2.4213c-0.096-0.128-0.19199-0.31999-0.26666-0.56532l-0.15999 0.17066c-0.364 0.41599-0.76799 0.49066-1.0453 0.49066-0.75865 0-1.1946-0.53332-1.1946-1.5253 0-1.0973 0.60665-1.7813 1.7066-1.7813h0.56398v-0.63998c0-0.53332-0.26533-0.72398-0.67198-0.72398-0.48932 0-0.92665 0.17999-1.3746 0.46799v-0.99198c0.34132-0.13866 0.91731-0.34132 1.4613-0.34132 1.0453 0 1.5786 0.45865 1.5786 1.7066v2.2399c0 0.53332 0.032 1.1733 0.10666 1.4933h-0.70398" style="fill:#61bb46;stroke-width:1.3333"/>
	<path d="m323.13 425.39v-3.9572c0-0.42666-0.11733-0.58666-0.34133-0.58666-0.16932 0-0.33999 0.10667-0.63865 0.44799l-0.38399 0.42666v3.6692h-0.99197v-3.8399c0-0.53332-0.0333-1.152-0.10667-1.4933h0.70399c0.096 0.11733 0.22399 0.43732 0.30799 0.78931l0.34132-0.35199c0.33066-0.34132 0.69465-0.54398 1.068-0.54398 0.83198 0 1.0333 0.61865 1.0333 1.5893v3.8506h-0.99197" style="fill:#61bb46;stroke-width:1.3333"/>
	<path d="m325.83 425.49c-0.57731 0-1.0026-0.12653-1.312-0.24386v-0.96131c0.44665 0.22399 0.87464 0.35332 1.3226 0.35332 0.39466 0 0.73598-0.16132 0.73598-0.80131 0-0.61865-0.26799-0.74665-0.74664-0.74665-0.80132 0-1.4826-0.23332-1.4826-1.632 0-1.1506 0.61731-1.5146 1.5573-1.5146 0.38399 0 0.95864 0.13999 1.28 0.26666v0.94931c-0.45866-0.256-0.87598-0.37333-1.3013-0.37333-0.36266 0-0.63999 0.12933-0.63999 0.67198 0 0.56666 0.21333 0.69332 0.61732 0.69332 0.77865 0 1.6106 0.23466 1.6106 1.6853 0 1.2493-0.71332 1.6532-1.6413 1.6532" style="fill:#61bb46;stroke-width:1.3333"/>
	<path d="m465.8 426.49c-0.57599 0-1.1413-0.16-1.4493-0.288v-1.0346c0.38399 0.21333 0.94798 0.38399 1.364 0.38399 0.58665 0 0.97064-0.23466 0.97064-1.28 0-1.0773-0.43732-1.3226-1.056-1.3226h-0.73465v-0.89598h0.72531c0.57466 0 0.92665-0.20266 0.92665-1.12 0-0.90531-0.35199-1.0666-0.84265-1.0666-0.41465 0-0.92798 0.14933-1.3 0.33066v-1.024c0.26533-0.0947 0.88532-0.25599 1.3866-0.25599 1.044 0 1.7373 0.35199 1.7373 2.016 0 0.81198-0.20267 1.3133-0.58666 1.5573 0.46933 0.24532 0.74665 0.79998 0.74665 1.7706 0 1.8133-0.72531 2.2293-1.888 2.2293" style="fill:#61bb46;stroke-width:1.3333"/>
	<path d="m471.36 422.96h-0.49065c-0.65065 0-0.85198 0.42665-0.85198 0.99197 0 0.52266 0.17999 0.73732 0.46799 0.73732 0.20266 0 0.42665-0.11867 0.66131-0.37466l0.21333-0.21333zm0.39466 2.4213c-0.096-0.128-0.192-0.31999-0.26666-0.56532l-0.16 0.17066c-0.36266 0.41599-0.76798 0.49066-1.0453 0.49066-0.75731 0-1.1946-0.53332-1.1946-1.5253 0-1.0973 0.60798-1.7813 1.708-1.7813h0.56399v-0.63998c0-0.53332-0.26666-0.72398-0.67198-0.72398-0.49066 0-0.92798 0.17999-1.376 0.46799v-0.99198c0.34133-0.13866 0.91731-0.34132 1.4613-0.34132 1.0453 0 1.58 0.45865 1.58 1.7066v2.2399c0 0.53332 0.0307 1.1733 0.10666 1.4933h-0.70531" style="fill:#61bb46;stroke-width:1.3333"/>
	<path d="m475.3 425.39v-3.9572c0-0.42666-0.11733-0.58666-0.34133-0.58666-0.16933 0-0.34132 0.10667-0.63998 0.44799l-0.38399 0.42666v3.6692h-0.99198v-3.8399c0-0.53332-0.032-1.152-0.10666-1.4933h0.70398c0.096 0.11733 0.224 0.43732 0.30933 0.78931l0.34132-0.35199c0.33066-0.34132 0.69332-0.54398 1.0666-0.54398 0.83198 0 1.0346 0.61865 1.0346 1.5893v3.8506h-0.99197" style="fill:#61bb46;stroke-width:1.3333"/>
	<path d="m477.98 425.49c-0.57598 0-1.0026-0.12653-1.3106-0.24386v-0.96131c0.44799 0.22399 0.87331 0.35332 1.3213 0.35332 0.39465 0 0.73731-0.16132 0.73731-0.80131 0-0.61865-0.26799-0.74665-0.74798-0.74665-0.79998 0-1.4826-0.23332-1.4826-1.632 0-1.1506 0.61999-1.5146 1.5573-1.5146 0.38399 0 0.95997 0.13999 1.2813 0.26666v0.94931c-0.45999-0.256-0.87598-0.37333-1.3026-0.37333-0.36132 0-0.63865 0.12933-0.63865 0.67198 0 0.56666 0.212 0.69332 0.61732 0.69332 0.77865 0 1.6106 0.23466 1.6106 1.6853 0 1.2493-0.71465 1.6532-1.6426 1.6532" style="fill:#61bb46;stroke-width:1.3333"/>
	<g transform="translate(0 -395.77)">
		<path d="m4.9969 401.35c-0.91864 0-1.4706-0.31066-1.4706-2.5493 0-2.2613 0.60132-2.5493 1.4706-2.5493 0.41999 0 0.86131 0.13866 1.1813 0.26932v0.94931c-0.36132-0.25066-0.69065-0.37065-1.0106-0.37065-0.45066 0-0.71998 0.17999-0.71998 1.7013 0 1.4786 0.24933 1.7 0.71998 1.7 0.31999 0 0.65998-0.11066 1.0106-0.37999v0.95998c-0.31199 0.13866-0.69065 0.26933-1.1813 0.26933" style="fill:#8b5ba5;stroke-width:1.3333"/>
		<path d="m10.167 396.71c0.30932-0.31999 0.65065-0.51065 0.99998-0.51065 0.77998 0 0.96931 0.57998 0.96931 1.492v3.6092h-0.92931v-3.7119c0-0.39733-0.10933-0.54932-0.31999-0.54932-0.16 0-0.31866 0.10133-0.59998 0.42132 0 0-0.22 0.23866-0.22 0.24933v3.5906h-0.93064v-3.7119c0-0.39733-0.10933-0.54932-0.31999-0.54932-0.15866 0-0.30933 0.10133-0.59865 0.42132l-0.21999 0.23866v3.6012h-0.93064v-3.6012c0-0.49999-0.030666-1.0786-0.098664-1.3986h0.65998c0.078665 0.1 0.17866 0.33999 0.25866 0.62932l0.21066-0.22c0.31066-0.31999 0.65065-0.51065 0.99998-0.51065 0.51999 0 0.77998 0.26133 0.88931 0.70132l0.18-0.19067" style="fill:#8b5ba5;stroke-width:1.3333"/>
	</g>
	<path d="m452.3 72.725h12.57v-8.0385h-12.57z" style="fill:#fff;stroke-width:1.3333"/>
	<path d="m452.4 88.938h12.569v-8.0386h-12.569z" style="fill:#fff;stroke-width:1.3333"/>
	<path d="m452.3 127.35h12.57v-8.0385h-12.57z" style="fill:#fff;stroke-width:1.3333"/>
	<path d="m452.5 142.78h12.57v-8.0385h-12.57z" style="fill:#fff;stroke-width:1.3333"/>
	<path d="m454.49 69.098v0.96931h-0.44265v-0.96931h-0.85198v-0.44132h0.85198v-0.96398h0.44265v0.96398h0.84398v0.44132h-0.84398" style="fill:#8b5ba5;stroke-width:1.3333"/>
	<path d="m456.37 70.685v-0.44266c0-0.47465 0.20533-0.83731 0.71331-1.3386 0.55999-0.55332 0.71865-0.76398 0.71865-1.1346 0-0.33599-0.19199-0.48132-0.50265-0.48132-0.30133 0-0.59865 0.11866-0.92931 0.27066v-0.65332c0.23199-0.08533 0.68531-0.21733 0.98131-0.21733 0.65465 0 1.0506 0.29066 1.0506 1.0426 0 0.63998-0.29733 0.98931-0.99598 1.6613-0.29066 0.29066-0.41599 0.46266-0.44265 0.71198h1.4973v0.58132h-2.0906" style="fill:#8b5ba5;stroke-width:1.3333"/>
	<path d="m462.05 69.418c0-0.50132-0.104-0.90131-0.31333-1.1986-0.20533-0.29866-0.48132-0.44799-0.82531-0.44799-0.29866 0-0.53332 0.10533-0.69998 0.31599-0.16667 0.21066-0.25067 0.50799-0.25067 0.89198 0 0.46799 0.104 0.84931 0.31333 1.144 0.208 0.29333 0.47866 0.43999 0.81465 0.43999 0.31999 0 0.55998-0.09467 0.72131-0.28399 0.15866-0.19066 0.24-0.47732 0.24-0.86131zm-0.076-1.4213c0.24799 0.12533 0.43465 0.28933 0.55732 0.48932 0.12266 0.2 0.18533 0.43866 0.18533 0.71465 0 0.45866-0.16133 0.83465-0.48266 1.124-0.32266 0.29199-0.74398 0.43732-1.2653 0.43732-0.48932 0-0.89331-0.14533-1.208-0.43732-0.31466-0.28933-0.47199-0.65865-0.47199-1.1066 0-0.48665 0.16266-0.87998 0.48799-1.1773 0.32799-0.29733 0.75998-0.44532 1.3013-0.44532 0.10666 0 0.31066 0.0067 0.60399 0.02267 0.29465 0.016 0.53198 0.024 0.71464 0.024 0.17867 0 0.312-0.01467 0.39999-0.04266 0.0893-0.028 0.136-0.07067 0.14133-0.12933h0.148c-8e-3 0.21599-0.052 0.36666-0.13066 0.44932-0.08 0.08266-0.22533 0.12266-0.43999 0.12266-0.0413 0-0.0987-0.0013-0.16666-8e-3 -0.0693-0.0053-0.19467-0.01733-0.37466-0.03733" style="fill:#8b5ba5;stroke-width:1.3333"/>
	<path d="m455.13 84.805v0.96931h-0.44266v-0.96931h-0.85064v-0.44132h0.85064v-0.96398h0.44266v0.96398h0.84398v0.44132h-0.84398" style="fill:#8b5ba5;stroke-width:1.3333"/>
	<path d="m457.02 86.405v-0.58132h0.53466v-2.6039l-0.53466 0.24399v-0.61332l0.71865-0.37599h0.44133v3.3492h0.52798v0.58132h-1.688" style="fill:#8b5ba5;stroke-width:1.3333"/>
	<path d="m462.37 85.138c0-0.50132-0.104-0.89998-0.31199-1.1986-0.20667-0.29866-0.48266-0.44799-0.82532-0.44799-0.29999 0-0.53465 0.10666-0.70131 0.31599-0.16667 0.21066-0.24933 0.50799-0.24933 0.89198 0 0.46799 0.104 0.84931 0.31199 1.144 0.208 0.29333 0.47866 0.43999 0.81465 0.43999 0.32132 0 0.55998-0.09467 0.72131-0.28399 0.15867-0.19066 0.24-0.47732 0.24-0.86131zm-0.076-1.4213c0.24799 0.12533 0.43599 0.28933 0.55732 0.48932 0.12266 0.2 0.18533 0.43866 0.18533 0.71465 0 0.45866-0.16133 0.83465-0.48132 1.124-0.32266 0.29199-0.74532 0.43732-1.2666 0.43732-0.48932 0-0.89198-0.14533-1.208-0.43732-0.31466-0.28933-0.47065-0.65865-0.47065-1.1066 0-0.48665 0.16133-0.87998 0.48665-1.1773 0.32799-0.29733 0.75998-0.44532 1.3026-0.44532 0.10666 0 0.30932 8e-3 0.60398 0.02267 0.29333 0.016 0.53065 0.024 0.71332 0.024 0.17999 0 0.31199-0.01467 0.40132-0.04266 0.088-0.028 0.13466-0.07067 0.14-0.12933h0.14799c-7e-3 0.21599-0.052 0.36666-0.12933 0.44932-0.0813 0.08266-0.22666 0.124-0.43999 0.124-0.0427 0-0.1-0.0027-0.16666-0.0093-0.0707-0.0053-0.19599-0.01733-0.37599-0.03733" style="fill:#8b5ba5;stroke-width:1.3333"/>
	<path d="m453.26 124.06h1.716v-0.52665h-1.716z" style="fill:#8b5ba5;stroke-width:1.3333"/>
	<path d="m456.16 125.6v-0.57865h0.53332v-2.6053l-0.53332 0.24399v-0.61465l0.71865-0.37465h0.43999v3.3506h0.52932v0.57865h-1.688" style="fill:#8b5ba5;stroke-width:1.3333"/>
	<path d="m461.5 124.34c0-0.50132-0.10399-0.90131-0.31332-1.1986-0.20533-0.29866-0.48132-0.44799-0.82532-0.44799-0.29865 0-0.53332 0.10666-0.69998 0.31599s-0.25066 0.50666-0.25066 0.89198c0 0.46932 0.104 0.84931 0.31333 1.144 0.20799 0.29333 0.47865 0.43999 0.81464 0.43999 0.32 0 0.55999-0.0947 0.72132-0.28399 0.15866-0.19066 0.23999-0.47732 0.23999-0.86131zm-0.076-1.4213c0.248 0.12666 0.43466 0.28932 0.55732 0.48932 0.12267 0.19999 0.18533 0.43866 0.18533 0.71465 0 0.45865-0.16133 0.83331-0.48265 1.1253-0.32266 0.29066-0.74398 0.43466-1.2653 0.43466-0.48932 0-0.89331-0.144-1.208-0.43466-0.31466-0.29199-0.47199-0.65998-0.47199-1.1066 0-0.48798 0.16133-0.88131 0.48799-1.1786 0.32799-0.29866 0.75998-0.44666 1.3013-0.44666 0.10666 0 0.31066 8e-3 0.60398 0.024 0.29466 0.0147 0.53199 0.0227 0.71332 0.0227 0.17999 0 0.31332-0.0133 0.40132-0.0413 0.0893-0.0293 0.136-0.0707 0.14133-0.13066h0.148c-8e-3 0.21733-0.052 0.36799-0.13067 0.45066-0.08 0.0827-0.22666 0.12266-0.43999 0.12266-0.0413 0-0.0987-3e-3 -0.16666-8e-3 -0.0693-5e-3 -0.19466-0.0187-0.37466-0.0373" style="fill:#8b5ba5;stroke-width:1.3333"/>
	<path d="m453.84 139.11h1.7v-0.52529h-1.7z" style="fill:#8b5ba5;stroke-width:1.3333"/>
	<path d="m456.7 140.66v-0.44132c0-0.47466 0.20266-0.83865 0.70532-1.3386 0.55732-0.55465 0.71465-0.76531 0.71465-1.1346 0-0.33599-0.19066-0.48132-0.49732-0.48132-0.30133 0-0.59732 0.11867-0.92265 0.27066v-0.65465c0.22933-0.084 0.67999-0.21599 0.97465-0.21599 0.64798 0 1.04 0.28932 1.04 1.0426 0 0.63865-0.29466 0.98931-0.98798 1.6613-0.28666 0.28933-0.41199 0.46132-0.43732 0.71198h1.484v0.57999h-2.0733" style="fill:#8b5ba5;stroke-width:1.3333"/>
	<path d="m462.37 139.39c0-0.50265-0.10267-0.90131-0.31066-1.2-0.20933-0.29732-0.48399-0.44665-0.82531-0.44665-0.3 0-0.53466 0.10533-0.70132 0.31599-0.168 0.20933-0.25066 0.50665-0.25066 0.89064 0 0.46933 0.104 0.84932 0.31199 1.144 0.20933 0.29332 0.47999 0.44132 0.81465 0.44132 0.32266 0 0.56132-0.096 0.72131-0.28533 0.16-0.19066 0.24-0.47732 0.24-0.85998zm-0.0747-1.4213c0.248 0.12533 0.43466 0.28932 0.55599 0.48932 0.124 0.19999 0.18533 0.43732 0.18533 0.71331 0 0.45999-0.16 0.83465-0.48266 1.1253-0.31999 0.29199-0.74264 0.43599-1.264 0.43599-0.49066 0-0.89198-0.144-1.208-0.43599-0.31466-0.29066-0.47199-0.65865-0.47199-1.1066 0-0.48666 0.16266-0.87998 0.48798-1.1773 0.32533-0.29866 0.75999-0.44665 1.3013-0.44665 0.10799 0 0.30932 8e-3 0.60398 0.024 0.29333 0.0147 0.53199 0.0227 0.71465 0.0227 0.17866 0 0.31199-0.0147 0.39999-0.0427 0.0867-0.028 0.13466-0.0707 0.14133-0.12933h0.14666c-5e-3 0.21733-0.0507 0.36666-0.13066 0.44932-0.0813 0.084-0.22666 0.124-0.43732 0.124-0.0453 0-0.1-3e-3 -0.168-9e-3 -0.0693-5e-3 -0.19466-0.0173-0.37466-0.036" style="fill:#8b5ba5;stroke-width:1.3333"/>
	<g transform="matrix(1.4617 0 0 -1.4617 -49.686 37.825)" clip-path="url(#fa)">
		<g clip-path="url(#fb)">
			<text transform="matrix(1,0,0,-1,54.333,13.848)" style="fill:#231f20;font-family:Bliss;font-size:7px;font-weight:300">
				<tspan x="0 2.9784999 4.921 8.0318003 10.8696 13.9874 16.489201 18.305 21.4228 23.7076 26.818399 30.1602 31.632999 33.133801 35.635601 37.451401 40.562199 42.377998 45.726799 48.837601 51.024399 53.3092 54.810001 56.8918 58.7076 62.0914 65.209198 67.710999 69.526802 72.910599 76.371399 79.797203 83.223 86.340797 89.458603 91.960403 93.776199 97.160004 100.2778 102.0936 103.5664 105.1232 108.241 110.5258 113.9446 117.3284 120.4462 122.262 124.7638 127.8816 131.3074 134.7262 137.84399 141.26981 143.5546 145.0554 148.1732 149.646 151.1188 154.2366 156.0524 158.0502 159.992 163.1028 166.52859 169.36639 172.4772 173.978 176.4798 179.5976 181.41341 184.7972 187.91499 189.7308 191.2036 194.31441 196.1302 198.968 200.9805 204.4413 205.94209 208.44389 210.94569 214.0565 217.4823 220.3201 223.4379 225.25369 229.2115 230.8033 233.9561 236.38789 237.97971 242.8685 246.1053 249.2581 252.84489 258.27969 261.12799 263.18881 268.6236 271.4726 274.70941 277.82721 283.31799 286.66681 289.78461 0 3.5139999 6.6248002 8.6372995 10.1381 13.2489 15.5337 17.0345 20.4953 23.921101 26.422899 28.238701 31.356501 34.782299 36.598099 39.7159 42.553699 45.664501 47.850601 50.135399 52.637199 55.069 57.353802 60.583599 63.9324 67.050201 69.552002 71.367798 73.428596" y="0 0 0 0 0 0 0 0 0 0 0 0 0 0 0 0 0 0 0 0 0 0 0 0 0 0 0 0 0 0 0 0 0 0 0 0 0 0 0 0 0 0 0 0 0 0 0 0 0 0 0 0 0 0 0 0 0 0 0 0 0 0 0 0 0 0 0 0 0 0 0 0 0 0 0 0 0 0 0 0 0 0 0 0 0 0 0 0 0 0 0 0 0 0 0 0 0 0 0 0 0 0 0 0 0 0 0 8.0003004" style="font-family:Arial;font-weight:normal">Tracés établis à partir des données de l’étude séquentielle française de la croissance CIE-INSERM.(M.Sempé)Variations en écarts-types (</tspan>
			</text>
			<text transform="matrix(1,0,0,-1,129.59,5.8482)" style="fill:#231f20;font-family:Symbol;font-size:8px">
				<tspan x="0" y="0">σ</tspan>
			</text>
			<text transform="matrix(1,0,0,-1,136.23,5.8482)" style="fill:#231f20;font-family:Bliss;font-size:7px;font-weight:300">
				<tspan x="0 2.0608001 3.8766 5.7063999 9.2021999" y="0" style="font-family:Arial;font-weight:normal">) [1</tspan>
			</text>
			<text transform="matrix(1,0,0,-1,147.25,5.8482)" style="fill:#231f20;font-family:Symbol;font-size:8px">
				<tspan x="0" y="0">σ</tspan>
			</text>
			<text transform="matrix(1,0,0,-1,153.89,5.8482)" style="fill:#231f20;font-family:Bliss;font-size:7px;font-weight:300">
				<tspan x="0 4.2735 6.0893002 9.5858002 11.4016 15.7171 18.954599 20.785101 108.1052 109.921 113.2705 116.732 118.2335 121.618" y="0" style="font-family:Arial;font-weight:normal">= 1 DS]</tspan>
			</text>
		</g>
	</g>
</svg>
