<svg width="489.23" height="664.54" version="1.1" viewBox="0 0 489.22777 664.53187" xmlns="http://www.w3.org/2000/svg">
	<defs>
		<clipPath id="fb">
			<path d="m-0.097992 595.14h425.2v-595.28h-425.2z"/>
		</clipPath>
		<clipPath id="fa">
			<path d="m0.030014 595.26h425.22v-595.26h-425.22z"/>
		</clipPath>
	</defs>
	<path d="m18.921 650.39h453.87v-650.06h-453.87z" style="fill:#fff;stroke-width:1.3333"/>
	<path d="m471.64 362.79-53.013 1.7906-26.758 4.4786-26.507 11.644-26.255 19.105-53.265 59.115-26.509 23.582-26.759 20.005-26.002 17.316-53.771 28.363-79.521 31.046-26.27 10.206-28.083 12.116v16.476l26.759-8.6558 53.848-13.424 53.015-11.94 53.519-14.928 26.759-7.7625 52.256-20.004 27.517-14.928 26.507-17.913 27.011-16.122 26.253-13.132 26.507-8.3638 52.511-1.4893 0.25199-106.58" style="fill:#fff;stroke-width:1.3333"/>
	<path d="m178.47 395.73c2.4239-2.6213 4.4439-4.8879 4.4439-4.8879l39.554-33.999 39.556-30.889s16-14.222 21.999-18.666l17.777-16c14-11.556 23.999-26.443 23.999-26.443l10.221-11.334s16.221-20.221 40.666-30.443l12-4.4439c23.11-9.7784 83.763-10.889 83.763-10.889v-97.554s-74.874 1.7786-99.318 15.333c-48.443 22.889-63.998 50.221-63.998 50.221s-20.666 33.334-58.665 69.777l-63.777 61.109-2.8893 2.8893c-4.1612 4.6386-9.7851 10.868-9.7851 10.868-3.5479 3.7212-8.2198 8.9998-8.2198 8.9998-2.7706 2.6826-5.7719 6.1318-5.7719 6.1318l-25.777 26.445c-4.1986 4.4759-8.2225 8.6664-8.2225 8.6664l-40.666 48.22c-47.999 57.332-66.442 111.78-66.442 111.78v43.332s18.666-39.778 51.999-78.665c0 0 27.11-31.333 65.776-64.444l41.778-35.111" style="fill:#fff;stroke-width:1.3333"/>
	<path d="m19.172 607.06h453.54" style="fill:none;stroke-width:.66665;stroke:#a9c0a6"/>
	<path d="m19.229 563.72h453.42m-453.42-43.338h453.42" style="fill:none;stroke-width:.66665;stroke:#a9c0a6"/>
	<path d="m19.172 477.05h453.54m-453.54-43.338h453.54m-453.54-43.338h453.54m-453.54-43.338h453.54m-453.42-43.338h453.31" style="fill:none;stroke-width:.66665;stroke:#a9c0a6"/>
	<path d="m19.224 260.36h453.43m-453.43-43.338h453.43m-453.43-43.336h453.43m-453.43-43.338h453.43" style="fill:none;stroke-width:.66665;stroke:#a9c0a6"/>
	<path d="m19.224 43.675h453.43" style="fill:none;stroke-width:.66665;stroke:#a9c0a6"/>
	<path d="m19.224 87.007h453.43" style="fill:none;stroke-width:.66665;stroke:#a9c0a6"/>
	<path d="m19.172 0.32954h453.54" style="fill:none;stroke-width:.66665;stroke:#a9c0a6"/>
	<path d="m18.92 650.39h453.54" style="fill:none;stroke-width:.66665;stroke:#a9c0a6"/>
	<path d="m19.312 641.73h453.26" style="fill:none;stroke-width:.33332;stroke:#a9c0a6"/>
	<path d="m19.253 633.06h453.38m-453.38-17.334h453.38m-453.38-26.003h453.38m-453.38-8.6664h453.38m-453.38-8.6678h453.38" style="fill:none;stroke-width:.33332;stroke:#a9c0a6"/>
	<path d="m19.312 555.05h453.26m-453.26-17.334h453.26m-453.26-8.6678h453.26m-453.26-17.336h453.26m-453.26-17.334h453.26m-453.26-8.6678h453.26" style="fill:none;stroke-width:.33332;stroke:#a9c0a6"/>
	<path d="m19.254 459.7h453.36m-453.36-8.6664h453.36m-453.36-8.6678h453.36m-453.36-26.003h453.36m-453.36-8.6664h453.36m-453.36-8.6678h453.36m-453.36-17.336h453.36m-453.36-17.334h453.36m-453.36-8.6678h453.36m-453.36-17.336h453.36m-453.36-17.334h453.36m-453.36-8.6678h453.36m-453.36-17.336h453.36" style="fill:none;stroke-width:.33332;stroke:#a9c0a6"/>
	<path d="m19.172 277.7h453.54m-453.54-8.6678h453.54m-453.54-17.336h453.54m-453.54-17.334h453.54m-453.54-8.6678h453.54m-453.54-17.336h453.54m-453.54-17.334h453.54m-453.54-8.6678h453.54m-453.54-17.334h453.54m-453.54-8.6678h453.54m-453.54-17.334h453.54m-453.54-17.336h453.54m-453.54-17.336h453.54" style="fill:none;stroke-width:.33332;stroke:#a9c0a6"/>
	<path d="m19.172 8.996h453.54m-453.54 17.334h453.54m-453.54-8.6678h453.54" style="fill:none;stroke-width:.33332;stroke:#a9c0a6"/>
	<path d="m19.172 52.342h453.54m-453.54 17.334h453.54m-453.54-8.6678h453.54m-453.54 34.671h453.54m-453.54-60.673h453.54m-453.52 43.338h453.52m-453.52 34.67h453.52m-453.52 34.67h453.52m-453.52 52.005h453.52m-453.52 43.338h453.52" style="fill:none;stroke-width:.33332;stroke:#a9c0a6"/>
	<path d="m19.256 286.36h453.36m-453.36 43.336h453.36m-453.36 43.338h453.36m-453.36 52.005h453.36m-453.36 43.338h453.36" style="fill:none;stroke-width:.33332;stroke:#a9c0a6"/>
	<path d="m19.313 503.05h453.24m-453.24 43.338h453.24" style="fill:none;stroke-width:.33332;stroke:#a9c0a6"/>
	<path d="m19.256 598.39h453.36m-453.36 26.003h453.36" style="fill:none;stroke-width:.33332;stroke:#a9c0a6"/>
	<path d="m18.868 650.5v-650.06" style="fill:none;stroke-width:.66665;stroke:#a9c0a6"/>
	<path d="m45.552 650.4v-650.06m26.683 650.06v-650.06m26.685 650.06v-650.06m26.685 650.06v-650.06m26.681 650.06v-650.06m26.685 650.06v-650.06m26.687 650.06v-650.06m26.681 650.06v-650.06m26.683 650.06v-650.06m26.685 650.06v-650.06m26.683 650.06v-650.06m26.685 650.06v-650.06m26.685 650.06v-650.06m26.683 650.06v-650.06m26.685 650.06v-650.06m26.685 650.06v-650.06" style="fill:none;stroke-width:.66798;stroke:#a9c0a6"/>
	<path d="m472.49 650.78v-650.06" style="fill:none;stroke-width:.66665;stroke:#a9c0a6"/>
	<path d="m18.909 650.5v-650.06" style="fill:none;stroke-width:.33332;stroke:#a9c0a6"/>
	<path d="m472.51 650.48v-649.77" style="fill:none;stroke-width:.33332;stroke:#a9c0a6"/>
	<path d="m25.537 650.4v-650.06m13.344 650.06v-650.06m13.341 650.06v-650.06m13.342 650.06v-650.06m13.341 650.06v-650.06m13.344 650.06v-650.06m13.341 650.06v-650.06m13.344 650.06v-650.06m13.341 650.06v-650.06m13.342 650.06v-650.06m13.341 650.06v-650.06m13.344 650.06v-650.06m13.341 650.06v-650.06m13.344 650.06v-650.06m13.341 650.06v-650.06m13.342 650.06v-650.06m13.341 650.06v-650.06m13.342 650.06v-650.06m13.341 650.06v-650.06m13.344 650.06v-650.06m13.341 650.06v-650.06m13.342 650.06v-650.06m13.341 650.06v-650.06m13.344 650.06v-650.06m13.341 650.06v-650.06m13.344 650.06v-650.06m13.341 650.06v-650.06m13.34 650.06v-650.06m13.344 650.06v-650.06m13.341 650.06v-650.06m13.344 650.06v-650.06m13.341 650.06v-650.06" style="fill:none;stroke-width:.33332;stroke:#a9c0a6"/>
	<path d="m452.48 650.01v-649.3m13.34 649.3v-649.3" style="fill:none;stroke-width:.33332;stroke:#a9c0a6"/>
	<path d="m32.209 650.4v-650.06m26.683 650.06v-650.06m26.685 650.06v-650.06m26.685 650.06v-650.06m26.683 650.06v-650.06m26.685 650.06v-650.06m26.685 650.06v-650.06m26.683 650.06v-650.06m26.685 650.06v-650.06m26.683 650.06v-650.06m26.683 650.06v-650.06m26.685 650.06v-650.06m26.685 650.06v-650.06m26.683 650.06v-650.06m26.685 650.06v-650.06m26.685 650.06v-650.06" style="fill:none;stroke-width:.33332;stroke:#a9c0a6"/>
	<path d="m459.16 650.01v-649.3" style="fill:none;stroke-width:.33332;stroke:#a9c0a6"/>
	<path d="m6.7425 562.92c-0.41999 0.69999-0.58932 1.1-0.58932 2.3213v1.0186h-0.92131v-1.0186c0-1.6013 0.37999-2.2613 0.76131-2.8506 0.39866-0.61998 0.62932-1.0213 0.63998-1.94v-0.20133h-2.1999v-0.88931h3.1199v0.67999c0 1.66-0.41066 2.2506-0.81065 2.8799" style="fill:#ef5ba1;stroke-width:1.3333"/>
	<path d="m10.252 560.08c-0.62932 0-0.75865 0.43999-0.75865 2.2506 0 1.8093 0.12933 2.2493 0.75865 2.2493 0.63998 0 0.75998-0.43999 0.75998-2.2493 0-1.8106-0.12-2.2506-0.75998-2.2506zm0 5.3305c-1.22 0-1.6986-0.74932-1.6986-3.0799 0-2.3293 0.47865-3.0799 1.6986-3.0799 1.22 0 1.7106 0.75065 1.7106 3.0799 0 2.3306-0.49065 3.0799-1.7106 3.0799" style="fill:#ef5ba1;stroke-width:1.3333"/>
	<path d="m5.8292 515.84c-0.49999 0-0.63998 0.28933-0.63998 1.0906 0 0.80931 0.14 1.1093 0.63998 1.1093s0.63998-0.3 0.63998-1.1093c0-0.80131-0.14-1.0906-0.63998-1.0906zm0 2.9706c-0.59998 0-0.73998 0.32933-0.73998 1.2693s0.14 1.2693 0.73998 1.2693 0.73998-0.32933 0.73998-1.2693c0-0.93998-0.14-1.2693-0.73998-1.2693zm0 3.3399c-1.2 0-1.6693-0.59999-1.6693-2.0506 0-0.85997 0.22933-1.46 0.63998-1.72-0.30133-0.26-0.47999-0.78932-0.47999-1.46 0-1.2906 0.41999-1.8693 1.5093-1.8693s1.5106 0.57865 1.5106 1.8693c0 0.67065-0.19066 1.2-0.49065 1.46 0.41066 0.25999 0.64932 0.85998 0.64932 1.72 0 1.4506-0.46932 2.0506-1.6693 2.0506" style="fill:#ef5ba1;stroke-width:1.3333"/>
	<path d="m10.32 516.82c-0.63065 0-0.76132 0.43999-0.76132 2.2493 0 1.8106 0.13066 2.2506 0.76132 2.2506 0.63998 0 0.75998-0.43999 0.75998-2.2506 0-1.8093-0.12-2.2493-0.75998-2.2493zm0 5.3305c-1.22 0-1.7013-0.75065-1.7013-3.0813 0-2.3293 0.48132-3.0786 1.7013-3.0786 1.2186 0 1.7093 0.74931 1.7093 3.0786 0 2.3306-0.49065 3.0813-1.7093 3.0813" style="fill:#ef5ba1;stroke-width:1.3333"/>
	<path d="m6.0825 476.57 0.16933-0.12c0-2.06-0.10933-2.7013-0.72932-2.7013-0.52132 0-0.67998 0.37066-0.67998 1.5306s0.14933 1.52 0.65865 1.52c0.21999 0 0.40132-0.1 0.58132-0.22932zm-0.55999-3.6199c1.3093 0 1.66 0.85864 1.66 3.3292 0 2.1506-0.050665 3.7706-1.72 3.7706-0.39999 0-0.97064-0.17066-1.2706-0.31999v-0.95998c0.41066 0.24933 0.80931 0.39999 1.1906 0.39999 0.56932 0 0.84931-0.41066 0.86931-1.9-0.18933 0.14933-0.51999 0.33999-0.81998 0.33999-1.0493 0-1.5293-0.67998-1.5293-2.3306 0-1.6906 0.48932-2.3293 1.62-2.3293" style="fill:#ef5ba1;stroke-width:1.3333"/>
	<path d="m10.102 473.77c-0.63065 0-0.75998 0.43998-0.75998 2.2493 0 1.8106 0.12933 2.2506 0.75998 2.2506 0.63998 0 0.75865-0.43999 0.75865-2.2506 0-1.8093-0.11866-2.2493-0.75865-2.2493zm0 5.3305c-1.22 0-1.7-0.75065-1.7-3.0813 0-2.3293 0.47999-3.0786 1.7-3.0786 1.22 0 1.7093 0.74932 1.7093 3.0786 0 2.3306-0.48932 3.0813-1.7093 3.0813" style="fill:#ef5ba1;stroke-width:1.3333"/>
	<path d="m0 435.4v-0.88131h0.81065v-3.9479l-0.81065 0.36932v-0.93064l1.0906-0.56932h0.67065v5.0785h0.79998v0.88131h-2.5613" style="fill:#ef5ba1;stroke-width:1.3333"/>
	<path d="m5.3505 430.16c-0.62932 0-0.75998 0.43999-0.75998 2.2493 0 1.8106 0.13066 2.2506 0.75998 2.2506 0.63998 0 0.75998-0.43999 0.75998-2.2506 0-1.8093-0.12-2.2493-0.75998-2.2493zm0 5.3305c-1.22 0-1.7-0.75065-1.7-3.0813 0-2.3293 0.47999-3.0786 1.7-3.0786s1.7093 0.74931 1.7093 3.0786c0 2.3306-0.48932 3.0813-1.7093 3.0813" style="fill:#ef5ba1;stroke-width:1.3333"/>
	<path d="m9.8504 430.16c-0.62932 0-0.75998 0.43999-0.75998 2.2493 0 1.8106 0.13066 2.2506 0.75998 2.2506 0.63998 0 0.75998-0.43999 0.75998-2.2506 0-1.8093-0.12-2.2493-0.75998-2.2493zm0 5.3305c-1.22 0-1.7-0.75065-1.7-3.0813 0-2.3293 0.47999-3.0786 1.7-3.0786 1.22 0 1.7093 0.74931 1.7093 3.0786 0 2.3306-0.48932 3.0813-1.7093 3.0813" style="fill:#ef5ba1;stroke-width:1.3333"/>
	<path d="m0.99198 392.28v-0.87998h0.80931v-3.9492l-0.80931 0.36932v-0.93064l1.0906-0.56932h0.66932v5.0799h0.79998v0.87998h-2.5599" style="fill:#ef5ba1;stroke-width:1.3333"/>
	<path d="m4.6412 392.28v-0.87998h0.81065v-3.9492l-0.81065 0.36932v-0.93064l1.0906-0.56932h0.66932v5.0799h0.79998v0.87998h-2.5599" style="fill:#ef5ba1;stroke-width:1.3333"/>
	<path d="m9.9918 387.05c-0.63065 0-0.75998 0.43999-0.75998 2.2493 0 1.8106 0.12933 2.2506 0.75998 2.2506 0.63998 0 0.75865-0.43999 0.75865-2.2506 0-1.8093-0.11866-2.2493-0.75865-2.2493zm0 5.3305c-1.22 0-1.7-0.75065-1.7-3.0813 0-2.3293 0.47999-3.0786 1.7-3.0786 1.22 0 1.7093 0.74932 1.7093 3.0786 0 2.3306-0.48932 3.0813-1.7093 3.0813" style="fill:#ef5ba1;stroke-width:1.3333"/>
	<path d="m0.46399 349.01v-0.87998h0.80931v-3.9492l-0.80931 0.37066v-0.93198l1.0893-0.56798h0.66932v5.0785h0.80131v0.87998h-2.5599" style="fill:#ef5ba1;stroke-width:1.3333"/>
	<path d="m4.1039 349.01v-0.67065c0-0.71999 0.30933-1.2693 1.08-2.0293 0.84931-0.83998 1.0893-1.16 1.0893-1.72 0-0.50933-0.28933-0.72932-0.75998-0.72932-0.45999 0-0.90931 0.18-1.4093 0.41066v-0.99065c0.34932-0.13066 1.0386-0.33065 1.4893-0.33065 0.98931 0 1.5906 0.44132 1.5906 1.58 0 0.97064-0.45066 1.5-1.5106 2.5213-0.43999 0.43999-0.62932 0.69865-0.67065 1.0786h2.2706v0.87998h-3.1693" style="fill:#ef5ba1;stroke-width:1.3333"/>
	<path d="m9.9531 343.79c-0.62932 0-0.75998 0.43999-0.75998 2.2493 0 1.8093 0.13066 2.2506 0.75998 2.2506 0.63998 0 0.75998-0.44133 0.75998-2.2506 0-1.8093-0.12-2.2493-0.75998-2.2493zm0 5.3305c-1.22 0-1.7-0.75065-1.7-3.0812 0-2.3293 0.47999-3.0799 1.7-3.0799 1.22 0 1.7106 0.75065 1.7106 3.0799 0 2.3306-0.49065 3.0812-1.7106 3.0812" style="fill:#ef5ba1;stroke-width:1.3333"/>
	<path d="m0.83598 305.76v-0.88131h0.81065v-3.9492l-0.81065 0.36932v-0.92931l1.0906-0.57065h0.67065v5.0799h0.79865v0.88131h-2.5599" style="fill:#ef5ba1;stroke-width:1.3333"/>
	<path d="m5.5959 306.8c-0.53999 0-1.0693-0.14933-1.36-0.26933v-0.96931c0.35999 0.2 0.89064 0.35999 1.28 0.35999 0.55065 0 0.91064-0.21999 0.91064-1.2 0-1.0106-0.41066-1.24-0.98931-1.24h-0.69065v-0.83998h0.67998c0.53999 0 0.87064-0.19066 0.87064-1.0506 0-0.85064-0.33066-0.99997-0.79065-0.99997-0.39066 0-0.86931 0.14-1.22 0.31066v-0.96131c0.24933-0.0893 0.82931-0.23866 1.3-0.23866 0.97998 0 1.6306 0.32932 1.6306 1.8893 0 0.75998-0.19066 1.2293-0.55065 1.46 0.43999 0.23066 0.69998 0.74931 0.69998 1.66 0 1.7-0.67998 2.0893-1.7706 2.0893" style="fill:#ef5ba1;stroke-width:1.3333"/>
	<path d="m10.146 300.54c-0.63065 0-0.75998 0.43999-0.75998 2.2506 0 1.8093 0.12933 2.2493 0.75998 2.2493 0.63998 0 0.75998-0.43998 0.75998-2.2493 0-1.8106-0.12-2.2506-0.75998-2.2506zm0 5.3305c-1.22 0-1.7-0.75065-1.7-3.0799 0-2.3306 0.47999-3.0799 1.7-3.0799 1.22 0 1.7106 0.74932 1.7106 3.0799 0 2.3293-0.49065 3.0799-1.7106 3.0799" style="fill:#ef5ba1;stroke-width:1.3333"/>
	<path d="m0.40399 262.36v-0.87998h0.81065v-3.9506l-0.81065 0.37066v-0.93064l1.0906-0.56932h0.66932v5.0799h0.79998v0.87998h-2.5599" style="fill:#ef5ba1;stroke-width:1.3333"/>
	<path d="m5.5545 258.67-1.0813 2.0493h1.42v-1.9693c0-0.37999 0.050665-0.91997 0.050665-0.91997s-0.20933 0.49999-0.38932 0.83998zm1.2586 2.8199v1.82h-0.91998v-1.82h-2.3093v-0.55999l2.3599-4.5599h0.86931v4.3492h0.56132v0.77065h-0.56132" style="fill:#ef5ba1;stroke-width:1.3333"/>
	<path d="m10.014 257.14c-0.63065 0-0.76132 0.43999-0.76132 2.2506 0 1.8093 0.13066 2.2493 0.76132 2.2493 0.63998 0 0.75998-0.43999 0.75998-2.2493 0-1.8106-0.12-2.2506-0.75998-2.2506zm0 5.3305c-1.22 0-1.7013-0.75065-1.7013-3.0799 0-2.3306 0.48132-3.0799 1.7013-3.0799 1.2186 0 1.7093 0.74931 1.7093 3.0799 0 2.3293-0.49066 3.0799-1.7093 3.0799" style="fill:#ef5ba1;stroke-width:1.3333"/>
	<path d="m0.49332 219.11v-0.87998h0.81065v-3.9492l-0.81065 0.36933v-0.92931l1.0893-0.57066h0.67065v5.0799h0.79998v0.87998h-2.5599" style="fill:#ef5ba1;stroke-width:1.3333"/>
	<path d="m5.4425 220.15c-0.50932 0-1.0093-0.16933-1.2586-0.28933v-0.97064c0.34932 0.21066 0.78931 0.38133 1.1786 0.38133 0.55065 0 0.85998-0.21067 0.85998-1.2213 0-0.98931-0.29999-1.2293-0.81865-1.2293h-1.2013v-3.6706h2.7999v0.89065h-1.92v1.94h0.49999c0.91998 0 1.5706 0.37066 1.5706 2.06s-0.65998 2.1093-1.7106 2.1093" style="fill:#ef5ba1;stroke-width:1.3333"/>
	<path d="m9.9224 213.87c-0.62932 0-0.75865 0.43999-0.75865 2.2506 0 1.8093 0.12933 2.2493 0.75865 2.2493 0.63998 0 0.76131-0.43998 0.76131-2.2493 0-1.8106-0.12133-2.2506-0.76131-2.2506zm0 5.3305c-1.22 0-1.7-0.75065-1.7-3.0799 0-2.3306 0.47999-3.0813 1.7-3.0813 1.22 0 1.7106 0.75065 1.7106 3.0813 0 2.3293-0.49065 3.0799-1.7106 3.0799" style="fill:#ef5ba1;stroke-width:1.3333"/>
	<path d="m0.31866 175.99v-0.88131h0.81065v-3.9492l-0.81065 0.36932v-0.92931l1.0906-0.57065h0.67065v5.0799h0.79865v0.88131h-2.5599" style="fill:#ef5ba1;stroke-width:1.3333"/>
	<path d="m5.1492 172.47-0.17066 0.12133c0 2.06 0.11066 2.6999 0.73065 2.6999 0.51999 0 0.67998-0.37065 0.67998-1.5306s-0.15066-1.52-0.65998-1.52c-0.21999 0-0.39999 0.1-0.57999 0.22933zm0.55999 3.6212c-1.3106 0-1.66-0.85997-1.66-3.3306 0-2.1506 0.049332-3.7692 1.72-3.7692 0.39999 0 0.96931 0.16933 1.2693 0.31866v0.95998c-0.40932-0.24933-0.80931-0.39866-1.1893-0.39866-0.57065 0-0.85065 0.40932-0.87064 1.8986 0.19066-0.14933 0.51999-0.33866 0.81998-0.33866 1.0506 0 1.5306 0.67865 1.5306 2.3293 0 1.6906-0.49065 2.3306-1.62 2.3306" style="fill:#ef5ba1;stroke-width:1.3333"/>
	<path d="m10.098 170.77c-0.62932 0-0.75998 0.43999-0.75998 2.2506 0 1.8093 0.13066 2.2493 0.75998 2.2493 0.63998 0 0.75998-0.43999 0.75998-2.2493 0-1.8106-0.12-2.2506-0.75998-2.2506zm0 5.3305c-1.22 0-1.7-0.75065-1.7-3.0799 0-2.3306 0.47999-3.0799 1.7-3.0799 1.22 0 1.7106 0.74931 1.7106 3.0799 0 2.3293-0.49066 3.0799-1.7106 3.0799" style="fill:#ef5ba1;stroke-width:1.3333"/>
	<path d="m0.94664 132.73v-0.87998h0.80931v-3.9506l-0.80931 0.36933v-0.92931l1.0893-0.57066h0.67065v5.0812h0.79998v0.87998h-2.5599" style="fill:#ef5ba1;stroke-width:1.3333"/>
	<path d="m6.5265 130.33c-0.41999 0.69998-0.58932 1.1-0.58932 2.3199v1.02h-0.91998v-1.02c0-1.6 0.37866-2.2599 0.75865-2.8506 0.39999-0.61999 0.63065-1.02 0.63998-1.94v-0.19999h-2.1986v-0.89065h3.1186v0.68132c0 1.66-0.40932 2.2493-0.80931 2.8799" style="fill:#ef5ba1;stroke-width:1.3333"/>
	<path d="m10.036 127.5c-0.62932 0-0.75998 0.43999-0.75998 2.2506 0 1.8093 0.13066 2.2493 0.75998 2.2493 0.63998 0 0.76131-0.43999 0.76131-2.2493 0-1.8106-0.12133-2.2506-0.76131-2.2506zm0 5.3305c-1.22 0-1.7-0.75065-1.7-3.0799 0-2.3306 0.47999-3.0799 1.7-3.0799 1.22 0 1.7106 0.74931 1.7106 3.0799 0 2.3293-0.49066 3.0799-1.7106 3.0799" style="fill:#ef5ba1;stroke-width:1.3333"/>
	<path d="m0.030666 89.474v-0.87998h0.80931v-3.9492l-0.80931 0.36932v-0.92931l1.0893-0.57065h0.67065v5.0799h0.79998v0.87998h-2.5599" style="fill:#ef5ba1;stroke-width:1.3333"/>
	<path d="m5.3305 83.261c-0.49999 0-0.63998 0.28933-0.63998 1.0906 0 0.80931 0.14 1.1093 0.63998 1.1093s0.63998-0.29999 0.63998-1.1093c0-0.80131-0.14-1.0906-0.63998-1.0906zm0 2.9693c-0.59998 0-0.73998 0.33066-0.73998 1.2706 0 0.93998 0.14 1.2693 0.73998 1.2693s0.73998-0.32932 0.73998-1.2693c0-0.93997-0.14-1.2706-0.73998-1.2706zm0 3.3412c-1.2 0-1.6706-0.60132-1.6706-2.0506 0-0.85998 0.22933-1.46 0.63998-1.72-0.29999-0.25999-0.47999-0.79065-0.47999-1.46 0-1.2906 0.41999-1.8706 1.5106-1.8706 1.0893 0 1.5093 0.57999 1.5093 1.8706 0 0.66932-0.18933 1.2-0.48932 1.46 0.40932 0.25999 0.64932 0.85998 0.64932 1.72 0 1.4493-0.46932 2.0506-1.6693 2.0506" style="fill:#ef5ba1;stroke-width:1.3333"/>
	<path d="m9.8198 84.247c-0.62932 0-0.75998 0.43999-0.75998 2.2506 0 1.8093 0.13066 2.2493 0.75998 2.2493 0.63998 0 0.75998-0.43999 0.75998-2.2493 0-1.8106-0.12-2.2506-0.75998-2.2506zm0 5.3305c-1.22 0-1.7-0.75064-1.7-3.0799 0-2.3306 0.47999-3.0813 1.7-3.0813 1.22 0 1.7093 0.75065 1.7093 3.0813 0 2.3293-0.48932 3.0799-1.7093 3.0799" style="fill:#ef5ba1;stroke-width:1.3333"/>
	<path d="m16.614 663.43v-0.93864h0.86398v-4.2132l-0.86398 0.39466v-0.99198l1.164-0.60798h0.71332v5.4185h0.85331v0.93864h-2.7306" style="fill:#61bb46;stroke-width:1.3333"/>
	<path d="m43.346 663.43v-0.71464c0-0.76799 0.33066-1.3546 1.152-2.1653 0.90664-0.89598 1.1626-1.2373 1.1626-1.8346 0-0.54399-0.30932-0.77865-0.81065-0.77865-0.49065 0-0.97064 0.19199-1.504 0.43732v-1.056c0.37332-0.13867 1.1093-0.35199 1.5893-0.35199 1.056 0 1.696 0.46932 1.696 1.6853 0 1.0346-0.47999 1.6-1.6106 2.6879-0.46932 0.46932-0.67198 0.74665-0.71465 1.152h2.4213v0.93864h-3.3812" style="fill:#61bb46;stroke-width:1.3333"/>
	<path d="m71.281 664.54c-0.57465 0-1.1413-0.16-1.4493-0.28799v-1.0346c0.38399 0.21332 0.94798 0.38399 1.364 0.38399 0.58665 0 0.97064-0.23466 0.97064-1.28 0-1.0773-0.43599-1.3226-1.056-1.3226h-0.73465v-0.89598h0.72532c0.57598 0 0.92664-0.204 0.92664-1.12 0-0.90665-0.35066-1.0666-0.84131-1.0666-0.41599 0-0.92798 0.14933-1.3013 0.33065v-1.024c0.26666-0.096 0.88531-0.25599 1.3866-0.25599 1.0453 0 1.7386 0.35199 1.7386 2.016 0 0.81064-0.204 1.312-0.58665 1.5573 0.46799 0.24533 0.74532 0.79998 0.74532 1.7706 0 1.812-0.72532 2.2293-1.888 2.2293" style="fill:#61bb46;stroke-width:1.3333"/>
	<path d="m98.435 659.48-1.152 2.1866h1.5146v-2.1013c0-0.40533 0.05333-0.98131 0.05333-0.98131s-0.224 0.53332-0.41599 0.89598zm1.344 3.0079v1.9413h-0.9813v-1.9413h-2.4639v-0.59732l2.5173-4.8639h0.92797v4.6399h0.59732v0.82131h-0.59732" style="fill:#61bb46;stroke-width:1.3333"/>
	<path d="m124.97 664.54c-0.54399 0-1.0773-0.18133-1.344-0.30933v-1.0346c0.37332 0.224 0.84265 0.40533 1.2586 0.40533 0.58665 0 0.91731-0.224 0.91731-1.3013 0-1.056-0.32-1.312-0.87465-1.312h-1.28v-3.9146h2.9866v0.94931h-2.048v2.0693h0.53332c0.98131 0 1.6746 0.39466 1.6746 2.196 0 1.804-0.70398 2.2519-1.824 2.2519" style="fill:#61bb46;stroke-width:1.3333"/>
	<path d="m151.58 659.67-0.17999 0.128c0 2.1973 0.11733 2.8799 0.77865 2.8799 0.55465 0 0.72531-0.39599 0.72531-1.632 0-1.2373-0.15999-1.6213-0.70531-1.6213-0.23333 0-0.42533 0.10667-0.61866 0.24533zm0.59866 3.8612c-1.3986 0-1.7706-0.91731-1.7706-3.5519 0-2.2933 0.0533-4.0212 1.8346-4.0212 0.42532 0 1.0333 0.18133 1.3546 0.34133v1.024c-0.43732-0.26666-0.86398-0.42665-1.2693-0.42665-0.60932 0-0.90798 0.43732-0.92798 2.0266 0.20266-0.15999 0.55465-0.36399 0.87331-0.36399 1.12 0 1.6333 0.72665 1.6333 2.4866 0 1.8026-0.52265 2.4853-1.728 2.4853" style="fill:#61bb46;stroke-width:1.3333"/>
	<path d="m179.13 660.87c-0.44799 0.74665-0.62931 1.1733-0.62931 2.4733v1.0893h-0.98131v-1.0893c0-1.7053 0.40532-2.4093 0.81064-3.0386 0.42666-0.66132 0.67199-1.088 0.68265-2.0693v-0.21333h-2.3466v-0.94931h3.3279v0.72532c0 1.7706-0.43732 2.3999-0.86398 3.0719" style="fill:#61bb46;stroke-width:1.3333"/>
	<path d="m205.57 656.8c-0.53332 0-0.68265 0.30933-0.68265 1.1626 0 0.86398 0.14933 1.184 0.68265 1.184s0.68265-0.31999 0.68265-1.184c0-0.85331-0.14933-1.1626-0.68265-1.1626zm0 3.1679c-0.63998 0-0.78931 0.35199-0.78931 1.3546 0 1.0026 0.14933 1.3546 0.78931 1.3546 0.63999 0 0.78932-0.35199 0.78932-1.3546 0-1.0026-0.14933-1.3546-0.78932-1.3546zm0 3.5626c-1.28 0-1.7813-0.63999-1.7813-2.1866 0-0.91731 0.24533-1.5573 0.68265-1.8346-0.31999-0.27733-0.51198-0.84265-0.51198-1.5573 0-1.376 0.44798-1.9946 1.6106-1.9946s1.6106 0.61866 1.6106 1.9946c0 0.71465-0.20266 1.28-0.52266 1.5573 0.43733 0.27732 0.69332 0.91731 0.69332 1.8346 0 1.5466-0.50132 2.1866-1.7813 2.1866" style="fill:#61bb46;stroke-width:1.3333"/>
	<path d="m232.79 660.82 0.17999-0.12799c0-2.1973-0.11733-2.8799-0.77864-2.8799-0.55466 0-0.72532 0.39465-0.72532 1.632 0 1.2373 0.16 1.6213 0.70532 1.6213 0.23332 0 0.42532-0.10666 0.61865-0.24533zm-0.59865-3.8612c1.3986 0 1.7706 0.91731 1.7706 3.5519 0 2.2933-0.0533 4.0212-1.8346 4.0212-0.42532 0-1.0333-0.18133-1.3546-0.34132v-1.024c0.43732 0.26666 0.86397 0.42666 1.2693 0.42666 0.60931 0 0.90797-0.43733 0.92797-2.0266-0.20266 0.15866-0.55465 0.36266-0.87331 0.36266-1.12 0-1.6333-0.72532-1.6333-2.4853 0-1.8026 0.52265-2.4853 1.728-2.4853" style="fill:#61bb46;stroke-width:1.3333"/>
	<path d="m255.34 663.43v-0.93864h0.86398v-4.2132l-0.86398 0.39466v-0.99198l1.1626-0.60798h0.71465v5.4185h0.85331v0.93864h-2.7306" style="fill:#61bb46;stroke-width:1.3333"/>
	<path d="m260.35 657.85c-0.67198 0-0.81065 0.46932-0.81065 2.3999s0.13867 2.3999 0.81065 2.3999c0.68265 0 0.81065-0.46932 0.81065-2.3999s-0.128-2.3999-0.81065-2.3999zm0 5.6852c-1.3013 0-1.8133-0.79998-1.8133-3.2852s0.51199-3.2852 1.8133-3.2852 1.824 0.79998 1.824 3.2852-0.52265 3.2852-1.824 3.2852" style="fill:#61bb46;stroke-width:1.3333"/>
	<path d="m282.08 663.43v-0.93864h0.86264v-4.2132l-0.86264 0.39466v-0.99198l1.1626-0.60798h0.71465v5.4185h0.85331v0.93864h-2.7306" style="fill:#61bb46;stroke-width:1.3333"/>
	<path d="m285.28 663.43v-0.93864h0.86531v-4.2132l-0.86531 0.39466v-0.99198l1.1626-0.60798h0.71598v5.4185h0.85331v0.93864h-2.7319" style="fill:#61bb46;stroke-width:1.3333"/>
	<path d="m308.82 663.43v-0.93864h0.86265v-4.2132l-0.86265 0.39466v-0.99198l1.1626-0.60798h0.71465v5.4185h0.85198v0.93864h-2.7293" style="fill:#61bb46;stroke-width:1.3333"/>
	<path d="m312.02 663.43v-0.71464c0-0.76799 0.33066-1.3546 1.152-2.1653 0.90664-0.89598 1.1626-1.2373 1.1626-1.8346 0-0.54399-0.30932-0.77865-0.81064-0.77865-0.49066 0-0.96931 0.19199-1.504 0.43732v-1.056c0.37333-0.13867 1.1093-0.35199 1.5906-0.35199 1.056 0 1.6946 0.46932 1.6946 1.6853 0 1.0346-0.47866 1.6-1.6106 2.6879-0.46932 0.46932-0.67198 0.74665-0.71332 1.152h2.4199v0.93864h-3.3812" style="fill:#61bb46;stroke-width:1.3333"/>
	<path d="m335.56 663.43v-0.93864h0.86398v-4.2132l-0.86398 0.39466v-0.99198l1.1626-0.60798h0.71465v5.4185h0.85331v0.93864h-2.7306" style="fill:#61bb46;stroke-width:1.3333"/>
	<path d="m339.95 664.54c-0.57599 0-1.1413-0.16-1.4506-0.28799v-1.0346c0.38399 0.21332 0.94931 0.38399 1.3653 0.38399 0.58665 0 0.97064-0.23466 0.97064-1.28 0-1.0773-0.43732-1.3226-1.056-1.3226h-0.73599v-0.89598h0.72532c0.57599 0 0.92798-0.204 0.92798-1.12 0-0.90665-0.35199-1.0666-0.84265-1.0666-0.41599 0-0.92798 0.14933-1.3013 0.33065v-1.024c0.26666-0.096 0.88531-0.25599 1.3866-0.25599 1.0453 0 1.7386 0.35199 1.7386 2.016 0 0.81064-0.20267 1.312-0.58666 1.5573 0.46933 0.24533 0.74665 0.79998 0.74665 1.7706 0 1.812-0.72531 2.2293-1.888 2.2293" style="fill:#61bb46;stroke-width:1.3333"/>
	<path d="m362.31 663.43v-0.93864h0.86265v-4.2132l-0.86265 0.39466v-0.99198l1.1626-0.60798h0.71465v5.4185h0.85331v0.93864h-2.7306" style="fill:#61bb46;stroke-width:1.3333"/>
	<path d="m367.11 659.48-1.1506 2.1866h1.5146v-2.1013c0-0.40533 0.0533-0.98131 0.0533-0.98131s-0.22399 0.53332-0.41732 0.89598zm1.344 3.0079v1.9413h-0.97998v-1.9413h-2.4653v-0.59732l2.5186-4.8639h0.92665v4.6399h0.59731v0.82131h-0.59731" style="fill:#61bb46;stroke-width:1.3333"/>
	<path d="m389.04 663.43v-0.93864h0.86398v-4.2132l-0.86398 0.39466v-0.99198l1.164-0.60798h0.71464v5.4185h0.85198v0.93864h-2.7306" style="fill:#61bb46;stroke-width:1.3333"/>
	<path d="m393.63 664.54c-0.54266 0-1.0773-0.18133-1.344-0.30933v-1.0346c0.37332 0.224 0.84265 0.40533 1.2586 0.40533 0.58665 0 0.91731-0.224 0.91731-1.3013 0-1.056-0.31866-1.312-0.87332-1.312h-1.28v-3.9146h2.9853v0.94931h-2.048v2.0693h0.53332c0.98264 0 1.6746 0.39466 1.6746 2.196 0 1.804-0.70265 2.2519-1.824 2.2519" style="fill:#61bb46;stroke-width:1.3333"/>
	<path d="m415.79 663.43v-0.93864h0.86398v-4.2132l-0.86398 0.39466v-0.99198l1.1626-0.60798h0.71465v5.4185h0.85331v0.93864h-2.7306" style="fill:#61bb46;stroke-width:1.3333"/>
	<path d="m420.25 659.67-0.18133 0.128c0 2.1973 0.11733 2.8799 0.77865 2.8799 0.55465 0 0.72531-0.39599 0.72531-1.632 0-1.2373-0.15999-1.6213-0.70398-1.6213-0.23466 0-0.42666 0.10667-0.61865 0.24533zm0.59732 3.8612c-1.3973 0-1.7706-0.91731-1.7706-3.5519 0-2.2933 0.0533-4.0212 1.8346-4.0212 0.42666 0 1.0346 0.18133 1.3546 0.34133v1.024c-0.43866-0.26666-0.86398-0.42665-1.2693-0.42665-0.60799 0-0.90665 0.43732-0.92798 2.0266 0.20133-0.15999 0.55465-0.36399 0.87464-0.36399 1.12 0 1.632 0.72665 1.632 2.4866 0 1.8026-0.52265 2.4853-1.728 2.4853" style="fill:#61bb46;stroke-width:1.3333"/>
	<path d="m442.53 663.43v-0.93864h0.86265v-4.2132l-0.86265 0.39466v-0.99198l1.1626-0.60798h0.71465v5.4185h0.85331v0.93864h-2.7306" style="fill:#61bb46;stroke-width:1.3333"/>
	<path d="m447.79 660.87c-0.44799 0.74665-0.62931 1.1733-0.62931 2.4733v1.0893h-0.97998v-1.0893c0-1.7053 0.40532-2.4093 0.80931-3.0386 0.42799-0.66132 0.67199-1.088 0.68265-2.0693v-0.21333h-2.3466v-0.94931h3.3292v0.72532c0 1.7706-0.43865 2.3999-0.86531 3.0719" style="fill:#61bb46;stroke-width:1.3333"/>
	<path d="m469.27 663.43v-0.93864h0.86397v-4.2132l-0.86397 0.39466v-0.99198l1.1626-0.60798h0.71599v5.4185h0.85197v0.93864h-2.7306" style="fill:#61bb46;stroke-width:1.3333"/>
	<path d="m474.23 656.8c-0.53198 0-0.68265 0.30933-0.68265 1.1626 0 0.86398 0.15067 1.184 0.68265 1.184 0.53332 0 0.68265-0.31999 0.68265-1.184 0-0.85331-0.14933-1.1626-0.68265-1.1626zm0 3.1679c-0.63865 0-0.78931 0.35199-0.78931 1.3546 0 1.0026 0.15066 1.3546 0.78931 1.3546 0.64132 0 0.78932-0.35199 0.78932-1.3546 0-1.0026-0.148-1.3546-0.78932-1.3546zm0 3.5626c-1.28 0-1.7813-0.63999-1.7813-2.1866 0-0.91731 0.24533-1.5573 0.68265-1.8346-0.31866-0.27733-0.51198-0.84265-0.51198-1.5573 0-1.376 0.44798-1.9946 1.6106-1.9946s1.6106 0.61866 1.6106 1.9946c0 0.71465-0.20266 1.28-0.52132 1.5573 0.43732 0.27732 0.69198 0.91731 0.69198 1.8346 0 1.5466-0.50132 2.1866-1.7813 2.1866" style="fill:#61bb46;stroke-width:1.3333"/>
	<path d="m480.95 661.01h-0.49065c-0.65065 0-0.85331 0.42666-0.85331 0.99198 0 0.52265 0.18133 0.73598 0.46932 0.73598 0.20266 0 0.42666-0.11733 0.66132-0.37333l0.21332-0.21332zm0.39466 2.4213c-0.096-0.12799-0.19199-0.31999-0.26666-0.56531l-0.16 0.17066c-0.36265 0.41599-0.76798 0.49065-1.0453 0.49065-0.75732 0-1.1946-0.53332-1.1946-1.5253 0-1.0986 0.60799-1.7813 1.7066-1.7813h0.56532v-0.63999c0-0.53332-0.26666-0.72531-0.67198-0.72531-0.49065 0-0.92798 0.18133-1.376 0.46932v-0.99197c0.34132-0.13867 0.91731-0.34133 1.4613-0.34133 1.0453 0 1.5786 0.45866 1.5786 1.7066v2.24c0 0.53332 0.032 1.1733 0.10666 1.4933h-0.70398" style="fill:#61bb46;stroke-width:1.3333"/>
	<path d="m484.89 663.43v-3.9572c0-0.42666-0.11733-0.58665-0.34132-0.58665-0.17067 0-0.34133 0.10666-0.63999 0.44799l-0.38399 0.42665v3.6692h-0.99197v-3.8399c0-0.53332-0.032-1.152-0.10667-1.4933h0.70399c0.096 0.11733 0.22399 0.43733 0.30932 0.78932l0.34133-0.35199c0.33065-0.34133 0.69331-0.54399 1.0666-0.54399 0.83198 0 1.0346 0.61865 1.0346 1.5893v3.8506h-0.99198" style="fill:#61bb46;stroke-width:1.3333"/>
	<path d="m487.59 663.53c-0.57599 0-1.0026-0.128-1.312-0.24533v-0.95997c0.44799 0.22399 0.87465 0.35199 1.3226 0.35199 0.39466 0 0.73599-0.16 0.73599-0.79998 0-0.61865-0.26666-0.74665-0.74665-0.74665-0.79998 0-1.4826-0.23466-1.4826-1.632 0-1.152 0.61865-1.5146 1.5573-1.5146 0.38266 0 0.95998 0.13866 1.28 0.26666v0.94931c-0.45865-0.25599-0.87464-0.37332-1.3013-0.37332-0.36266 0-0.63998 0.12799-0.63998 0.67198 0 0.56532 0.21332 0.69332 0.61865 0.69332 0.77864 0 1.6106 0.23466 1.6106 1.6853 0 1.248-0.71465 1.6533-1.6426 1.6533" style="fill:#61bb46;stroke-width:1.3333"/>
	<path d="m0.15466 47.888v-0.87998h0.80931v-3.9506l-0.80931 0.37066v-0.92931l1.0893-0.57065h0.67065v5.0799h0.79998v0.87998h-2.5599" style="fill:#ef5ba1;stroke-width:1.3333"/>
	<path d="m5.9145 45.448 0.16933-0.12c0-2.0599-0.10933-2.6999-0.72932-2.6999-0.51999 0-0.67998 0.37066-0.67998 1.5306 0 1.1586 0.14933 1.5186 0.65998 1.5186 0.21999 0 0.39999-0.09866 0.57999-0.22933zm-0.55999-3.6199c1.3093 0 1.66 0.85998 1.66 3.3306 0 2.1493-0.050665 3.7692-1.72 3.7692-0.39999 0-0.97064-0.17066-1.2706-0.31999v-0.95998c0.41066 0.24933 0.81065 0.39999 1.1906 0.39999 0.56932 0 0.84931-0.40932 0.86931-1.9-0.18933 0.15066-0.51999 0.33999-0.81998 0.33999-1.0493 0-1.5293-0.67998-1.5293-2.3293 0-1.6906 0.48932-2.3306 1.62-2.3306" style="fill:#ef5ba1;stroke-width:1.3333"/>
	<path d="m9.9344 42.662c-0.63065 0-0.75998 0.43866-0.75998 2.2493s0.12933 2.2506 0.75998 2.2506c0.63998 0 0.75865-0.43999 0.75865-2.2506s-0.11866-2.2493-0.75865-2.2493zm0 5.3292c-1.22 0-1.7-0.74932-1.7-3.0799 0-2.3293 0.47999-3.0799 1.7-3.0799 1.22 0 1.7093 0.75065 1.7093 3.0799 0 2.3306-0.48932 3.0799-1.7093 3.0799" style="fill:#ef5ba1;stroke-width:1.3333"/>
	<path d="m4.8185 651.36c-0.91998 0-1.4693-0.30932-1.4693-2.5493 0-2.2599 0.59865-2.5493 1.4693-2.5493 0.41999 0 0.85998 0.13867 1.18 0.26933v0.95064c-0.35999-0.25066-0.69065-0.37065-1.0093-0.37065-0.45066 0-0.71998 0.17999-0.71998 1.7 0 1.48 0.24933 1.7 0.71998 1.7 0.31866 0 0.65998-0.11066 1.0093-0.37999v0.95998c-0.30933 0.13999-0.69065 0.26932-1.18 0.26932" style="fill:#ef5ba1;stroke-width:1.3333"/>
	<path d="m9.9891 646.72c0.30933-0.32132 0.64932-0.51065 0.99998-0.51065 0.77998 0 0.96931 0.57998 0.96931 1.4893v3.6106h-0.93064v-3.7092c0-0.40132-0.10933-0.55065-0.31866-0.55065-0.16 0-0.32132 0.1-0.59998 0.41999 0 0-0.22133 0.23999-0.22133 0.25066v3.5892h-0.92931v-3.7092c0-0.40132-0.10933-0.55065-0.31999-0.55065-0.16 0-0.30933 0.1-0.59998 0.41999l-0.21999 0.23999v3.5999h-0.93064v-3.5999c0-0.49999-0.029333-1.08-0.098664-1.4h0.65865c0.079998 0.1 0.18133 0.33999 0.26133 0.63065l0.20933-0.22c0.30933-0.32132 0.65065-0.51065 0.99998-0.51065 0.51999 0 0.77998 0.25999 0.88931 0.69998l0.18133-0.18933" style="fill:#ef5ba1;stroke-width:1.3333"/>
	<path d="m18.921 573.93s18.666-39.778 51.999-78.666c0 0 27.11-31.333 65.776-64.442 0 0 21.133-18.092 30.549-26.253l15.673-13.746 39.554-33.999 39.556-30.889s16-14.222 21.999-18.666l17.777-16c14-11.556 23.999-26.443 23.999-26.443l10.221-11.334s16.221-20.221 40.666-30.443l12-4.4439c23.11-9.7784 83.763-10.889 83.763-10.889m-453.54 322.89s18.444-54.443 66.442-111.77l40.666-48.221s4.1812-4.1652 8.2225-8.6664l25.777-26.443 23.777-25.999 2.8893-2.8893 63.777-61.109c37.999-36.443 58.665-69.777 58.665-69.777s15.556-27.333 63.998-50.221c24.443-13.554 99.318-15.333 99.318-15.333" style="fill:none;stroke-width:.99998;stroke:#ec008c"/>
	<path d="m18.921 541.26s21.333-51.999 50.443-87.331c0 0 35.776-43.554 51.555-60.442l39.999-39.999 24.443-25.555 56.221-52.444s6.2238-5.5545 11.112-9.1104c0 0 8.8878-8.2225 13.777-13.556l7.1105-7.9998c15.11-14.222 43.111-51.776 43.111-51.776 28.666-33.332 63.998-45.999 63.998-45.999 24.222-10.666 91.763-12 91.763-12m-453.54 427.55c32.333-70.332 91.108-124 91.108-124 17.333-16.888 45.776-43.334 45.776-43.334l29.555-27.11 28.889-25.334c23.554-20.666 35.999-29.775 35.999-29.775 2.6666-1.1106 37.111-33.332 37.111-33.332s23.998-23.334 35.554-38.222c0 0 5.9998-7.5558 10.666-12.222 6.9998-6.9998 19.778-18.221 19.778-18.221 17.778-14.222 55.109-22.445 55.109-22.445 17.333-3.3332 63.986-5.1105 63.986-5.1105" style="fill:none;stroke-dasharray:2.6666, 2.6666;stroke-width:.99998;stroke:#ec008c"/>
	<path d="m18.921 519.98c23.999-66.998 70.665-121 70.665-121s33.628-41.562 73.098-85.486l16.868-18.504c10.145-10.958 20.411-21.721 30.365-31.674 0 0 57.665-52.665 91.331-103 0 0 15.666-28.999 48.332-47.999 0 0 35.332-26.666 122.87-24.999m0 145.66c-31.79 0.33332-55.875 3.3332-55.875 3.3332-59.998 5.9998-90.998 56.332-90.998 56.332-8.9998 12.333-19.666 21.999-19.666 21.999l-76.331 58.665-102.33 83.665c-77.998 61.332-108.33 128-108.33 128" style="fill:none;stroke-width:.33332;stroke:#939598"/>
	<path d="m455.96 114.93h13.249v-8.0377h-13.249z" style="fill:#fff;stroke-width:1.3333"/>
	<path d="m458.77 111.37v0.97065h-0.44132v-0.97065h-0.85064v-0.44132h0.85064v-0.96264h0.44132v0.96264h0.84398v0.44132h-0.84398" style="fill:#8b5ba5;stroke-width:1.3333"/>
	<path d="m460.65 112.97v-0.44265c0-0.47466 0.20533-0.83731 0.71331-1.3386 0.55999-0.55332 0.71865-0.76531 0.71865-1.1346 0-0.336-0.19199-0.48133-0.50132-0.48133-0.30399 0-0.59998 0.11867-0.93064 0.27066v-0.65331c0.23066-0.0853 0.68531-0.21733 0.98264-0.21733 0.65332 0 1.0493 0.29066 1.0493 1.0426 0 0.63865-0.29733 0.98798-0.99598 1.6613-0.29066 0.29066-0.41599 0.46266-0.44132 0.71198h1.496v0.58132h-2.0906" style="fill:#8b5ba5;stroke-width:1.3333"/>
	<path d="m466.33 111.69c0-0.50133-0.104-0.90132-0.31066-1.1986-0.208-0.29866-0.48399-0.44799-0.82532-0.44799-0.30132 0-0.53465 0.10533-0.70131 0.31599-0.168 0.21066-0.25066 0.50666-0.25066 0.89065 0 0.46932 0.104 0.85064 0.31199 1.144 0.208 0.29332 0.47999 0.44132 0.81465 0.44132 0.32266 0 0.56132-0.0947 0.72131-0.28533 0.16133-0.18933 0.24-0.47598 0.24-0.85997zm-0.0747-1.4226c0.24799 0.12667 0.43466 0.28933 0.55599 0.49066 0.12399 0.19999 0.18533 0.43865 0.18533 0.71331 0 0.45999-0.16 0.83465-0.48133 1.1253-0.32132 0.29066-0.74398 0.43599-1.264 0.43599-0.49199 0-0.89331-0.14533-1.2093-0.43599-0.31466-0.29066-0.47199-0.65865-0.47199-1.1066 0-0.48799 0.16267-0.87998 0.48799-1.1773 0.32666-0.29733 0.75865-0.44666 1.3013-0.44666 0.108 0 0.30933 8e-3 0.60399 0.024 0.29332 0.016 0.53199 0.0227 0.71465 0.0227 0.17866 0 0.31066-0.0133 0.39999-0.0413 0.088-0.028 0.13466-0.072 0.14133-0.12933h0.14666c-5e-3 0.216-0.0507 0.36533-0.12933 0.44799-0.0813 0.0827-0.22666 0.124-0.43866 0.124-0.0427 0-0.0987-3e-3 -0.16799-8e-3 -0.0693-5e-3 -0.19466-0.0173-0.37466-0.0387" style="fill:#8b5ba5;stroke-width:1.3333"/>
	<path d="m455.36 139.91h13.249v-8.0386h-13.249z" style="fill:#fff;stroke-width:1.3333"/>
	<path d="m458.21 136.29v0.96931h-0.44132v-0.96931h-0.85065v-0.44132h0.85065v-0.96264h0.44132v0.96264h0.84398v0.44132h-0.84398" style="fill:#8b5ba5;stroke-width:1.3333"/>
	<path d="m460.09 137.87v-0.58132h0.53466v-2.6039l-0.53466 0.244v-0.61332l0.71998-0.37599h0.44133v3.3492h0.52665v0.58132h-1.688" style="fill:#8b5ba5;stroke-width:1.3333"/>
	<path d="m465.45 136.61c0-0.50132-0.104-0.89998-0.31066-1.1986-0.208-0.29866-0.48399-0.44666-0.82531-0.44666-0.30133 0-0.53466 0.10533-0.70132 0.31466-0.168 0.21066-0.25066 0.50799-0.25066 0.89198 0 0.46798 0.104 0.84931 0.31199 1.144 0.208 0.29332 0.47999 0.43999 0.81465 0.43999 0.32266 0 0.56132-0.0947 0.72131-0.284 0.16-0.19066 0.24-0.47732 0.24-0.86131zm-0.076-1.4213c0.24933 0.12533 0.43599 0.28933 0.55732 0.48933 0.124 0.20132 0.18533 0.43865 0.18533 0.71464 0 0.45999-0.16 0.83465-0.48132 1.1253-0.32133 0.29066-0.74398 0.43599-1.2653 0.43599-0.49066 0-0.89198-0.14533-1.208-0.43599-0.31466-0.29066-0.47199-0.65998-0.47199-1.108 0-0.48666 0.16266-0.87998 0.48798-1.1773 0.32666-0.29732 0.75865-0.44532 1.3013-0.44532 0.10799 0 0.30932 8e-3 0.60398 0.0227 0.29333 0.016 0.53199 0.024 0.71465 0.024 0.17866 0 0.31066-0.0147 0.39999-0.0427 0.088-0.028 0.13466-0.0707 0.14133-0.12933h0.14666c-5e-3 0.21733-0.0507 0.36666-0.12933 0.44932-0.0813 0.0827-0.22666 0.124-0.43865 0.124-0.044 0-0.1-3e-3 -0.168-9e-3 -0.0693-5e-3 -0.19466-0.0173-0.37599-0.0373" style="fill:#8b5ba5;stroke-width:1.3333"/>
	<path d="m456.07 187.66h13.249v-8.0385h-13.249z" style="fill:#fff;stroke-width:1.3333"/>
	<path d="m457.61 184.19h1.7146v-0.52664h-1.7146z" style="fill:#8b5ba5;stroke-width:1.3333"/>
	<path d="m460.51 185.74v-0.57999h0.53466v-2.6053l-0.53466 0.244v-0.61332l0.71865-0.37599h0.44133v3.3506h0.52798v0.57999h-1.688" style="fill:#8b5ba5;stroke-width:1.3333"/>
	<path d="m465.85 184.47c0-0.50132-0.104-0.89998-0.31199-1.1986-0.20667-0.29866-0.48266-0.44799-0.82532-0.44799-0.29999 0-0.53332 0.10666-0.69998 0.31599-0.168 0.21066-0.25199 0.50799-0.25199 0.89198 0 0.46798 0.10533 0.84931 0.31332 1.144 0.208 0.29332 0.47999 0.43999 0.81465 0.43999 0.32132 0 0.56132-0.0947 0.72131-0.284 0.16-0.19066 0.24-0.47732 0.24-0.86131zm-0.076-1.4213c0.24933 0.12533 0.43466 0.28933 0.55732 0.48933 0.124 0.20132 0.18533 0.43865 0.18533 0.71464 0 0.45999-0.16 0.83465-0.48266 1.1253-0.32132 0.29066-0.74264 0.43599-1.264 0.43599-0.49066 0-0.89332-0.14533-1.208-0.43599-0.31466-0.29066-0.47333-0.65998-0.47333-1.1066 0-0.48799 0.164-0.88131 0.48932-1.1786 0.32666-0.29732 0.75865-0.44532 1.3-0.44532 0.108 0 0.31066 8e-3 0.60399 0.0227 0.29466 0.016 0.53332 0.024 0.71598 0.024 0.17733 0 0.31066-0.0133 0.39866-0.0427 0.0893-0.028 0.13599-0.0707 0.14266-0.12933h0.14666c-7e-3 0.21733-0.0507 0.36666-0.13066 0.44932-0.08 0.0827-0.22533 0.124-0.43866 0.124-0.0427 0-0.0987-3e-3 -0.16799-9e-3 -0.068-5e-3 -0.19333-0.0173-0.37466-0.0373" style="fill:#8b5ba5;stroke-width:1.3333"/>
	<path d="m456.11 211.98h13.249v-8.0398h-13.249z" style="fill:#fff;stroke-width:1.3333"/>
	<path d="m457.71 208.54h1.7133v-0.52795h-1.7133z" style="fill:#8b5ba5;stroke-width:1.3333"/>
	<path d="m460.59 210.08v-0.44132c0-0.47465 0.20533-0.83731 0.71332-1.3386 0.55998-0.55465 0.71865-0.76531 0.71865-1.1346 0-0.33599-0.19333-0.48132-0.50266-0.48132-0.30266 0-0.59865 0.11866-0.92931 0.26933v-0.65199c0.232-0.0853 0.68399-0.21733 0.98131-0.21733 0.65332 0 1.0493 0.28933 1.0493 1.0413 0 0.63999-0.29733 0.98931-0.99464 1.6613-0.292 0.29066-0.41599 0.46266-0.44266 0.71332h1.4973v0.57998h-2.0906" style="fill:#8b5ba5;stroke-width:1.3333"/>
	<path d="m466.28 208.82c0-0.50132-0.10399-0.90131-0.31199-1.2-0.20533-0.29866-0.48132-0.44666-0.82531-0.44666-0.29999 0-0.53465 0.10534-0.70132 0.31466-0.16666 0.21066-0.24932 0.50799-0.24932 0.89198 0 0.46932 0.10399 0.84931 0.31199 1.144 0.20933 0.29333 0.47999 0.43999 0.81598 0.43999 0.31999 0 0.55998-0.0947 0.72131-0.28399 0.15867-0.19066 0.23866-0.47599 0.23866-0.85998zm-0.0747-1.4226c0.24666 0.12533 0.43466 0.28932 0.55732 0.48932 0.12133 0.20133 0.18399 0.43866 0.18399 0.71465 0 0.45999-0.16133 0.83464-0.48132 1.1253-0.32266 0.29066-0.74531 0.43599-1.2653 0.43599-0.48932 0-0.89331-0.14533-1.208-0.43599-0.31599-0.29066-0.47199-0.65998-0.47199-1.1066 0-0.48798 0.16133-0.88131 0.48666-1.1786 0.32799-0.29733 0.76131-0.44532 1.3026-0.44532 0.10667 0 0.30933 8e-3 0.60399 0.0227 0.29466 0.016 0.53065 0.024 0.71331 0.024 0.18 0 0.31199-0.0147 0.40133-0.0427 0.088-0.028 0.13466-0.0707 0.13999-0.12933h0.14933c-8e-3 0.21732-0.052 0.36665-0.13066 0.44932-0.0813 0.0827-0.22933 0.12399-0.43999 0.12399-0.0413 0-0.0987-3e-3 -0.16666-9e-3 -0.0707-4e-3 -0.196-0.0173-0.37466-0.0373" style="fill:#8b5ba5;stroke-width:1.3333"/>
	<path d="m456.17 236.43h13.249v-8.0398h-13.249z" style="fill:#fff;stroke-width:1.3333"/>
	<path d="m457.93 232.66h1.716v-0.52668h-1.716z" style="fill:#8b5ba5;stroke-width:1.3333"/>
	<path d="m461.56 234.9c-0.35599 0-0.70531-0.0987-0.89598-0.17866v-0.63999c0.23733 0.132 0.58666 0.23733 0.84398 0.23733 0.36266 0 0.59865-0.14533 0.59865-0.79198 0-0.66532-0.26799-0.81731-0.65065-0.81731h-0.45598v-0.55332h0.44798c0.35733 0 0.57599-0.12533 0.57599-0.69199 0-0.56132-0.21866-0.65998-0.52399-0.65998-0.25466 0-0.57198 0.092-0.80398 0.204v-0.63332c0.16667-0.0587 0.54932-0.15733 0.85865-0.15733 0.64665 0 1.076 0.21733 1.076 1.2466 0 0.50132-0.12799 0.81065-0.36399 0.96265 0.29066 0.15199 0.45999 0.49332 0.45999 1.0946 0 1.12-0.44799 1.3786-1.1666 1.3786" style="fill:#8b5ba5;stroke-width:1.3333"/>
	<path d="m466.39 232.94c0-0.50132-0.104-0.89998-0.30933-1.1986-0.20799-0.29866-0.48399-0.44666-0.82531-0.44666-0.30266 0-0.53465 0.10534-0.70132 0.31466-0.16933 0.21067-0.25199 0.50799-0.25199 0.89198 0 0.46799 0.104 0.84931 0.31199 1.144 0.20933 0.29333 0.48266 0.43999 0.81598 0.43999 0.32266 0 0.56132-0.0947 0.72132-0.28399 0.16133-0.19066 0.23866-0.47599 0.23866-0.86131zm-0.0747-1.4213c0.24933 0.12533 0.43466 0.28933 0.55732 0.48932 0.124 0.20133 0.184 0.43866 0.184 0.71465 0 0.45999-0.15866 0.83464-0.48132 1.1253-0.32 0.29066-0.74265 0.43599-1.2626 0.43599-0.49199 0-0.89331-0.14533-1.2093-0.43599-0.31466-0.29066-0.47332-0.65998-0.47332-1.1066 0-0.48799 0.16399-0.88132 0.48932-1.1786 0.32532-0.29733 0.75865-0.44532 1.3-0.44532 0.10933 0 0.30932 8e-3 0.60398 0.0227 0.29466 0.016 0.53332 0.024 0.71598 0.024 0.17733 0 0.30933-0.0147 0.39866-0.0427 0.088-0.028 0.13466-0.0707 0.14266-0.12933h0.14667c-5e-3 0.21732-0.0493 0.36665-0.13067 0.44932-0.0813 0.0827-0.22666 0.12399-0.43732 0.12399-0.044 0-0.0987-3e-3 -0.16933-9e-3 -0.068-5e-3 -0.19333-0.0173-0.37466-0.0373" style="fill:#8b5ba5;stroke-width:1.3333"/>
	<path d="m455.89 91.034h13.249v-8.0389h-13.249z" style="fill:#fff;stroke-width:1.3333"/>
	<path d="m458.64 87.541v0.97064h-0.43998v-0.97064h-0.85198v-0.44132h0.85198v-0.96264h0.43998v0.96264h0.84398v0.44132h-0.84398" style="fill:#8b5ba5;stroke-width:1.3333"/>
	<path d="m461.27 89.834c-0.35733 0-0.70665-0.0987-0.89865-0.17866v-0.63999c0.236 0.132 0.58799 0.23733 0.84398 0.23733 0.36399 0 0.60132-0.144 0.60132-0.79065 0-0.66665-0.27066-0.81864-0.65465-0.81864h-0.45466v-0.55332h0.45066c0.35332 0 0.57198-0.12533 0.57198-0.69199 0-0.56132-0.21866-0.65998-0.51998-0.65998-0.25866 0-0.57332 0.092-0.80532 0.20533v-0.63465c0.164-0.05866 0.54666-0.15733 0.85732-0.15733 0.64531 0 1.0746 0.21733 1.0746 1.2466 0 0.50132-0.124 0.81065-0.36133 0.96265 0.28933 0.15199 0.46132 0.49465 0.46132 1.0946 0 1.1213-0.44799 1.3786-1.1666 1.3786" style="fill:#8b5ba5;stroke-width:1.3333"/>
	<path d="m466.09 87.874c0-0.50132-0.104-0.90131-0.31332-1.2-0.20533-0.29733-0.48132-0.44666-0.82532-0.44666-0.29866 0-0.53332 0.10533-0.69998 0.31599-0.16666 0.20933-0.25066 0.50666-0.25066 0.89065 0 0.46932 0.104 0.84931 0.31333 1.144 0.20799 0.29333 0.47865 0.44132 0.81464 0.44132 0.31999 0 0.55999-0.096 0.72132-0.28532 0.15866-0.18933 0.23999-0.47599 0.23999-0.85998zm-0.076-1.4226c0.248 0.12666 0.43466 0.28932 0.55732 0.49065 0.12267 0.2 0.18533 0.43866 0.18533 0.71332 0 0.45998-0.16133 0.83464-0.48265 1.1253-0.32266 0.29066-0.74398 0.43599-1.2653 0.43599-0.48933 0-0.89332-0.14533-1.208-0.43599-0.31466-0.29066-0.47199-0.65998-0.47199-1.1066 0-0.48799 0.16133-0.87998 0.48799-1.1773 0.32799-0.29866 0.75998-0.44666 1.3013-0.44666 0.10666 0 0.31066 8e-3 0.60398 0.024 0.29466 0.01467 0.53199 0.02267 0.71332 0.02267 0.17999 0 0.31332-0.01467 0.40132-0.04266 0.0893-0.028 0.136-0.07067 0.14133-0.12933h0.148c-8e-3 0.21733-0.052 0.36666-0.13067 0.44932-0.08 0.0827-0.22666 0.124-0.43999 0.124-0.0413 0-0.0987-3e-3 -0.16666-8e-3 -0.0693-5e-3 -0.19466-0.0187-0.37466-0.0387" style="fill:#8b5ba5;stroke-width:1.3333"/>
	<g transform="matrix(1.4617 0 0 -1.4617 -47.341 50.897)">
		<g clip-path="url(#fb)">
			<g clip-path="url(#fa)">
				<text transform="matrix(1,0,0,-1,54.333,13.848)" style="fill:#231f20;font-family:Bliss;font-size:7px;font-weight:300">
					<tspan x="0 2.9784999 4.921 8.0318003 10.8696 13.9874 16.489201 18.305 21.4228 23.7076 26.818399 30.1602 31.632999 33.133801 35.635601 37.451401 40.562199 42.377998 45.726799 48.837601 51.024399 53.3092 54.810001 56.8918 58.7076 62.0914 65.209198 67.710999 69.526802 72.910599 76.371399 79.797203 83.223 86.340797 89.458603 91.960403 93.776199 97.160004 100.2778 102.0936 103.5664 105.1232 108.241 110.5258 113.9446 117.3284 120.4462 122.262 124.7638 127.8816 131.3074 134.7262 137.84399 141.26981 143.5546 145.0554 148.1732 149.646 151.1188 154.2366 156.0524 158.0502 159.992 163.1028 166.52859 169.36639 172.4772 173.978 176.4798 179.5976 181.41341 184.7972 187.91499 189.7308 191.2036 194.31441 196.1302 198.968 200.9805 204.4413 205.94209 208.44389 210.94569 214.0565 217.4823 220.3201 223.4379 225.25369 229.2115 230.8033 233.9561 236.38789 237.97971 242.8685 246.1053 249.2581 252.84489 258.27969 261.12799 263.18881 268.6236 271.4726 274.70941 277.82721 283.31799 286.66681 289.78461 0 3.5139999 6.6248002 8.6372995 10.1381 13.2489 15.5337 17.0345 20.4953 23.921101 26.422899 28.238701 31.356501 34.782299 36.598099 39.7159 42.553699 45.664501 47.850601 50.135399 52.637199 55.069 57.353802 60.583599 63.9324 67.050201 69.552002 71.367798 73.428596" y="0 0 0 0 0 0 0 0 0 0 0 0 0 0 0 0 0 0 0 0 0 0 0 0 0 0 0 0 0 0 0 0 0 0 0 0 0 0 0 0 0 0 0 0 0 0 0 0 0 0 0 0 0 0 0 0 0 0 0 0 0 0 0 0 0 0 0 0 0 0 0 0 0 0 0 0 0 0 0 0 0 0 0 0 0 0 0 0 0 0 0 0 0 0 0 0 0 0 0 0 0 0 0 0 0 0 0 8.0003004" style="font-family:Arial;font-weight:normal">Tracés établis à partir des données de l’étude séquentielle française de la croissance CIE-INSERM.(M.Sempé)Variations en écarts-types (</tspan>
				</text>
				<text transform="matrix(1,0,0,-1,129.59,5.8482)" style="fill:#231f20;font-family:Symbol;font-size:8px">
					<tspan x="0" y="0">σ</tspan>
				</text>
				<text transform="matrix(1,0,0,-1,136.23,5.8482)" style="fill:#231f20;font-family:Bliss;font-size:7px;font-weight:300">
					<tspan x="0 2.0608001 3.8766 5.7063999 9.2021999" y="0" style="font-family:Arial;font-weight:normal">) [1</tspan>
				</text>
				<text transform="matrix(1,0,0,-1,147.25,5.8482)" style="fill:#231f20;font-family:Symbol;font-size:8px">
					<tspan x="0" y="0">σ</tspan>
				</text>
				<text transform="matrix(1,0,0,-1,153.89,5.8482)" style="fill:#231f20;font-family:Bliss;font-size:7px;font-weight:300">
					<tspan x="0 4.2735 6.0893002 9.5858002 11.4016 15.7171 18.954599 20.785101 108.1052 109.921 113.2705 116.732 118.2335 121.618" y="0" style="font-family:Arial;font-weight:normal">= 1 DS]</tspan>
				</text>
			</g>
		</g>
	</g>
</svg>
